  0
SECTION
  2
HEADER
  9
$ANGBASE
  50
0.0
  9
$ANGDIR
  70
1
  9
$MEASUREMENT
  70
0
  0
ENDSEC
  0
SECTION
  2
TABLES
  0
TABLE
  2
LTYPE
  70
4
  0
LTYPE
  5
40F
  2
CONTINUOUS
  70
0
  3
Solid line
  72
65
  73
0
  40
0.0
  0
LTYPE
  5
410
  2
DASHDOT
 70
0
  3
Dash Dot ____ _ ____ _
 72
65
 73
4
 40
2.0
 49
1.25
 49
-0.25
 49
0.25
 49
-0.25
  0
LTYPE
  5
411
  2
DASHED
 70
0
  3
Dashed __ __ __ __ __
 72
65
 73
2
 40
0.75
 49
0.5
 49
-0.25
  0
LTYPE
  5
43B
  2
DOTTED
 70
0
  3
Dotted .  .  .  .
 72
65
 73
2
 40
0.2
 49
0.0
 49
-0.2
  0
ENDTAB
  0
TABLE
  2
STYLE
  70
4
  0
STYLE
  2
KICAD
  70
0
  40
0
  41
1
  42
1
  50
0
  71
0
  3
isocp.shx
  0
STYLE
  2
KICADB
  70
0
  40
0
  41
1
  42
1
  50
0
  71
0
  3
isocp.shx
  0
STYLE
  2
KICADI
  70
0
  40
0
  41
1
  42
1
  50
15
  71
0
  3
isocp.shx
  0
STYLE
  2
KICADBI
  70
0
  40
0
  41
1
  42
1
  50
15
  71
0
  3
isocp.shx
  0
ENDTAB
  0
TABLE
  2
LAYER
  70
1
  0
LAYER
  2
BLACK
  70
0
  62
7
  6
CONTINUOUS
  0
ENDTAB
  0
ENDSEC
  0
SECTION
  2
ENTITIES
0
LINE
8
BLACK
6
CONTINUOUS
10
0.552044
20
0.761747
11
0.553157
21
0.760062
0
LINE
8
BLACK
6
CONTINUOUS
10
0.553157
20
0.760062
11
0.552926
21
0.758055
0
LINE
8
BLACK
6
CONTINUOUS
10
0.552926
20
0.758055
11
0.551051
21
0.754306
0
LINE
8
BLACK
6
CONTINUOUS
10
0.551051
20
0.754306
11
0.550525
21
0.753597
0
LINE
8
BLACK
6
CONTINUOUS
10
0.550525
20
0.753597
11
0.550498
21
0.753538
0
LINE
8
BLACK
6
CONTINUOUS
10
0.550498
20
0.753538
11
0.54804
21
0.75108
0
LINE
8
BLACK
6
CONTINUOUS
10
0.54804
20
0.75108
11
0.575454
21
0.75108
0
LINE
8
BLACK
6
CONTINUOUS
10
0.575454
20
0.75108
11
0.575454
21
0.759376
0
LINE
8
BLACK
6
CONTINUOUS
10
0.575454
20
0.759376
11
0.575632
21
0.760386
0
LINE
8
BLACK
6
CONTINUOUS
10
0.575632
20
0.760386
11
0.57693
21
0.761933
0
LINE
8
BLACK
6
CONTINUOUS
10
0.57693
20
0.761933
11
0.578919
21
0.762284
0
LINE
8
BLACK
6
CONTINUOUS
10
0.578919
20
0.762284
11
0.580668
21
0.761274
0
LINE
8
BLACK
6
CONTINUOUS
10
0.580668
20
0.761274
11
0.581359
21
0.759376
0
LINE
8
BLACK
6
CONTINUOUS
10
0.581359
20
0.759376
11
0.581359
21
0.736879
0
LINE
8
BLACK
6
CONTINUOUS
10
0.581359
20
0.736879
11
0.581181
21
0.735869
0
LINE
8
BLACK
6
CONTINUOUS
10
0.581181
20
0.735869
11
0.579883
21
0.734321
0
LINE
8
BLACK
6
CONTINUOUS
10
0.579883
20
0.734321
11
0.577894
21
0.733971
0
LINE
8
BLACK
6
CONTINUOUS
10
0.577894
20
0.733971
11
0.576144
21
0.734981
0
LINE
8
BLACK
6
CONTINUOUS
10
0.576144
20
0.734981
11
0.575454
21
0.736879
0
LINE
8
BLACK
6
CONTINUOUS
10
0.575454
20
0.736879
11
0.575454
21
0.745174
0
LINE
8
BLACK
6
CONTINUOUS
10
0.575454
20
0.745174
11
0.539036
21
0.745174
0
LINE
8
BLACK
6
CONTINUOUS
10
0.539036
20
0.745174
11
0.538026
21
0.745352
0
LINE
8
BLACK
6
CONTINUOUS
10
0.538026
20
0.745352
11
0.537896
21
0.745461
0
LINE
8
BLACK
6
CONTINUOUS
10
0.537896
20
0.745461
11
0.537727
21
0.74548
0
LINE
8
BLACK
6
CONTINUOUS
10
0.537727
20
0.74548
11
0.537136
21
0.7461
0
LINE
8
BLACK
6
CONTINUOUS
10
0.537136
20
0.7461
11
0.536479
21
0.746651
0
LINE
8
BLACK
6
CONTINUOUS
10
0.536479
20
0.746651
11
0.53645
21
0.746818
0
LINE
8
BLACK
6
CONTINUOUS
10
0.53645
20
0.746818
11
0.536332
21
0.746941
0
LINE
8
BLACK
6
CONTINUOUS
10
0.536332
20
0.746941
11
0.536277
21
0.747796
0
LINE
8
BLACK
6
CONTINUOUS
10
0.536277
20
0.747796
11
0.536128
21
0.74864
0
LINE
8
BLACK
6
CONTINUOUS
10
0.536128
20
0.74864
11
0.536213
21
0.748787
0
LINE
8
BLACK
6
CONTINUOUS
10
0.536213
20
0.748787
11
0.536202
21
0.748956
0
LINE
8
BLACK
6
CONTINUOUS
10
0.536202
20
0.748956
11
0.53671
21
0.749647
0
LINE
8
BLACK
6
CONTINUOUS
10
0.53671
20
0.749647
11
0.537138
21
0.750389
0
LINE
8
BLACK
6
CONTINUOUS
10
0.537138
20
0.750389
11
0.537298
21
0.750447
0
LINE
8
BLACK
6
CONTINUOUS
10
0.537298
20
0.750447
11
0.537398
21
0.750584
0
LINE
8
BLACK
6
CONTINUOUS
10
0.537398
20
0.750584
11
0.542779
21
0.754171
0
LINE
8
BLACK
6
CONTINUOUS
10
0.542779
20
0.754171
11
0.545983
21
0.757375
0
LINE
8
BLACK
6
CONTINUOUS
10
0.545983
20
0.757375
11
0.547644
21
0.760696
0
LINE
8
BLACK
6
CONTINUOUS
10
0.547644
20
0.760696
11
0.548255
21
0.76152
0
LINE
8
BLACK
6
CONTINUOUS
10
0.548255
20
0.76152
11
0.550108
21
0.762323
0
LINE
8
BLACK
6
CONTINUOUS
10
0.550108
20
0.762323
11
0.552044
21
0.761747
0
LINE
8
BLACK
6
CONTINUOUS
10
0.540621
20
0.799362
11
0.560518
21
0.7867
0
LINE
8
BLACK
6
CONTINUOUS
10
0.560518
20
0.7867
11
0.578406
21
0.7867
0
LINE
8
BLACK
6
CONTINUOUS
10
0.578406
20
0.7867
11
0.579416
21
0.786522
0
LINE
8
BLACK
6
CONTINUOUS
10
0.579416
20
0.786522
11
0.580963
21
0.785224
0
LINE
8
BLACK
6
CONTINUOUS
10
0.580963
20
0.785224
11
0.581314
21
0.783235
0
LINE
8
BLACK
6
CONTINUOUS
10
0.581314
20
0.783235
11
0.580304
21
0.781486
0
LINE
8
BLACK
6
CONTINUOUS
10
0.580304
20
0.781486
11
0.578406
21
0.780795
0
LINE
8
BLACK
6
CONTINUOUS
10
0.578406
20
0.780795
11
0.560518
21
0.780795
0
LINE
8
BLACK
6
CONTINUOUS
10
0.560518
20
0.780795
11
0.540621
21
0.768133
0
LINE
8
BLACK
6
CONTINUOUS
10
0.540621
20
0.768133
11
0.539674
21
0.767741
0
LINE
8
BLACK
6
CONTINUOUS
10
0.539674
20
0.767741
11
0.537671
21
0.768006
0
LINE
8
BLACK
6
CONTINUOUS
10
0.537671
20
0.768006
11
0.536308
21
0.769496
0
LINE
8
BLACK
6
CONTINUOUS
10
0.536308
20
0.769496
11
0.536221
21
0.771514
0
LINE
8
BLACK
6
CONTINUOUS
10
0.536221
20
0.771514
11
0.537451
21
0.773115
0
LINE
8
BLACK
6
CONTINUOUS
10
0.537451
20
0.773115
11
0.554159
21
0.783748
0
LINE
8
BLACK
6
CONTINUOUS
10
0.554159
20
0.783748
11
0.537451
21
0.79438
0
LINE
8
BLACK
6
CONTINUOUS
10
0.537451
20
0.79438
11
0.536694
21
0.795072
0
LINE
8
BLACK
6
CONTINUOUS
10
0.536694
20
0.795072
11
0.536086
21
0.796998
0
LINE
8
BLACK
6
CONTINUOUS
10
0.536086
20
0.796998
11
0.536858
21
0.798865
0
LINE
8
BLACK
6
CONTINUOUS
10
0.536858
20
0.798865
11
0.538649
21
0.799798
0
LINE
8
BLACK
6
CONTINUOUS
10
0.538649
20
0.799798
11
0.540621
21
0.799362
0
LINE
8
BLACK
6
CONTINUOUS
10
0.589911
20
0.825877
11
0.59004
21
0.8259
0
LINE
8
BLACK
6
CONTINUOUS
10
0.59004
20
0.8259
11
0.590154
21
0.825834
0
LINE
8
BLACK
6
CONTINUOUS
10
0.590154
20
0.825834
11
0.590537
21
0.825767
0
LINE
8
BLACK
6
CONTINUOUS
10
0.590537
20
0.825767
11
0.591125
21
0.825274
0
LINE
8
BLACK
6
CONTINUOUS
10
0.591125
20
0.825274
11
0.591789
21
0.82489
0
LINE
8
BLACK
6
CONTINUOUS
10
0.591789
20
0.82489
11
0.591881
21
0.82464
0
LINE
8
BLACK
6
CONTINUOUS
10
0.591881
20
0.82464
11
0.592085
21
0.824469
0
LINE
8
BLACK
6
CONTINUOUS
10
0.592085
20
0.824469
11
0.592218
21
0.823713
0
LINE
8
BLACK
6
CONTINUOUS
10
0.592218
20
0.823713
11
0.59248
21
0.822992
0
LINE
8
BLACK
6
CONTINUOUS
10
0.59248
20
0.822992
11
0.59248
21
0.697008
0
LINE
8
BLACK
6
CONTINUOUS
10
0.59248
20
0.697008
11
0.592413
21
0.696624
0
LINE
8
BLACK
6
CONTINUOUS
10
0.592413
20
0.696624
11
0.592435
21
0.696495
0
LINE
8
BLACK
6
CONTINUOUS
10
0.592435
20
0.696495
11
0.59237
21
0.696381
0
LINE
8
BLACK
6
CONTINUOUS
10
0.59237
20
0.696381
11
0.592302
21
0.695998
0
LINE
8
BLACK
6
CONTINUOUS
10
0.592302
20
0.695998
11
0.591809
21
0.69541
0
LINE
8
BLACK
6
CONTINUOUS
10
0.591809
20
0.69541
11
0.591426
21
0.694746
0
LINE
8
BLACK
6
CONTINUOUS
10
0.591426
20
0.694746
11
0.591175
21
0.694655
0
LINE
8
BLACK
6
CONTINUOUS
10
0.591175
20
0.694655
11
0.591004
21
0.694451
0
LINE
8
BLACK
6
CONTINUOUS
10
0.591004
20
0.694451
11
0.590248
21
0.694317
0
LINE
8
BLACK
6
CONTINUOUS
10
0.590248
20
0.694317
11
0.589528
21
0.694055
0
LINE
8
BLACK
6
CONTINUOUS
10
0.589528
20
0.694055
11
0.530472
21
0.694055
0
LINE
8
BLACK
6
CONTINUOUS
10
0.530472
20
0.694055
11
0.530089
21
0.694123
0
LINE
8
BLACK
6
CONTINUOUS
10
0.530089
20
0.694123
11
0.52996
21
0.6941
0
LINE
8
BLACK
6
CONTINUOUS
10
0.52996
20
0.6941
11
0.529846
21
0.694166
0
LINE
8
BLACK
6
CONTINUOUS
10
0.529846
20
0.694166
11
0.529463
21
0.694233
0
LINE
8
BLACK
6
CONTINUOUS
10
0.529463
20
0.694233
11
0.528875
21
0.694726
0
LINE
8
BLACK
6
CONTINUOUS
10
0.528875
20
0.694726
11
0.528211
21
0.69511
0
LINE
8
BLACK
6
CONTINUOUS
10
0.528211
20
0.69511
11
0.528119
21
0.69536
0
LINE
8
BLACK
6
CONTINUOUS
10
0.528119
20
0.69536
11
0.527915
21
0.695531
0
LINE
8
BLACK
6
CONTINUOUS
10
0.527915
20
0.695531
11
0.527782
21
0.696287
0
LINE
8
BLACK
6
CONTINUOUS
10
0.527782
20
0.696287
11
0.52752
21
0.697008
0
LINE
8
BLACK
6
CONTINUOUS
10
0.52752
20
0.697008
11
0.52752
21
0.822992
0
LINE
8
BLACK
6
CONTINUOUS
10
0.52752
20
0.822992
11
0.527587
21
0.823376
0
LINE
8
BLACK
6
CONTINUOUS
10
0.527587
20
0.823376
11
0.527565
21
0.823505
0
LINE
8
BLACK
6
CONTINUOUS
10
0.527565
20
0.823505
11
0.52763
21
0.823618
0
LINE
8
BLACK
6
CONTINUOUS
10
0.52763
20
0.823618
11
0.527698
21
0.824002
0
LINE
8
BLACK
6
CONTINUOUS
10
0.527698
20
0.824002
11
0.528191
21
0.82459
0
LINE
8
BLACK
6
CONTINUOUS
10
0.528191
20
0.82459
11
0.528574
21
0.825254
0
LINE
8
BLACK
6
CONTINUOUS
10
0.528574
20
0.825254
11
0.528825
21
0.825345
0
LINE
8
BLACK
6
CONTINUOUS
10
0.528825
20
0.825345
11
0.528996
21
0.825549
0
LINE
8
BLACK
6
CONTINUOUS
10
0.528996
20
0.825549
11
0.529752
21
0.825683
0
LINE
8
BLACK
6
CONTINUOUS
10
0.529752
20
0.825683
11
0.530472
21
0.825945
0
LINE
8
BLACK
6
CONTINUOUS
10
0.530472
20
0.825945
11
0.589528
21
0.825945
0
LINE
8
BLACK
6
CONTINUOUS
10
0.589528
20
0.825945
11
0.589911
21
0.825877
0
LINE
8
BLACK
6
CONTINUOUS
10
0.533425
20
0.820039
11
0.533425
21
0.699961
0
LINE
8
BLACK
6
CONTINUOUS
10
0.533425
20
0.699961
11
0.586575
21
0.699961
0
LINE
8
BLACK
6
CONTINUOUS
10
0.586575
20
0.699961
11
0.586575
21
0.820039
0
LINE
8
BLACK
6
CONTINUOUS
10
0.586575
20
0.820039
11
0.533425
21
0.820039
0
LINE
8
BLACK
6
CONTINUOUS
10
0.959958
20
0.776218
11
0.962165
21
0.773451
0
LINE
8
BLACK
6
CONTINUOUS
10
0.962165
20
0.773451
11
0.962279
21
0.772953
0
LINE
8
BLACK
6
CONTINUOUS
10
0.962279
20
0.772953
11
1
21
0.772953
0
LINE
8
BLACK
6
CONTINUOUS
10
1
20
0.772953
11
1.00101
21
0.772775
0
LINE
8
BLACK
6
CONTINUOUS
10
1.00101
20
0.772775
11
1.00256
21
0.771476
0
LINE
8
BLACK
6
CONTINUOUS
10
1.00256
20
0.771476
11
1.00291
21
0.769487
0
LINE
8
BLACK
6
CONTINUOUS
10
1.00291
20
0.769487
11
1.0019
21
0.767738
0
LINE
8
BLACK
6
CONTINUOUS
10
1.0019
20
0.767738
11
1.00175
21
0.767683
0
LINE
8
BLACK
6
CONTINUOUS
10
1.00175
20
0.767683
11
1.0026
21
0.76733
0
LINE
8
BLACK
6
CONTINUOUS
10
1.0026
20
0.76733
11
1.00323
21
0.76581
0
LINE
8
BLACK
6
CONTINUOUS
10
1.00323
20
0.76581
11
1.00323
21
0.74611
0
LINE
8
BLACK
6
CONTINUOUS
10
1.00323
20
0.74611
11
1.0026
21
0.74459
0
LINE
8
BLACK
6
CONTINUOUS
10
1.0026
20
0.74459
11
1.00108
21
0.74396
0
LINE
8
BLACK
6
CONTINUOUS
10
1.00108
20
0.74396
11
0.999558
21
0.74459
0
LINE
8
BLACK
6
CONTINUOUS
10
0.999558
20
0.74459
11
0.998929
21
0.74611
0
LINE
8
BLACK
6
CONTINUOUS
10
0.998929
20
0.74611
11
0.998929
21
0.754279
0
LINE
8
BLACK
6
CONTINUOUS
10
0.998929
20
0.754279
11
0.994512
21
0.754279
0
LINE
8
BLACK
6
CONTINUOUS
10
0.994512
20
0.754279
11
0.992992
21
0.754909
0
LINE
8
BLACK
6
CONTINUOUS
10
0.992992
20
0.754909
11
0.992362
21
0.756429
0
LINE
8
BLACK
6
CONTINUOUS
10
0.992362
20
0.756429
11
0.992992
21
0.757949
0
LINE
8
BLACK
6
CONTINUOUS
10
0.992992
20
0.757949
11
0.994512
21
0.758579
0
LINE
8
BLACK
6
CONTINUOUS
10
0.994512
20
0.758579
11
0.998929
21
0.758579
0
LINE
8
BLACK
6
CONTINUOUS
10
0.998929
20
0.758579
11
0.998929
21
0.76366
0
LINE
8
BLACK
6
CONTINUOUS
10
0.998929
20
0.76366
11
0.991698
21
0.76366
0
LINE
8
BLACK
6
CONTINUOUS
10
0.991698
20
0.76366
11
0.990177
21
0.76429
0
LINE
8
BLACK
6
CONTINUOUS
10
0.990177
20
0.76429
11
0.989548
21
0.76581
0
LINE
8
BLACK
6
CONTINUOUS
10
0.989548
20
0.76581
11
0.99006
21
0.767047
0
LINE
8
BLACK
6
CONTINUOUS
10
0.99006
20
0.767047
11
0.962953
21
0.767047
0
LINE
8
BLACK
6
CONTINUOUS
10
0.962953
20
0.767047
11
0.962953
21
0.712953
0
LINE
8
BLACK
6
CONTINUOUS
10
0.962953
20
0.712953
11
1
21
0.712953
0
LINE
8
BLACK
6
CONTINUOUS
10
1
20
0.712953
11
1.00101
21
0.712775
0
LINE
8
BLACK
6
CONTINUOUS
10
1.00101
20
0.712775
11
1.00256
21
0.711476
0
LINE
8
BLACK
6
CONTINUOUS
10
1.00256
20
0.711476
11
1.00291
21
0.709487
0
LINE
8
BLACK
6
CONTINUOUS
10
1.00291
20
0.709487
11
1.0019
21
0.707738
0
LINE
8
BLACK
6
CONTINUOUS
10
1.0019
20
0.707738
11
1
21
0.707047
0
LINE
8
BLACK
6
CONTINUOUS
10
1
20
0.707047
11
0.96
21
0.707047
0
LINE
8
BLACK
6
CONTINUOUS
10
0.96
20
0.707047
11
0.959616
21
0.707115
0
LINE
8
BLACK
6
CONTINUOUS
10
0.959616
20
0.707115
11
0.959487
21
0.707092
0
LINE
8
BLACK
6
CONTINUOUS
10
0.959487
20
0.707092
11
0.959374
21
0.707158
0
LINE
8
BLACK
6
CONTINUOUS
10
0.959374
20
0.707158
11
0.95899
21
0.707225
0
LINE
8
BLACK
6
CONTINUOUS
10
0.95899
20
0.707225
11
0.958402
21
0.707718
0
LINE
8
BLACK
6
CONTINUOUS
10
0.958402
20
0.707718
11
0.957738
21
0.708102
0
LINE
8
BLACK
6
CONTINUOUS
10
0.957738
20
0.708102
11
0.957647
21
0.708352
0
LINE
8
BLACK
6
CONTINUOUS
10
0.957647
20
0.708352
11
0.957443
21
0.708524
0
LINE
8
BLACK
6
CONTINUOUS
10
0.957443
20
0.708524
11
0.95731
21
0.709279
0
LINE
8
BLACK
6
CONTINUOUS
10
0.95731
20
0.709279
11
0.957047
21
0.71
0
LINE
8
BLACK
6
CONTINUOUS
10
0.957047
20
0.71
11
0.957047
21
0.76238
0
LINE
8
BLACK
6
CONTINUOUS
10
0.957047
20
0.76238
11
0.95677
21
0.762247
0
LINE
8
BLACK
6
CONTINUOUS
10
0.95677
20
0.762247
11
0.95323
21
0.762247
0
LINE
8
BLACK
6
CONTINUOUS
10
0.95323
20
0.762247
11
0.950042
21
0.763782
0
LINE
8
BLACK
6
CONTINUOUS
10
0.950042
20
0.763782
11
0.947835
21
0.766549
0
LINE
8
BLACK
6
CONTINUOUS
10
0.947835
20
0.766549
11
0.947047
21
0.77
0
LINE
8
BLACK
6
CONTINUOUS
10
0.947047
20
0.77
11
0.947835
21
0.773451
0
LINE
8
BLACK
6
CONTINUOUS
10
0.947835
20
0.773451
11
0.950042
21
0.776218
0
LINE
8
BLACK
6
CONTINUOUS
10
0.950042
20
0.776218
11
0.95323
21
0.777753
0
LINE
8
BLACK
6
CONTINUOUS
10
0.95323
20
0.777753
11
0.95677
21
0.777753
0
LINE
8
BLACK
6
CONTINUOUS
10
0.95677
20
0.777753
11
0.959958
21
0.776218
0
LINE
8
BLACK
6
CONTINUOUS
10
0.953433
20
0.768433
11
0.955
21
0.767784
0
LINE
8
BLACK
6
CONTINUOUS
10
0.955
20
0.767784
11
0.956567
21
0.768433
0
LINE
8
BLACK
6
CONTINUOUS
10
0.956567
20
0.768433
11
0.957047
21
0.769593
0
LINE
8
BLACK
6
CONTINUOUS
10
0.957047
20
0.769593
11
0.957047
21
0.77
0
LINE
8
BLACK
6
CONTINUOUS
10
0.957047
20
0.77
11
0.957098
21
0.770286
0
LINE
8
BLACK
6
CONTINUOUS
10
0.957098
20
0.770286
11
0.956567
21
0.771567
0
LINE
8
BLACK
6
CONTINUOUS
10
0.956567
20
0.771567
11
0.955
21
0.772216
0
LINE
8
BLACK
6
CONTINUOUS
10
0.955
20
0.772216
11
0.953433
21
0.771567
0
LINE
8
BLACK
6
CONTINUOUS
10
0.953433
20
0.771567
11
0.952784
21
0.77
0
LINE
8
BLACK
6
CONTINUOUS
10
0.952784
20
0.77
11
0.953433
21
0.768433
0
LINE
8
BLACK
6
CONTINUOUS
10
1.08038
20
0.772885
11
1.08051
21
0.772908
0
LINE
8
BLACK
6
CONTINUOUS
10
1.08051
20
0.772908
11
1.08063
21
0.772842
0
LINE
8
BLACK
6
CONTINUOUS
10
1.08063
20
0.772842
11
1.08101
21
0.772775
0
LINE
8
BLACK
6
CONTINUOUS
10
1.08101
20
0.772775
11
1.0816
21
0.772282
0
LINE
8
BLACK
6
CONTINUOUS
10
1.0816
20
0.772282
11
1.08226
21
0.771898
0
LINE
8
BLACK
6
CONTINUOUS
10
1.08226
20
0.771898
11
1.08235
21
0.771648
0
LINE
8
BLACK
6
CONTINUOUS
10
1.08235
20
0.771648
11
1.08256
21
0.771476
0
LINE
8
BLACK
6
CONTINUOUS
10
1.08256
20
0.771476
11
1.08269
21
0.770721
0
LINE
8
BLACK
6
CONTINUOUS
10
1.08269
20
0.770721
11
1.08295
21
0.77
0
LINE
8
BLACK
6
CONTINUOUS
10
1.08295
20
0.77
11
1.08295
21
0.71
0
LINE
8
BLACK
6
CONTINUOUS
10
1.08295
20
0.71
11
1.08289
21
0.709616
0
LINE
8
BLACK
6
CONTINUOUS
10
1.08289
20
0.709616
11
1.08291
21
0.709487
0
LINE
8
BLACK
6
CONTINUOUS
10
1.08291
20
0.709487
11
1.08284
21
0.709374
0
LINE
8
BLACK
6
CONTINUOUS
10
1.08284
20
0.709374
11
1.08277
21
0.70899
0
LINE
8
BLACK
6
CONTINUOUS
10
1.08277
20
0.70899
11
1.08228
21
0.708402
0
LINE
8
BLACK
6
CONTINUOUS
10
1.08228
20
0.708402
11
1.0819
21
0.707738
0
LINE
8
BLACK
6
CONTINUOUS
10
1.0819
20
0.707738
11
1.08165
21
0.707647
0
LINE
8
BLACK
6
CONTINUOUS
10
1.08165
20
0.707647
11
1.08148
21
0.707443
0
LINE
8
BLACK
6
CONTINUOUS
10
1.08148
20
0.707443
11
1.08072
21
0.70731
0
LINE
8
BLACK
6
CONTINUOUS
10
1.08072
20
0.70731
11
1.08
21
0.707047
0
LINE
8
BLACK
6
CONTINUOUS
10
1.08
20
0.707047
11
1.04
21
0.707047
0
LINE
8
BLACK
6
CONTINUOUS
10
1.04
20
0.707047
11
1.03899
21
0.707225
0
LINE
8
BLACK
6
CONTINUOUS
10
1.03899
20
0.707225
11
1.03744
21
0.708524
0
LINE
8
BLACK
6
CONTINUOUS
10
1.03744
20
0.708524
11
1.03709
21
0.710513
0
LINE
8
BLACK
6
CONTINUOUS
10
1.03709
20
0.710513
11
1.0381
21
0.712262
0
LINE
8
BLACK
6
CONTINUOUS
10
1.0381
20
0.712262
11
1.04
21
0.712953
0
LINE
8
BLACK
6
CONTINUOUS
10
1.04
20
0.712953
11
1.07705
21
0.712953
0
LINE
8
BLACK
6
CONTINUOUS
10
1.07705
20
0.712953
11
1.07705
21
0.767047
0
LINE
8
BLACK
6
CONTINUOUS
10
1.07705
20
0.767047
11
1.05346
21
0.767047
0
LINE
8
BLACK
6
CONTINUOUS
10
1.05346
20
0.767047
11
1.05352
21
0.767003
0
LINE
8
BLACK
6
CONTINUOUS
10
1.05352
20
0.767003
11
1.05528
21
0.764365
0
LINE
8
BLACK
6
CONTINUOUS
10
1.05528
20
0.764365
11
1.05676
21
0.762886
0
LINE
8
BLACK
6
CONTINUOUS
10
1.05676
20
0.762886
11
1.05833
21
0.762104
0
LINE
8
BLACK
6
CONTINUOUS
10
1.05833
20
0.762104
11
1.0594
21
0.760861
0
LINE
8
BLACK
6
CONTINUOUS
10
1.0594
20
0.760861
11
1.05929
21
0.75922
0
LINE
8
BLACK
6
CONTINUOUS
10
1.05929
20
0.75922
11
1.05804
21
0.758142
0
LINE
8
BLACK
6
CONTINUOUS
10
1.05804
20
0.758142
11
1.0564
21
0.758258
0
LINE
8
BLACK
6
CONTINUOUS
10
1.0564
20
0.758258
11
1.05453
21
0.759197
0
LINE
8
BLACK
6
CONTINUOUS
10
1.05453
20
0.759197
11
1.05429
21
0.759464
0
LINE
8
BLACK
6
CONTINUOUS
10
1.05429
20
0.759464
11
1.05397
21
0.759599
0
LINE
8
BLACK
6
CONTINUOUS
10
1.05397
20
0.759599
11
1.05389
21
0.759681
0
LINE
8
BLACK
6
CONTINUOUS
10
1.05389
20
0.759681
11
1.05389
21
0.74826
0
LINE
8
BLACK
6
CONTINUOUS
10
1.05389
20
0.74826
11
1.05736
21
0.74826
0
LINE
8
BLACK
6
CONTINUOUS
10
1.05736
20
0.74826
11
1.05888
21
0.74763
0
LINE
8
BLACK
6
CONTINUOUS
10
1.05888
20
0.74763
11
1.05951
21
0.74611
0
LINE
8
BLACK
6
CONTINUOUS
10
1.05951
20
0.74611
11
1.05888
21
0.74459
0
LINE
8
BLACK
6
CONTINUOUS
10
1.05888
20
0.74459
11
1.05736
21
0.74396
0
LINE
8
BLACK
6
CONTINUOUS
10
1.05736
20
0.74396
11
1.05174
21
0.74396
0
LINE
8
BLACK
6
CONTINUOUS
10
1.05174
20
0.74396
11
1.04611
21
0.74396
0
LINE
8
BLACK
6
CONTINUOUS
10
1.04611
20
0.74396
11
1.04459
21
0.74459
0
LINE
8
BLACK
6
CONTINUOUS
10
1.04459
20
0.74459
11
1.04396
21
0.74611
0
LINE
8
BLACK
6
CONTINUOUS
10
1.04396
20
0.74611
11
1.04459
21
0.74763
0
LINE
8
BLACK
6
CONTINUOUS
10
1.04459
20
0.74763
11
1.04611
21
0.74826
0
LINE
8
BLACK
6
CONTINUOUS
10
1.04611
20
0.74826
11
1.04959
21
0.74826
0
LINE
8
BLACK
6
CONTINUOUS
10
1.04959
20
0.74826
11
1.04959
21
0.76581
0
LINE
8
BLACK
6
CONTINUOUS
10
1.04959
20
0.76581
11
1.04967
21
0.766015
0
LINE
8
BLACK
6
CONTINUOUS
10
1.04967
20
0.766015
11
1.04963
21
0.766232
0
LINE
8
BLACK
6
CONTINUOUS
10
1.04963
20
0.766232
11
1.04998
21
0.766752
0
LINE
8
BLACK
6
CONTINUOUS
10
1.04998
20
0.766752
11
1.0501
21
0.767047
0
LINE
8
BLACK
6
CONTINUOUS
10
1.0501
20
0.767047
11
1.04
21
0.767047
0
LINE
8
BLACK
6
CONTINUOUS
10
1.04
20
0.767047
11
1.03899
21
0.767225
0
LINE
8
BLACK
6
CONTINUOUS
10
1.03899
20
0.767225
11
1.03744
21
0.768524
0
LINE
8
BLACK
6
CONTINUOUS
10
1.03744
20
0.768524
11
1.03709
21
0.770513
0
LINE
8
BLACK
6
CONTINUOUS
10
1.03709
20
0.770513
11
1.0381
21
0.772262
0
LINE
8
BLACK
6
CONTINUOUS
10
1.0381
20
0.772262
11
1.04
21
0.772953
0
LINE
8
BLACK
6
CONTINUOUS
10
1.04
20
0.772953
11
1.08
21
0.772953
0
LINE
8
BLACK
6
CONTINUOUS
10
1.08
20
0.772953
11
1.08038
21
0.772885
0
LINE
8
BLACK
6
CONTINUOUS
10
1.01343
20
0.740268
11
1.01393
21
0.740233
0
LINE
8
BLACK
6
CONTINUOUS
10
1.01393
20
0.740233
11
1.0158
21
0.739295
0
LINE
8
BLACK
6
CONTINUOUS
10
1.0158
20
0.739295
11
1.01603
21
0.739028
0
LINE
8
BLACK
6
CONTINUOUS
10
1.01603
20
0.739028
11
1.01636
21
0.738892
0
LINE
8
BLACK
6
CONTINUOUS
10
1.01636
20
0.738892
11
1.0173
21
0.737954
0
LINE
8
BLACK
6
CONTINUOUS
10
1.0173
20
0.737954
11
1.01793
21
0.736434
0
LINE
8
BLACK
6
CONTINUOUS
10
1.01793
20
0.736434
11
1.0173
21
0.734914
0
LINE
8
BLACK
6
CONTINUOUS
10
1.0173
20
0.734914
11
1.01578
21
0.734284
0
LINE
8
BLACK
6
CONTINUOUS
10
1.01578
20
0.734284
11
1.01426
21
0.734914
0
LINE
8
BLACK
6
CONTINUOUS
10
1.01426
20
0.734914
11
1.01357
21
0.735605
0
LINE
8
BLACK
6
CONTINUOUS
10
1.01357
20
0.735605
11
1.01246
21
0.73616
0
LINE
8
BLACK
6
CONTINUOUS
10
1.01246
20
0.73616
11
1.00878
21
0.73616
0
LINE
8
BLACK
6
CONTINUOUS
10
1.00878
20
0.73616
11
1.00767
21
0.735605
0
LINE
8
BLACK
6
CONTINUOUS
10
1.00767
20
0.735605
11
1.00723
21
0.73516
0
LINE
8
BLACK
6
CONTINUOUS
10
1.00723
20
0.73516
11
1.00667
21
0.73405
0
LINE
8
BLACK
6
CONTINUOUS
10
1.00667
20
0.73405
11
1.00667
21
0.73303
0
LINE
8
BLACK
6
CONTINUOUS
10
1.00667
20
0.73303
11
1.00734
21
0.731028
0
LINE
8
BLACK
6
CONTINUOUS
10
1.00734
20
0.731028
11
1.01824
21
0.72013
0
LINE
8
BLACK
6
CONTINUOUS
10
1.01824
20
0.72013
11
1.01887
21
0.71861
0
LINE
8
BLACK
6
CONTINUOUS
10
1.01887
20
0.71861
11
1.01824
21
0.71709
0
LINE
8
BLACK
6
CONTINUOUS
10
1.01824
20
0.71709
11
1.01672
21
0.71646
0
LINE
8
BLACK
6
CONTINUOUS
10
1.01672
20
0.71646
11
1.00452
21
0.71646
0
LINE
8
BLACK
6
CONTINUOUS
10
1.00452
20
0.71646
11
1.003
21
0.71709
0
LINE
8
BLACK
6
CONTINUOUS
10
1.003
20
0.71709
11
1.00237
21
0.71861
0
LINE
8
BLACK
6
CONTINUOUS
10
1.00237
20
0.71861
11
1.003
21
0.72013
0
LINE
8
BLACK
6
CONTINUOUS
10
1.003
20
0.72013
11
1.00452
21
0.72076
0
LINE
8
BLACK
6
CONTINUOUS
10
1.00452
20
0.72076
11
1.01153
21
0.72076
0
LINE
8
BLACK
6
CONTINUOUS
10
1.01153
20
0.72076
11
1.00394
21
0.728347
0
LINE
8
BLACK
6
CONTINUOUS
10
1.00394
20
0.728347
11
1.00375
21
0.728809
0
LINE
8
BLACK
6
CONTINUOUS
10
1.00375
20
0.728809
11
1.00342
21
0.729187
0
LINE
8
BLACK
6
CONTINUOUS
10
1.00342
20
0.729187
11
1.00248
21
0.732002
0
LINE
8
BLACK
6
CONTINUOUS
10
1.00248
20
0.732002
11
1.00251
21
0.732354
0
LINE
8
BLACK
6
CONTINUOUS
10
1.00251
20
0.732354
11
1.00237
21
0.732681
0
LINE
8
BLACK
6
CONTINUOUS
10
1.00237
20
0.732681
11
1.00237
21
0.734558
0
LINE
8
BLACK
6
CONTINUOUS
10
1.00237
20
0.734558
11
1.00256
21
0.73502
0
LINE
8
BLACK
6
CONTINUOUS
10
1.00256
20
0.73502
11
1.0026
21
0.735519
0
LINE
8
BLACK
6
CONTINUOUS
10
1.0026
20
0.735519
11
1.00354
21
0.737395
0
LINE
8
BLACK
6
CONTINUOUS
10
1.00354
20
0.737395
11
1.0038
21
0.737627
0
LINE
8
BLACK
6
CONTINUOUS
10
1.0038
20
0.737627
11
1.00394
21
0.737954
0
LINE
8
BLACK
6
CONTINUOUS
10
1.00394
20
0.737954
11
1.00488
21
0.738892
0
LINE
8
BLACK
6
CONTINUOUS
10
1.00488
20
0.738892
11
1.0052
21
0.739028
0
LINE
8
BLACK
6
CONTINUOUS
10
1.0052
20
0.739028
11
1.00544
21
0.739295
0
LINE
8
BLACK
6
CONTINUOUS
10
1.00544
20
0.739295
11
1.00731
21
0.740233
0
LINE
8
BLACK
6
CONTINUOUS
10
1.00731
20
0.740233
11
1.00781
21
0.740268
0
LINE
8
BLACK
6
CONTINUOUS
10
1.00781
20
0.740268
11
1.00827
21
0.74046
0
LINE
8
BLACK
6
CONTINUOUS
10
1.00827
20
0.74046
11
1.01296
21
0.74046
0
LINE
8
BLACK
6
CONTINUOUS
10
1.01296
20
0.74046
11
1.01343
21
0.740268
0
LINE
8
BLACK
6
CONTINUOUS
10
1.02924
20
0.740325
11
1.02959
21
0.74035
0
LINE
8
BLACK
6
CONTINUOUS
10
1.02959
20
0.74035
11
1.03241
21
0.739412
0
LINE
8
BLACK
6
CONTINUOUS
10
1.03241
20
0.739412
11
1.03278
21
0.739084
0
LINE
8
BLACK
6
CONTINUOUS
10
1.03278
20
0.739084
11
1.03325
21
0.738892
0
LINE
8
BLACK
6
CONTINUOUS
10
1.03325
20
0.738892
11
1.03512
21
0.737016
0
LINE
8
BLACK
6
CONTINUOUS
10
1.03512
20
0.737016
11
1.03526
21
0.736689
0
LINE
8
BLACK
6
CONTINUOUS
10
1.03526
20
0.736689
11
1.03553
21
0.736457
0
LINE
8
BLACK
6
CONTINUOUS
10
1.03553
20
0.736457
11
1.03646
21
0.734581
0
LINE
8
BLACK
6
CONTINUOUS
10
1.03646
20
0.734581
11
1.03648
21
0.734337
0
LINE
8
BLACK
6
CONTINUOUS
10
1.03648
20
0.734337
11
1.03663
21
0.734141
0
LINE
8
BLACK
6
CONTINUOUS
10
1.03663
20
0.734141
11
1.03756
21
0.730389
0
LINE
8
BLACK
6
CONTINUOUS
10
1.03756
20
0.730389
11
1.03752
21
0.730119
0
LINE
8
BLACK
6
CONTINUOUS
10
1.03752
20
0.730119
11
1.03763
21
0.729867
0
LINE
8
BLACK
6
CONTINUOUS
10
1.03763
20
0.729867
11
1.03763
21
0.727053
0
LINE
8
BLACK
6
CONTINUOUS
10
1.03763
20
0.727053
11
1.03752
21
0.726801
0
LINE
8
BLACK
6
CONTINUOUS
10
1.03752
20
0.726801
11
1.03756
21
0.726531
0
LINE
8
BLACK
6
CONTINUOUS
10
1.03756
20
0.726531
11
1.03663
21
0.722779
0
LINE
8
BLACK
6
CONTINUOUS
10
1.03663
20
0.722779
11
1.03648
21
0.722583
0
LINE
8
BLACK
6
CONTINUOUS
10
1.03648
20
0.722583
11
1.03646
21
0.722339
0
LINE
8
BLACK
6
CONTINUOUS
10
1.03646
20
0.722339
11
1.03553
21
0.720463
0
LINE
8
BLACK
6
CONTINUOUS
10
1.03553
20
0.720463
11
1.03526
21
0.720231
0
LINE
8
BLACK
6
CONTINUOUS
10
1.03526
20
0.720231
11
1.03512
21
0.719904
0
LINE
8
BLACK
6
CONTINUOUS
10
1.03512
20
0.719904
11
1.03325
21
0.718028
0
LINE
8
BLACK
6
CONTINUOUS
10
1.03325
20
0.718028
11
1.03278
21
0.717836
0
LINE
8
BLACK
6
CONTINUOUS
10
1.03278
20
0.717836
11
1.03241
21
0.717508
0
LINE
8
BLACK
6
CONTINUOUS
10
1.03241
20
0.717508
11
1.02959
21
0.71657
0
LINE
8
BLACK
6
CONTINUOUS
10
1.02959
20
0.71657
11
1.02924
21
0.716595
0
LINE
8
BLACK
6
CONTINUOUS
10
1.02924
20
0.716595
11
1.02891
21
0.71646
0
LINE
8
BLACK
6
CONTINUOUS
10
1.02891
20
0.71646
11
1.02704
21
0.71646
0
LINE
8
BLACK
6
CONTINUOUS
10
1.02704
20
0.71646
11
1.02671
21
0.716595
0
LINE
8
BLACK
6
CONTINUOUS
10
1.02671
20
0.716595
11
1.02636
21
0.71657
0
LINE
8
BLACK
6
CONTINUOUS
10
1.02636
20
0.71657
11
1.02354
21
0.717508
0
LINE
8
BLACK
6
CONTINUOUS
10
1.02354
20
0.717508
11
1.02316
21
0.717836
0
LINE
8
BLACK
6
CONTINUOUS
10
1.02316
20
0.717836
11
1.0227
21
0.718028
0
LINE
8
BLACK
6
CONTINUOUS
10
1.0227
20
0.718028
11
1.02176
21
0.718966
0
LINE
8
BLACK
6
CONTINUOUS
10
1.02176
20
0.718966
11
1.02113
21
0.720486
0
LINE
8
BLACK
6
CONTINUOUS
10
1.02113
20
0.720486
11
1.02176
21
0.722006
0
LINE
8
BLACK
6
CONTINUOUS
10
1.02176
20
0.722006
11
1.02328
21
0.722636
0
LINE
8
BLACK
6
CONTINUOUS
10
1.02328
20
0.722636
11
1.0248
21
0.722006
0
LINE
8
BLACK
6
CONTINUOUS
10
1.0248
20
0.722006
11
1.02538
21
0.721427
0
LINE
8
BLACK
6
CONTINUOUS
10
1.02538
20
0.721427
11
1.02738
21
0.72076
0
LINE
8
BLACK
6
CONTINUOUS
10
1.02738
20
0.72076
11
1.02856
21
0.72076
0
LINE
8
BLACK
6
CONTINUOUS
10
1.02856
20
0.72076
11
1.03056
21
0.721427
0
LINE
8
BLACK
6
CONTINUOUS
10
1.03056
20
0.721427
11
1.03184
21
0.722698
0
LINE
8
BLACK
6
CONTINUOUS
10
1.03184
20
0.722698
11
1.03251
21
0.724051
0
LINE
8
BLACK
6
CONTINUOUS
10
1.03251
20
0.724051
11
1.03333
21
0.727318
0
LINE
8
BLACK
6
CONTINUOUS
10
1.03333
20
0.727318
11
1.03333
21
0.729602
0
LINE
8
BLACK
6
CONTINUOUS
10
1.03333
20
0.729602
11
1.03251
21
0.732869
0
LINE
8
BLACK
6
CONTINUOUS
10
1.03251
20
0.732869
11
1.03184
21
0.734222
0
LINE
8
BLACK
6
CONTINUOUS
10
1.03184
20
0.734222
11
1.03056
21
0.735493
0
LINE
8
BLACK
6
CONTINUOUS
10
1.03056
20
0.735493
11
1.02856
21
0.73616
0
LINE
8
BLACK
6
CONTINUOUS
10
1.02856
20
0.73616
11
1.02738
21
0.73616
0
LINE
8
BLACK
6
CONTINUOUS
10
1.02738
20
0.73616
11
1.02538
21
0.735493
0
LINE
8
BLACK
6
CONTINUOUS
10
1.02538
20
0.735493
11
1.0248
21
0.734914
0
LINE
8
BLACK
6
CONTINUOUS
10
1.0248
20
0.734914
11
1.02328
21
0.734284
0
LINE
8
BLACK
6
CONTINUOUS
10
1.02328
20
0.734284
11
1.02176
21
0.734914
0
LINE
8
BLACK
6
CONTINUOUS
10
1.02176
20
0.734914
11
1.02113
21
0.736434
0
LINE
8
BLACK
6
CONTINUOUS
10
1.02113
20
0.736434
11
1.02176
21
0.737954
0
LINE
8
BLACK
6
CONTINUOUS
10
1.02176
20
0.737954
11
1.0227
21
0.738892
0
LINE
8
BLACK
6
CONTINUOUS
10
1.0227
20
0.738892
11
1.02316
21
0.739084
0
LINE
8
BLACK
6
CONTINUOUS
10
1.02316
20
0.739084
11
1.02354
21
0.739412
0
LINE
8
BLACK
6
CONTINUOUS
10
1.02354
20
0.739412
11
1.02636
21
0.74035
0
LINE
8
BLACK
6
CONTINUOUS
10
1.02636
20
0.74035
11
1.02671
21
0.740325
0
LINE
8
BLACK
6
CONTINUOUS
10
1.02671
20
0.740325
11
1.02704
21
0.74046
0
LINE
8
BLACK
6
CONTINUOUS
10
1.02704
20
0.74046
11
1.02891
21
0.74046
0
LINE
8
BLACK
6
CONTINUOUS
10
1.02891
20
0.74046
11
1.02924
21
0.740325
0
LINE
8
BLACK
6
CONTINUOUS
10
0.740037
20
0.763893
11
0.740207
21
0.763904
0
LINE
8
BLACK
6
CONTINUOUS
10
0.740207
20
0.763904
11
0.740897
21
0.763397
0
LINE
8
BLACK
6
CONTINUOUS
10
0.740897
20
0.763397
11
0.741639
21
0.762968
0
LINE
8
BLACK
6
CONTINUOUS
10
0.741639
20
0.762968
11
0.741698
21
0.762809
0
LINE
8
BLACK
6
CONTINUOUS
10
0.741698
20
0.762809
11
0.741834
21
0.762708
0
LINE
8
BLACK
6
CONTINUOUS
10
0.741834
20
0.762708
11
0.745422
21
0.757327
0
LINE
8
BLACK
6
CONTINUOUS
10
0.745422
20
0.757327
11
0.748626
21
0.754123
0
LINE
8
BLACK
6
CONTINUOUS
10
0.748626
20
0.754123
11
0.751947
21
0.752463
0
LINE
8
BLACK
6
CONTINUOUS
10
0.751947
20
0.752463
11
0.75277
21
0.751852
0
LINE
8
BLACK
6
CONTINUOUS
10
0.75277
20
0.751852
11
0.753574
21
0.749998
0
LINE
8
BLACK
6
CONTINUOUS
10
0.753574
20
0.749998
11
0.752998
21
0.748062
0
LINE
8
BLACK
6
CONTINUOUS
10
0.752998
20
0.748062
11
0.751312
21
0.74695
0
LINE
8
BLACK
6
CONTINUOUS
10
0.751312
20
0.74695
11
0.749306
21
0.74718
0
LINE
8
BLACK
6
CONTINUOUS
10
0.749306
20
0.74718
11
0.745556
21
0.749055
0
LINE
8
BLACK
6
CONTINUOUS
10
0.745556
20
0.749055
11
0.744847
21
0.749581
0
LINE
8
BLACK
6
CONTINUOUS
10
0.744847
20
0.749581
11
0.744789
21
0.749608
0
LINE
8
BLACK
6
CONTINUOUS
10
0.744789
20
0.749608
11
0.74233
21
0.752067
0
LINE
8
BLACK
6
CONTINUOUS
10
0.74233
20
0.752067
11
0.74233
21
0.724653
0
LINE
8
BLACK
6
CONTINUOUS
10
0.74233
20
0.724653
11
0.750626
21
0.724653
0
LINE
8
BLACK
6
CONTINUOUS
10
0.750626
20
0.724653
11
0.751636
21
0.724475
0
LINE
8
BLACK
6
CONTINUOUS
10
0.751636
20
0.724475
11
0.753183
21
0.723176
0
LINE
8
BLACK
6
CONTINUOUS
10
0.753183
20
0.723176
11
0.753534
21
0.721187
0
LINE
8
BLACK
6
CONTINUOUS
10
0.753534
20
0.721187
11
0.752524
21
0.719438
0
LINE
8
BLACK
6
CONTINUOUS
10
0.752524
20
0.719438
11
0.750626
21
0.718747
0
LINE
8
BLACK
6
CONTINUOUS
10
0.750626
20
0.718747
11
0.728129
21
0.718747
0
LINE
8
BLACK
6
CONTINUOUS
10
0.728129
20
0.718747
11
0.727119
21
0.718925
0
LINE
8
BLACK
6
CONTINUOUS
10
0.727119
20
0.718925
11
0.725572
21
0.720224
0
LINE
8
BLACK
6
CONTINUOUS
10
0.725572
20
0.720224
11
0.725221
21
0.722213
0
LINE
8
BLACK
6
CONTINUOUS
10
0.725221
20
0.722213
11
0.726231
21
0.723962
0
LINE
8
BLACK
6
CONTINUOUS
10
0.726231
20
0.723962
11
0.728129
21
0.724653
0
LINE
8
BLACK
6
CONTINUOUS
10
0.728129
20
0.724653
11
0.736425
21
0.724653
0
LINE
8
BLACK
6
CONTINUOUS
10
0.736425
20
0.724653
11
0.736425
21
0.76107
0
LINE
8
BLACK
6
CONTINUOUS
10
0.736425
20
0.76107
11
0.736603
21
0.76208
0
LINE
8
BLACK
6
CONTINUOUS
10
0.736603
20
0.76208
11
0.736712
21
0.76221
0
LINE
8
BLACK
6
CONTINUOUS
10
0.736712
20
0.76221
11
0.736731
21
0.762379
0
LINE
8
BLACK
6
CONTINUOUS
10
0.736731
20
0.762379
11
0.73735
21
0.762971
0
LINE
8
BLACK
6
CONTINUOUS
10
0.73735
20
0.762971
11
0.737901
21
0.763627
0
LINE
8
BLACK
6
CONTINUOUS
10
0.737901
20
0.763627
11
0.738068
21
0.763657
0
LINE
8
BLACK
6
CONTINUOUS
10
0.738068
20
0.763657
11
0.738191
21
0.763774
0
LINE
8
BLACK
6
CONTINUOUS
10
0.738191
20
0.763774
11
0.739046
21
0.763829
0
LINE
8
BLACK
6
CONTINUOUS
10
0.739046
20
0.763829
11
0.73989
21
0.763978
0
LINE
8
BLACK
6
CONTINUOUS
10
0.73989
20
0.763978
11
0.740037
21
0.763893
0
LINE
8
BLACK
6
CONTINUOUS
10
0.792258
20
0.762968
11
0.792949
21
0.76107
0
LINE
8
BLACK
6
CONTINUOUS
10
0.792949
20
0.76107
11
0.792949
21
0.729199
0
LINE
8
BLACK
6
CONTINUOUS
10
0.792949
20
0.729199
11
0.792771
21
0.728189
0
LINE
8
BLACK
6
CONTINUOUS
10
0.792771
20
0.728189
11
0.792657
21
0.728054
0
LINE
8
BLACK
6
CONTINUOUS
10
0.792657
20
0.728054
11
0.792637
21
0.727879
0
LINE
8
BLACK
6
CONTINUOUS
10
0.792637
20
0.727879
11
0.790762
21
0.724129
0
LINE
8
BLACK
6
CONTINUOUS
10
0.790762
20
0.724129
11
0.790237
21
0.72342
0
LINE
8
BLACK
6
CONTINUOUS
10
0.790237
20
0.72342
11
0.790209
21
0.723362
0
LINE
8
BLACK
6
CONTINUOUS
10
0.790209
20
0.723362
11
0.788335
21
0.721487
0
LINE
8
BLACK
6
CONTINUOUS
10
0.788335
20
0.721487
11
0.787612
21
0.720981
0
LINE
8
BLACK
6
CONTINUOUS
10
0.787612
20
0.720981
11
0.787567
21
0.720934
0
LINE
8
BLACK
6
CONTINUOUS
10
0.787567
20
0.720934
11
0.783818
21
0.719059
0
LINE
8
BLACK
6
CONTINUOUS
10
0.783818
20
0.719059
11
0.782835
21
0.718767
0
LINE
8
BLACK
6
CONTINUOUS
10
0.782835
20
0.718767
11
0.782663
21
0.718808
0
LINE
8
BLACK
6
CONTINUOUS
10
0.782663
20
0.718808
11
0.782497
21
0.718747
0
LINE
8
BLACK
6
CONTINUOUS
10
0.782497
20
0.718747
11
0.774998
21
0.718747
0
LINE
8
BLACK
6
CONTINUOUS
10
0.774998
20
0.718747
11
0.773988
21
0.718925
0
LINE
8
BLACK
6
CONTINUOUS
10
0.773988
20
0.718925
11
0.773853
21
0.719039
0
LINE
8
BLACK
6
CONTINUOUS
10
0.773853
20
0.719039
11
0.773678
21
0.719059
0
LINE
8
BLACK
6
CONTINUOUS
10
0.773678
20
0.719059
11
0.769928
21
0.720934
0
LINE
8
BLACK
6
CONTINUOUS
10
0.769928
20
0.720934
11
0.769219
21
0.72146
0
LINE
8
BLACK
6
CONTINUOUS
10
0.769219
20
0.72146
11
0.769161
21
0.721487
0
LINE
8
BLACK
6
CONTINUOUS
10
0.769161
20
0.721487
11
0.767286
21
0.723362
0
LINE
8
BLACK
6
CONTINUOUS
10
0.767286
20
0.723362
11
0.76678
21
0.724085
0
LINE
8
BLACK
6
CONTINUOUS
10
0.76678
20
0.724085
11
0.766733
21
0.724129
0
LINE
8
BLACK
6
CONTINUOUS
10
0.766733
20
0.724129
11
0.764858
21
0.727879
0
LINE
8
BLACK
6
CONTINUOUS
10
0.764858
20
0.727879
11
0.764566
21
0.728862
0
LINE
8
BLACK
6
CONTINUOUS
10
0.764566
20
0.728862
11
0.764607
21
0.729033
0
LINE
8
BLACK
6
CONTINUOUS
10
0.764607
20
0.729033
11
0.764546
21
0.729199
0
LINE
8
BLACK
6
CONTINUOUS
10
0.764546
20
0.729199
11
0.764546
21
0.76107
0
LINE
8
BLACK
6
CONTINUOUS
10
0.764546
20
0.76107
11
0.764724
21
0.76208
0
LINE
8
BLACK
6
CONTINUOUS
10
0.764724
20
0.76208
11
0.766023
21
0.763627
0
LINE
8
BLACK
6
CONTINUOUS
10
0.766023
20
0.763627
11
0.768012
21
0.763978
0
LINE
8
BLACK
6
CONTINUOUS
10
0.768012
20
0.763978
11
0.769761
21
0.762968
0
LINE
8
BLACK
6
CONTINUOUS
10
0.769761
20
0.762968
11
0.770452
21
0.76107
0
LINE
8
BLACK
6
CONTINUOUS
10
0.770452
20
0.76107
11
0.770452
21
0.729896
0
LINE
8
BLACK
6
CONTINUOUS
10
0.770452
20
0.729896
11
0.771801
21
0.727199
0
LINE
8
BLACK
6
CONTINUOUS
10
0.771801
20
0.727199
11
0.772998
21
0.726002
0
LINE
8
BLACK
6
CONTINUOUS
10
0.772998
20
0.726002
11
0.775695
21
0.724653
0
LINE
8
BLACK
6
CONTINUOUS
10
0.775695
20
0.724653
11
0.7818
21
0.724653
0
LINE
8
BLACK
6
CONTINUOUS
10
0.7818
20
0.724653
11
0.784498
21
0.726001
0
LINE
8
BLACK
6
CONTINUOUS
10
0.784498
20
0.726001
11
0.785695
21
0.727199
0
LINE
8
BLACK
6
CONTINUOUS
10
0.785695
20
0.727199
11
0.787043
21
0.729896
0
LINE
8
BLACK
6
CONTINUOUS
10
0.787043
20
0.729896
11
0.787043
21
0.76107
0
LINE
8
BLACK
6
CONTINUOUS
10
0.787043
20
0.76107
11
0.787222
21
0.76208
0
LINE
8
BLACK
6
CONTINUOUS
10
0.787222
20
0.76208
11
0.78852
21
0.763627
0
LINE
8
BLACK
6
CONTINUOUS
10
0.78852
20
0.763627
11
0.790509
21
0.763978
0
LINE
8
BLACK
6
CONTINUOUS
10
0.790509
20
0.763978
11
0.792258
21
0.762968
0
LINE
8
BLACK
6
CONTINUOUS
10
1.02042
20
0.760764
11
1.02105
21
0.759243
0
LINE
8
BLACK
6
CONTINUOUS
10
1.02105
20
0.759243
11
1.02105
21
0.748924
0
LINE
8
BLACK
6
CONTINUOUS
10
1.02105
20
0.748924
11
1.02086
21
0.748462
0
LINE
8
BLACK
6
CONTINUOUS
10
1.02086
20
0.748462
11
1.02083
21
0.747963
0
LINE
8
BLACK
6
CONTINUOUS
10
1.02083
20
0.747963
11
1.01989
21
0.746087
0
LINE
8
BLACK
6
CONTINUOUS
10
1.01989
20
0.746087
11
1.01937
21
0.74564
0
LINE
8
BLACK
6
CONTINUOUS
10
1.01937
20
0.74564
11
1.01893
21
0.745125
0
LINE
8
BLACK
6
CONTINUOUS
10
1.01893
20
0.745125
11
1.01705
21
0.744187
0
LINE
8
BLACK
6
CONTINUOUS
10
1.01705
20
0.744187
11
1.01655
21
0.744151
0
LINE
8
BLACK
6
CONTINUOUS
10
1.01655
20
0.744151
11
1.01609
21
0.74396
0
LINE
8
BLACK
6
CONTINUOUS
10
1.01609
20
0.74396
11
1.01327
21
0.74396
0
LINE
8
BLACK
6
CONTINUOUS
10
1.01327
20
0.74396
11
1.01281
21
0.744151
0
LINE
8
BLACK
6
CONTINUOUS
10
1.01281
20
0.744151
11
1.01231
21
0.744187
0
LINE
8
BLACK
6
CONTINUOUS
10
1.01231
20
0.744187
11
1.01172
21
0.744483
0
LINE
8
BLACK
6
CONTINUOUS
10
1.01172
20
0.744483
11
1.01046
21
0.74396
0
LINE
8
BLACK
6
CONTINUOUS
10
1.01046
20
0.74396
11
1.00894
21
0.74459
0
LINE
8
BLACK
6
CONTINUOUS
10
1.00894
20
0.74459
11
1.00831
21
0.74611
0
LINE
8
BLACK
6
CONTINUOUS
10
1.00831
20
0.74611
11
1.00831
21
0.759243
0
LINE
8
BLACK
6
CONTINUOUS
10
1.00831
20
0.759243
11
1.00894
21
0.760764
0
LINE
8
BLACK
6
CONTINUOUS
10
1.00894
20
0.760764
11
1.01046
21
0.761393
0
LINE
8
BLACK
6
CONTINUOUS
10
1.01046
20
0.761393
11
1.01198
21
0.760764
0
LINE
8
BLACK
6
CONTINUOUS
10
1.01198
20
0.760764
11
1.01261
21
0.759243
0
LINE
8
BLACK
6
CONTINUOUS
10
1.01261
20
0.759243
11
1.01261
21
0.748877
0
LINE
8
BLACK
6
CONTINUOUS
10
1.01261
20
0.748877
11
1.01267
21
0.748815
0
LINE
8
BLACK
6
CONTINUOUS
10
1.01267
20
0.748815
11
1.01378
21
0.74826
0
LINE
8
BLACK
6
CONTINUOUS
10
1.01378
20
0.74826
11
1.01558
21
0.74826
0
LINE
8
BLACK
6
CONTINUOUS
10
1.01558
20
0.74826
11
1.01636
21
0.748651
0
LINE
8
BLACK
6
CONTINUOUS
10
1.01636
20
0.748651
11
1.01675
21
0.749432
0
LINE
8
BLACK
6
CONTINUOUS
10
1.01675
20
0.749432
11
1.01675
21
0.759243
0
LINE
8
BLACK
6
CONTINUOUS
10
1.01675
20
0.759243
11
1.01738
21
0.760764
0
LINE
8
BLACK
6
CONTINUOUS
10
1.01738
20
0.760764
11
1.0189
21
0.761393
0
LINE
8
BLACK
6
CONTINUOUS
10
1.0189
20
0.761393
11
1.02042
21
0.760764
0
LINE
8
BLACK
6
CONTINUOUS
10
1.03437
20
0.767768
11
1.03487
21
0.767733
0
LINE
8
BLACK
6
CONTINUOUS
10
1.03487
20
0.767733
11
1.03675
21
0.766795
0
LINE
8
BLACK
6
CONTINUOUS
10
1.03675
20
0.766795
11
1.03698
21
0.766528
0
LINE
8
BLACK
6
CONTINUOUS
10
1.03698
20
0.766528
11
1.03731
21
0.766392
0
LINE
8
BLACK
6
CONTINUOUS
10
1.03731
20
0.766392
11
1.03825
21
0.765454
0
LINE
8
BLACK
6
CONTINUOUS
10
1.03825
20
0.765454
11
1.03838
21
0.765127
0
LINE
8
BLACK
6
CONTINUOUS
10
1.03838
20
0.765127
11
1.03865
21
0.764895
0
LINE
8
BLACK
6
CONTINUOUS
10
1.03865
20
0.764895
11
1.03959
21
0.763019
0
LINE
8
BLACK
6
CONTINUOUS
10
1.03959
20
0.763019
11
1.0396
21
0.762775
0
LINE
8
BLACK
6
CONTINUOUS
10
1.0396
20
0.762775
11
1.03975
21
0.762579
0
LINE
8
BLACK
6
CONTINUOUS
10
1.03975
20
0.762579
11
1.04069
21
0.758827
0
LINE
8
BLACK
6
CONTINUOUS
10
1.04069
20
0.758827
11
1.04065
21
0.758557
0
LINE
8
BLACK
6
CONTINUOUS
10
1.04065
20
0.758557
11
1.04075
21
0.758305
0
LINE
8
BLACK
6
CONTINUOUS
10
1.04075
20
0.758305
11
1.04075
21
0.753615
0
LINE
8
BLACK
6
CONTINUOUS
10
1.04075
20
0.753615
11
1.04065
21
0.753363
0
LINE
8
BLACK
6
CONTINUOUS
10
1.04065
20
0.753363
11
1.04069
21
0.753093
0
LINE
8
BLACK
6
CONTINUOUS
10
1.04069
20
0.753093
11
1.03975
21
0.749341
0
LINE
8
BLACK
6
CONTINUOUS
10
1.03975
20
0.749341
11
1.0396
21
0.749145
0
LINE
8
BLACK
6
CONTINUOUS
10
1.0396
20
0.749145
11
1.03959
21
0.748901
0
LINE
8
BLACK
6
CONTINUOUS
10
1.03959
20
0.748901
11
1.03865
21
0.747025
0
LINE
8
BLACK
6
CONTINUOUS
10
1.03865
20
0.747025
11
1.03838
21
0.746793
0
LINE
8
BLACK
6
CONTINUOUS
10
1.03838
20
0.746793
11
1.03825
21
0.746466
0
LINE
8
BLACK
6
CONTINUOUS
10
1.03825
20
0.746466
11
1.03731
21
0.745528
0
LINE
8
BLACK
6
CONTINUOUS
10
1.03731
20
0.745528
11
1.03698
21
0.745392
0
LINE
8
BLACK
6
CONTINUOUS
10
1.03698
20
0.745392
11
1.03675
21
0.745125
0
LINE
8
BLACK
6
CONTINUOUS
10
1.03675
20
0.745125
11
1.03487
21
0.744187
0
LINE
8
BLACK
6
CONTINUOUS
10
1.03487
20
0.744187
11
1.03437
21
0.744151
0
LINE
8
BLACK
6
CONTINUOUS
10
1.03437
20
0.744151
11
1.03391
21
0.74396
0
LINE
8
BLACK
6
CONTINUOUS
10
1.03391
20
0.74396
11
1.03204
21
0.74396
0
LINE
8
BLACK
6
CONTINUOUS
10
1.03204
20
0.74396
11
1.03157
21
0.744151
0
LINE
8
BLACK
6
CONTINUOUS
10
1.03157
20
0.744151
11
1.03107
21
0.744187
0
LINE
8
BLACK
6
CONTINUOUS
10
1.03107
20
0.744187
11
1.0292
21
0.745125
0
LINE
8
BLACK
6
CONTINUOUS
10
1.0292
20
0.745125
11
1.02897
21
0.745392
0
LINE
8
BLACK
6
CONTINUOUS
10
1.02897
20
0.745392
11
1.02864
21
0.745528
0
LINE
8
BLACK
6
CONTINUOUS
10
1.02864
20
0.745528
11
1.0277
21
0.746466
0
LINE
8
BLACK
6
CONTINUOUS
10
1.0277
20
0.746466
11
1.02757
21
0.746793
0
LINE
8
BLACK
6
CONTINUOUS
10
1.02757
20
0.746793
11
1.0273
21
0.747025
0
LINE
8
BLACK
6
CONTINUOUS
10
1.0273
20
0.747025
11
1.02636
21
0.748901
0
LINE
8
BLACK
6
CONTINUOUS
10
1.02636
20
0.748901
11
1.02634
21
0.749145
0
LINE
8
BLACK
6
CONTINUOUS
10
1.02634
20
0.749145
11
1.0262
21
0.749341
0
LINE
8
BLACK
6
CONTINUOUS
10
1.0262
20
0.749341
11
1.02526
21
0.753093
0
LINE
8
BLACK
6
CONTINUOUS
10
1.02526
20
0.753093
11
1.0253
21
0.753363
0
LINE
8
BLACK
6
CONTINUOUS
10
1.0253
20
0.753363
11
1.0252
21
0.753615
0
LINE
8
BLACK
6
CONTINUOUS
10
1.0252
20
0.753615
11
1.0252
21
0.758305
0
LINE
8
BLACK
6
CONTINUOUS
10
1.0252
20
0.758305
11
1.0253
21
0.758557
0
LINE
8
BLACK
6
CONTINUOUS
10
1.0253
20
0.758557
11
1.02526
21
0.758827
0
LINE
8
BLACK
6
CONTINUOUS
10
1.02526
20
0.758827
11
1.0262
21
0.762579
0
LINE
8
BLACK
6
CONTINUOUS
10
1.0262
20
0.762579
11
1.02634
21
0.762775
0
LINE
8
BLACK
6
CONTINUOUS
10
1.02634
20
0.762775
11
1.02636
21
0.763019
0
LINE
8
BLACK
6
CONTINUOUS
10
1.02636
20
0.763019
11
1.0273
21
0.764895
0
LINE
8
BLACK
6
CONTINUOUS
10
1.0273
20
0.764895
11
1.02757
21
0.765127
0
LINE
8
BLACK
6
CONTINUOUS
10
1.02757
20
0.765127
11
1.0277
21
0.765454
0
LINE
8
BLACK
6
CONTINUOUS
10
1.0277
20
0.765454
11
1.02864
21
0.766392
0
LINE
8
BLACK
6
CONTINUOUS
10
1.02864
20
0.766392
11
1.02897
21
0.766528
0
LINE
8
BLACK
6
CONTINUOUS
10
1.02897
20
0.766528
11
1.0292
21
0.766795
0
LINE
8
BLACK
6
CONTINUOUS
10
1.0292
20
0.766795
11
1.03107
21
0.767733
0
LINE
8
BLACK
6
CONTINUOUS
10
1.03107
20
0.767733
11
1.03157
21
0.767768
0
LINE
8
BLACK
6
CONTINUOUS
10
1.03157
20
0.767768
11
1.03204
21
0.76796
0
LINE
8
BLACK
6
CONTINUOUS
10
1.03204
20
0.76796
11
1.03391
21
0.76796
0
LINE
8
BLACK
6
CONTINUOUS
10
1.03391
20
0.76796
11
1.03437
21
0.767768
0
LINE
8
BLACK
6
CONTINUOUS
10
1.03143
20
0.763105
11
1.03099
21
0.76266
0
LINE
8
BLACK
6
CONTINUOUS
10
1.03099
20
0.76266
11
1.03031
21
0.761307
0
LINE
8
BLACK
6
CONTINUOUS
10
1.03031
20
0.761307
11
1.0295
21
0.75804
0
LINE
8
BLACK
6
CONTINUOUS
10
1.0295
20
0.75804
11
1.0295
21
0.753879
0
LINE
8
BLACK
6
CONTINUOUS
10
1.0295
20
0.753879
11
1.03031
21
0.750613
0
LINE
8
BLACK
6
CONTINUOUS
10
1.03031
20
0.750613
11
1.03099
21
0.74926
0
LINE
8
BLACK
6
CONTINUOUS
10
1.03099
20
0.74926
11
1.03143
21
0.748815
0
LINE
8
BLACK
6
CONTINUOUS
10
1.03143
20
0.748815
11
1.03254
21
0.74826
0
LINE
8
BLACK
6
CONTINUOUS
10
1.03254
20
0.74826
11
1.0334
21
0.74826
0
LINE
8
BLACK
6
CONTINUOUS
10
1.0334
20
0.74826
11
1.03451
21
0.748815
0
LINE
8
BLACK
6
CONTINUOUS
10
1.03451
20
0.748815
11
1.03496
21
0.74926
0
LINE
8
BLACK
6
CONTINUOUS
10
1.03496
20
0.74926
11
1.03564
21
0.750613
0
LINE
8
BLACK
6
CONTINUOUS
10
1.03564
20
0.750613
11
1.03645
21
0.753879
0
LINE
8
BLACK
6
CONTINUOUS
10
1.03645
20
0.753879
11
1.03645
21
0.75804
0
LINE
8
BLACK
6
CONTINUOUS
10
1.03645
20
0.75804
11
1.03564
21
0.761307
0
LINE
8
BLACK
6
CONTINUOUS
10
1.03564
20
0.761307
11
1.03496
21
0.76266
0
LINE
8
BLACK
6
CONTINUOUS
10
1.03496
20
0.76266
11
1.03451
21
0.763105
0
LINE
8
BLACK
6
CONTINUOUS
10
1.03451
20
0.763105
11
1.0334
21
0.76366
0
LINE
8
BLACK
6
CONTINUOUS
10
1.0334
20
0.76366
11
1.03254
21
0.76366
0
LINE
8
BLACK
6
CONTINUOUS
10
1.03254
20
0.76366
11
1.03143
21
0.763105
0
LINE
8
BLACK
6
CONTINUOUS
10
0.826238
20
0.788748
11
0.826929
21
0.78685
0
LINE
8
BLACK
6
CONTINUOUS
10
0.826929
20
0.78685
11
0.826929
21
0.776024
0
LINE
8
BLACK
6
CONTINUOUS
10
0.826929
20
0.776024
11
0.826861
21
0.77564
0
LINE
8
BLACK
6
CONTINUOUS
10
0.826861
20
0.77564
11
0.826884
21
0.775511
0
LINE
8
BLACK
6
CONTINUOUS
10
0.826884
20
0.775511
11
0.826819
21
0.775397
0
LINE
8
BLACK
6
CONTINUOUS
10
0.826819
20
0.775397
11
0.826751
21
0.775014
0
LINE
8
BLACK
6
CONTINUOUS
10
0.826751
20
0.775014
11
0.826258
21
0.774426
0
LINE
8
BLACK
6
CONTINUOUS
10
0.826258
20
0.774426
11
0.825874
21
0.773762
0
LINE
8
BLACK
6
CONTINUOUS
10
0.825874
20
0.773762
11
0.825624
21
0.773671
0
LINE
8
BLACK
6
CONTINUOUS
10
0.825624
20
0.773671
11
0.825453
21
0.773466
0
LINE
8
BLACK
6
CONTINUOUS
10
0.825453
20
0.773466
11
0.824697
21
0.773333
0
LINE
8
BLACK
6
CONTINUOUS
10
0.824697
20
0.773333
11
0.823976
21
0.773071
0
LINE
8
BLACK
6
CONTINUOUS
10
0.823976
20
0.773071
11
0.696024
21
0.773071
0
LINE
8
BLACK
6
CONTINUOUS
10
0.696024
20
0.773071
11
0.69564
21
0.773138
0
LINE
8
BLACK
6
CONTINUOUS
10
0.69564
20
0.773138
11
0.695511
21
0.773116
0
LINE
8
BLACK
6
CONTINUOUS
10
0.695511
20
0.773116
11
0.695397
21
0.773181
0
LINE
8
BLACK
6
CONTINUOUS
10
0.695397
20
0.773181
11
0.695014
21
0.773249
0
LINE
8
BLACK
6
CONTINUOUS
10
0.695014
20
0.773249
11
0.694426
21
0.773742
0
LINE
8
BLACK
6
CONTINUOUS
10
0.694426
20
0.773742
11
0.693762
21
0.774126
0
LINE
8
BLACK
6
CONTINUOUS
10
0.693762
20
0.774126
11
0.693671
21
0.774376
0
LINE
8
BLACK
6
CONTINUOUS
10
0.693671
20
0.774376
11
0.693466
21
0.774547
0
LINE
8
BLACK
6
CONTINUOUS
10
0.693466
20
0.774547
11
0.693333
21
0.775303
0
LINE
8
BLACK
6
CONTINUOUS
10
0.693333
20
0.775303
11
0.693071
21
0.776024
0
LINE
8
BLACK
6
CONTINUOUS
10
0.693071
20
0.776024
11
0.693071
21
0.779961
0
LINE
8
BLACK
6
CONTINUOUS
10
0.693071
20
0.779961
11
0.653701
21
0.779961
0
LINE
8
BLACK
6
CONTINUOUS
10
0.653701
20
0.779961
11
0.652691
21
0.780139
0
LINE
8
BLACK
6
CONTINUOUS
10
0.652691
20
0.780139
11
0.651144
21
0.781437
0
LINE
8
BLACK
6
CONTINUOUS
10
0.651144
20
0.781437
11
0.650793
21
0.783426
0
LINE
8
BLACK
6
CONTINUOUS
10
0.650793
20
0.783426
11
0.651803
21
0.785175
0
LINE
8
BLACK
6
CONTINUOUS
10
0.651803
20
0.785175
11
0.653701
21
0.785866
0
LINE
8
BLACK
6
CONTINUOUS
10
0.653701
20
0.785866
11
0.696024
21
0.785866
0
LINE
8
BLACK
6
CONTINUOUS
10
0.696024
20
0.785866
11
0.696407
21
0.785799
0
LINE
8
BLACK
6
CONTINUOUS
10
0.696407
20
0.785799
11
0.696536
21
0.785821
0
LINE
8
BLACK
6
CONTINUOUS
10
0.696536
20
0.785821
11
0.69665
21
0.785756
0
LINE
8
BLACK
6
CONTINUOUS
10
0.69665
20
0.785756
11
0.697034
21
0.785688
0
LINE
8
BLACK
6
CONTINUOUS
10
0.697034
20
0.785688
11
0.697621
21
0.785195
0
LINE
8
BLACK
6
CONTINUOUS
10
0.697621
20
0.785195
11
0.698286
21
0.784811
0
LINE
8
BLACK
6
CONTINUOUS
10
0.698286
20
0.784811
11
0.698377
21
0.784561
0
LINE
8
BLACK
6
CONTINUOUS
10
0.698377
20
0.784561
11
0.698581
21
0.78439
0
LINE
8
BLACK
6
CONTINUOUS
10
0.698581
20
0.78439
11
0.698714
21
0.783634
0
LINE
8
BLACK
6
CONTINUOUS
10
0.698714
20
0.783634
11
0.698976
21
0.782913
0
LINE
8
BLACK
6
CONTINUOUS
10
0.698976
20
0.782913
11
0.698976
21
0.778976
0
LINE
8
BLACK
6
CONTINUOUS
10
0.698976
20
0.778976
11
0.821024
21
0.778976
0
LINE
8
BLACK
6
CONTINUOUS
10
0.821024
20
0.778976
11
0.821024
21
0.78685
0
LINE
8
BLACK
6
CONTINUOUS
10
0.821024
20
0.78685
11
0.821202
21
0.78786
0
LINE
8
BLACK
6
CONTINUOUS
10
0.821202
20
0.78786
11
0.8225
21
0.789408
0
LINE
8
BLACK
6
CONTINUOUS
10
0.8225
20
0.789408
11
0.824489
21
0.789758
0
LINE
8
BLACK
6
CONTINUOUS
10
0.824489
20
0.789758
11
0.826238
21
0.788748
0
LINE
8
BLACK
6
CONTINUOUS
10
0.959958
20
0.856218
11
0.962165
21
0.853451
0
LINE
8
BLACK
6
CONTINUOUS
10
0.962165
20
0.853451
11
0.962279
21
0.852953
0
LINE
8
BLACK
6
CONTINUOUS
10
0.962279
20
0.852953
11
1
21
0.852953
0
LINE
8
BLACK
6
CONTINUOUS
10
1
20
0.852953
11
1.00101
21
0.852775
0
LINE
8
BLACK
6
CONTINUOUS
10
1.00101
20
0.852775
11
1.00256
21
0.851476
0
LINE
8
BLACK
6
CONTINUOUS
10
1.00256
20
0.851476
11
1.00291
21
0.849487
0
LINE
8
BLACK
6
CONTINUOUS
10
1.00291
20
0.849487
11
1.0019
21
0.847738
0
LINE
8
BLACK
6
CONTINUOUS
10
1.0019
20
0.847738
11
1
21
0.847047
0
LINE
8
BLACK
6
CONTINUOUS
10
1
20
0.847047
11
0.993335
21
0.847047
0
LINE
8
BLACK
6
CONTINUOUS
10
0.993335
20
0.847047
11
0.993848
21
0.84581
0
LINE
8
BLACK
6
CONTINUOUS
10
0.993848
20
0.84581
11
0.993848
21
0.82611
0
LINE
8
BLACK
6
CONTINUOUS
10
0.993848
20
0.82611
11
0.993218
21
0.82459
0
LINE
8
BLACK
6
CONTINUOUS
10
0.993218
20
0.82459
11
0.991698
21
0.82396
0
LINE
8
BLACK
6
CONTINUOUS
10
0.991698
20
0.82396
11
0.990177
21
0.82459
0
LINE
8
BLACK
6
CONTINUOUS
10
0.990177
20
0.82459
11
0.989548
21
0.82611
0
LINE
8
BLACK
6
CONTINUOUS
10
0.989548
20
0.82611
11
0.989548
21
0.834279
0
LINE
8
BLACK
6
CONTINUOUS
10
0.989548
20
0.834279
11
0.985131
21
0.834279
0
LINE
8
BLACK
6
CONTINUOUS
10
0.985131
20
0.834279
11
0.983611
21
0.834909
0
LINE
8
BLACK
6
CONTINUOUS
10
0.983611
20
0.834909
11
0.982981
21
0.836429
0
LINE
8
BLACK
6
CONTINUOUS
10
0.982981
20
0.836429
11
0.983611
21
0.837949
0
LINE
8
BLACK
6
CONTINUOUS
10
0.983611
20
0.837949
11
0.985131
21
0.838579
0
LINE
8
BLACK
6
CONTINUOUS
10
0.985131
20
0.838579
11
0.989548
21
0.838579
0
LINE
8
BLACK
6
CONTINUOUS
10
0.989548
20
0.838579
11
0.989548
21
0.84366
0
LINE
8
BLACK
6
CONTINUOUS
10
0.989548
20
0.84366
11
0.982317
21
0.84366
0
LINE
8
BLACK
6
CONTINUOUS
10
0.982317
20
0.84366
11
0.980796
21
0.84429
0
LINE
8
BLACK
6
CONTINUOUS
10
0.980796
20
0.84429
11
0.980167
21
0.84581
0
LINE
8
BLACK
6
CONTINUOUS
10
0.980167
20
0.84581
11
0.980679
21
0.847047
0
LINE
8
BLACK
6
CONTINUOUS
10
0.980679
20
0.847047
11
0.962953
21
0.847047
0
LINE
8
BLACK
6
CONTINUOUS
10
0.962953
20
0.847047
11
0.962953
21
0.792953
0
LINE
8
BLACK
6
CONTINUOUS
10
0.962953
20
0.792953
11
1
21
0.792953
0
LINE
8
BLACK
6
CONTINUOUS
10
1
20
0.792953
11
1.00101
21
0.792775
0
LINE
8
BLACK
6
CONTINUOUS
10
1.00101
20
0.792775
11
1.00256
21
0.791476
0
LINE
8
BLACK
6
CONTINUOUS
10
1.00256
20
0.791476
11
1.00291
21
0.789487
0
LINE
8
BLACK
6
CONTINUOUS
10
1.00291
20
0.789487
11
1.0019
21
0.787738
0
LINE
8
BLACK
6
CONTINUOUS
10
1.0019
20
0.787738
11
1
21
0.787047
0
LINE
8
BLACK
6
CONTINUOUS
10
1
20
0.787047
11
0.96
21
0.787047
0
LINE
8
BLACK
6
CONTINUOUS
10
0.96
20
0.787047
11
0.959616
21
0.787115
0
LINE
8
BLACK
6
CONTINUOUS
10
0.959616
20
0.787115
11
0.959487
21
0.787092
0
LINE
8
BLACK
6
CONTINUOUS
10
0.959487
20
0.787092
11
0.959374
21
0.787158
0
LINE
8
BLACK
6
CONTINUOUS
10
0.959374
20
0.787158
11
0.95899
21
0.787225
0
LINE
8
BLACK
6
CONTINUOUS
10
0.95899
20
0.787225
11
0.958402
21
0.787718
0
LINE
8
BLACK
6
CONTINUOUS
10
0.958402
20
0.787718
11
0.957738
21
0.788102
0
LINE
8
BLACK
6
CONTINUOUS
10
0.957738
20
0.788102
11
0.957647
21
0.788352
0
LINE
8
BLACK
6
CONTINUOUS
10
0.957647
20
0.788352
11
0.957443
21
0.788524
0
LINE
8
BLACK
6
CONTINUOUS
10
0.957443
20
0.788524
11
0.95731
21
0.789279
0
LINE
8
BLACK
6
CONTINUOUS
10
0.95731
20
0.789279
11
0.957047
21
0.79
0
LINE
8
BLACK
6
CONTINUOUS
10
0.957047
20
0.79
11
0.957047
21
0.84238
0
LINE
8
BLACK
6
CONTINUOUS
10
0.957047
20
0.84238
11
0.95677
21
0.842247
0
LINE
8
BLACK
6
CONTINUOUS
10
0.95677
20
0.842247
11
0.95323
21
0.842247
0
LINE
8
BLACK
6
CONTINUOUS
10
0.95323
20
0.842247
11
0.950042
21
0.843782
0
LINE
8
BLACK
6
CONTINUOUS
10
0.950042
20
0.843782
11
0.947835
21
0.846549
0
LINE
8
BLACK
6
CONTINUOUS
10
0.947835
20
0.846549
11
0.947047
21
0.85
0
LINE
8
BLACK
6
CONTINUOUS
10
0.947047
20
0.85
11
0.947835
21
0.853451
0
LINE
8
BLACK
6
CONTINUOUS
10
0.947835
20
0.853451
11
0.950042
21
0.856218
0
LINE
8
BLACK
6
CONTINUOUS
10
0.950042
20
0.856218
11
0.95323
21
0.857753
0
LINE
8
BLACK
6
CONTINUOUS
10
0.95323
20
0.857753
11
0.95677
21
0.857753
0
LINE
8
BLACK
6
CONTINUOUS
10
0.95677
20
0.857753
11
0.959958
21
0.856218
0
LINE
8
BLACK
6
CONTINUOUS
10
0.953433
20
0.848433
11
0.955
21
0.847784
0
LINE
8
BLACK
6
CONTINUOUS
10
0.955
20
0.847784
11
0.956567
21
0.848433
0
LINE
8
BLACK
6
CONTINUOUS
10
0.956567
20
0.848433
11
0.957047
21
0.849593
0
LINE
8
BLACK
6
CONTINUOUS
10
0.957047
20
0.849593
11
0.957047
21
0.85
0
LINE
8
BLACK
6
CONTINUOUS
10
0.957047
20
0.85
11
0.957098
21
0.850286
0
LINE
8
BLACK
6
CONTINUOUS
10
0.957098
20
0.850286
11
0.956567
21
0.851567
0
LINE
8
BLACK
6
CONTINUOUS
10
0.956567
20
0.851567
11
0.955
21
0.852216
0
LINE
8
BLACK
6
CONTINUOUS
10
0.955
20
0.852216
11
0.953433
21
0.851567
0
LINE
8
BLACK
6
CONTINUOUS
10
0.953433
20
0.851567
11
0.952784
21
0.85
0
LINE
8
BLACK
6
CONTINUOUS
10
0.952784
20
0.85
11
0.953433
21
0.848433
0
LINE
8
BLACK
6
CONTINUOUS
10
1.08038
20
0.852885
11
1.08051
21
0.852908
0
LINE
8
BLACK
6
CONTINUOUS
10
1.08051
20
0.852908
11
1.08063
21
0.852842
0
LINE
8
BLACK
6
CONTINUOUS
10
1.08063
20
0.852842
11
1.08101
21
0.852775
0
LINE
8
BLACK
6
CONTINUOUS
10
1.08101
20
0.852775
11
1.0816
21
0.852282
0
LINE
8
BLACK
6
CONTINUOUS
10
1.0816
20
0.852282
11
1.08226
21
0.851898
0
LINE
8
BLACK
6
CONTINUOUS
10
1.08226
20
0.851898
11
1.08235
21
0.851648
0
LINE
8
BLACK
6
CONTINUOUS
10
1.08235
20
0.851648
11
1.08256
21
0.851476
0
LINE
8
BLACK
6
CONTINUOUS
10
1.08256
20
0.851476
11
1.08269
21
0.850721
0
LINE
8
BLACK
6
CONTINUOUS
10
1.08269
20
0.850721
11
1.08295
21
0.85
0
LINE
8
BLACK
6
CONTINUOUS
10
1.08295
20
0.85
11
1.08295
21
0.79
0
LINE
8
BLACK
6
CONTINUOUS
10
1.08295
20
0.79
11
1.08289
21
0.789616
0
LINE
8
BLACK
6
CONTINUOUS
10
1.08289
20
0.789616
11
1.08291
21
0.789487
0
LINE
8
BLACK
6
CONTINUOUS
10
1.08291
20
0.789487
11
1.08284
21
0.789374
0
LINE
8
BLACK
6
CONTINUOUS
10
1.08284
20
0.789374
11
1.08277
21
0.78899
0
LINE
8
BLACK
6
CONTINUOUS
10
1.08277
20
0.78899
11
1.08228
21
0.788402
0
LINE
8
BLACK
6
CONTINUOUS
10
1.08228
20
0.788402
11
1.0819
21
0.787738
0
LINE
8
BLACK
6
CONTINUOUS
10
1.0819
20
0.787738
11
1.08165
21
0.787647
0
LINE
8
BLACK
6
CONTINUOUS
10
1.08165
20
0.787647
11
1.08148
21
0.787443
0
LINE
8
BLACK
6
CONTINUOUS
10
1.08148
20
0.787443
11
1.08072
21
0.78731
0
LINE
8
BLACK
6
CONTINUOUS
10
1.08072
20
0.78731
11
1.08
21
0.787047
0
LINE
8
BLACK
6
CONTINUOUS
10
1.08
20
0.787047
11
1.04
21
0.787047
0
LINE
8
BLACK
6
CONTINUOUS
10
1.04
20
0.787047
11
1.03899
21
0.787225
0
LINE
8
BLACK
6
CONTINUOUS
10
1.03899
20
0.787225
11
1.03744
21
0.788524
0
LINE
8
BLACK
6
CONTINUOUS
10
1.03744
20
0.788524
11
1.03709
21
0.790513
0
LINE
8
BLACK
6
CONTINUOUS
10
1.03709
20
0.790513
11
1.0381
21
0.792262
0
LINE
8
BLACK
6
CONTINUOUS
10
1.0381
20
0.792262
11
1.04
21
0.792953
0
LINE
8
BLACK
6
CONTINUOUS
10
1.04
20
0.792953
11
1.07705
21
0.792953
0
LINE
8
BLACK
6
CONTINUOUS
10
1.07705
20
0.792953
11
1.07705
21
0.847047
0
LINE
8
BLACK
6
CONTINUOUS
10
1.07705
20
0.847047
11
1.06284
21
0.847047
0
LINE
8
BLACK
6
CONTINUOUS
10
1.06284
20
0.847047
11
1.06291
21
0.847003
0
LINE
8
BLACK
6
CONTINUOUS
10
1.06291
20
0.847003
11
1.06466
21
0.844365
0
LINE
8
BLACK
6
CONTINUOUS
10
1.06466
20
0.844365
11
1.06614
21
0.842886
0
LINE
8
BLACK
6
CONTINUOUS
10
1.06614
20
0.842886
11
1.06771
21
0.842104
0
LINE
8
BLACK
6
CONTINUOUS
10
1.06771
20
0.842104
11
1.06878
21
0.840861
0
LINE
8
BLACK
6
CONTINUOUS
10
1.06878
20
0.840861
11
1.06867
21
0.83922
0
LINE
8
BLACK
6
CONTINUOUS
10
1.06867
20
0.83922
11
1.06743
21
0.838142
0
LINE
8
BLACK
6
CONTINUOUS
10
1.06743
20
0.838142
11
1.06578
21
0.838258
0
LINE
8
BLACK
6
CONTINUOUS
10
1.06578
20
0.838258
11
1.06391
21
0.839197
0
LINE
8
BLACK
6
CONTINUOUS
10
1.06391
20
0.839197
11
1.06368
21
0.839464
0
LINE
8
BLACK
6
CONTINUOUS
10
1.06368
20
0.839464
11
1.06335
21
0.839599
0
LINE
8
BLACK
6
CONTINUOUS
10
1.06335
20
0.839599
11
1.06327
21
0.839681
0
LINE
8
BLACK
6
CONTINUOUS
10
1.06327
20
0.839681
11
1.06327
21
0.82826
0
LINE
8
BLACK
6
CONTINUOUS
10
1.06327
20
0.82826
11
1.06675
21
0.82826
0
LINE
8
BLACK
6
CONTINUOUS
10
1.06675
20
0.82826
11
1.06827
21
0.82763
0
LINE
8
BLACK
6
CONTINUOUS
10
1.06827
20
0.82763
11
1.0689
21
0.82611
0
LINE
8
BLACK
6
CONTINUOUS
10
1.0689
20
0.82611
11
1.06827
21
0.82459
0
LINE
8
BLACK
6
CONTINUOUS
10
1.06827
20
0.82459
11
1.06675
21
0.82396
0
LINE
8
BLACK
6
CONTINUOUS
10
1.06675
20
0.82396
11
1.06112
21
0.82396
0
LINE
8
BLACK
6
CONTINUOUS
10
1.06112
20
0.82396
11
1.05549
21
0.82396
0
LINE
8
BLACK
6
CONTINUOUS
10
1.05549
20
0.82396
11
1.05397
21
0.82459
0
LINE
8
BLACK
6
CONTINUOUS
10
1.05397
20
0.82459
11
1.05334
21
0.82611
0
LINE
8
BLACK
6
CONTINUOUS
10
1.05334
20
0.82611
11
1.05397
21
0.82763
0
LINE
8
BLACK
6
CONTINUOUS
10
1.05397
20
0.82763
11
1.05549
21
0.82826
0
LINE
8
BLACK
6
CONTINUOUS
10
1.05549
20
0.82826
11
1.05897
21
0.82826
0
LINE
8
BLACK
6
CONTINUOUS
10
1.05897
20
0.82826
11
1.05897
21
0.84581
0
LINE
8
BLACK
6
CONTINUOUS
10
1.05897
20
0.84581
11
1.05905
21
0.846015
0
LINE
8
BLACK
6
CONTINUOUS
10
1.05905
20
0.846015
11
1.05901
21
0.846232
0
LINE
8
BLACK
6
CONTINUOUS
10
1.05901
20
0.846232
11
1.05936
21
0.846752
0
LINE
8
BLACK
6
CONTINUOUS
10
1.05936
20
0.846752
11
1.05948
21
0.847047
0
LINE
8
BLACK
6
CONTINUOUS
10
1.05948
20
0.847047
11
1.04563
21
0.847047
0
LINE
8
BLACK
6
CONTINUOUS
10
1.04563
20
0.847047
11
1.04613
21
0.846795
0
LINE
8
BLACK
6
CONTINUOUS
10
1.04613
20
0.846795
11
1.04636
21
0.846528
0
LINE
8
BLACK
6
CONTINUOUS
10
1.04636
20
0.846528
11
1.04669
21
0.846392
0
LINE
8
BLACK
6
CONTINUOUS
10
1.04669
20
0.846392
11
1.04763
21
0.845454
0
LINE
8
BLACK
6
CONTINUOUS
10
1.04763
20
0.845454
11
1.04776
21
0.845127
0
LINE
8
BLACK
6
CONTINUOUS
10
1.04776
20
0.845127
11
1.04803
21
0.844895
0
LINE
8
BLACK
6
CONTINUOUS
10
1.04803
20
0.844895
11
1.04897
21
0.843019
0
LINE
8
BLACK
6
CONTINUOUS
10
1.04897
20
0.843019
11
1.04899
21
0.842775
0
LINE
8
BLACK
6
CONTINUOUS
10
1.04899
20
0.842775
11
1.04913
21
0.842579
0
LINE
8
BLACK
6
CONTINUOUS
10
1.04913
20
0.842579
11
1.05007
21
0.838827
0
LINE
8
BLACK
6
CONTINUOUS
10
1.05007
20
0.838827
11
1.05003
21
0.838557
0
LINE
8
BLACK
6
CONTINUOUS
10
1.05003
20
0.838557
11
1.05013
21
0.838305
0
LINE
8
BLACK
6
CONTINUOUS
10
1.05013
20
0.838305
11
1.05013
21
0.833615
0
LINE
8
BLACK
6
CONTINUOUS
10
1.05013
20
0.833615
11
1.05003
21
0.833363
0
LINE
8
BLACK
6
CONTINUOUS
10
1.05003
20
0.833363
11
1.05007
21
0.833093
0
LINE
8
BLACK
6
CONTINUOUS
10
1.05007
20
0.833093
11
1.04913
21
0.829341
0
LINE
8
BLACK
6
CONTINUOUS
10
1.04913
20
0.829341
11
1.04899
21
0.829145
0
LINE
8
BLACK
6
CONTINUOUS
10
1.04899
20
0.829145
11
1.04897
21
0.828901
0
LINE
8
BLACK
6
CONTINUOUS
10
1.04897
20
0.828901
11
1.04803
21
0.827025
0
LINE
8
BLACK
6
CONTINUOUS
10
1.04803
20
0.827025
11
1.04776
21
0.826793
0
LINE
8
BLACK
6
CONTINUOUS
10
1.04776
20
0.826793
11
1.04763
21
0.826466
0
LINE
8
BLACK
6
CONTINUOUS
10
1.04763
20
0.826466
11
1.04669
21
0.825528
0
LINE
8
BLACK
6
CONTINUOUS
10
1.04669
20
0.825528
11
1.04636
21
0.825392
0
LINE
8
BLACK
6
CONTINUOUS
10
1.04636
20
0.825392
11
1.04613
21
0.825125
0
LINE
8
BLACK
6
CONTINUOUS
10
1.04613
20
0.825125
11
1.04425
21
0.824187
0
LINE
8
BLACK
6
CONTINUOUS
10
1.04425
20
0.824187
11
1.04376
21
0.824151
0
LINE
8
BLACK
6
CONTINUOUS
10
1.04376
20
0.824151
11
1.04329
21
0.82396
0
LINE
8
BLACK
6
CONTINUOUS
10
1.04329
20
0.82396
11
1.04142
21
0.82396
0
LINE
8
BLACK
6
CONTINUOUS
10
1.04142
20
0.82396
11
1.04095
21
0.824151
0
LINE
8
BLACK
6
CONTINUOUS
10
1.04095
20
0.824151
11
1.04046
21
0.824187
0
LINE
8
BLACK
6
CONTINUOUS
10
1.04046
20
0.824187
11
1.03858
21
0.825125
0
LINE
8
BLACK
6
CONTINUOUS
10
1.03858
20
0.825125
11
1.03835
21
0.825392
0
LINE
8
BLACK
6
CONTINUOUS
10
1.03835
20
0.825392
11
1.03802
21
0.825528
0
LINE
8
BLACK
6
CONTINUOUS
10
1.03802
20
0.825528
11
1.03708
21
0.826466
0
LINE
8
BLACK
6
CONTINUOUS
10
1.03708
20
0.826466
11
1.03695
21
0.826793
0
LINE
8
BLACK
6
CONTINUOUS
10
1.03695
20
0.826793
11
1.03668
21
0.827025
0
LINE
8
BLACK
6
CONTINUOUS
10
1.03668
20
0.827025
11
1.03574
21
0.828901
0
LINE
8
BLACK
6
CONTINUOUS
10
1.03574
20
0.828901
11
1.03572
21
0.829145
0
LINE
8
BLACK
6
CONTINUOUS
10
1.03572
20
0.829145
11
1.03558
21
0.829341
0
LINE
8
BLACK
6
CONTINUOUS
10
1.03558
20
0.829341
11
1.03464
21
0.833093
0
LINE
8
BLACK
6
CONTINUOUS
10
1.03464
20
0.833093
11
1.03468
21
0.833363
0
LINE
8
BLACK
6
CONTINUOUS
10
1.03468
20
0.833363
11
1.03458
21
0.833615
0
LINE
8
BLACK
6
CONTINUOUS
10
1.03458
20
0.833615
11
1.03458
21
0.838305
0
LINE
8
BLACK
6
CONTINUOUS
10
1.03458
20
0.838305
11
1.03468
21
0.838557
0
LINE
8
BLACK
6
CONTINUOUS
10
1.03468
20
0.838557
11
1.03464
21
0.838827
0
LINE
8
BLACK
6
CONTINUOUS
10
1.03464
20
0.838827
11
1.03558
21
0.842579
0
LINE
8
BLACK
6
CONTINUOUS
10
1.03558
20
0.842579
11
1.03572
21
0.842775
0
LINE
8
BLACK
6
CONTINUOUS
10
1.03572
20
0.842775
11
1.03574
21
0.843019
0
LINE
8
BLACK
6
CONTINUOUS
10
1.03574
20
0.843019
11
1.03668
21
0.844895
0
LINE
8
BLACK
6
CONTINUOUS
10
1.03668
20
0.844895
11
1.03695
21
0.845127
0
LINE
8
BLACK
6
CONTINUOUS
10
1.03695
20
0.845127
11
1.03708
21
0.845454
0
LINE
8
BLACK
6
CONTINUOUS
10
1.03708
20
0.845454
11
1.03802
21
0.846392
0
LINE
8
BLACK
6
CONTINUOUS
10
1.03802
20
0.846392
11
1.03835
21
0.846528
0
LINE
8
BLACK
6
CONTINUOUS
10
1.03835
20
0.846528
11
1.03858
21
0.846795
0
LINE
8
BLACK
6
CONTINUOUS
10
1.03858
20
0.846795
11
1.03932
21
0.847167
0
LINE
8
BLACK
6
CONTINUOUS
10
1.03932
20
0.847167
11
1.03899
21
0.847225
0
LINE
8
BLACK
6
CONTINUOUS
10
1.03899
20
0.847225
11
1.03744
21
0.848524
0
LINE
8
BLACK
6
CONTINUOUS
10
1.03744
20
0.848524
11
1.03709
21
0.850513
0
LINE
8
BLACK
6
CONTINUOUS
10
1.03709
20
0.850513
11
1.0381
21
0.852262
0
LINE
8
BLACK
6
CONTINUOUS
10
1.0381
20
0.852262
11
1.04
21
0.852953
0
LINE
8
BLACK
6
CONTINUOUS
10
1.04
20
0.852953
11
1.08
21
0.852953
0
LINE
8
BLACK
6
CONTINUOUS
10
1.08
20
0.852953
11
1.08038
21
0.852885
0
LINE
8
BLACK
6
CONTINUOUS
10
1.04081
20
0.843105
11
1.04037
21
0.84266
0
LINE
8
BLACK
6
CONTINUOUS
10
1.04037
20
0.84266
11
1.03969
21
0.841307
0
LINE
8
BLACK
6
CONTINUOUS
10
1.03969
20
0.841307
11
1.03888
21
0.83804
0
LINE
8
BLACK
6
CONTINUOUS
10
1.03888
20
0.83804
11
1.03888
21
0.833879
0
LINE
8
BLACK
6
CONTINUOUS
10
1.03888
20
0.833879
11
1.03969
21
0.830613
0
LINE
8
BLACK
6
CONTINUOUS
10
1.03969
20
0.830613
11
1.04037
21
0.82926
0
LINE
8
BLACK
6
CONTINUOUS
10
1.04037
20
0.82926
11
1.04081
21
0.828815
0
LINE
8
BLACK
6
CONTINUOUS
10
1.04081
20
0.828815
11
1.04192
21
0.82826
0
LINE
8
BLACK
6
CONTINUOUS
10
1.04192
20
0.82826
11
1.04279
21
0.82826
0
LINE
8
BLACK
6
CONTINUOUS
10
1.04279
20
0.82826
11
1.0439
21
0.828815
0
LINE
8
BLACK
6
CONTINUOUS
10
1.0439
20
0.828815
11
1.04434
21
0.82926
0
LINE
8
BLACK
6
CONTINUOUS
10
1.04434
20
0.82926
11
1.04502
21
0.830613
0
LINE
8
BLACK
6
CONTINUOUS
10
1.04502
20
0.830613
11
1.04583
21
0.833879
0
LINE
8
BLACK
6
CONTINUOUS
10
1.04583
20
0.833879
11
1.04583
21
0.83804
0
LINE
8
BLACK
6
CONTINUOUS
10
1.04583
20
0.83804
11
1.04502
21
0.841307
0
LINE
8
BLACK
6
CONTINUOUS
10
1.04502
20
0.841307
11
1.04434
21
0.84266
0
LINE
8
BLACK
6
CONTINUOUS
10
1.04434
20
0.84266
11
1.0439
21
0.843105
0
LINE
8
BLACK
6
CONTINUOUS
10
1.0439
20
0.843105
11
1.04279
21
0.84366
0
LINE
8
BLACK
6
CONTINUOUS
10
1.04279
20
0.84366
11
1.04192
21
0.84366
0
LINE
8
BLACK
6
CONTINUOUS
10
1.04192
20
0.84366
11
1.04081
21
0.843105
0
LINE
8
BLACK
6
CONTINUOUS
10
0.727028
20
0.811711
11
0.730432
21
0.808855
0
LINE
8
BLACK
6
CONTINUOUS
10
0.730432
20
0.808855
11
0.732654
21
0.805006
0
LINE
8
BLACK
6
CONTINUOUS
10
0.732654
20
0.805006
11
0.733425
21
0.80063
0
LINE
8
BLACK
6
CONTINUOUS
10
0.733425
20
0.80063
11
0.732654
21
0.796254
0
LINE
8
BLACK
6
CONTINUOUS
10
0.732654
20
0.796254
11
0.730432
21
0.792405
0
LINE
8
BLACK
6
CONTINUOUS
10
0.730432
20
0.792405
11
0.727028
21
0.789549
0
LINE
8
BLACK
6
CONTINUOUS
10
0.727028
20
0.789549
11
0.722852
21
0.788029
0
LINE
8
BLACK
6
CONTINUOUS
10
0.722852
20
0.788029
11
0.718408
21
0.788029
0
LINE
8
BLACK
6
CONTINUOUS
10
0.718408
20
0.788029
11
0.714232
21
0.789549
0
LINE
8
BLACK
6
CONTINUOUS
10
0.714232
20
0.789549
11
0.710828
21
0.792405
0
LINE
8
BLACK
6
CONTINUOUS
10
0.710828
20
0.792405
11
0.708606
21
0.796254
0
LINE
8
BLACK
6
CONTINUOUS
10
0.708606
20
0.796254
11
0.707835
21
0.80063
0
LINE
8
BLACK
6
CONTINUOUS
10
0.707835
20
0.80063
11
0.708606
21
0.805006
0
LINE
8
BLACK
6
CONTINUOUS
10
0.708606
20
0.805006
11
0.710828
21
0.808855
0
LINE
8
BLACK
6
CONTINUOUS
10
0.710828
20
0.808855
11
0.714232
21
0.811711
0
LINE
8
BLACK
6
CONTINUOUS
10
0.714232
20
0.811711
11
0.718408
21
0.813231
0
LINE
8
BLACK
6
CONTINUOUS
10
0.718408
20
0.813231
11
0.722852
21
0.813231
0
LINE
8
BLACK
6
CONTINUOUS
10
0.722852
20
0.813231
11
0.727028
21
0.811711
0
LINE
8
BLACK
6
CONTINUOUS
10
0.714263
20
0.797564
11
0.716224
21
0.795105
0
LINE
8
BLACK
6
CONTINUOUS
10
0.716224
20
0.795105
11
0.719057
21
0.79374
0
LINE
8
BLACK
6
CONTINUOUS
10
0.719057
20
0.79374
11
0.722202
21
0.79374
0
LINE
8
BLACK
6
CONTINUOUS
10
0.722202
20
0.79374
11
0.725036
21
0.795105
0
LINE
8
BLACK
6
CONTINUOUS
10
0.725036
20
0.795105
11
0.726997
21
0.797564
0
LINE
8
BLACK
6
CONTINUOUS
10
0.726997
20
0.797564
11
0.727697
21
0.80063
0
LINE
8
BLACK
6
CONTINUOUS
10
0.727697
20
0.80063
11
0.726997
21
0.803696
0
LINE
8
BLACK
6
CONTINUOUS
10
0.726997
20
0.803696
11
0.725036
21
0.806155
0
LINE
8
BLACK
6
CONTINUOUS
10
0.725036
20
0.806155
11
0.722202
21
0.80752
0
LINE
8
BLACK
6
CONTINUOUS
10
0.722202
20
0.80752
11
0.719057
21
0.80752
0
LINE
8
BLACK
6
CONTINUOUS
10
0.719057
20
0.80752
11
0.716224
21
0.806155
0
LINE
8
BLACK
6
CONTINUOUS
10
0.716224
20
0.806155
11
0.714263
21
0.803696
0
LINE
8
BLACK
6
CONTINUOUS
10
0.714263
20
0.803696
11
0.713563
21
0.80063
0
LINE
8
BLACK
6
CONTINUOUS
10
0.713563
20
0.80063
11
0.714263
21
0.797564
0
LINE
8
BLACK
6
CONTINUOUS
10
1.01035
20
0.820375
11
1.01057
21
0.820418
0
LINE
8
BLACK
6
CONTINUOUS
10
1.01057
20
0.820418
11
1.01109
21
0.82007
0
LINE
8
BLACK
6
CONTINUOUS
10
1.01109
20
0.82007
11
1.01167
21
0.81983
0
LINE
8
BLACK
6
CONTINUOUS
10
1.01167
20
0.81983
11
1.01175
21
0.819626
0
LINE
8
BLACK
6
CONTINUOUS
10
1.01175
20
0.819626
11
1.01194
21
0.819503
0
LINE
8
BLACK
6
CONTINUOUS
10
1.01194
20
0.819503
11
1.0137
21
0.816865
0
LINE
8
BLACK
6
CONTINUOUS
10
1.0137
20
0.816865
11
1.01518
21
0.815386
0
LINE
8
BLACK
6
CONTINUOUS
10
1.01518
20
0.815386
11
1.01674
21
0.814604
0
LINE
8
BLACK
6
CONTINUOUS
10
1.01674
20
0.814604
11
1.01782
21
0.813361
0
LINE
8
BLACK
6
CONTINUOUS
10
1.01782
20
0.813361
11
1.0177
21
0.81172
0
LINE
8
BLACK
6
CONTINUOUS
10
1.0177
20
0.81172
11
1.01646
21
0.810642
0
LINE
8
BLACK
6
CONTINUOUS
10
1.01646
20
0.810642
11
1.01482
21
0.810758
0
LINE
8
BLACK
6
CONTINUOUS
10
1.01482
20
0.810758
11
1.01294
21
0.811697
0
LINE
8
BLACK
6
CONTINUOUS
10
1.01294
20
0.811697
11
1.01271
21
0.811964
0
LINE
8
BLACK
6
CONTINUOUS
10
1.01271
20
0.811964
11
1.01238
21
0.812099
0
LINE
8
BLACK
6
CONTINUOUS
10
1.01238
20
0.812099
11
1.0123
21
0.812181
0
LINE
8
BLACK
6
CONTINUOUS
10
1.0123
20
0.812181
11
1.0123
21
0.80076
0
LINE
8
BLACK
6
CONTINUOUS
10
1.0123
20
0.80076
11
1.01578
21
0.80076
0
LINE
8
BLACK
6
CONTINUOUS
10
1.01578
20
0.80076
11
1.0173
21
0.80013
0
LINE
8
BLACK
6
CONTINUOUS
10
1.0173
20
0.80013
11
1.01793
21
0.79861
0
LINE
8
BLACK
6
CONTINUOUS
10
1.01793
20
0.79861
11
1.0173
21
0.79709
0
LINE
8
BLACK
6
CONTINUOUS
10
1.0173
20
0.79709
11
1.01578
21
0.79646
0
LINE
8
BLACK
6
CONTINUOUS
10
1.01578
20
0.79646
11
1.01015
21
0.79646
0
LINE
8
BLACK
6
CONTINUOUS
10
1.01015
20
0.79646
11
1.00452
21
0.79646
0
LINE
8
BLACK
6
CONTINUOUS
10
1.00452
20
0.79646
11
1.003
21
0.79709
0
LINE
8
BLACK
6
CONTINUOUS
10
1.003
20
0.79709
11
1.00237
21
0.79861
0
LINE
8
BLACK
6
CONTINUOUS
10
1.00237
20
0.79861
11
1.003
21
0.80013
0
LINE
8
BLACK
6
CONTINUOUS
10
1.003
20
0.80013
11
1.00452
21
0.80076
0
LINE
8
BLACK
6
CONTINUOUS
10
1.00452
20
0.80076
11
1.008
21
0.80076
0
LINE
8
BLACK
6
CONTINUOUS
10
1.008
20
0.80076
11
1.008
21
0.81831
0
LINE
8
BLACK
6
CONTINUOUS
10
1.008
20
0.81831
11
1.00808
21
0.818515
0
LINE
8
BLACK
6
CONTINUOUS
10
1.00808
20
0.818515
11
1.00804
21
0.818732
0
LINE
8
BLACK
6
CONTINUOUS
10
1.00804
20
0.818732
11
1.00839
21
0.819252
0
LINE
8
BLACK
6
CONTINUOUS
10
1.00839
20
0.819252
11
1.00863
21
0.81983
0
LINE
8
BLACK
6
CONTINUOUS
10
1.00863
20
0.81983
11
1.00883
21
0.819915
0
LINE
8
BLACK
6
CONTINUOUS
10
1.00883
20
0.819915
11
1.00896
21
0.820099
0
LINE
8
BLACK
6
CONTINUOUS
10
1.00896
20
0.820099
11
1.00957
21
0.82022
0
LINE
8
BLACK
6
CONTINUOUS
10
1.00957
20
0.82022
11
1.01015
21
0.82046
0
LINE
8
BLACK
6
CONTINUOUS
10
1.01015
20
0.82046
11
1.01035
21
0.820375
0
LINE
8
BLACK
6
CONTINUOUS
10
1.02924
20
0.820325
11
1.02959
21
0.82035
0
LINE
8
BLACK
6
CONTINUOUS
10
1.02959
20
0.82035
11
1.03241
21
0.819412
0
LINE
8
BLACK
6
CONTINUOUS
10
1.03241
20
0.819412
11
1.03278
21
0.819084
0
LINE
8
BLACK
6
CONTINUOUS
10
1.03278
20
0.819084
11
1.03325
21
0.818892
0
LINE
8
BLACK
6
CONTINUOUS
10
1.03325
20
0.818892
11
1.03512
21
0.817016
0
LINE
8
BLACK
6
CONTINUOUS
10
1.03512
20
0.817016
11
1.03526
21
0.816689
0
LINE
8
BLACK
6
CONTINUOUS
10
1.03526
20
0.816689
11
1.03553
21
0.816457
0
LINE
8
BLACK
6
CONTINUOUS
10
1.03553
20
0.816457
11
1.03646
21
0.814581
0
LINE
8
BLACK
6
CONTINUOUS
10
1.03646
20
0.814581
11
1.03648
21
0.814337
0
LINE
8
BLACK
6
CONTINUOUS
10
1.03648
20
0.814337
11
1.03663
21
0.814141
0
LINE
8
BLACK
6
CONTINUOUS
10
1.03663
20
0.814141
11
1.03756
21
0.810389
0
LINE
8
BLACK
6
CONTINUOUS
10
1.03756
20
0.810389
11
1.03752
21
0.810119
0
LINE
8
BLACK
6
CONTINUOUS
10
1.03752
20
0.810119
11
1.03763
21
0.809867
0
LINE
8
BLACK
6
CONTINUOUS
10
1.03763
20
0.809867
11
1.03763
21
0.807053
0
LINE
8
BLACK
6
CONTINUOUS
10
1.03763
20
0.807053
11
1.03752
21
0.806801
0
LINE
8
BLACK
6
CONTINUOUS
10
1.03752
20
0.806801
11
1.03756
21
0.806531
0
LINE
8
BLACK
6
CONTINUOUS
10
1.03756
20
0.806531
11
1.03663
21
0.802779
0
LINE
8
BLACK
6
CONTINUOUS
10
1.03663
20
0.802779
11
1.03648
21
0.802583
0
LINE
8
BLACK
6
CONTINUOUS
10
1.03648
20
0.802583
11
1.03646
21
0.802339
0
LINE
8
BLACK
6
CONTINUOUS
10
1.03646
20
0.802339
11
1.03553
21
0.800463
0
LINE
8
BLACK
6
CONTINUOUS
10
1.03553
20
0.800463
11
1.03526
21
0.800231
0
LINE
8
BLACK
6
CONTINUOUS
10
1.03526
20
0.800231
11
1.03512
21
0.799904
0
LINE
8
BLACK
6
CONTINUOUS
10
1.03512
20
0.799904
11
1.03325
21
0.798028
0
LINE
8
BLACK
6
CONTINUOUS
10
1.03325
20
0.798028
11
1.03278
21
0.797836
0
LINE
8
BLACK
6
CONTINUOUS
10
1.03278
20
0.797836
11
1.03241
21
0.797508
0
LINE
8
BLACK
6
CONTINUOUS
10
1.03241
20
0.797508
11
1.02959
21
0.79657
0
LINE
8
BLACK
6
CONTINUOUS
10
1.02959
20
0.79657
11
1.02924
21
0.796595
0
LINE
8
BLACK
6
CONTINUOUS
10
1.02924
20
0.796595
11
1.02891
21
0.79646
0
LINE
8
BLACK
6
CONTINUOUS
10
1.02891
20
0.79646
11
1.02704
21
0.79646
0
LINE
8
BLACK
6
CONTINUOUS
10
1.02704
20
0.79646
11
1.02671
21
0.796595
0
LINE
8
BLACK
6
CONTINUOUS
10
1.02671
20
0.796595
11
1.02636
21
0.79657
0
LINE
8
BLACK
6
CONTINUOUS
10
1.02636
20
0.79657
11
1.02354
21
0.797508
0
LINE
8
BLACK
6
CONTINUOUS
10
1.02354
20
0.797508
11
1.02316
21
0.797836
0
LINE
8
BLACK
6
CONTINUOUS
10
1.02316
20
0.797836
11
1.0227
21
0.798028
0
LINE
8
BLACK
6
CONTINUOUS
10
1.0227
20
0.798028
11
1.02176
21
0.798966
0
LINE
8
BLACK
6
CONTINUOUS
10
1.02176
20
0.798966
11
1.02113
21
0.800486
0
LINE
8
BLACK
6
CONTINUOUS
10
1.02113
20
0.800486
11
1.02176
21
0.802006
0
LINE
8
BLACK
6
CONTINUOUS
10
1.02176
20
0.802006
11
1.02328
21
0.802636
0
LINE
8
BLACK
6
CONTINUOUS
10
1.02328
20
0.802636
11
1.0248
21
0.802006
0
LINE
8
BLACK
6
CONTINUOUS
10
1.0248
20
0.802006
11
1.02538
21
0.801427
0
LINE
8
BLACK
6
CONTINUOUS
10
1.02538
20
0.801427
11
1.02738
21
0.80076
0
LINE
8
BLACK
6
CONTINUOUS
10
1.02738
20
0.80076
11
1.02856
21
0.80076
0
LINE
8
BLACK
6
CONTINUOUS
10
1.02856
20
0.80076
11
1.03056
21
0.801427
0
LINE
8
BLACK
6
CONTINUOUS
10
1.03056
20
0.801427
11
1.03184
21
0.802698
0
LINE
8
BLACK
6
CONTINUOUS
10
1.03184
20
0.802698
11
1.03251
21
0.804051
0
LINE
8
BLACK
6
CONTINUOUS
10
1.03251
20
0.804051
11
1.03333
21
0.807318
0
LINE
8
BLACK
6
CONTINUOUS
10
1.03333
20
0.807318
11
1.03333
21
0.809602
0
LINE
8
BLACK
6
CONTINUOUS
10
1.03333
20
0.809602
11
1.03251
21
0.812869
0
LINE
8
BLACK
6
CONTINUOUS
10
1.03251
20
0.812869
11
1.03184
21
0.814222
0
LINE
8
BLACK
6
CONTINUOUS
10
1.03184
20
0.814222
11
1.03056
21
0.815493
0
LINE
8
BLACK
6
CONTINUOUS
10
1.03056
20
0.815493
11
1.02856
21
0.81616
0
LINE
8
BLACK
6
CONTINUOUS
10
1.02856
20
0.81616
11
1.02738
21
0.81616
0
LINE
8
BLACK
6
CONTINUOUS
10
1.02738
20
0.81616
11
1.02538
21
0.815493
0
LINE
8
BLACK
6
CONTINUOUS
10
1.02538
20
0.815493
11
1.0248
21
0.814914
0
LINE
8
BLACK
6
CONTINUOUS
10
1.0248
20
0.814914
11
1.02328
21
0.814284
0
LINE
8
BLACK
6
CONTINUOUS
10
1.02328
20
0.814284
11
1.02176
21
0.814914
0
LINE
8
BLACK
6
CONTINUOUS
10
1.02176
20
0.814914
11
1.02113
21
0.816434
0
LINE
8
BLACK
6
CONTINUOUS
10
1.02113
20
0.816434
11
1.02176
21
0.817954
0
LINE
8
BLACK
6
CONTINUOUS
10
1.02176
20
0.817954
11
1.0227
21
0.818892
0
LINE
8
BLACK
6
CONTINUOUS
10
1.0227
20
0.818892
11
1.02316
21
0.819084
0
LINE
8
BLACK
6
CONTINUOUS
10
1.02316
20
0.819084
11
1.02354
21
0.819412
0
LINE
8
BLACK
6
CONTINUOUS
10
1.02354
20
0.819412
11
1.02636
21
0.82035
0
LINE
8
BLACK
6
CONTINUOUS
10
1.02636
20
0.82035
11
1.02671
21
0.820325
0
LINE
8
BLACK
6
CONTINUOUS
10
1.02671
20
0.820325
11
1.02704
21
0.82046
0
LINE
8
BLACK
6
CONTINUOUS
10
1.02704
20
0.82046
11
1.02891
21
0.82046
0
LINE
8
BLACK
6
CONTINUOUS
10
1.02891
20
0.82046
11
1.02924
21
0.820325
0
LINE
8
BLACK
6
CONTINUOUS
10
1.00717
20
0.841202
11
1.00767
21
0.841166
0
LINE
8
BLACK
6
CONTINUOUS
10
1.00767
20
0.841166
11
1.00826
21
0.840871
0
LINE
8
BLACK
6
CONTINUOUS
10
1.00826
20
0.840871
11
1.00952
21
0.841393
0
LINE
8
BLACK
6
CONTINUOUS
10
1.00952
20
0.841393
11
1.01104
21
0.840764
0
LINE
8
BLACK
6
CONTINUOUS
10
1.01104
20
0.840764
11
1.01167
21
0.839243
0
LINE
8
BLACK
6
CONTINUOUS
10
1.01167
20
0.839243
11
1.01167
21
0.82611
0
LINE
8
BLACK
6
CONTINUOUS
10
1.01167
20
0.82611
11
1.01104
21
0.82459
0
LINE
8
BLACK
6
CONTINUOUS
10
1.01104
20
0.82459
11
1.00952
21
0.82396
0
LINE
8
BLACK
6
CONTINUOUS
10
1.00952
20
0.82396
11
1.008
21
0.82459
0
LINE
8
BLACK
6
CONTINUOUS
10
1.008
20
0.82459
11
1.00737
21
0.82611
0
LINE
8
BLACK
6
CONTINUOUS
10
1.00737
20
0.82611
11
1.00737
21
0.836477
0
LINE
8
BLACK
6
CONTINUOUS
10
1.00737
20
0.836477
11
1.00731
21
0.836538
0
LINE
8
BLACK
6
CONTINUOUS
10
1.00731
20
0.836538
11
1.0062
21
0.837093
0
LINE
8
BLACK
6
CONTINUOUS
10
1.0062
20
0.837093
11
1.0044
21
0.837093
0
LINE
8
BLACK
6
CONTINUOUS
10
1.0044
20
0.837093
11
1.00362
21
0.836703
0
LINE
8
BLACK
6
CONTINUOUS
10
1.00362
20
0.836703
11
1.00323
21
0.835921
0
LINE
8
BLACK
6
CONTINUOUS
10
1.00323
20
0.835921
11
1.00323
21
0.82611
0
LINE
8
BLACK
6
CONTINUOUS
10
1.00323
20
0.82611
11
1.0026
21
0.82459
0
LINE
8
BLACK
6
CONTINUOUS
10
1.0026
20
0.82459
11
1.00108
21
0.82396
0
LINE
8
BLACK
6
CONTINUOUS
10
1.00108
20
0.82396
11
0.999558
21
0.82459
0
LINE
8
BLACK
6
CONTINUOUS
10
0.999558
20
0.82459
11
0.998929
21
0.82611
0
LINE
8
BLACK
6
CONTINUOUS
10
0.998929
20
0.82611
11
0.998929
21
0.836429
0
LINE
8
BLACK
6
CONTINUOUS
10
0.998929
20
0.836429
11
0.99912
21
0.836891
0
LINE
8
BLACK
6
CONTINUOUS
10
0.99912
20
0.836891
11
0.999156
21
0.837391
0
LINE
8
BLACK
6
CONTINUOUS
10
0.999156
20
0.837391
11
1.00009
21
0.839267
0
LINE
8
BLACK
6
CONTINUOUS
10
1.00009
20
0.839267
11
1.00061
21
0.839713
0
LINE
8
BLACK
6
CONTINUOUS
10
1.00061
20
0.839713
11
1.00106
21
0.840228
0
LINE
8
BLACK
6
CONTINUOUS
10
1.00106
20
0.840228
11
1.00293
21
0.841166
0
LINE
8
BLACK
6
CONTINUOUS
10
1.00293
20
0.841166
11
1.00343
21
0.841202
0
LINE
8
BLACK
6
CONTINUOUS
10
1.00343
20
0.841202
11
1.00389
21
0.841393
0
LINE
8
BLACK
6
CONTINUOUS
10
1.00389
20
0.841393
11
1.00671
21
0.841393
0
LINE
8
BLACK
6
CONTINUOUS
10
1.00671
20
0.841393
11
1.00717
21
0.841202
0
LINE
8
BLACK
6
CONTINUOUS
10
1.02499
20
0.847768
11
1.02549
21
0.847733
0
LINE
8
BLACK
6
CONTINUOUS
10
1.02549
20
0.847733
11
1.02737
21
0.846795
0
LINE
8
BLACK
6
CONTINUOUS
10
1.02737
20
0.846795
11
1.0276
21
0.846528
0
LINE
8
BLACK
6
CONTINUOUS
10
1.0276
20
0.846528
11
1.02793
21
0.846392
0
LINE
8
BLACK
6
CONTINUOUS
10
1.02793
20
0.846392
11
1.02887
21
0.845454
0
LINE
8
BLACK
6
CONTINUOUS
10
1.02887
20
0.845454
11
1.029
21
0.845127
0
LINE
8
BLACK
6
CONTINUOUS
10
1.029
20
0.845127
11
1.02927
21
0.844895
0
LINE
8
BLACK
6
CONTINUOUS
10
1.02927
20
0.844895
11
1.03021
21
0.843019
0
LINE
8
BLACK
6
CONTINUOUS
10
1.03021
20
0.843019
11
1.03022
21
0.842775
0
LINE
8
BLACK
6
CONTINUOUS
10
1.03022
20
0.842775
11
1.03037
21
0.842579
0
LINE
8
BLACK
6
CONTINUOUS
10
1.03037
20
0.842579
11
1.03131
21
0.838827
0
LINE
8
BLACK
6
CONTINUOUS
10
1.03131
20
0.838827
11
1.03127
21
0.838557
0
LINE
8
BLACK
6
CONTINUOUS
10
1.03127
20
0.838557
11
1.03137
21
0.838305
0
LINE
8
BLACK
6
CONTINUOUS
10
1.03137
20
0.838305
11
1.03137
21
0.833615
0
LINE
8
BLACK
6
CONTINUOUS
10
1.03137
20
0.833615
11
1.03127
21
0.833363
0
LINE
8
BLACK
6
CONTINUOUS
10
1.03127
20
0.833363
11
1.03131
21
0.833093
0
LINE
8
BLACK
6
CONTINUOUS
10
1.03131
20
0.833093
11
1.03037
21
0.829341
0
LINE
8
BLACK
6
CONTINUOUS
10
1.03037
20
0.829341
11
1.03022
21
0.829145
0
LINE
8
BLACK
6
CONTINUOUS
10
1.03022
20
0.829145
11
1.03021
21
0.828901
0
LINE
8
BLACK
6
CONTINUOUS
10
1.03021
20
0.828901
11
1.02927
21
0.827025
0
LINE
8
BLACK
6
CONTINUOUS
10
1.02927
20
0.827025
11
1.029
21
0.826793
0
LINE
8
BLACK
6
CONTINUOUS
10
1.029
20
0.826793
11
1.02887
21
0.826466
0
LINE
8
BLACK
6
CONTINUOUS
10
1.02887
20
0.826466
11
1.02793
21
0.825528
0
LINE
8
BLACK
6
CONTINUOUS
10
1.02793
20
0.825528
11
1.0276
21
0.825392
0
LINE
8
BLACK
6
CONTINUOUS
10
1.0276
20
0.825392
11
1.02737
21
0.825125
0
LINE
8
BLACK
6
CONTINUOUS
10
1.02737
20
0.825125
11
1.02549
21
0.824187
0
LINE
8
BLACK
6
CONTINUOUS
10
1.02549
20
0.824187
11
1.02499
21
0.824151
0
LINE
8
BLACK
6
CONTINUOUS
10
1.02499
20
0.824151
11
1.02453
21
0.82396
0
LINE
8
BLACK
6
CONTINUOUS
10
1.02453
20
0.82396
11
1.02265
21
0.82396
0
LINE
8
BLACK
6
CONTINUOUS
10
1.02265
20
0.82396
11
1.02219
21
0.824151
0
LINE
8
BLACK
6
CONTINUOUS
10
1.02219
20
0.824151
11
1.02169
21
0.824187
0
LINE
8
BLACK
6
CONTINUOUS
10
1.02169
20
0.824187
11
1.01982
21
0.825125
0
LINE
8
BLACK
6
CONTINUOUS
10
1.01982
20
0.825125
11
1.01959
21
0.825392
0
LINE
8
BLACK
6
CONTINUOUS
10
1.01959
20
0.825392
11
1.01926
21
0.825528
0
LINE
8
BLACK
6
CONTINUOUS
10
1.01926
20
0.825528
11
1.01832
21
0.826466
0
LINE
8
BLACK
6
CONTINUOUS
10
1.01832
20
0.826466
11
1.01818
21
0.826793
0
LINE
8
BLACK
6
CONTINUOUS
10
1.01818
20
0.826793
11
1.01792
21
0.827025
0
LINE
8
BLACK
6
CONTINUOUS
10
1.01792
20
0.827025
11
1.01698
21
0.828901
0
LINE
8
BLACK
6
CONTINUOUS
10
1.01698
20
0.828901
11
1.01696
21
0.829145
0
LINE
8
BLACK
6
CONTINUOUS
10
1.01696
20
0.829145
11
1.01682
21
0.829341
0
LINE
8
BLACK
6
CONTINUOUS
10
1.01682
20
0.829341
11
1.01588
21
0.833093
0
LINE
8
BLACK
6
CONTINUOUS
10
1.01588
20
0.833093
11
1.01592
21
0.833363
0
LINE
8
BLACK
6
CONTINUOUS
10
1.01592
20
0.833363
11
1.01581
21
0.833615
0
LINE
8
BLACK
6
CONTINUOUS
10
1.01581
20
0.833615
11
1.01581
21
0.838305
0
LINE
8
BLACK
6
CONTINUOUS
10
1.01581
20
0.838305
11
1.01592
21
0.838557
0
LINE
8
BLACK
6
CONTINUOUS
10
1.01592
20
0.838557
11
1.01588
21
0.838827
0
LINE
8
BLACK
6
CONTINUOUS
10
1.01588
20
0.838827
11
1.01682
21
0.842579
0
LINE
8
BLACK
6
CONTINUOUS
10
1.01682
20
0.842579
11
1.01696
21
0.842775
0
LINE
8
BLACK
6
CONTINUOUS
10
1.01696
20
0.842775
11
1.01698
21
0.843019
0
LINE
8
BLACK
6
CONTINUOUS
10
1.01698
20
0.843019
11
1.01792
21
0.844895
0
LINE
8
BLACK
6
CONTINUOUS
10
1.01792
20
0.844895
11
1.01818
21
0.845127
0
LINE
8
BLACK
6
CONTINUOUS
10
1.01818
20
0.845127
11
1.01832
21
0.845454
0
LINE
8
BLACK
6
CONTINUOUS
10
1.01832
20
0.845454
11
1.01926
21
0.846392
0
LINE
8
BLACK
6
CONTINUOUS
10
1.01926
20
0.846392
11
1.01959
21
0.846528
0
LINE
8
BLACK
6
CONTINUOUS
10
1.01959
20
0.846528
11
1.01982
21
0.846795
0
LINE
8
BLACK
6
CONTINUOUS
10
1.01982
20
0.846795
11
1.02169
21
0.847733
0
LINE
8
BLACK
6
CONTINUOUS
10
1.02169
20
0.847733
11
1.02219
21
0.847768
0
LINE
8
BLACK
6
CONTINUOUS
10
1.02219
20
0.847768
11
1.02265
21
0.84796
0
LINE
8
BLACK
6
CONTINUOUS
10
1.02265
20
0.84796
11
1.02453
21
0.84796
0
LINE
8
BLACK
6
CONTINUOUS
10
1.02453
20
0.84796
11
1.02499
21
0.847768
0
LINE
8
BLACK
6
CONTINUOUS
10
1.02205
20
0.843105
11
1.02161
21
0.84266
0
LINE
8
BLACK
6
CONTINUOUS
10
1.02161
20
0.84266
11
1.02093
21
0.841307
0
LINE
8
BLACK
6
CONTINUOUS
10
1.02093
20
0.841307
11
1.02011
21
0.83804
0
LINE
8
BLACK
6
CONTINUOUS
10
1.02011
20
0.83804
11
1.02011
21
0.833879
0
LINE
8
BLACK
6
CONTINUOUS
10
1.02011
20
0.833879
11
1.02093
21
0.830613
0
LINE
8
BLACK
6
CONTINUOUS
10
1.02093
20
0.830613
11
1.02161
21
0.82926
0
LINE
8
BLACK
6
CONTINUOUS
10
1.02161
20
0.82926
11
1.02205
21
0.828815
0
LINE
8
BLACK
6
CONTINUOUS
10
1.02205
20
0.828815
11
1.02316
21
0.82826
0
LINE
8
BLACK
6
CONTINUOUS
10
1.02316
20
0.82826
11
1.02402
21
0.82826
0
LINE
8
BLACK
6
CONTINUOUS
10
1.02402
20
0.82826
11
1.02513
21
0.828815
0
LINE
8
BLACK
6
CONTINUOUS
10
1.02513
20
0.828815
11
1.02558
21
0.82926
0
LINE
8
BLACK
6
CONTINUOUS
10
1.02558
20
0.82926
11
1.02625
21
0.830613
0
LINE
8
BLACK
6
CONTINUOUS
10
1.02625
20
0.830613
11
1.02707
21
0.833879
0
LINE
8
BLACK
6
CONTINUOUS
10
1.02707
20
0.833879
11
1.02707
21
0.83804
0
LINE
8
BLACK
6
CONTINUOUS
10
1.02707
20
0.83804
11
1.02625
21
0.841307
0
LINE
8
BLACK
6
CONTINUOUS
10
1.02625
20
0.841307
11
1.02558
21
0.84266
0
LINE
8
BLACK
6
CONTINUOUS
10
1.02558
20
0.84266
11
1.02513
21
0.843105
0
LINE
8
BLACK
6
CONTINUOUS
10
1.02513
20
0.843105
11
1.02402
21
0.84366
0
LINE
8
BLACK
6
CONTINUOUS
10
1.02402
20
0.84366
11
1.02316
21
0.84366
0
LINE
8
BLACK
6
CONTINUOUS
10
1.02316
20
0.84366
11
1.02205
21
0.843105
0
LINE
8
BLACK
6
CONTINUOUS
10
0.82436
20
0.906861
11
0.824489
21
0.906884
0
LINE
8
BLACK
6
CONTINUOUS
10
0.824489
20
0.906884
11
0.824603
21
0.906819
0
LINE
8
BLACK
6
CONTINUOUS
10
0.824603
20
0.906819
11
0.824986
21
0.906751
0
LINE
8
BLACK
6
CONTINUOUS
10
0.824986
20
0.906751
11
0.825574
21
0.906258
0
LINE
8
BLACK
6
CONTINUOUS
10
0.825574
20
0.906258
11
0.826238
21
0.905874
0
LINE
8
BLACK
6
CONTINUOUS
10
0.826238
20
0.905874
11
0.826329
21
0.905624
0
LINE
8
BLACK
6
CONTINUOUS
10
0.826329
20
0.905624
11
0.826534
21
0.905453
0
LINE
8
BLACK
6
CONTINUOUS
10
0.826534
20
0.905453
11
0.826667
21
0.904697
0
LINE
8
BLACK
6
CONTINUOUS
10
0.826667
20
0.904697
11
0.826929
21
0.903976
0
LINE
8
BLACK
6
CONTINUOUS
10
0.826929
20
0.903976
11
0.826929
21
0.89315
0
LINE
8
BLACK
6
CONTINUOUS
10
0.826929
20
0.89315
11
0.826751
21
0.89214
0
LINE
8
BLACK
6
CONTINUOUS
10
0.826751
20
0.89214
11
0.825453
21
0.890592
0
LINE
8
BLACK
6
CONTINUOUS
10
0.825453
20
0.890592
11
0.823464
21
0.890242
0
LINE
8
BLACK
6
CONTINUOUS
10
0.823464
20
0.890242
11
0.821714
21
0.891252
0
LINE
8
BLACK
6
CONTINUOUS
10
0.821714
20
0.891252
11
0.821024
21
0.89315
0
LINE
8
BLACK
6
CONTINUOUS
10
0.821024
20
0.89315
11
0.821024
21
0.901024
0
LINE
8
BLACK
6
CONTINUOUS
10
0.821024
20
0.901024
11
0.698976
21
0.901024
0
LINE
8
BLACK
6
CONTINUOUS
10
0.698976
20
0.901024
11
0.698976
21
0.89315
0
LINE
8
BLACK
6
CONTINUOUS
10
0.698976
20
0.89315
11
0.698798
21
0.89214
0
LINE
8
BLACK
6
CONTINUOUS
10
0.698798
20
0.89214
11
0.6975
21
0.890592
0
LINE
8
BLACK
6
CONTINUOUS
10
0.6975
20
0.890592
11
0.695511
21
0.890242
0
LINE
8
BLACK
6
CONTINUOUS
10
0.695511
20
0.890242
11
0.693762
21
0.891252
0
LINE
8
BLACK
6
CONTINUOUS
10
0.693762
20
0.891252
11
0.693071
21
0.89315
0
LINE
8
BLACK
6
CONTINUOUS
10
0.693071
20
0.89315
11
0.693071
21
0.903976
0
LINE
8
BLACK
6
CONTINUOUS
10
0.693071
20
0.903976
11
0.693138
21
0.90436
0
LINE
8
BLACK
6
CONTINUOUS
10
0.693138
20
0.90436
11
0.693116
21
0.904489
0
LINE
8
BLACK
6
CONTINUOUS
10
0.693116
20
0.904489
11
0.693181
21
0.904603
0
LINE
8
BLACK
6
CONTINUOUS
10
0.693181
20
0.904603
11
0.693249
21
0.904986
0
LINE
8
BLACK
6
CONTINUOUS
10
0.693249
20
0.904986
11
0.693742
21
0.905574
0
LINE
8
BLACK
6
CONTINUOUS
10
0.693742
20
0.905574
11
0.694126
21
0.906238
0
LINE
8
BLACK
6
CONTINUOUS
10
0.694126
20
0.906238
11
0.694376
21
0.906329
0
LINE
8
BLACK
6
CONTINUOUS
10
0.694376
20
0.906329
11
0.694547
21
0.906534
0
LINE
8
BLACK
6
CONTINUOUS
10
0.694547
20
0.906534
11
0.695303
21
0.906667
0
LINE
8
BLACK
6
CONTINUOUS
10
0.695303
20
0.906667
11
0.696024
21
0.906929
0
LINE
8
BLACK
6
CONTINUOUS
10
0.696024
20
0.906929
11
0.823976
21
0.906929
0
LINE
8
BLACK
6
CONTINUOUS
10
0.823976
20
0.906929
11
0.82436
21
0.906861
0
LINE
8
BLACK
6
CONTINUOUS
10
0.802884
20
1.05289
11
0.803013
21
1.05291
0
LINE
8
BLACK
6
CONTINUOUS
10
0.803013
20
1.05291
11
0.803126
21
1.05284
0
LINE
8
BLACK
6
CONTINUOUS
10
0.803126
20
1.05284
11
0.80351
21
1.05277
0
LINE
8
BLACK
6
CONTINUOUS
10
0.80351
20
1.05277
11
0.804098
21
1.05228
0
LINE
8
BLACK
6
CONTINUOUS
10
0.804098
20
1.05228
11
0.804762
21
1.0519
0
LINE
8
BLACK
6
CONTINUOUS
10
0.804762
20
1.0519
11
0.804853
21
1.05165
0
LINE
8
BLACK
6
CONTINUOUS
10
0.804853
20
1.05165
11
0.805057
21
1.05148
0
LINE
8
BLACK
6
CONTINUOUS
10
0.805057
20
1.05148
11
0.80519
21
1.05072
0
LINE
8
BLACK
6
CONTINUOUS
10
0.80519
20
1.05072
11
0.805453
21
1.05
0
LINE
8
BLACK
6
CONTINUOUS
10
0.805453
20
1.05
11
0.805453
21
0.99762
0
LINE
8
BLACK
6
CONTINUOUS
10
0.805453
20
0.99762
11
0.80573
21
0.997753
0
LINE
8
BLACK
6
CONTINUOUS
10
0.80573
20
0.997753
11
0.80927
21
0.997753
0
LINE
8
BLACK
6
CONTINUOUS
10
0.80927
20
0.997753
11
0.812458
21
0.996218
0
LINE
8
BLACK
6
CONTINUOUS
10
0.812458
20
0.996218
11
0.814665
21
0.993451
0
LINE
8
BLACK
6
CONTINUOUS
10
0.814665
20
0.993451
11
0.815453
21
0.99
0
LINE
8
BLACK
6
CONTINUOUS
10
0.815453
20
0.99
11
0.814665
21
0.986549
0
LINE
8
BLACK
6
CONTINUOUS
10
0.814665
20
0.986549
11
0.812458
21
0.983782
0
LINE
8
BLACK
6
CONTINUOUS
10
0.812458
20
0.983782
11
0.80927
21
0.982247
0
LINE
8
BLACK
6
CONTINUOUS
10
0.80927
20
0.982247
11
0.80573
21
0.982247
0
LINE
8
BLACK
6
CONTINUOUS
10
0.80573
20
0.982247
11
0.802542
21
0.983782
0
LINE
8
BLACK
6
CONTINUOUS
10
0.802542
20
0.983782
11
0.800335
21
0.986549
0
LINE
8
BLACK
6
CONTINUOUS
10
0.800335
20
0.986549
11
0.800221
21
0.987047
0
LINE
8
BLACK
6
CONTINUOUS
10
0.800221
20
0.987047
11
0.7625
21
0.987047
0
LINE
8
BLACK
6
CONTINUOUS
10
0.7625
20
0.987047
11
0.76149
21
0.987225
0
LINE
8
BLACK
6
CONTINUOUS
10
0.76149
20
0.987225
11
0.759943
21
0.988524
0
LINE
8
BLACK
6
CONTINUOUS
10
0.759943
20
0.988524
11
0.759592
21
0.990513
0
LINE
8
BLACK
6
CONTINUOUS
10
0.759592
20
0.990513
11
0.760602
21
0.992262
0
LINE
8
BLACK
6
CONTINUOUS
10
0.760602
20
0.992262
11
0.7625
21
0.992953
0
LINE
8
BLACK
6
CONTINUOUS
10
0.7625
20
0.992953
11
0.799547
21
0.992953
0
LINE
8
BLACK
6
CONTINUOUS
10
0.799547
20
0.992953
11
0.799547
21
1.04705
0
LINE
8
BLACK
6
CONTINUOUS
10
0.799547
20
1.04705
11
0.7625
21
1.04705
0
LINE
8
BLACK
6
CONTINUOUS
10
0.7625
20
1.04705
11
0.76149
21
1.04723
0
LINE
8
BLACK
6
CONTINUOUS
10
0.76149
20
1.04723
11
0.759943
21
1.04852
0
LINE
8
BLACK
6
CONTINUOUS
10
0.759943
20
1.04852
11
0.759592
21
1.05051
0
LINE
8
BLACK
6
CONTINUOUS
10
0.759592
20
1.05051
11
0.760602
21
1.05226
0
LINE
8
BLACK
6
CONTINUOUS
10
0.760602
20
1.05226
11
0.7625
21
1.05295
0
LINE
8
BLACK
6
CONTINUOUS
10
0.7625
20
1.05295
11
0.8025
21
1.05295
0
LINE
8
BLACK
6
CONTINUOUS
10
0.8025
20
1.05295
11
0.802884
21
1.05289
0
LINE
8
BLACK
6
CONTINUOUS
10
0.805933
20
0.991567
11
0.805453
21
0.990407
0
LINE
8
BLACK
6
CONTINUOUS
10
0.805453
20
0.990407
11
0.805453
21
0.99
0
LINE
8
BLACK
6
CONTINUOUS
10
0.805453
20
0.99
11
0.805402
21
0.989714
0
LINE
8
BLACK
6
CONTINUOUS
10
0.805402
20
0.989714
11
0.805933
21
0.988433
0
LINE
8
BLACK
6
CONTINUOUS
10
0.805933
20
0.988433
11
0.8075
21
0.987784
0
LINE
8
BLACK
6
CONTINUOUS
10
0.8075
20
0.987784
11
0.809067
21
0.988433
0
LINE
8
BLACK
6
CONTINUOUS
10
0.809067
20
0.988433
11
0.809716
21
0.99
0
LINE
8
BLACK
6
CONTINUOUS
10
0.809716
20
0.99
11
0.809067
21
0.991567
0
LINE
8
BLACK
6
CONTINUOUS
10
0.809067
20
0.991567
11
0.8075
21
0.992216
0
LINE
8
BLACK
6
CONTINUOUS
10
0.8075
20
0.992216
11
0.805933
21
0.991567
0
LINE
8
BLACK
6
CONTINUOUS
10
0.72351
20
1.05277
11
0.725057
21
1.05148
0
LINE
8
BLACK
6
CONTINUOUS
10
0.725057
20
1.05148
11
0.725408
21
1.04949
0
LINE
8
BLACK
6
CONTINUOUS
10
0.725408
20
1.04949
11
0.724398
21
1.04774
0
LINE
8
BLACK
6
CONTINUOUS
10
0.724398
20
1.04774
11
0.7225
21
1.04705
0
LINE
8
BLACK
6
CONTINUOUS
10
0.7225
20
1.04705
11
0.685453
21
1.04705
0
LINE
8
BLACK
6
CONTINUOUS
10
0.685453
20
1.04705
11
0.685453
21
0.992953
0
LINE
8
BLACK
6
CONTINUOUS
10
0.685453
20
0.992953
11
0.7225
21
0.992953
0
LINE
8
BLACK
6
CONTINUOUS
10
0.7225
20
0.992953
11
0.72351
21
0.992775
0
LINE
8
BLACK
6
CONTINUOUS
10
0.72351
20
0.992775
11
0.725057
21
0.991476
0
LINE
8
BLACK
6
CONTINUOUS
10
0.725057
20
0.991476
11
0.725408
21
0.989487
0
LINE
8
BLACK
6
CONTINUOUS
10
0.725408
20
0.989487
11
0.724398
21
0.987738
0
LINE
8
BLACK
6
CONTINUOUS
10
0.724398
20
0.987738
11
0.7225
21
0.987047
0
LINE
8
BLACK
6
CONTINUOUS
10
0.7225
20
0.987047
11
0.6825
21
0.987047
0
LINE
8
BLACK
6
CONTINUOUS
10
0.6825
20
0.987047
11
0.682116
21
0.987115
0
LINE
8
BLACK
6
CONTINUOUS
10
0.682116
20
0.987115
11
0.681987
21
0.987092
0
LINE
8
BLACK
6
CONTINUOUS
10
0.681987
20
0.987092
11
0.681874
21
0.987158
0
LINE
8
BLACK
6
CONTINUOUS
10
0.681874
20
0.987158
11
0.68149
21
0.987225
0
LINE
8
BLACK
6
CONTINUOUS
10
0.68149
20
0.987225
11
0.680902
21
0.987718
0
LINE
8
BLACK
6
CONTINUOUS
10
0.680902
20
0.987718
11
0.680238
21
0.988102
0
LINE
8
BLACK
6
CONTINUOUS
10
0.680238
20
0.988102
11
0.680147
21
0.988352
0
LINE
8
BLACK
6
CONTINUOUS
10
0.680147
20
0.988352
11
0.679943
21
0.988524
0
LINE
8
BLACK
6
CONTINUOUS
10
0.679943
20
0.988524
11
0.67981
21
0.989279
0
LINE
8
BLACK
6
CONTINUOUS
10
0.67981
20
0.989279
11
0.679547
21
0.99
0
LINE
8
BLACK
6
CONTINUOUS
10
0.679547
20
0.99
11
0.679547
21
1.05
0
LINE
8
BLACK
6
CONTINUOUS
10
0.679547
20
1.05
11
0.679615
21
1.05038
0
LINE
8
BLACK
6
CONTINUOUS
10
0.679615
20
1.05038
11
0.679592
21
1.05051
0
LINE
8
BLACK
6
CONTINUOUS
10
0.679592
20
1.05051
11
0.679658
21
1.05063
0
LINE
8
BLACK
6
CONTINUOUS
10
0.679658
20
1.05063
11
0.679725
21
1.05101
0
LINE
8
BLACK
6
CONTINUOUS
10
0.679725
20
1.05101
11
0.680218
21
1.0516
0
LINE
8
BLACK
6
CONTINUOUS
10
0.680218
20
1.0516
11
0.680602
21
1.05226
0
LINE
8
BLACK
6
CONTINUOUS
10
0.680602
20
1.05226
11
0.680852
21
1.05235
0
LINE
8
BLACK
6
CONTINUOUS
10
0.680852
20
1.05235
11
0.681024
21
1.05256
0
LINE
8
BLACK
6
CONTINUOUS
10
0.681024
20
1.05256
11
0.681779
21
1.05269
0
LINE
8
BLACK
6
CONTINUOUS
10
0.681779
20
1.05269
11
0.6825
21
1.05295
0
LINE
8
BLACK
6
CONTINUOUS
10
0.6825
20
1.05295
11
0.7225
21
1.05295
0
LINE
8
BLACK
6
CONTINUOUS
10
0.7225
20
1.05295
11
0.72351
21
1.05277
0
LINE
8
BLACK
6
CONTINUOUS
10
0.822458
20
1.05622
11
0.824665
21
1.05345
0
LINE
8
BLACK
6
CONTINUOUS
10
0.824665
20
1.05345
11
0.824779
21
1.05295
0
LINE
8
BLACK
6
CONTINUOUS
10
0.824779
20
1.05295
11
0.8625
21
1.05295
0
LINE
8
BLACK
6
CONTINUOUS
10
0.8625
20
1.05295
11
0.86351
21
1.05277
0
LINE
8
BLACK
6
CONTINUOUS
10
0.86351
20
1.05277
11
0.865057
21
1.05148
0
LINE
8
BLACK
6
CONTINUOUS
10
0.865057
20
1.05148
11
0.865408
21
1.04949
0
LINE
8
BLACK
6
CONTINUOUS
10
0.865408
20
1.04949
11
0.864398
21
1.04774
0
LINE
8
BLACK
6
CONTINUOUS
10
0.864398
20
1.04774
11
0.863748
21
1.0475
0
LINE
8
BLACK
6
CONTINUOUS
10
0.863748
20
1.0475
11
0.864161
21
1.04733
0
LINE
8
BLACK
6
CONTINUOUS
10
0.864161
20
1.04733
11
0.871748
21
1.03974
0
LINE
8
BLACK
6
CONTINUOUS
10
0.871748
20
1.03974
11
0.871748
21
1.04581
0
LINE
8
BLACK
6
CONTINUOUS
10
0.871748
20
1.04581
11
0.872377
21
1.04733
0
LINE
8
BLACK
6
CONTINUOUS
10
0.872377
20
1.04733
11
0.873898
21
1.04796
0
LINE
8
BLACK
6
CONTINUOUS
10
0.873898
20
1.04796
11
0.875418
21
1.04733
0
LINE
8
BLACK
6
CONTINUOUS
10
0.875418
20
1.04733
11
0.876048
21
1.04581
0
LINE
8
BLACK
6
CONTINUOUS
10
0.876048
20
1.04581
11
0.876048
21
1.02611
0
LINE
8
BLACK
6
CONTINUOUS
10
0.876048
20
1.02611
11
0.875418
21
1.02459
0
LINE
8
BLACK
6
CONTINUOUS
10
0.875418
20
1.02459
11
0.873898
21
1.02396
0
LINE
8
BLACK
6
CONTINUOUS
10
0.873898
20
1.02396
11
0.872377
21
1.02459
0
LINE
8
BLACK
6
CONTINUOUS
10
0.872377
20
1.02459
11
0.871748
21
1.02611
0
LINE
8
BLACK
6
CONTINUOUS
10
0.871748
20
1.02611
11
0.871748
21
1.03366
0
LINE
8
BLACK
6
CONTINUOUS
10
0.871748
20
1.03366
11
0.871316
21
1.03409
0
LINE
8
BLACK
6
CONTINUOUS
10
0.871316
20
1.03409
11
0.86436
21
1.02482
0
LINE
8
BLACK
6
CONTINUOUS
10
0.86436
20
1.02482
11
0.862945
21
1.02398
0
LINE
8
BLACK
6
CONTINUOUS
10
0.862945
20
1.02398
11
0.86135
21
1.02439
0
LINE
8
BLACK
6
CONTINUOUS
10
0.86135
20
1.02439
11
0.860512
21
1.02581
0
LINE
8
BLACK
6
CONTINUOUS
10
0.860512
20
1.02581
11
0.86092
21
1.0274
0
LINE
8
BLACK
6
CONTINUOUS
10
0.86092
20
1.0274
11
0.868244
21
1.03717
0
LINE
8
BLACK
6
CONTINUOUS
10
0.868244
20
1.03717
11
0.86112
21
1.04429
0
LINE
8
BLACK
6
CONTINUOUS
10
0.86112
20
1.04429
11
0.86049
21
1.04581
0
LINE
8
BLACK
6
CONTINUOUS
10
0.86049
20
1.04581
11
0.861003
21
1.04705
0
LINE
8
BLACK
6
CONTINUOUS
10
0.861003
20
1.04705
11
0.825453
21
1.04705
0
LINE
8
BLACK
6
CONTINUOUS
10
0.825453
20
1.04705
11
0.825453
21
0.992953
0
LINE
8
BLACK
6
CONTINUOUS
10
0.825453
20
0.992953
11
0.8625
21
0.992953
0
LINE
8
BLACK
6
CONTINUOUS
10
0.8625
20
0.992953
11
0.86351
21
0.992775
0
LINE
8
BLACK
6
CONTINUOUS
10
0.86351
20
0.992775
11
0.865057
21
0.991476
0
LINE
8
BLACK
6
CONTINUOUS
10
0.865057
20
0.991476
11
0.865408
21
0.989487
0
LINE
8
BLACK
6
CONTINUOUS
10
0.865408
20
0.989487
11
0.864398
21
0.987738
0
LINE
8
BLACK
6
CONTINUOUS
10
0.864398
20
0.987738
11
0.8625
21
0.987047
0
LINE
8
BLACK
6
CONTINUOUS
10
0.8625
20
0.987047
11
0.8225
21
0.987047
0
LINE
8
BLACK
6
CONTINUOUS
10
0.8225
20
0.987047
11
0.822116
21
0.987115
0
LINE
8
BLACK
6
CONTINUOUS
10
0.822116
20
0.987115
11
0.821987
21
0.987092
0
LINE
8
BLACK
6
CONTINUOUS
10
0.821987
20
0.987092
11
0.821874
21
0.987158
0
LINE
8
BLACK
6
CONTINUOUS
10
0.821874
20
0.987158
11
0.82149
21
0.987225
0
LINE
8
BLACK
6
CONTINUOUS
10
0.82149
20
0.987225
11
0.820902
21
0.987718
0
LINE
8
BLACK
6
CONTINUOUS
10
0.820902
20
0.987718
11
0.820238
21
0.988102
0
LINE
8
BLACK
6
CONTINUOUS
10
0.820238
20
0.988102
11
0.820147
21
0.988352
0
LINE
8
BLACK
6
CONTINUOUS
10
0.820147
20
0.988352
11
0.819943
21
0.988524
0
LINE
8
BLACK
6
CONTINUOUS
10
0.819943
20
0.988524
11
0.81981
21
0.989279
0
LINE
8
BLACK
6
CONTINUOUS
10
0.81981
20
0.989279
11
0.819547
21
0.99
0
LINE
8
BLACK
6
CONTINUOUS
10
0.819547
20
0.99
11
0.819547
21
1.04238
0
LINE
8
BLACK
6
CONTINUOUS
10
0.819547
20
1.04238
11
0.81927
21
1.04225
0
LINE
8
BLACK
6
CONTINUOUS
10
0.81927
20
1.04225
11
0.81573
21
1.04225
0
LINE
8
BLACK
6
CONTINUOUS
10
0.81573
20
1.04225
11
0.812542
21
1.04378
0
LINE
8
BLACK
6
CONTINUOUS
10
0.812542
20
1.04378
11
0.810335
21
1.04655
0
LINE
8
BLACK
6
CONTINUOUS
10
0.810335
20
1.04655
11
0.809547
21
1.05
0
LINE
8
BLACK
6
CONTINUOUS
10
0.809547
20
1.05
11
0.810335
21
1.05345
0
LINE
8
BLACK
6
CONTINUOUS
10
0.810335
20
1.05345
11
0.812542
21
1.05622
0
LINE
8
BLACK
6
CONTINUOUS
10
0.812542
20
1.05622
11
0.81573
21
1.05775
0
LINE
8
BLACK
6
CONTINUOUS
10
0.81573
20
1.05775
11
0.81927
21
1.05775
0
LINE
8
BLACK
6
CONTINUOUS
10
0.81927
20
1.05775
11
0.822458
21
1.05622
0
LINE
8
BLACK
6
CONTINUOUS
10
0.815933
20
1.04843
11
0.8175
21
1.04778
0
LINE
8
BLACK
6
CONTINUOUS
10
0.8175
20
1.04778
11
0.819067
21
1.04843
0
LINE
8
BLACK
6
CONTINUOUS
10
0.819067
20
1.04843
11
0.819547
21
1.04959
0
LINE
8
BLACK
6
CONTINUOUS
10
0.819547
20
1.04959
11
0.819547
21
1.05
0
LINE
8
BLACK
6
CONTINUOUS
10
0.819547
20
1.05
11
0.819598
21
1.05029
0
LINE
8
BLACK
6
CONTINUOUS
10
0.819598
20
1.05029
11
0.819067
21
1.05157
0
LINE
8
BLACK
6
CONTINUOUS
10
0.819067
20
1.05157
11
0.8175
21
1.05222
0
LINE
8
BLACK
6
CONTINUOUS
10
0.8175
20
1.05222
11
0.815933
21
1.05157
0
LINE
8
BLACK
6
CONTINUOUS
10
0.815933
20
1.05157
11
0.815284
21
1.05
0
LINE
8
BLACK
6
CONTINUOUS
10
0.815284
20
1.05
11
0.815933
21
1.04843
0
LINE
8
BLACK
6
CONTINUOUS
10
0.942884
20
1.05289
11
0.943013
21
1.05291
0
LINE
8
BLACK
6
CONTINUOUS
10
0.943013
20
1.05291
11
0.943126
21
1.05284
0
LINE
8
BLACK
6
CONTINUOUS
10
0.943126
20
1.05284
11
0.94351
21
1.05277
0
LINE
8
BLACK
6
CONTINUOUS
10
0.94351
20
1.05277
11
0.944098
21
1.05228
0
LINE
8
BLACK
6
CONTINUOUS
10
0.944098
20
1.05228
11
0.944762
21
1.0519
0
LINE
8
BLACK
6
CONTINUOUS
10
0.944762
20
1.0519
11
0.944853
21
1.05165
0
LINE
8
BLACK
6
CONTINUOUS
10
0.944853
20
1.05165
11
0.945057
21
1.05148
0
LINE
8
BLACK
6
CONTINUOUS
10
0.945057
20
1.05148
11
0.94519
21
1.05072
0
LINE
8
BLACK
6
CONTINUOUS
10
0.94519
20
1.05072
11
0.945453
21
1.05
0
LINE
8
BLACK
6
CONTINUOUS
10
0.945453
20
1.05
11
0.945453
21
0.99
0
LINE
8
BLACK
6
CONTINUOUS
10
0.945453
20
0.99
11
0.945385
21
0.989616
0
LINE
8
BLACK
6
CONTINUOUS
10
0.945385
20
0.989616
11
0.945408
21
0.989487
0
LINE
8
BLACK
6
CONTINUOUS
10
0.945408
20
0.989487
11
0.945342
21
0.989374
0
LINE
8
BLACK
6
CONTINUOUS
10
0.945342
20
0.989374
11
0.945275
21
0.98899
0
LINE
8
BLACK
6
CONTINUOUS
10
0.945275
20
0.98899
11
0.944782
21
0.988402
0
LINE
8
BLACK
6
CONTINUOUS
10
0.944782
20
0.988402
11
0.944398
21
0.987738
0
LINE
8
BLACK
6
CONTINUOUS
10
0.944398
20
0.987738
11
0.944148
21
0.987647
0
LINE
8
BLACK
6
CONTINUOUS
10
0.944148
20
0.987647
11
0.943976
21
0.987443
0
LINE
8
BLACK
6
CONTINUOUS
10
0.943976
20
0.987443
11
0.943221
21
0.98731
0
LINE
8
BLACK
6
CONTINUOUS
10
0.943221
20
0.98731
11
0.9425
21
0.987047
0
LINE
8
BLACK
6
CONTINUOUS
10
0.9425
20
0.987047
11
0.9025
21
0.987047
0
LINE
8
BLACK
6
CONTINUOUS
10
0.9025
20
0.987047
11
0.90149
21
0.987225
0
LINE
8
BLACK
6
CONTINUOUS
10
0.90149
20
0.987225
11
0.899943
21
0.988524
0
LINE
8
BLACK
6
CONTINUOUS
10
0.899943
20
0.988524
11
0.899592
21
0.990513
0
LINE
8
BLACK
6
CONTINUOUS
10
0.899592
20
0.990513
11
0.900602
21
0.992262
0
LINE
8
BLACK
6
CONTINUOUS
10
0.900602
20
0.992262
11
0.9025
21
0.992953
0
LINE
8
BLACK
6
CONTINUOUS
10
0.9025
20
0.992953
11
0.939547
21
0.992953
0
LINE
8
BLACK
6
CONTINUOUS
10
0.939547
20
0.992953
11
0.939547
21
1.04705
0
LINE
8
BLACK
6
CONTINUOUS
10
0.939547
20
1.04705
11
0.908453
21
1.04705
0
LINE
8
BLACK
6
CONTINUOUS
10
0.908453
20
1.04705
11
0.90852
21
1.047
0
LINE
8
BLACK
6
CONTINUOUS
10
0.90852
20
1.047
11
0.910278
21
1.04437
0
LINE
8
BLACK
6
CONTINUOUS
10
0.910278
20
1.04437
11
0.911757
21
1.04289
0
LINE
8
BLACK
6
CONTINUOUS
10
0.911757
20
1.04289
11
0.913321
21
1.0421
0
LINE
8
BLACK
6
CONTINUOUS
10
0.913321
20
1.0421
11
0.914399
21
1.04086
0
LINE
8
BLACK
6
CONTINUOUS
10
0.914399
20
1.04086
11
0.914282
21
1.03922
0
LINE
8
BLACK
6
CONTINUOUS
10
0.914282
20
1.03922
11
0.913039
21
1.03814
0
LINE
8
BLACK
6
CONTINUOUS
10
0.913039
20
1.03814
11
0.911398
21
1.03826
0
LINE
8
BLACK
6
CONTINUOUS
10
0.911398
20
1.03826
11
0.909522
21
1.0392
0
LINE
8
BLACK
6
CONTINUOUS
10
0.909522
20
1.0392
11
0.90929
21
1.03946
0
LINE
8
BLACK
6
CONTINUOUS
10
0.90929
20
1.03946
11
0.908963
21
1.0396
0
LINE
8
BLACK
6
CONTINUOUS
10
0.908963
20
1.0396
11
0.908881
21
1.03968
0
LINE
8
BLACK
6
CONTINUOUS
10
0.908881
20
1.03968
11
0.908881
21
1.02826
0
LINE
8
BLACK
6
CONTINUOUS
10
0.908881
20
1.02826
11
0.912359
21
1.02826
0
LINE
8
BLACK
6
CONTINUOUS
10
0.912359
20
1.02826
11
0.91388
21
1.02763
0
LINE
8
BLACK
6
CONTINUOUS
10
0.91388
20
1.02763
11
0.914509
21
1.02611
0
LINE
8
BLACK
6
CONTINUOUS
10
0.914509
20
1.02611
11
0.91388
21
1.02459
0
LINE
8
BLACK
6
CONTINUOUS
10
0.91388
20
1.02459
11
0.912359
21
1.02396
0
LINE
8
BLACK
6
CONTINUOUS
10
0.912359
20
1.02396
11
0.906731
21
1.02396
0
LINE
8
BLACK
6
CONTINUOUS
10
0.906731
20
1.02396
11
0.901102
21
1.02396
0
LINE
8
BLACK
6
CONTINUOUS
10
0.901102
20
1.02396
11
0.899582
21
1.02459
0
LINE
8
BLACK
6
CONTINUOUS
10
0.899582
20
1.02459
11
0.898952
21
1.02611
0
LINE
8
BLACK
6
CONTINUOUS
10
0.898952
20
1.02611
11
0.899582
21
1.02763
0
LINE
8
BLACK
6
CONTINUOUS
10
0.899582
20
1.02763
11
0.901102
21
1.02826
0
LINE
8
BLACK
6
CONTINUOUS
10
0.901102
20
1.02826
11
0.904581
21
1.02826
0
LINE
8
BLACK
6
CONTINUOUS
10
0.904581
20
1.02826
11
0.904581
21
1.04581
0
LINE
8
BLACK
6
CONTINUOUS
10
0.904581
20
1.04581
11
0.904666
21
1.04601
0
LINE
8
BLACK
6
CONTINUOUS
10
0.904666
20
1.04601
11
0.904623
21
1.04623
0
LINE
8
BLACK
6
CONTINUOUS
10
0.904623
20
1.04623
11
0.904971
21
1.04675
0
LINE
8
BLACK
6
CONTINUOUS
10
0.904971
20
1.04675
11
0.905093
21
1.04705
0
LINE
8
BLACK
6
CONTINUOUS
10
0.905093
20
1.04705
11
0.9025
21
1.04705
0
LINE
8
BLACK
6
CONTINUOUS
10
0.9025
20
1.04705
11
0.90149
21
1.04723
0
LINE
8
BLACK
6
CONTINUOUS
10
0.90149
20
1.04723
11
0.899943
21
1.04852
0
LINE
8
BLACK
6
CONTINUOUS
10
0.899943
20
1.04852
11
0.899592
21
1.05051
0
LINE
8
BLACK
6
CONTINUOUS
10
0.899592
20
1.05051
11
0.900602
21
1.05226
0
LINE
8
BLACK
6
CONTINUOUS
10
0.900602
20
1.05226
11
0.9025
21
1.05295
0
LINE
8
BLACK
6
CONTINUOUS
10
0.9025
20
1.05295
11
0.9425
21
1.05295
0
LINE
8
BLACK
6
CONTINUOUS
10
0.9425
20
1.05295
11
0.942884
21
1.05289
0
LINE
8
BLACK
6
CONTINUOUS
10
0.725418
20
1.01733
11
0.726048
21
1.01581
0
LINE
8
BLACK
6
CONTINUOUS
10
0.726048
20
1.01581
11
0.726048
21
0.99611
0
LINE
8
BLACK
6
CONTINUOUS
10
0.726048
20
0.99611
11
0.725418
21
0.99459
0
LINE
8
BLACK
6
CONTINUOUS
10
0.725418
20
0.99459
11
0.723898
21
0.99396
0
LINE
8
BLACK
6
CONTINUOUS
10
0.723898
20
0.99396
11
0.722377
21
0.99459
0
LINE
8
BLACK
6
CONTINUOUS
10
0.722377
20
0.99459
11
0.721748
21
0.99611
0
LINE
8
BLACK
6
CONTINUOUS
10
0.721748
20
0.99611
11
0.721748
21
1.00366
0
LINE
8
BLACK
6
CONTINUOUS
10
0.721748
20
1.00366
11
0.721316
21
1.00409
0
LINE
8
BLACK
6
CONTINUOUS
10
0.721316
20
1.00409
11
0.71436
21
0.99482
0
LINE
8
BLACK
6
CONTINUOUS
10
0.71436
20
0.99482
11
0.712945
21
0.993982
0
LINE
8
BLACK
6
CONTINUOUS
10
0.712945
20
0.993982
11
0.71135
21
0.99439
0
LINE
8
BLACK
6
CONTINUOUS
10
0.71135
20
0.99439
11
0.710512
21
0.995806
0
LINE
8
BLACK
6
CONTINUOUS
10
0.710512
20
0.995806
11
0.71092
21
0.9974
0
LINE
8
BLACK
6
CONTINUOUS
10
0.71092
20
0.9974
11
0.718244
21
1.00717
0
LINE
8
BLACK
6
CONTINUOUS
10
0.718244
20
1.00717
11
0.71112
21
1.01429
0
LINE
8
BLACK
6
CONTINUOUS
10
0.71112
20
1.01429
11
0.71049
21
1.01581
0
LINE
8
BLACK
6
CONTINUOUS
10
0.71049
20
1.01581
11
0.71112
21
1.01733
0
LINE
8
BLACK
6
CONTINUOUS
10
0.71112
20
1.01733
11
0.71264
21
1.01796
0
LINE
8
BLACK
6
CONTINUOUS
10
0.71264
20
1.01796
11
0.714161
21
1.01733
0
LINE
8
BLACK
6
CONTINUOUS
10
0.714161
20
1.01733
11
0.721748
21
1.00974
0
LINE
8
BLACK
6
CONTINUOUS
10
0.721748
20
1.00974
11
0.721748
21
1.01581
0
LINE
8
BLACK
6
CONTINUOUS
10
0.721748
20
1.01581
11
0.722377
21
1.01733
0
LINE
8
BLACK
6
CONTINUOUS
10
0.722377
20
1.01733
11
0.723898
21
1.01796
0
LINE
8
BLACK
6
CONTINUOUS
10
0.723898
20
1.01796
11
0.725418
21
1.01733
0
LINE
8
BLACK
6
CONTINUOUS
10
0.739369
20
1.01777
11
0.739869
21
1.01773
0
LINE
8
BLACK
6
CONTINUOUS
10
0.739869
20
1.01773
11
0.741745
21
1.01679
0
LINE
8
BLACK
6
CONTINUOUS
10
0.741745
20
1.01679
11
0.741977
21
1.01653
0
LINE
8
BLACK
6
CONTINUOUS
10
0.741977
20
1.01653
11
0.742304
21
1.01639
0
LINE
8
BLACK
6
CONTINUOUS
10
0.742304
20
1.01639
11
0.743242
21
1.01545
0
LINE
8
BLACK
6
CONTINUOUS
10
0.743242
20
1.01545
11
0.743377
21
1.01513
0
LINE
8
BLACK
6
CONTINUOUS
10
0.743377
20
1.01513
11
0.743644
21
1.0149
0
LINE
8
BLACK
6
CONTINUOUS
10
0.743644
20
1.0149
11
0.744583
21
1.01302
0
LINE
8
BLACK
6
CONTINUOUS
10
0.744583
20
1.01302
11
0.7446
21
1.01278
0
LINE
8
BLACK
6
CONTINUOUS
10
0.7446
20
1.01278
11
0.744745
21
1.01258
0
LINE
8
BLACK
6
CONTINUOUS
10
0.744745
20
1.01258
11
0.745683
21
1.00883
0
LINE
8
BLACK
6
CONTINUOUS
10
0.745683
20
1.00883
11
0.745643
21
1.00856
0
LINE
8
BLACK
6
CONTINUOUS
10
0.745643
20
1.00856
11
0.745748
21
1.00831
0
LINE
8
BLACK
6
CONTINUOUS
10
0.745748
20
1.00831
11
0.745748
21
1.00361
0
LINE
8
BLACK
6
CONTINUOUS
10
0.745748
20
1.00361
11
0.745643
21
1.00336
0
LINE
8
BLACK
6
CONTINUOUS
10
0.745643
20
1.00336
11
0.745683
21
1.00309
0
LINE
8
BLACK
6
CONTINUOUS
10
0.745683
20
1.00309
11
0.744745
21
0.999341
0
LINE
8
BLACK
6
CONTINUOUS
10
0.744745
20
0.999341
11
0.7446
21
0.999145
0
LINE
8
BLACK
6
CONTINUOUS
10
0.7446
20
0.999145
11
0.744583
21
0.998901
0
LINE
8
BLACK
6
CONTINUOUS
10
0.744583
20
0.998901
11
0.743644
21
0.997025
0
LINE
8
BLACK
6
CONTINUOUS
10
0.743644
20
0.997025
11
0.743377
21
0.996793
0
LINE
8
BLACK
6
CONTINUOUS
10
0.743377
20
0.996793
11
0.743242
21
0.996466
0
LINE
8
BLACK
6
CONTINUOUS
10
0.743242
20
0.996466
11
0.742304
21
0.995528
0
LINE
8
BLACK
6
CONTINUOUS
10
0.742304
20
0.995528
11
0.741977
21
0.995392
0
LINE
8
BLACK
6
CONTINUOUS
10
0.741977
20
0.995392
11
0.741745
21
0.995125
0
LINE
8
BLACK
6
CONTINUOUS
10
0.741745
20
0.995125
11
0.739869
21
0.994187
0
LINE
8
BLACK
6
CONTINUOUS
10
0.739869
20
0.994187
11
0.739369
21
0.994151
0
LINE
8
BLACK
6
CONTINUOUS
10
0.739369
20
0.994151
11
0.738907
21
0.99396
0
LINE
8
BLACK
6
CONTINUOUS
10
0.738907
20
0.99396
11
0.737031
21
0.99396
0
LINE
8
BLACK
6
CONTINUOUS
10
0.737031
20
0.99396
11
0.736569
21
0.994151
0
LINE
8
BLACK
6
CONTINUOUS
10
0.736569
20
0.994151
11
0.736069
21
0.994187
0
LINE
8
BLACK
6
CONTINUOUS
10
0.736069
20
0.994187
11
0.734193
21
0.995125
0
LINE
8
BLACK
6
CONTINUOUS
10
0.734193
20
0.995125
11
0.733961
21
0.995392
0
LINE
8
BLACK
6
CONTINUOUS
10
0.733961
20
0.995392
11
0.733634
21
0.995528
0
LINE
8
BLACK
6
CONTINUOUS
10
0.733634
20
0.995528
11
0.732696
21
0.996466
0
LINE
8
BLACK
6
CONTINUOUS
10
0.732696
20
0.996466
11
0.732561
21
0.996793
0
LINE
8
BLACK
6
CONTINUOUS
10
0.732561
20
0.996793
11
0.732294
21
0.997025
0
LINE
8
BLACK
6
CONTINUOUS
10
0.732294
20
0.997025
11
0.731356
21
0.998901
0
LINE
8
BLACK
6
CONTINUOUS
10
0.731356
20
0.998901
11
0.731338
21
0.999145
0
LINE
8
BLACK
6
CONTINUOUS
10
0.731338
20
0.999145
11
0.731193
21
0.999341
0
LINE
8
BLACK
6
CONTINUOUS
10
0.731193
20
0.999341
11
0.730255
21
1.00309
0
LINE
8
BLACK
6
CONTINUOUS
10
0.730255
20
1.00309
11
0.730295
21
1.00336
0
LINE
8
BLACK
6
CONTINUOUS
10
0.730295
20
1.00336
11
0.73019
21
1.00361
0
LINE
8
BLACK
6
CONTINUOUS
10
0.73019
20
1.00361
11
0.73019
21
1.00831
0
LINE
8
BLACK
6
CONTINUOUS
10
0.73019
20
1.00831
11
0.730295
21
1.00856
0
LINE
8
BLACK
6
CONTINUOUS
10
0.730295
20
1.00856
11
0.730255
21
1.00883
0
LINE
8
BLACK
6
CONTINUOUS
10
0.730255
20
1.00883
11
0.731193
21
1.01258
0
LINE
8
BLACK
6
CONTINUOUS
10
0.731193
20
1.01258
11
0.731338
21
1.01278
0
LINE
8
BLACK
6
CONTINUOUS
10
0.731338
20
1.01278
11
0.731356
21
1.01302
0
LINE
8
BLACK
6
CONTINUOUS
10
0.731356
20
1.01302
11
0.732294
21
1.0149
0
LINE
8
BLACK
6
CONTINUOUS
10
0.732294
20
1.0149
11
0.732561
21
1.01513
0
LINE
8
BLACK
6
CONTINUOUS
10
0.732561
20
1.01513
11
0.732696
21
1.01545
0
LINE
8
BLACK
6
CONTINUOUS
10
0.732696
20
1.01545
11
0.733634
21
1.01639
0
LINE
8
BLACK
6
CONTINUOUS
10
0.733634
20
1.01639
11
0.733961
21
1.01653
0
LINE
8
BLACK
6
CONTINUOUS
10
0.733961
20
1.01653
11
0.734193
21
1.01679
0
LINE
8
BLACK
6
CONTINUOUS
10
0.734193
20
1.01679
11
0.736069
21
1.01773
0
LINE
8
BLACK
6
CONTINUOUS
10
0.736069
20
1.01773
11
0.736569
21
1.01777
0
LINE
8
BLACK
6
CONTINUOUS
10
0.736569
20
1.01777
11
0.737031
21
1.01796
0
LINE
8
BLACK
6
CONTINUOUS
10
0.737031
20
1.01796
11
0.738907
21
1.01796
0
LINE
8
BLACK
6
CONTINUOUS
10
0.738907
20
1.01796
11
0.739369
21
1.01777
0
LINE
8
BLACK
6
CONTINUOUS
10
0.736428
20
1.0131
11
0.735984
21
1.01266
0
LINE
8
BLACK
6
CONTINUOUS
10
0.735984
20
1.01266
11
0.735307
21
1.01131
0
LINE
8
BLACK
6
CONTINUOUS
10
0.735307
20
1.01131
11
0.73449
21
1.00804
0
LINE
8
BLACK
6
CONTINUOUS
10
0.73449
20
1.00804
11
0.73449
21
1.00388
0
LINE
8
BLACK
6
CONTINUOUS
10
0.73449
20
1.00388
11
0.735307
21
1.00061
0
LINE
8
BLACK
6
CONTINUOUS
10
0.735307
20
1.00061
11
0.735984
21
0.99926
0
LINE
8
BLACK
6
CONTINUOUS
10
0.735984
20
0.99926
11
0.736428
21
0.998815
0
LINE
8
BLACK
6
CONTINUOUS
10
0.736428
20
0.998815
11
0.737539
21
0.99826
0
LINE
8
BLACK
6
CONTINUOUS
10
0.737539
20
0.99826
11
0.7384
21
0.99826
0
LINE
8
BLACK
6
CONTINUOUS
10
0.7384
20
0.99826
11
0.73951
21
0.998815
0
LINE
8
BLACK
6
CONTINUOUS
10
0.73951
20
0.998815
11
0.739954
21
0.99926
0
LINE
8
BLACK
6
CONTINUOUS
10
0.739954
20
0.99926
11
0.740631
21
1.00061
0
LINE
8
BLACK
6
CONTINUOUS
10
0.740631
20
1.00061
11
0.741448
21
1.00388
0
LINE
8
BLACK
6
CONTINUOUS
10
0.741448
20
1.00388
11
0.741448
21
1.00804
0
LINE
8
BLACK
6
CONTINUOUS
10
0.741448
20
1.00804
11
0.740631
21
1.01131
0
LINE
8
BLACK
6
CONTINUOUS
10
0.740631
20
1.01131
11
0.739954
21
1.01266
0
LINE
8
BLACK
6
CONTINUOUS
10
0.739954
20
1.01266
11
0.73951
21
1.0131
0
LINE
8
BLACK
6
CONTINUOUS
10
0.73951
20
1.0131
11
0.7384
21
1.01366
0
LINE
8
BLACK
6
CONTINUOUS
10
0.7384
20
1.01366
11
0.737539
21
1.01366
0
LINE
8
BLACK
6
CONTINUOUS
10
0.737539
20
1.01366
11
0.736428
21
1.0131
0
LINE
8
BLACK
6
CONTINUOUS
10
0.756935
20
1.01788
11
0.757153
21
1.01792
0
LINE
8
BLACK
6
CONTINUOUS
10
0.757153
20
1.01792
11
0.757673
21
1.01757
0
LINE
8
BLACK
6
CONTINUOUS
10
0.757673
20
1.01757
11
0.758251
21
1.01733
0
LINE
8
BLACK
6
CONTINUOUS
10
0.758251
20
1.01733
11
0.758336
21
1.01713
0
LINE
8
BLACK
6
CONTINUOUS
10
0.758336
20
1.01713
11
0.75852
21
1.017
0
LINE
8
BLACK
6
CONTINUOUS
10
0.75852
20
1.017
11
0.760278
21
1.01437
0
LINE
8
BLACK
6
CONTINUOUS
10
0.760278
20
1.01437
11
0.761757
21
1.01289
0
LINE
8
BLACK
6
CONTINUOUS
10
0.761757
20
1.01289
11
0.763321
21
1.0121
0
LINE
8
BLACK
6
CONTINUOUS
10
0.763321
20
1.0121
11
0.764399
21
1.01086
0
LINE
8
BLACK
6
CONTINUOUS
10
0.764399
20
1.01086
11
0.764282
21
1.00922
0
LINE
8
BLACK
6
CONTINUOUS
10
0.764282
20
1.00922
11
0.763039
21
1.00814
0
LINE
8
BLACK
6
CONTINUOUS
10
0.763039
20
1.00814
11
0.761398
21
1.00826
0
LINE
8
BLACK
6
CONTINUOUS
10
0.761398
20
1.00826
11
0.759522
21
1.0092
0
LINE
8
BLACK
6
CONTINUOUS
10
0.759522
20
1.0092
11
0.75929
21
1.00946
0
LINE
8
BLACK
6
CONTINUOUS
10
0.75929
20
1.00946
11
0.758963
21
1.0096
0
LINE
8
BLACK
6
CONTINUOUS
10
0.758963
20
1.0096
11
0.758881
21
1.00968
0
LINE
8
BLACK
6
CONTINUOUS
10
0.758881
20
1.00968
11
0.758881
21
0.99826
0
LINE
8
BLACK
6
CONTINUOUS
10
0.758881
20
0.99826
11
0.762359
21
0.99826
0
LINE
8
BLACK
6
CONTINUOUS
10
0.762359
20
0.99826
11
0.76388
21
0.99763
0
LINE
8
BLACK
6
CONTINUOUS
10
0.76388
20
0.99763
11
0.764509
21
0.99611
0
LINE
8
BLACK
6
CONTINUOUS
10
0.764509
20
0.99611
11
0.76388
21
0.99459
0
LINE
8
BLACK
6
CONTINUOUS
10
0.76388
20
0.99459
11
0.762359
21
0.99396
0
LINE
8
BLACK
6
CONTINUOUS
10
0.762359
20
0.99396
11
0.756731
21
0.99396
0
LINE
8
BLACK
6
CONTINUOUS
10
0.756731
20
0.99396
11
0.751102
21
0.99396
0
LINE
8
BLACK
6
CONTINUOUS
10
0.751102
20
0.99396
11
0.749582
21
0.99459
0
LINE
8
BLACK
6
CONTINUOUS
10
0.749582
20
0.99459
11
0.748952
21
0.99611
0
LINE
8
BLACK
6
CONTINUOUS
10
0.748952
20
0.99611
11
0.749582
21
0.99763
0
LINE
8
BLACK
6
CONTINUOUS
10
0.749582
20
0.99763
11
0.751102
21
0.99826
0
LINE
8
BLACK
6
CONTINUOUS
10
0.751102
20
0.99826
11
0.754581
21
0.99826
0
LINE
8
BLACK
6
CONTINUOUS
10
0.754581
20
0.99826
11
0.754581
21
1.01581
0
LINE
8
BLACK
6
CONTINUOUS
10
0.754581
20
1.01581
11
0.754666
21
1.01601
0
LINE
8
BLACK
6
CONTINUOUS
10
0.754666
20
1.01601
11
0.754623
21
1.01623
0
LINE
8
BLACK
6
CONTINUOUS
10
0.754623
20
1.01623
11
0.754971
21
1.01675
0
LINE
8
BLACK
6
CONTINUOUS
10
0.754971
20
1.01675
11
0.755211
21
1.01733
0
LINE
8
BLACK
6
CONTINUOUS
10
0.755211
20
1.01733
11
0.755415
21
1.01741
0
LINE
8
BLACK
6
CONTINUOUS
10
0.755415
20
1.01741
11
0.755538
21
1.0176
0
LINE
8
BLACK
6
CONTINUOUS
10
0.755538
20
1.0176
11
0.756152
21
1.01772
0
LINE
8
BLACK
6
CONTINUOUS
10
0.756152
20
1.01772
11
0.756731
21
1.01796
0
LINE
8
BLACK
6
CONTINUOUS
10
0.756731
20
1.01796
11
0.756935
21
1.01788
0
LINE
8
BLACK
6
CONTINUOUS
10
0.880737
20
1.01983
11
0.881367
21
1.01831
0
LINE
8
BLACK
6
CONTINUOUS
10
0.881367
20
1.01831
11
0.880737
21
1.01679
0
LINE
8
BLACK
6
CONTINUOUS
10
0.880737
20
1.01679
11
0.879217
21
1.01616
0
LINE
8
BLACK
6
CONTINUOUS
10
0.879217
20
1.01616
11
0.871759
21
1.01616
0
LINE
8
BLACK
6
CONTINUOUS
10
0.871759
20
1.01616
11
0.875206
21
1.01222
0
LINE
8
BLACK
6
CONTINUOUS
10
0.875206
20
1.01222
11
0.875448
21
1.0115
0
LINE
8
BLACK
6
CONTINUOUS
10
0.875448
20
1.0115
11
0.875738
21
1.01081
0
LINE
8
BLACK
6
CONTINUOUS
10
0.875738
20
1.01081
11
0.875709
21
1.01073
0
LINE
8
BLACK
6
CONTINUOUS
10
0.875709
20
1.01073
11
0.875733
21
1.01066
0
LINE
8
BLACK
6
CONTINUOUS
10
0.875733
20
1.01066
11
0.875398
21
1.00998
0
LINE
8
BLACK
6
CONTINUOUS
10
0.875398
20
1.00998
11
0.875108
21
1.00928
0
LINE
8
BLACK
6
CONTINUOUS
10
0.875108
20
1.00928
11
0.875038
21
1.00926
0
LINE
8
BLACK
6
CONTINUOUS
10
0.875038
20
1.00926
11
0.875004
21
1.00919
0
LINE
8
BLACK
6
CONTINUOUS
10
0.875004
20
1.00919
11
0.874287
21
1.00894
0
LINE
8
BLACK
6
CONTINUOUS
10
0.874287
20
1.00894
11
0.873588
21
1.00866
0
LINE
8
BLACK
6
CONTINUOUS
10
0.873588
20
1.00866
11
0.871281
21
1.00866
0
LINE
8
BLACK
6
CONTINUOUS
10
0.871281
20
1.00866
11
0.870171
21
1.0081
0
LINE
8
BLACK
6
CONTINUOUS
10
0.870171
20
1.0081
11
0.869726
21
1.00766
0
LINE
8
BLACK
6
CONTINUOUS
10
0.869726
20
1.00766
11
0.869171
21
1.00655
0
LINE
8
BLACK
6
CONTINUOUS
10
0.869171
20
1.00655
11
0.869171
21
1.00287
0
LINE
8
BLACK
6
CONTINUOUS
10
0.869171
20
1.00287
11
0.869726
21
1.00176
0
LINE
8
BLACK
6
CONTINUOUS
10
0.869726
20
1.00176
11
0.870171
21
1.00132
0
LINE
8
BLACK
6
CONTINUOUS
10
0.870171
20
1.00132
11
0.871281
21
1.00076
0
LINE
8
BLACK
6
CONTINUOUS
10
0.871281
20
1.00076
11
0.875895
21
1.00076
0
LINE
8
BLACK
6
CONTINUOUS
10
0.875895
20
1.00076
11
0.877005
21
1.00132
0
LINE
8
BLACK
6
CONTINUOUS
10
0.877005
20
1.00132
11
0.877696
21
1.00201
0
LINE
8
BLACK
6
CONTINUOUS
10
0.877696
20
1.00201
11
0.879217
21
1.00264
0
LINE
8
BLACK
6
CONTINUOUS
10
0.879217
20
1.00264
11
0.880737
21
1.00201
0
LINE
8
BLACK
6
CONTINUOUS
10
0.880737
20
1.00201
11
0.881367
21
1.00049
0
LINE
8
BLACK
6
CONTINUOUS
10
0.881367
20
1.00049
11
0.880737
21
0.998966
0
LINE
8
BLACK
6
CONTINUOUS
10
0.880737
20
0.998966
11
0.879799
21
0.998028
0
LINE
8
BLACK
6
CONTINUOUS
10
0.879799
20
0.998028
11
0.879472
21
0.997892
0
LINE
8
BLACK
6
CONTINUOUS
10
0.879472
20
0.997892
11
0.87924
21
0.997625
0
LINE
8
BLACK
6
CONTINUOUS
10
0.87924
20
0.997625
11
0.877364
21
0.996687
0
LINE
8
BLACK
6
CONTINUOUS
10
0.877364
20
0.996687
11
0.876865
21
0.996651
0
LINE
8
BLACK
6
CONTINUOUS
10
0.876865
20
0.996651
11
0.876402
21
0.99646
0
LINE
8
BLACK
6
CONTINUOUS
10
0.876402
20
0.99646
11
0.870774
21
0.99646
0
LINE
8
BLACK
6
CONTINUOUS
10
0.870774
20
0.99646
11
0.870311
21
0.996651
0
LINE
8
BLACK
6
CONTINUOUS
10
0.870311
20
0.996651
11
0.869812
21
0.996687
0
LINE
8
BLACK
6
CONTINUOUS
10
0.869812
20
0.996687
11
0.867936
21
0.997625
0
LINE
8
BLACK
6
CONTINUOUS
10
0.867936
20
0.997625
11
0.867704
21
0.997892
0
LINE
8
BLACK
6
CONTINUOUS
10
0.867704
20
0.997892
11
0.867377
21
0.998028
0
LINE
8
BLACK
6
CONTINUOUS
10
0.867377
20
0.998028
11
0.866439
21
0.998966
0
LINE
8
BLACK
6
CONTINUOUS
10
0.866439
20
0.998966
11
0.866304
21
0.999293
0
LINE
8
BLACK
6
CONTINUOUS
10
0.866304
20
0.999293
11
0.866036
21
0.999525
0
LINE
8
BLACK
6
CONTINUOUS
10
0.866036
20
0.999525
11
0.865098
21
1.0014
0
LINE
8
BLACK
6
CONTINUOUS
10
0.865098
20
1.0014
11
0.865063
21
1.0019
0
LINE
8
BLACK
6
CONTINUOUS
10
0.865063
20
1.0019
11
0.864871
21
1.00236
0
LINE
8
BLACK
6
CONTINUOUS
10
0.864871
20
1.00236
11
0.864871
21
1.00705
0
LINE
8
BLACK
6
CONTINUOUS
10
0.864871
20
1.00705
11
0.865063
21
1.00752
0
LINE
8
BLACK
6
CONTINUOUS
10
0.865063
20
1.00752
11
0.865098
21
1.00801
0
LINE
8
BLACK
6
CONTINUOUS
10
0.865098
20
1.00801
11
0.866036
21
1.00989
0
LINE
8
BLACK
6
CONTINUOUS
10
0.866036
20
1.00989
11
0.866304
21
1.01012
0
LINE
8
BLACK
6
CONTINUOUS
10
0.866304
20
1.01012
11
0.866439
21
1.01045
0
LINE
8
BLACK
6
CONTINUOUS
10
0.866439
20
1.01045
11
0.867377
21
1.01139
0
LINE
8
BLACK
6
CONTINUOUS
10
0.867377
20
1.01139
11
0.867704
21
1.01152
0
LINE
8
BLACK
6
CONTINUOUS
10
0.867704
20
1.01152
11
0.867936
21
1.01179
0
LINE
8
BLACK
6
CONTINUOUS
10
0.867936
20
1.01179
11
0.869281
21
1.01246
0
LINE
8
BLACK
6
CONTINUOUS
10
0.869281
20
1.01246
11
0.865403
21
1.01689
0
LINE
8
BLACK
6
CONTINUOUS
10
0.865403
20
1.01689
11
0.865161
21
1.01761
0
LINE
8
BLACK
6
CONTINUOUS
10
0.865161
20
1.01761
11
0.864871
21
1.01831
0
LINE
8
BLACK
6
CONTINUOUS
10
0.864871
20
1.01831
11
0.864901
21
1.01838
0
LINE
8
BLACK
6
CONTINUOUS
10
0.864901
20
1.01838
11
0.864876
21
1.01845
0
LINE
8
BLACK
6
CONTINUOUS
10
0.864876
20
1.01845
11
0.865212
21
1.01913
0
LINE
8
BLACK
6
CONTINUOUS
10
0.865212
20
1.01913
11
0.865501
21
1.01983
0
LINE
8
BLACK
6
CONTINUOUS
10
0.865501
20
1.01983
11
0.865572
21
1.01986
0
LINE
8
BLACK
6
CONTINUOUS
10
0.865572
20
1.01986
11
0.865606
21
1.01993
0
LINE
8
BLACK
6
CONTINUOUS
10
0.865606
20
1.01993
11
0.866322
21
1.02017
0
LINE
8
BLACK
6
CONTINUOUS
10
0.866322
20
1.02017
11
0.867021
21
1.02046
0
LINE
8
BLACK
6
CONTINUOUS
10
0.867021
20
1.02046
11
0.879217
21
1.02046
0
LINE
8
BLACK
6
CONTINUOUS
10
0.879217
20
1.02046
11
0.880737
21
1.01983
0
LINE
8
BLACK
6
CONTINUOUS
10
0.898561
20
1.01983
11
0.89919
21
1.01831
0
LINE
8
BLACK
6
CONTINUOUS
10
0.89919
20
1.01831
11
0.89919
21
0.99861
0
LINE
8
BLACK
6
CONTINUOUS
10
0.89919
20
0.99861
11
0.898561
21
0.99709
0
LINE
8
BLACK
6
CONTINUOUS
10
0.898561
20
0.99709
11
0.89704
21
0.99646
0
LINE
8
BLACK
6
CONTINUOUS
10
0.89704
20
0.99646
11
0.89552
21
0.99709
0
LINE
8
BLACK
6
CONTINUOUS
10
0.89552
20
0.99709
11
0.89489
21
0.99861
0
LINE
8
BLACK
6
CONTINUOUS
10
0.89489
20
0.99861
11
0.89489
21
1.00584
0
LINE
8
BLACK
6
CONTINUOUS
10
0.89489
20
1.00584
11
0.893469
21
1.00584
0
LINE
8
BLACK
6
CONTINUOUS
10
0.893469
20
1.00584
11
0.887545
21
0.997377
0
LINE
8
BLACK
6
CONTINUOUS
10
0.887545
20
0.997377
11
0.886157
21
0.996493
0
LINE
8
BLACK
6
CONTINUOUS
10
0.886157
20
0.996493
11
0.88455
21
0.996849
0
LINE
8
BLACK
6
CONTINUOUS
10
0.88455
20
0.996849
11
0.883666
21
0.998236
0
LINE
8
BLACK
6
CONTINUOUS
10
0.883666
20
0.998236
11
0.884022
21
0.999843
0
LINE
8
BLACK
6
CONTINUOUS
10
0.884022
20
0.999843
11
0.88843
21
1.00614
0
LINE
8
BLACK
6
CONTINUOUS
10
0.88843
20
1.00614
11
0.886698
21
1.00701
0
LINE
8
BLACK
6
CONTINUOUS
10
0.886698
20
1.00701
11
0.886466
21
1.00727
0
LINE
8
BLACK
6
CONTINUOUS
10
0.886466
20
1.00727
11
0.886139
21
1.00741
0
LINE
8
BLACK
6
CONTINUOUS
10
0.886139
20
1.00741
11
0.885201
21
1.00835
0
LINE
8
BLACK
6
CONTINUOUS
10
0.885201
20
1.00835
11
0.885066
21
1.00867
0
LINE
8
BLACK
6
CONTINUOUS
10
0.885066
20
1.00867
11
0.884798
21
1.00891
0
LINE
8
BLACK
6
CONTINUOUS
10
0.884798
20
1.00891
11
0.88386
21
1.01078
0
LINE
8
BLACK
6
CONTINUOUS
10
0.88386
20
1.01078
11
0.883825
21
1.01128
0
LINE
8
BLACK
6
CONTINUOUS
10
0.883825
20
1.01128
11
0.883633
21
1.01174
0
LINE
8
BLACK
6
CONTINUOUS
10
0.883633
20
1.01174
11
0.883633
21
1.01456
0
LINE
8
BLACK
6
CONTINUOUS
10
0.883633
20
1.01456
11
0.883825
21
1.01502
0
LINE
8
BLACK
6
CONTINUOUS
10
0.883825
20
1.01502
11
0.88386
21
1.01552
0
LINE
8
BLACK
6
CONTINUOUS
10
0.88386
20
1.01552
11
0.884798
21
1.0174
0
LINE
8
BLACK
6
CONTINUOUS
10
0.884798
20
1.0174
11
0.885066
21
1.01763
0
LINE
8
BLACK
6
CONTINUOUS
10
0.885066
20
1.01763
11
0.885201
21
1.01795
0
LINE
8
BLACK
6
CONTINUOUS
10
0.885201
20
1.01795
11
0.886139
21
1.01889
0
LINE
8
BLACK
6
CONTINUOUS
10
0.886139
20
1.01889
11
0.886466
21
1.01903
0
LINE
8
BLACK
6
CONTINUOUS
10
0.886466
20
1.01903
11
0.886698
21
1.01929
0
LINE
8
BLACK
6
CONTINUOUS
10
0.886698
20
1.01929
11
0.888574
21
1.02023
0
LINE
8
BLACK
6
CONTINUOUS
10
0.888574
20
1.02023
11
0.889073
21
1.02027
0
LINE
8
BLACK
6
CONTINUOUS
10
0.889073
20
1.02027
11
0.889536
21
1.02046
0
LINE
8
BLACK
6
CONTINUOUS
10
0.889536
20
1.02046
11
0.89704
21
1.02046
0
LINE
8
BLACK
6
CONTINUOUS
10
0.89704
20
1.02046
11
0.898561
21
1.01983
0
LINE
8
BLACK
6
CONTINUOUS
10
0.888933
20
1.0156
11
0.888488
21
1.01516
0
LINE
8
BLACK
6
CONTINUOUS
10
0.888488
20
1.01516
11
0.887933
21
1.01405
0
LINE
8
BLACK
6
CONTINUOUS
10
0.887933
20
1.01405
11
0.887933
21
1.01225
0
LINE
8
BLACK
6
CONTINUOUS
10
0.887933
20
1.01225
11
0.888488
21
1.01114
0
LINE
8
BLACK
6
CONTINUOUS
10
0.888488
20
1.01114
11
0.888933
21
1.0107
0
LINE
8
BLACK
6
CONTINUOUS
10
0.888933
20
1.0107
11
0.890043
21
1.01014
0
LINE
8
BLACK
6
CONTINUOUS
10
0.890043
20
1.01014
11
0.89489
21
1.01014
0
LINE
8
BLACK
6
CONTINUOUS
10
0.89489
20
1.01014
11
0.89489
21
1.01616
0
LINE
8
BLACK
6
CONTINUOUS
10
0.89489
20
1.01616
11
0.890043
21
1.01616
0
LINE
8
BLACK
6
CONTINUOUS
10
0.890043
20
1.01616
11
0.888933
21
1.0156
0
LINE
8
BLACK
6
CONTINUOUS
10
0.735927
20
1.04527
11
0.736426
21
1.04523
0
LINE
8
BLACK
6
CONTINUOUS
10
0.736426
20
1.04523
11
0.738302
21
1.04429
0
LINE
8
BLACK
6
CONTINUOUS
10
0.738302
20
1.04429
11
0.738534
21
1.04403
0
LINE
8
BLACK
6
CONTINUOUS
10
0.738534
20
1.04403
11
0.738861
21
1.04389
0
LINE
8
BLACK
6
CONTINUOUS
10
0.738861
20
1.04389
11
0.739799
21
1.04295
0
LINE
8
BLACK
6
CONTINUOUS
10
0.739799
20
1.04295
11
0.740429
21
1.04143
0
LINE
8
BLACK
6
CONTINUOUS
10
0.740429
20
1.04143
11
0.739799
21
1.03991
0
LINE
8
BLACK
6
CONTINUOUS
10
0.739799
20
1.03991
11
0.738279
21
1.03928
0
LINE
8
BLACK
6
CONTINUOUS
10
0.738279
20
1.03928
11
0.736758
21
1.03991
0
LINE
8
BLACK
6
CONTINUOUS
10
0.736758
20
1.03991
11
0.736067
21
1.0406
0
LINE
8
BLACK
6
CONTINUOUS
10
0.736067
20
1.0406
11
0.734957
21
1.04116
0
LINE
8
BLACK
6
CONTINUOUS
10
0.734957
20
1.04116
11
0.731281
21
1.04116
0
LINE
8
BLACK
6
CONTINUOUS
10
0.731281
20
1.04116
11
0.730171
21
1.0406
0
LINE
8
BLACK
6
CONTINUOUS
10
0.730171
20
1.0406
11
0.729726
21
1.04016
0
LINE
8
BLACK
6
CONTINUOUS
10
0.729726
20
1.04016
11
0.729171
21
1.03905
0
LINE
8
BLACK
6
CONTINUOUS
10
0.729171
20
1.03905
11
0.729171
21
1.03803
0
LINE
8
BLACK
6
CONTINUOUS
10
0.729171
20
1.03803
11
0.729839
21
1.03603
0
LINE
8
BLACK
6
CONTINUOUS
10
0.729839
20
1.03603
11
0.740737
21
1.02513
0
LINE
8
BLACK
6
CONTINUOUS
10
0.740737
20
1.02513
11
0.741367
21
1.02361
0
LINE
8
BLACK
6
CONTINUOUS
10
0.741367
20
1.02361
11
0.740737
21
1.02209
0
LINE
8
BLACK
6
CONTINUOUS
10
0.740737
20
1.02209
11
0.739217
21
1.02146
0
LINE
8
BLACK
6
CONTINUOUS
10
0.739217
20
1.02146
11
0.727021
21
1.02146
0
LINE
8
BLACK
6
CONTINUOUS
10
0.727021
20
1.02146
11
0.725501
21
1.02209
0
LINE
8
BLACK
6
CONTINUOUS
10
0.725501
20
1.02209
11
0.724871
21
1.02361
0
LINE
8
BLACK
6
CONTINUOUS
10
0.724871
20
1.02361
11
0.725501
21
1.02513
0
LINE
8
BLACK
6
CONTINUOUS
10
0.725501
20
1.02513
11
0.727021
21
1.02576
0
LINE
8
BLACK
6
CONTINUOUS
10
0.727021
20
1.02576
11
0.734026
21
1.02576
0
LINE
8
BLACK
6
CONTINUOUS
10
0.734026
20
1.02576
11
0.726439
21
1.03335
0
LINE
8
BLACK
6
CONTINUOUS
10
0.726439
20
1.03335
11
0.726248
21
1.03381
0
LINE
8
BLACK
6
CONTINUOUS
10
0.726248
20
1.03381
11
0.72592
21
1.03419
0
LINE
8
BLACK
6
CONTINUOUS
10
0.72592
20
1.03419
11
0.724982
21
1.037
0
LINE
8
BLACK
6
CONTINUOUS
10
0.724982
20
1.037
11
0.725007
21
1.03735
0
LINE
8
BLACK
6
CONTINUOUS
10
0.725007
20
1.03735
11
0.724871
21
1.03768
0
LINE
8
BLACK
6
CONTINUOUS
10
0.724871
20
1.03768
11
0.724871
21
1.03956
0
LINE
8
BLACK
6
CONTINUOUS
10
0.724871
20
1.03956
11
0.725063
21
1.04002
0
LINE
8
BLACK
6
CONTINUOUS
10
0.725063
20
1.04002
11
0.725098
21
1.04052
0
LINE
8
BLACK
6
CONTINUOUS
10
0.725098
20
1.04052
11
0.726036
21
1.0424
0
LINE
8
BLACK
6
CONTINUOUS
10
0.726036
20
1.0424
11
0.726304
21
1.04263
0
LINE
8
BLACK
6
CONTINUOUS
10
0.726304
20
1.04263
11
0.726439
21
1.04295
0
LINE
8
BLACK
6
CONTINUOUS
10
0.726439
20
1.04295
11
0.727377
21
1.04389
0
LINE
8
BLACK
6
CONTINUOUS
10
0.727377
20
1.04389
11
0.727704
21
1.04403
0
LINE
8
BLACK
6
CONTINUOUS
10
0.727704
20
1.04403
11
0.727936
21
1.04429
0
LINE
8
BLACK
6
CONTINUOUS
10
0.727936
20
1.04429
11
0.729812
21
1.04523
0
LINE
8
BLACK
6
CONTINUOUS
10
0.729812
20
1.04523
11
0.730311
21
1.04527
0
LINE
8
BLACK
6
CONTINUOUS
10
0.730311
20
1.04527
11
0.730774
21
1.04546
0
LINE
8
BLACK
6
CONTINUOUS
10
0.730774
20
1.04546
11
0.735464
21
1.04546
0
LINE
8
BLACK
6
CONTINUOUS
10
0.735464
20
1.04546
11
0.735927
21
1.04527
0
LINE
8
BLACK
6
CONTINUOUS
10
0.758561
20
1.04483
11
0.75919
21
1.04331
0
LINE
8
BLACK
6
CONTINUOUS
10
0.75919
20
1.04331
11
0.75919
21
1.02361
0
LINE
8
BLACK
6
CONTINUOUS
10
0.75919
20
1.02361
11
0.758561
21
1.02209
0
LINE
8
BLACK
6
CONTINUOUS
10
0.758561
20
1.02209
11
0.75704
21
1.02146
0
LINE
8
BLACK
6
CONTINUOUS
10
0.75704
20
1.02146
11
0.75552
21
1.02209
0
LINE
8
BLACK
6
CONTINUOUS
10
0.75552
20
1.02209
11
0.75489
21
1.02361
0
LINE
8
BLACK
6
CONTINUOUS
10
0.75489
20
1.02361
11
0.75489
21
1.03084
0
LINE
8
BLACK
6
CONTINUOUS
10
0.75489
20
1.03084
11
0.753469
21
1.03084
0
LINE
8
BLACK
6
CONTINUOUS
10
0.753469
20
1.03084
11
0.747545
21
1.02238
0
LINE
8
BLACK
6
CONTINUOUS
10
0.747545
20
1.02238
11
0.746157
21
1.02149
0
LINE
8
BLACK
6
CONTINUOUS
10
0.746157
20
1.02149
11
0.74455
21
1.02185
0
LINE
8
BLACK
6
CONTINUOUS
10
0.74455
20
1.02185
11
0.743666
21
1.02324
0
LINE
8
BLACK
6
CONTINUOUS
10
0.743666
20
1.02324
11
0.744022
21
1.02484
0
LINE
8
BLACK
6
CONTINUOUS
10
0.744022
20
1.02484
11
0.74843
21
1.03114
0
LINE
8
BLACK
6
CONTINUOUS
10
0.74843
20
1.03114
11
0.746698
21
1.03201
0
LINE
8
BLACK
6
CONTINUOUS
10
0.746698
20
1.03201
11
0.746466
21
1.03227
0
LINE
8
BLACK
6
CONTINUOUS
10
0.746466
20
1.03227
11
0.746139
21
1.03241
0
LINE
8
BLACK
6
CONTINUOUS
10
0.746139
20
1.03241
11
0.745201
21
1.03335
0
LINE
8
BLACK
6
CONTINUOUS
10
0.745201
20
1.03335
11
0.745066
21
1.03367
0
LINE
8
BLACK
6
CONTINUOUS
10
0.745066
20
1.03367
11
0.744798
21
1.03391
0
LINE
8
BLACK
6
CONTINUOUS
10
0.744798
20
1.03391
11
0.74386
21
1.03578
0
LINE
8
BLACK
6
CONTINUOUS
10
0.74386
20
1.03578
11
0.743825
21
1.03628
0
LINE
8
BLACK
6
CONTINUOUS
10
0.743825
20
1.03628
11
0.743633
21
1.03674
0
LINE
8
BLACK
6
CONTINUOUS
10
0.743633
20
1.03674
11
0.743633
21
1.03956
0
LINE
8
BLACK
6
CONTINUOUS
10
0.743633
20
1.03956
11
0.743825
21
1.04002
0
LINE
8
BLACK
6
CONTINUOUS
10
0.743825
20
1.04002
11
0.74386
21
1.04052
0
LINE
8
BLACK
6
CONTINUOUS
10
0.74386
20
1.04052
11
0.744798
21
1.0424
0
LINE
8
BLACK
6
CONTINUOUS
10
0.744798
20
1.0424
11
0.745066
21
1.04263
0
LINE
8
BLACK
6
CONTINUOUS
10
0.745066
20
1.04263
11
0.745201
21
1.04295
0
LINE
8
BLACK
6
CONTINUOUS
10
0.745201
20
1.04295
11
0.746139
21
1.04389
0
LINE
8
BLACK
6
CONTINUOUS
10
0.746139
20
1.04389
11
0.746466
21
1.04403
0
LINE
8
BLACK
6
CONTINUOUS
10
0.746466
20
1.04403
11
0.746698
21
1.04429
0
LINE
8
BLACK
6
CONTINUOUS
10
0.746698
20
1.04429
11
0.748574
21
1.04523
0
LINE
8
BLACK
6
CONTINUOUS
10
0.748574
20
1.04523
11
0.749073
21
1.04527
0
LINE
8
BLACK
6
CONTINUOUS
10
0.749073
20
1.04527
11
0.749536
21
1.04546
0
LINE
8
BLACK
6
CONTINUOUS
10
0.749536
20
1.04546
11
0.75704
21
1.04546
0
LINE
8
BLACK
6
CONTINUOUS
10
0.75704
20
1.04546
11
0.758561
21
1.04483
0
LINE
8
BLACK
6
CONTINUOUS
10
0.748933
20
1.0406
11
0.748488
21
1.04016
0
LINE
8
BLACK
6
CONTINUOUS
10
0.748488
20
1.04016
11
0.747933
21
1.03905
0
LINE
8
BLACK
6
CONTINUOUS
10
0.747933
20
1.03905
11
0.747933
21
1.03725
0
LINE
8
BLACK
6
CONTINUOUS
10
0.747933
20
1.03725
11
0.748488
21
1.03614
0
LINE
8
BLACK
6
CONTINUOUS
10
0.748488
20
1.03614
11
0.748933
21
1.0357
0
LINE
8
BLACK
6
CONTINUOUS
10
0.748933
20
1.0357
11
0.750043
21
1.03514
0
LINE
8
BLACK
6
CONTINUOUS
10
0.750043
20
1.03514
11
0.75489
21
1.03514
0
LINE
8
BLACK
6
CONTINUOUS
10
0.75489
20
1.03514
11
0.75489
21
1.04116
0
LINE
8
BLACK
6
CONTINUOUS
10
0.75489
20
1.04116
11
0.750043
21
1.04116
0
LINE
8
BLACK
6
CONTINUOUS
10
0.750043
20
1.04116
11
0.748933
21
1.0406
0
LINE
8
BLACK
6
CONTINUOUS
10
0.889369
20
1.04777
11
0.889869
21
1.04773
0
LINE
8
BLACK
6
CONTINUOUS
10
0.889869
20
1.04773
11
0.891745
21
1.04679
0
LINE
8
BLACK
6
CONTINUOUS
10
0.891745
20
1.04679
11
0.891977
21
1.04653
0
LINE
8
BLACK
6
CONTINUOUS
10
0.891977
20
1.04653
11
0.892304
21
1.04639
0
LINE
8
BLACK
6
CONTINUOUS
10
0.892304
20
1.04639
11
0.893242
21
1.04545
0
LINE
8
BLACK
6
CONTINUOUS
10
0.893242
20
1.04545
11
0.893377
21
1.04513
0
LINE
8
BLACK
6
CONTINUOUS
10
0.893377
20
1.04513
11
0.893644
21
1.0449
0
LINE
8
BLACK
6
CONTINUOUS
10
0.893644
20
1.0449
11
0.894583
21
1.04302
0
LINE
8
BLACK
6
CONTINUOUS
10
0.894583
20
1.04302
11
0.8946
21
1.04278
0
LINE
8
BLACK
6
CONTINUOUS
10
0.8946
20
1.04278
11
0.894745
21
1.04258
0
LINE
8
BLACK
6
CONTINUOUS
10
0.894745
20
1.04258
11
0.895683
21
1.03883
0
LINE
8
BLACK
6
CONTINUOUS
10
0.895683
20
1.03883
11
0.895643
21
1.03856
0
LINE
8
BLACK
6
CONTINUOUS
10
0.895643
20
1.03856
11
0.895748
21
1.03831
0
LINE
8
BLACK
6
CONTINUOUS
10
0.895748
20
1.03831
11
0.895748
21
1.03361
0
LINE
8
BLACK
6
CONTINUOUS
10
0.895748
20
1.03361
11
0.895643
21
1.03336
0
LINE
8
BLACK
6
CONTINUOUS
10
0.895643
20
1.03336
11
0.895683
21
1.03309
0
LINE
8
BLACK
6
CONTINUOUS
10
0.895683
20
1.03309
11
0.894745
21
1.02934
0
LINE
8
BLACK
6
CONTINUOUS
10
0.894745
20
1.02934
11
0.8946
21
1.02914
0
LINE
8
BLACK
6
CONTINUOUS
10
0.8946
20
1.02914
11
0.894583
21
1.0289
0
LINE
8
BLACK
6
CONTINUOUS
10
0.894583
20
1.0289
11
0.893644
21
1.02702
0
LINE
8
BLACK
6
CONTINUOUS
10
0.893644
20
1.02702
11
0.893377
21
1.02679
0
LINE
8
BLACK
6
CONTINUOUS
10
0.893377
20
1.02679
11
0.893242
21
1.02647
0
LINE
8
BLACK
6
CONTINUOUS
10
0.893242
20
1.02647
11
0.892304
21
1.02553
0
LINE
8
BLACK
6
CONTINUOUS
10
0.892304
20
1.02553
11
0.891977
21
1.02539
0
LINE
8
BLACK
6
CONTINUOUS
10
0.891977
20
1.02539
11
0.891745
21
1.02513
0
LINE
8
BLACK
6
CONTINUOUS
10
0.891745
20
1.02513
11
0.889869
21
1.02419
0
LINE
8
BLACK
6
CONTINUOUS
10
0.889869
20
1.02419
11
0.889369
21
1.02415
0
LINE
8
BLACK
6
CONTINUOUS
10
0.889369
20
1.02415
11
0.888907
21
1.02396
0
LINE
8
BLACK
6
CONTINUOUS
10
0.888907
20
1.02396
11
0.887031
21
1.02396
0
LINE
8
BLACK
6
CONTINUOUS
10
0.887031
20
1.02396
11
0.886569
21
1.02415
0
LINE
8
BLACK
6
CONTINUOUS
10
0.886569
20
1.02415
11
0.886069
21
1.02419
0
LINE
8
BLACK
6
CONTINUOUS
10
0.886069
20
1.02419
11
0.884193
21
1.02513
0
LINE
8
BLACK
6
CONTINUOUS
10
0.884193
20
1.02513
11
0.883961
21
1.02539
0
LINE
8
BLACK
6
CONTINUOUS
10
0.883961
20
1.02539
11
0.883634
21
1.02553
0
LINE
8
BLACK
6
CONTINUOUS
10
0.883634
20
1.02553
11
0.882696
21
1.02647
0
LINE
8
BLACK
6
CONTINUOUS
10
0.882696
20
1.02647
11
0.882561
21
1.02679
0
LINE
8
BLACK
6
CONTINUOUS
10
0.882561
20
1.02679
11
0.882294
21
1.02702
0
LINE
8
BLACK
6
CONTINUOUS
10
0.882294
20
1.02702
11
0.881356
21
1.0289
0
LINE
8
BLACK
6
CONTINUOUS
10
0.881356
20
1.0289
11
0.881338
21
1.02914
0
LINE
8
BLACK
6
CONTINUOUS
10
0.881338
20
1.02914
11
0.881193
21
1.02934
0
LINE
8
BLACK
6
CONTINUOUS
10
0.881193
20
1.02934
11
0.880255
21
1.03309
0
LINE
8
BLACK
6
CONTINUOUS
10
0.880255
20
1.03309
11
0.880295
21
1.03336
0
LINE
8
BLACK
6
CONTINUOUS
10
0.880295
20
1.03336
11
0.88019
21
1.03361
0
LINE
8
BLACK
6
CONTINUOUS
10
0.88019
20
1.03361
11
0.88019
21
1.03831
0
LINE
8
BLACK
6
CONTINUOUS
10
0.88019
20
1.03831
11
0.880295
21
1.03856
0
LINE
8
BLACK
6
CONTINUOUS
10
0.880295
20
1.03856
11
0.880255
21
1.03883
0
LINE
8
BLACK
6
CONTINUOUS
10
0.880255
20
1.03883
11
0.881193
21
1.04258
0
LINE
8
BLACK
6
CONTINUOUS
10
0.881193
20
1.04258
11
0.881338
21
1.04278
0
LINE
8
BLACK
6
CONTINUOUS
10
0.881338
20
1.04278
11
0.881356
21
1.04302
0
LINE
8
BLACK
6
CONTINUOUS
10
0.881356
20
1.04302
11
0.882294
21
1.0449
0
LINE
8
BLACK
6
CONTINUOUS
10
0.882294
20
1.0449
11
0.882561
21
1.04513
0
LINE
8
BLACK
6
CONTINUOUS
10
0.882561
20
1.04513
11
0.882696
21
1.04545
0
LINE
8
BLACK
6
CONTINUOUS
10
0.882696
20
1.04545
11
0.883634
21
1.04639
0
LINE
8
BLACK
6
CONTINUOUS
10
0.883634
20
1.04639
11
0.883961
21
1.04653
0
LINE
8
BLACK
6
CONTINUOUS
10
0.883961
20
1.04653
11
0.884193
21
1.04679
0
LINE
8
BLACK
6
CONTINUOUS
10
0.884193
20
1.04679
11
0.886069
21
1.04773
0
LINE
8
BLACK
6
CONTINUOUS
10
0.886069
20
1.04773
11
0.886569
21
1.04777
0
LINE
8
BLACK
6
CONTINUOUS
10
0.886569
20
1.04777
11
0.887031
21
1.04796
0
LINE
8
BLACK
6
CONTINUOUS
10
0.887031
20
1.04796
11
0.888907
21
1.04796
0
LINE
8
BLACK
6
CONTINUOUS
10
0.888907
20
1.04796
11
0.889369
21
1.04777
0
LINE
8
BLACK
6
CONTINUOUS
10
0.886428
20
1.0431
11
0.885984
21
1.04266
0
LINE
8
BLACK
6
CONTINUOUS
10
0.885984
20
1.04266
11
0.885307
21
1.04131
0
LINE
8
BLACK
6
CONTINUOUS
10
0.885307
20
1.04131
11
0.88449
21
1.03804
0
LINE
8
BLACK
6
CONTINUOUS
10
0.88449
20
1.03804
11
0.88449
21
1.03388
0
LINE
8
BLACK
6
CONTINUOUS
10
0.88449
20
1.03388
11
0.885307
21
1.03061
0
LINE
8
BLACK
6
CONTINUOUS
10
0.885307
20
1.03061
11
0.885984
21
1.02926
0
LINE
8
BLACK
6
CONTINUOUS
10
0.885984
20
1.02926
11
0.886428
21
1.02882
0
LINE
8
BLACK
6
CONTINUOUS
10
0.886428
20
1.02882
11
0.887539
21
1.02826
0
LINE
8
BLACK
6
CONTINUOUS
10
0.887539
20
1.02826
11
0.8884
21
1.02826
0
LINE
8
BLACK
6
CONTINUOUS
10
0.8884
20
1.02826
11
0.88951
21
1.02882
0
LINE
8
BLACK
6
CONTINUOUS
10
0.88951
20
1.02882
11
0.889954
21
1.02926
0
LINE
8
BLACK
6
CONTINUOUS
10
0.889954
20
1.02926
11
0.890631
21
1.03061
0
LINE
8
BLACK
6
CONTINUOUS
10
0.890631
20
1.03061
11
0.891448
21
1.03388
0
LINE
8
BLACK
6
CONTINUOUS
10
0.891448
20
1.03388
11
0.891448
21
1.03804
0
LINE
8
BLACK
6
CONTINUOUS
10
0.891448
20
1.03804
11
0.890631
21
1.04131
0
LINE
8
BLACK
6
CONTINUOUS
10
0.890631
20
1.04131
11
0.889954
21
1.04266
0
LINE
8
BLACK
6
CONTINUOUS
10
0.889954
20
1.04266
11
0.88951
21
1.0431
0
LINE
8
BLACK
6
CONTINUOUS
10
0.88951
20
1.0431
11
0.8884
21
1.04366
0
LINE
8
BLACK
6
CONTINUOUS
10
0.8884
20
1.04366
11
0.887539
21
1.04366
0
LINE
8
BLACK
6
CONTINUOUS
10
0.887539
20
1.04366
11
0.886428
21
1.0431
0
LINE
8
BLACK
6
CONTINUOUS
10
0.53132
20
1.13851
11
0.532659
21
1.13825
0
LINE
8
BLACK
6
CONTINUOUS
10
0.532659
20
1.13825
11
0.532808
21
1.13811
0
LINE
8
BLACK
6
CONTINUOUS
10
0.532808
20
1.13811
11
0.533
21
1.13806
0
LINE
8
BLACK
6
CONTINUOUS
10
0.533
20
1.13806
11
0.533966
21
1.1371
0
LINE
8
BLACK
6
CONTINUOUS
10
0.533966
20
1.1371
11
0.534992
21
1.1362
0
LINE
8
BLACK
6
CONTINUOUS
10
0.534992
20
1.1362
11
0.540377
21
1.12812
0
LINE
8
BLACK
6
CONTINUOUS
10
0.540377
20
1.12812
11
0.544983
21
1.12351
0
LINE
8
BLACK
6
CONTINUOUS
10
0.544983
20
1.12351
11
0.549826
21
1.12109
0
LINE
8
BLACK
6
CONTINUOUS
10
0.549826
20
1.12109
11
0.55215
21
1.11903
0
LINE
8
BLACK
6
CONTINUOUS
10
0.55215
20
1.11903
11
0.553132
21
1.11608
0
LINE
8
BLACK
6
CONTINUOUS
10
0.553132
20
1.11608
11
0.552509
21
1.11304
0
LINE
8
BLACK
6
CONTINUOUS
10
0.552509
20
1.11304
11
0.550449
21
1.11072
0
LINE
8
BLACK
6
CONTINUOUS
10
0.550449
20
1.11072
11
0.547502
21
1.10973
0
LINE
8
BLACK
6
CONTINUOUS
10
0.547502
20
1.10973
11
0.54446
21
1.11036
0
LINE
8
BLACK
6
CONTINUOUS
10
0.54446
20
1.11036
11
0.538745
21
1.11321
0
LINE
8
BLACK
6
CONTINUOUS
10
0.538745
20
1.11321
11
0.538022
21
1.11386
0
LINE
8
BLACK
6
CONTINUOUS
10
0.538022
20
1.11386
11
0.537186
21
1.11434
0
LINE
8
BLACK
6
CONTINUOUS
10
0.537186
20
1.11434
11
0.536
21
1.11552
0
LINE
8
BLACK
6
CONTINUOUS
10
0.536
20
1.11552
11
0.536
21
1.07887
0
LINE
8
BLACK
6
CONTINUOUS
10
0.536
20
1.07887
11
0.547143
21
1.07887
0
LINE
8
BLACK
6
CONTINUOUS
10
0.547143
20
1.07887
11
0.550143
21
1.07806
0
LINE
8
BLACK
6
CONTINUOUS
10
0.550143
20
1.07806
11
0.552339
21
1.07587
0
LINE
8
BLACK
6
CONTINUOUS
10
0.552339
20
1.07587
11
0.553143
21
1.07287
0
LINE
8
BLACK
6
CONTINUOUS
10
0.553143
20
1.07287
11
0.552339
21
1.06987
0
LINE
8
BLACK
6
CONTINUOUS
10
0.552339
20
1.06987
11
0.550143
21
1.06767
0
LINE
8
BLACK
6
CONTINUOUS
10
0.550143
20
1.06767
11
0.547143
21
1.06687
0
LINE
8
BLACK
6
CONTINUOUS
10
0.547143
20
1.06687
11
0.53
21
1.06687
0
LINE
8
BLACK
6
CONTINUOUS
10
0.53
20
1.06687
11
0.512857
21
1.06687
0
LINE
8
BLACK
6
CONTINUOUS
10
0.512857
20
1.06687
11
0.509857
21
1.06767
0
LINE
8
BLACK
6
CONTINUOUS
10
0.509857
20
1.06767
11
0.507661
21
1.06987
0
LINE
8
BLACK
6
CONTINUOUS
10
0.507661
20
1.06987
11
0.506857
21
1.07287
0
LINE
8
BLACK
6
CONTINUOUS
10
0.506857
20
1.07287
11
0.507661
21
1.07587
0
LINE
8
BLACK
6
CONTINUOUS
10
0.507661
20
1.07587
11
0.509857
21
1.07806
0
LINE
8
BLACK
6
CONTINUOUS
10
0.509857
20
1.07806
11
0.512857
21
1.07887
0
LINE
8
BLACK
6
CONTINUOUS
10
0.512857
20
1.07887
11
0.524
21
1.07887
0
LINE
8
BLACK
6
CONTINUOUS
10
0.524
20
1.07887
11
0.524
21
1.13287
0
LINE
8
BLACK
6
CONTINUOUS
10
0.524
20
1.13287
11
0.524354
21
1.13419
0
LINE
8
BLACK
6
CONTINUOUS
10
0.524354
20
1.13419
11
0.524621
21
1.13553
0
LINE
8
BLACK
6
CONTINUOUS
10
0.524621
20
1.13553
11
0.524752
21
1.13568
0
LINE
8
BLACK
6
CONTINUOUS
10
0.524752
20
1.13568
11
0.524804
21
1.13587
0
LINE
8
BLACK
6
CONTINUOUS
10
0.524804
20
1.13587
11
0.52577
21
1.13683
0
LINE
8
BLACK
6
CONTINUOUS
10
0.52577
20
1.13683
11
0.526672
21
1.13786
0
LINE
8
BLACK
6
CONTINUOUS
10
0.526672
20
1.13786
11
0.52686
21
1.13792
0
LINE
8
BLACK
6
CONTINUOUS
10
0.52686
20
1.13792
11
0.527
21
1.13806
0
LINE
8
BLACK
6
CONTINUOUS
10
0.527
20
1.13806
11
0.52832
21
1.13842
0
LINE
8
BLACK
6
CONTINUOUS
10
0.52832
20
1.13842
11
0.529614
21
1.13885
0
LINE
8
BLACK
6
CONTINUOUS
10
0.529614
20
1.13885
11
0.529808
21
1.13882
0
LINE
8
BLACK
6
CONTINUOUS
10
0.529808
20
1.13882
11
0.53
21
1.13887
0
LINE
8
BLACK
6
CONTINUOUS
10
0.53
20
1.13887
11
0.53132
21
1.13851
0
LINE
8
BLACK
6
CONTINUOUS
10
0.607286
20
1.13806
11
0.609482
21
1.13587
0
LINE
8
BLACK
6
CONTINUOUS
10
0.609482
20
1.13587
11
0.610286
21
1.13287
0
LINE
8
BLACK
6
CONTINUOUS
10
0.610286
20
1.13287
11
0.610286
21
1.07287
0
LINE
8
BLACK
6
CONTINUOUS
10
0.610286
20
1.07287
11
0.609482
21
1.06987
0
LINE
8
BLACK
6
CONTINUOUS
10
0.609482
20
1.06987
11
0.607286
21
1.06767
0
LINE
8
BLACK
6
CONTINUOUS
10
0.607286
20
1.06767
11
0.604286
21
1.06687
0
LINE
8
BLACK
6
CONTINUOUS
10
0.604286
20
1.06687
11
0.59
21
1.06687
0
LINE
8
BLACK
6
CONTINUOUS
10
0.59
20
1.06687
11
0.589067
21
1.06712
0
LINE
8
BLACK
6
CONTINUOUS
10
0.589067
20
1.06712
11
0.588103
21
1.06717
0
LINE
8
BLACK
6
CONTINUOUS
10
0.588103
20
1.06717
11
0.579531
21
1.07003
0
LINE
8
BLACK
6
CONTINUOUS
10
0.579531
20
1.07003
11
0.57838
21
1.07079
0
LINE
8
BLACK
6
CONTINUOUS
10
0.57838
20
1.07079
11
0.577186
21
1.07148
0
LINE
8
BLACK
6
CONTINUOUS
10
0.577186
20
1.07148
11
0.571472
21
1.0772
0
LINE
8
BLACK
6
CONTINUOUS
10
0.571472
20
1.0772
11
0.570989
21
1.07803
0
LINE
8
BLACK
6
CONTINUOUS
10
0.570989
20
1.07803
11
0.570348
21
1.07875
0
LINE
8
BLACK
6
CONTINUOUS
10
0.570348
20
1.07875
11
0.567491
21
1.08447
0
LINE
8
BLACK
6
CONTINUOUS
10
0.567491
20
1.08447
11
0.567358
21
1.08512
0
LINE
8
BLACK
6
CONTINUOUS
10
0.567358
20
1.08512
11
0.567036
21
1.0857
0
LINE
8
BLACK
6
CONTINUOUS
10
0.567036
20
1.0857
11
0.564179
21
1.09713
0
LINE
8
BLACK
6
CONTINUOUS
10
0.564179
20
1.09713
11
0.564192
21
1.09787
0
LINE
8
BLACK
6
CONTINUOUS
10
0.564192
20
1.09787
11
0.564
21
1.09858
0
LINE
8
BLACK
6
CONTINUOUS
10
0.564
20
1.09858
11
0.564
21
1.10715
0
LINE
8
BLACK
6
CONTINUOUS
10
0.564
20
1.10715
11
0.564192
21
1.10787
0
LINE
8
BLACK
6
CONTINUOUS
10
0.564192
20
1.10787
11
0.564179
21
1.10861
0
LINE
8
BLACK
6
CONTINUOUS
10
0.564179
20
1.10861
11
0.567036
21
1.12004
0
LINE
8
BLACK
6
CONTINUOUS
10
0.567036
20
1.12004
11
0.567358
21
1.12062
0
LINE
8
BLACK
6
CONTINUOUS
10
0.567358
20
1.12062
11
0.567491
21
1.12126
0
LINE
8
BLACK
6
CONTINUOUS
10
0.567491
20
1.12126
11
0.570348
21
1.12698
0
LINE
8
BLACK
6
CONTINUOUS
10
0.570348
20
1.12698
11
0.570989
21
1.1277
0
LINE
8
BLACK
6
CONTINUOUS
10
0.570989
20
1.1277
11
0.571472
21
1.12854
0
LINE
8
BLACK
6
CONTINUOUS
10
0.571472
20
1.12854
11
0.577186
21
1.13425
0
LINE
8
BLACK
6
CONTINUOUS
10
0.577186
20
1.13425
11
0.57838
21
1.13494
0
LINE
8
BLACK
6
CONTINUOUS
10
0.57838
20
1.13494
11
0.579531
21
1.1357
0
LINE
8
BLACK
6
CONTINUOUS
10
0.579531
20
1.1357
11
0.588103
21
1.13856
0
LINE
8
BLACK
6
CONTINUOUS
10
0.588103
20
1.13856
11
0.589067
21
1.13862
0
LINE
8
BLACK
6
CONTINUOUS
10
0.589067
20
1.13862
11
0.59
21
1.13887
0
LINE
8
BLACK
6
CONTINUOUS
10
0.59
20
1.13887
11
0.604286
21
1.13887
0
LINE
8
BLACK
6
CONTINUOUS
10
0.604286
20
1.13887
11
0.607286
21
1.13806
0
LINE
8
BLACK
6
CONTINUOUS
10
0.58467
20
1.12477
11
0.580645
21
1.12074
0
LINE
8
BLACK
6
CONTINUOUS
10
0.580645
20
1.12074
11
0.578518
21
1.11649
0
LINE
8
BLACK
6
CONTINUOUS
10
0.578518
20
1.11649
11
0.576
21
1.10641
0
LINE
8
BLACK
6
CONTINUOUS
10
0.576
20
1.10641
11
0.576
21
1.09932
0
LINE
8
BLACK
6
CONTINUOUS
10
0.576
20
1.09932
11
0.578518
21
1.08925
0
LINE
8
BLACK
6
CONTINUOUS
10
0.578518
20
1.08925
11
0.580645
21
1.08499
0
LINE
8
BLACK
6
CONTINUOUS
10
0.580645
20
1.08499
11
0.58467
21
1.08097
0
LINE
8
BLACK
6
CONTINUOUS
10
0.58467
20
1.08097
11
0.590974
21
1.07887
0
LINE
8
BLACK
6
CONTINUOUS
10
0.590974
20
1.07887
11
0.598286
21
1.07887
0
LINE
8
BLACK
6
CONTINUOUS
10
0.598286
20
1.07887
11
0.598286
21
1.12687
0
LINE
8
BLACK
6
CONTINUOUS
10
0.598286
20
1.12687
11
0.590974
21
1.12687
0
LINE
8
BLACK
6
CONTINUOUS
10
0.590974
20
1.12687
11
0.58467
21
1.12477
0
LINE
8
BLACK
6
CONTINUOUS
10
0.587862
20
1.2432
11
0.588553
21
1.2413
0
LINE
8
BLACK
6
CONTINUOUS
10
0.588553
20
1.2413
11
0.588553
21
1.1587
0
LINE
8
BLACK
6
CONTINUOUS
10
0.588553
20
1.1587
11
0.588375
21
1.15769
0
LINE
8
BLACK
6
CONTINUOUS
10
0.588375
20
1.15769
11
0.587076
21
1.15614
0
LINE
8
BLACK
6
CONTINUOUS
10
0.587076
20
1.15614
11
0.585087
21
1.15579
0
LINE
8
BLACK
6
CONTINUOUS
10
0.585087
20
1.15579
11
0.583338
21
1.1568
0
LINE
8
BLACK
6
CONTINUOUS
10
0.583338
20
1.1568
11
0.582647
21
1.1587
0
LINE
8
BLACK
6
CONTINUOUS
10
0.582647
20
1.1587
11
0.582647
21
1.19461
0
LINE
8
BLACK
6
CONTINUOUS
10
0.582647
20
1.19461
11
0.548339
21
1.15856
0
LINE
8
BLACK
6
CONTINUOUS
10
0.548339
20
1.15856
11
0.547749
21
1.15813
0
LINE
8
BLACK
6
CONTINUOUS
10
0.547749
20
1.15813
11
0.547676
21
1.15804
0
LINE
8
BLACK
6
CONTINUOUS
10
0.547676
20
1.15804
11
0.547618
21
1.15803
0
LINE
8
BLACK
6
CONTINUOUS
10
0.547618
20
1.15803
11
0.547514
21
1.15796
0
LINE
8
BLACK
6
CONTINUOUS
10
0.547514
20
1.15796
11
0.546596
21
1.15785
0
LINE
8
BLACK
6
CONTINUOUS
10
0.546596
20
1.15785
11
0.545687
21
1.15769
0
LINE
8
BLACK
6
CONTINUOUS
10
0.545687
20
1.15769
11
0.545603
21
1.15774
0
LINE
8
BLACK
6
CONTINUOUS
10
0.545603
20
1.15774
11
0.545507
21
1.15773
0
LINE
8
BLACK
6
CONTINUOUS
10
0.545507
20
1.15773
11
0.544737
21
1.15824
0
LINE
8
BLACK
6
CONTINUOUS
10
0.544737
20
1.15824
11
0.543938
21
1.1587
0
LINE
8
BLACK
6
CONTINUOUS
10
0.543938
20
1.1587
11
0.543905
21
1.15879
0
LINE
8
BLACK
6
CONTINUOUS
10
0.543905
20
1.15879
11
0.543824
21
1.15885
0
LINE
8
BLACK
6
CONTINUOUS
10
0.543824
20
1.15885
11
0.543563
21
1.15973
0
LINE
8
BLACK
6
CONTINUOUS
10
0.543563
20
1.15973
11
0.543247
21
1.1606
0
LINE
8
BLACK
6
CONTINUOUS
10
0.543247
20
1.1606
11
0.543247
21
1.2394
0
LINE
8
BLACK
6
CONTINUOUS
10
0.543247
20
1.2394
11
0.543359
21
1.24003
0
LINE
8
BLACK
6
CONTINUOUS
10
0.543359
20
1.24003
11
0.543348
21
1.24016
0
LINE
8
BLACK
6
CONTINUOUS
10
0.543348
20
1.24016
11
0.543393
21
1.24023
0
LINE
8
BLACK
6
CONTINUOUS
10
0.543393
20
1.24023
11
0.543425
21
1.24041
0
LINE
8
BLACK
6
CONTINUOUS
10
0.543425
20
1.24041
11
0.543997
21
1.24109
0
LINE
8
BLACK
6
CONTINUOUS
10
0.543997
20
1.24109
11
0.544506
21
1.24182
0
LINE
8
BLACK
6
CONTINUOUS
10
0.544506
20
1.24182
11
0.544637
21
1.24185
0
LINE
8
BLACK
6
CONTINUOUS
10
0.544637
20
1.24185
11
0.544724
21
1.24196
0
LINE
8
BLACK
6
CONTINUOUS
10
0.544724
20
1.24196
11
0.545599
21
1.24211
0
LINE
8
BLACK
6
CONTINUOUS
10
0.545599
20
1.24211
11
0.546457
21
1.24234
0
LINE
8
BLACK
6
CONTINUOUS
10
0.546457
20
1.24234
11
0.54658
21
1.24228
0
LINE
8
BLACK
6
CONTINUOUS
10
0.54658
20
1.24228
11
0.546713
21
1.24231
0
LINE
8
BLACK
6
CONTINUOUS
10
0.546713
20
1.24231
11
0.547483
21
1.24186
0
LINE
8
BLACK
6
CONTINUOUS
10
0.547483
20
1.24186
11
0.548288
21
1.24149
0
LINE
8
BLACK
6
CONTINUOUS
10
0.548288
20
1.24149
11
0.582647
21
1.20713
0
LINE
8
BLACK
6
CONTINUOUS
10
0.582647
20
1.20713
11
0.582647
21
1.2413
0
LINE
8
BLACK
6
CONTINUOUS
10
0.582647
20
1.2413
11
0.582825
21
1.24231
0
LINE
8
BLACK
6
CONTINUOUS
10
0.582825
20
1.24231
11
0.584124
21
1.24386
0
LINE
8
BLACK
6
CONTINUOUS
10
0.584124
20
1.24386
11
0.586113
21
1.24421
0
LINE
8
BLACK
6
CONTINUOUS
10
0.586113
20
1.24421
11
0.587862
21
1.2432
0
LINE
8
BLACK
6
CONTINUOUS
10
0.549153
20
1.16799
11
0.5805
21
1.20092
0
LINE
8
BLACK
6
CONTINUOUS
10
0.5805
20
1.20092
11
0.549153
21
1.23227
0
LINE
8
BLACK
6
CONTINUOUS
10
0.549153
20
1.23227
11
0.549153
21
1.16799
0
LINE
8
BLACK
6
CONTINUOUS
10
1.13226
20
1.2019
11
1.13295
21
1.2
0
LINE
8
BLACK
6
CONTINUOUS
10
1.13295
20
1.2
11
1.13295
21
1.16
0
LINE
8
BLACK
6
CONTINUOUS
10
1.13295
20
1.16
11
1.13289
21
1.15962
0
LINE
8
BLACK
6
CONTINUOUS
10
1.13289
20
1.15962
11
1.13291
21
1.15949
0
LINE
8
BLACK
6
CONTINUOUS
10
1.13291
20
1.15949
11
1.13284
21
1.15937
0
LINE
8
BLACK
6
CONTINUOUS
10
1.13284
20
1.15937
11
1.13277
21
1.15899
0
LINE
8
BLACK
6
CONTINUOUS
10
1.13277
20
1.15899
11
1.13228
21
1.1584
0
LINE
8
BLACK
6
CONTINUOUS
10
1.13228
20
1.1584
11
1.1319
21
1.15774
0
LINE
8
BLACK
6
CONTINUOUS
10
1.1319
20
1.15774
11
1.13165
21
1.15765
0
LINE
8
BLACK
6
CONTINUOUS
10
1.13165
20
1.15765
11
1.13148
21
1.15744
0
LINE
8
BLACK
6
CONTINUOUS
10
1.13148
20
1.15744
11
1.13072
21
1.15731
0
LINE
8
BLACK
6
CONTINUOUS
10
1.13072
20
1.15731
11
1.13
21
1.15705
0
LINE
8
BLACK
6
CONTINUOUS
10
1.13
20
1.15705
11
1.07
21
1.15705
0
LINE
8
BLACK
6
CONTINUOUS
10
1.07
20
1.15705
11
1.06962
21
1.15711
0
LINE
8
BLACK
6
CONTINUOUS
10
1.06962
20
1.15711
11
1.06949
21
1.15709
0
LINE
8
BLACK
6
CONTINUOUS
10
1.06949
20
1.15709
11
1.06937
21
1.15716
0
LINE
8
BLACK
6
CONTINUOUS
10
1.06937
20
1.15716
11
1.06899
21
1.15723
0
LINE
8
BLACK
6
CONTINUOUS
10
1.06899
20
1.15723
11
1.0684
21
1.15772
0
LINE
8
BLACK
6
CONTINUOUS
10
1.0684
20
1.15772
11
1.06774
21
1.1581
0
LINE
8
BLACK
6
CONTINUOUS
10
1.06774
20
1.1581
11
1.06765
21
1.15835
0
LINE
8
BLACK
6
CONTINUOUS
10
1.06765
20
1.15835
11
1.06744
21
1.15852
0
LINE
8
BLACK
6
CONTINUOUS
10
1.06744
20
1.15852
11
1.06731
21
1.15928
0
LINE
8
BLACK
6
CONTINUOUS
10
1.06731
20
1.15928
11
1.06705
21
1.16
0
LINE
8
BLACK
6
CONTINUOUS
10
1.06705
20
1.16
11
1.06705
21
1.2
0
LINE
8
BLACK
6
CONTINUOUS
10
1.06705
20
1.2
11
1.06723
21
1.20101
0
LINE
8
BLACK
6
CONTINUOUS
10
1.06723
20
1.20101
11
1.06852
21
1.20256
0
LINE
8
BLACK
6
CONTINUOUS
10
1.06852
20
1.20256
11
1.07051
21
1.20291
0
LINE
8
BLACK
6
CONTINUOUS
10
1.07051
20
1.20291
11
1.07226
21
1.2019
0
LINE
8
BLACK
6
CONTINUOUS
10
1.07226
20
1.2019
11
1.07295
21
1.2
0
LINE
8
BLACK
6
CONTINUOUS
10
1.07295
20
1.2
11
1.07295
21
1.16295
0
LINE
8
BLACK
6
CONTINUOUS
10
1.07295
20
1.16295
11
1.12705
21
1.16295
0
LINE
8
BLACK
6
CONTINUOUS
10
1.12705
20
1.16295
11
1.12705
21
1.2
0
LINE
8
BLACK
6
CONTINUOUS
10
1.12705
20
1.2
11
1.12723
21
1.20101
0
LINE
8
BLACK
6
CONTINUOUS
10
1.12723
20
1.20101
11
1.12852
21
1.20256
0
LINE
8
BLACK
6
CONTINUOUS
10
1.12852
20
1.20256
11
1.13051
21
1.20291
0
LINE
8
BLACK
6
CONTINUOUS
10
1.13051
20
1.20291
11
1.13226
21
1.2019
0
LINE
8
BLACK
6
CONTINUOUS
10
1.12541
20
1.2123
11
1.12604
21
1.21078
0
LINE
8
BLACK
6
CONTINUOUS
10
1.12604
20
1.21078
11
1.12541
21
1.20926
0
LINE
8
BLACK
6
CONTINUOUS
10
1.12541
20
1.20926
11
1.12389
21
1.20863
0
LINE
8
BLACK
6
CONTINUOUS
10
1.12389
20
1.20863
11
1.11634
21
1.20863
0
LINE
8
BLACK
6
CONTINUOUS
10
1.11634
20
1.20863
11
1.11591
21
1.2082
0
LINE
8
BLACK
6
CONTINUOUS
10
1.11591
20
1.2082
11
1.12518
21
1.20124
0
LINE
8
BLACK
6
CONTINUOUS
10
1.12518
20
1.20124
11
1.12602
21
1.19983
0
LINE
8
BLACK
6
CONTINUOUS
10
1.12602
20
1.19983
11
1.12561
21
1.19823
0
LINE
8
BLACK
6
CONTINUOUS
10
1.12561
20
1.19823
11
1.12419
21
1.19739
0
LINE
8
BLACK
6
CONTINUOUS
10
1.12419
20
1.19739
11
1.1226
21
1.1978
0
LINE
8
BLACK
6
CONTINUOUS
10
1.1226
20
1.1978
11
1.11283
21
1.20513
0
LINE
8
BLACK
6
CONTINUOUS
10
1.11283
20
1.20513
11
1.10571
21
1.198
0
LINE
8
BLACK
6
CONTINUOUS
10
1.10571
20
1.198
11
1.10419
21
1.19737
0
LINE
8
BLACK
6
CONTINUOUS
10
1.10419
20
1.19737
11
1.10267
21
1.198
0
LINE
8
BLACK
6
CONTINUOUS
10
1.10267
20
1.198
11
1.10204
21
1.19952
0
LINE
8
BLACK
6
CONTINUOUS
10
1.10204
20
1.19952
11
1.10267
21
1.20104
0
LINE
8
BLACK
6
CONTINUOUS
10
1.10267
20
1.20104
11
1.11026
21
1.20863
0
LINE
8
BLACK
6
CONTINUOUS
10
1.11026
20
1.20863
11
1.10419
21
1.20863
0
LINE
8
BLACK
6
CONTINUOUS
10
1.10419
20
1.20863
11
1.10267
21
1.20926
0
LINE
8
BLACK
6
CONTINUOUS
10
1.10267
20
1.20926
11
1.10204
21
1.21078
0
LINE
8
BLACK
6
CONTINUOUS
10
1.10204
20
1.21078
11
1.10267
21
1.2123
0
LINE
8
BLACK
6
CONTINUOUS
10
1.10267
20
1.2123
11
1.10419
21
1.21293
0
LINE
8
BLACK
6
CONTINUOUS
10
1.10419
20
1.21293
11
1.12389
21
1.21293
0
LINE
8
BLACK
6
CONTINUOUS
10
1.12389
20
1.21293
11
1.12541
21
1.2123
0
LINE
8
BLACK
6
CONTINUOUS
10
1.09791
20
1.2173
11
1.09854
21
1.21578
0
LINE
8
BLACK
6
CONTINUOUS
10
1.09854
20
1.21578
11
1.09854
21
1.20452
0
LINE
8
BLACK
6
CONTINUOUS
10
1.09854
20
1.20452
11
1.09791
21
1.203
0
LINE
8
BLACK
6
CONTINUOUS
10
1.09791
20
1.203
11
1.09639
21
1.20237
0
LINE
8
BLACK
6
CONTINUOUS
10
1.09639
20
1.20237
11
1.09487
21
1.203
0
LINE
8
BLACK
6
CONTINUOUS
10
1.09487
20
1.203
11
1.09424
21
1.20452
0
LINE
8
BLACK
6
CONTINUOUS
10
1.09424
20
1.20452
11
1.09424
21
1.208
0
LINE
8
BLACK
6
CONTINUOUS
10
1.09424
20
1.208
11
1.07669
21
1.208
0
LINE
8
BLACK
6
CONTINUOUS
10
1.07669
20
1.208
11
1.07649
21
1.20808
0
LINE
8
BLACK
6
CONTINUOUS
10
1.07649
20
1.20808
11
1.07627
21
1.20804
0
LINE
8
BLACK
6
CONTINUOUS
10
1.07627
20
1.20804
11
1.07575
21
1.20839
0
LINE
8
BLACK
6
CONTINUOUS
10
1.07575
20
1.20839
11
1.07517
21
1.20863
0
LINE
8
BLACK
6
CONTINUOUS
10
1.07517
20
1.20863
11
1.07508
21
1.20883
0
LINE
8
BLACK
6
CONTINUOUS
10
1.07508
20
1.20883
11
1.0749
21
1.20896
0
LINE
8
BLACK
6
CONTINUOUS
10
1.0749
20
1.20896
11
1.07478
21
1.20957
0
LINE
8
BLACK
6
CONTINUOUS
10
1.07478
20
1.20957
11
1.07454
21
1.21015
0
LINE
8
BLACK
6
CONTINUOUS
10
1.07454
20
1.21015
11
1.07462
21
1.21035
0
LINE
8
BLACK
6
CONTINUOUS
10
1.07462
20
1.21035
11
1.07458
21
1.21057
0
LINE
8
BLACK
6
CONTINUOUS
10
1.07458
20
1.21057
11
1.07493
21
1.21109
0
LINE
8
BLACK
6
CONTINUOUS
10
1.07493
20
1.21109
11
1.07517
21
1.21167
0
LINE
8
BLACK
6
CONTINUOUS
10
1.07517
20
1.21167
11
1.07537
21
1.21175
0
LINE
8
BLACK
6
CONTINUOUS
10
1.07537
20
1.21175
11
1.0755
21
1.21194
0
LINE
8
BLACK
6
CONTINUOUS
10
1.0755
20
1.21194
11
1.07813
21
1.2137
0
LINE
8
BLACK
6
CONTINUOUS
10
1.07813
20
1.2137
11
1.07961
21
1.21518
0
LINE
8
BLACK
6
CONTINUOUS
10
1.07961
20
1.21518
11
1.0804
21
1.21674
0
LINE
8
BLACK
6
CONTINUOUS
10
1.0804
20
1.21674
11
1.08164
21
1.21782
0
LINE
8
BLACK
6
CONTINUOUS
10
1.08164
20
1.21782
11
1.08328
21
1.2177
0
LINE
8
BLACK
6
CONTINUOUS
10
1.08328
20
1.2177
11
1.08436
21
1.21646
0
LINE
8
BLACK
6
CONTINUOUS
10
1.08436
20
1.21646
11
1.08424
21
1.21482
0
LINE
8
BLACK
6
CONTINUOUS
10
1.08424
20
1.21482
11
1.0833
21
1.21294
0
LINE
8
BLACK
6
CONTINUOUS
10
1.0833
20
1.21294
11
1.08304
21
1.21271
0
LINE
8
BLACK
6
CONTINUOUS
10
1.08304
20
1.21271
11
1.0829
21
1.21238
0
LINE
8
BLACK
6
CONTINUOUS
10
1.0829
20
1.21238
11
1.08282
21
1.2123
0
LINE
8
BLACK
6
CONTINUOUS
10
1.08282
20
1.2123
11
1.09424
21
1.2123
0
LINE
8
BLACK
6
CONTINUOUS
10
1.09424
20
1.2123
11
1.09424
21
1.21578
0
LINE
8
BLACK
6
CONTINUOUS
10
1.09424
20
1.21578
11
1.09487
21
1.2173
0
LINE
8
BLACK
6
CONTINUOUS
10
1.09487
20
1.2173
11
1.09639
21
1.21793
0
LINE
8
BLACK
6
CONTINUOUS
10
1.09639
20
1.21793
11
1.09791
21
1.2173
0
LINE
8
BLACK
6
CONTINUOUS
10
1.12541
20
1.232
11
1.12604
21
1.23048
0
LINE
8
BLACK
6
CONTINUOUS
10
1.12604
20
1.23048
11
1.12604
21
1.21922
0
LINE
8
BLACK
6
CONTINUOUS
10
1.12604
20
1.21922
11
1.12541
21
1.2177
0
LINE
8
BLACK
6
CONTINUOUS
10
1.12541
20
1.2177
11
1.12389
21
1.21707
0
LINE
8
BLACK
6
CONTINUOUS
10
1.12389
20
1.21707
11
1.12237
21
1.2177
0
LINE
8
BLACK
6
CONTINUOUS
10
1.12237
20
1.2177
11
1.12174
21
1.21922
0
LINE
8
BLACK
6
CONTINUOUS
10
1.12174
20
1.21922
11
1.12174
21
1.2227
0
LINE
8
BLACK
6
CONTINUOUS
10
1.12174
20
1.2227
11
1.10419
21
1.2227
0
LINE
8
BLACK
6
CONTINUOUS
10
1.10419
20
1.2227
11
1.10399
21
1.22278
0
LINE
8
BLACK
6
CONTINUOUS
10
1.10399
20
1.22278
11
1.10377
21
1.22274
0
LINE
8
BLACK
6
CONTINUOUS
10
1.10377
20
1.22274
11
1.10325
21
1.22309
0
LINE
8
BLACK
6
CONTINUOUS
10
1.10325
20
1.22309
11
1.10267
21
1.22333
0
LINE
8
BLACK
6
CONTINUOUS
10
1.10267
20
1.22333
11
1.10258
21
1.22353
0
LINE
8
BLACK
6
CONTINUOUS
10
1.10258
20
1.22353
11
1.1024
21
1.22366
0
LINE
8
BLACK
6
CONTINUOUS
10
1.1024
20
1.22366
11
1.10228
21
1.22427
0
LINE
8
BLACK
6
CONTINUOUS
10
1.10228
20
1.22427
11
1.10204
21
1.22485
0
LINE
8
BLACK
6
CONTINUOUS
10
1.10204
20
1.22485
11
1.10212
21
1.22505
0
LINE
8
BLACK
6
CONTINUOUS
10
1.10212
20
1.22505
11
1.10208
21
1.22527
0
LINE
8
BLACK
6
CONTINUOUS
10
1.10208
20
1.22527
11
1.10243
21
1.22579
0
LINE
8
BLACK
6
CONTINUOUS
10
1.10243
20
1.22579
11
1.10267
21
1.22637
0
LINE
8
BLACK
6
CONTINUOUS
10
1.10267
20
1.22637
11
1.10287
21
1.22645
0
LINE
8
BLACK
6
CONTINUOUS
10
1.10287
20
1.22645
11
1.103
21
1.22664
0
LINE
8
BLACK
6
CONTINUOUS
10
1.103
20
1.22664
11
1.10563
21
1.2284
0
LINE
8
BLACK
6
CONTINUOUS
10
1.10563
20
1.2284
11
1.10711
21
1.22988
0
LINE
8
BLACK
6
CONTINUOUS
10
1.10711
20
1.22988
11
1.1079
21
1.23144
0
LINE
8
BLACK
6
CONTINUOUS
10
1.1079
20
1.23144
11
1.10914
21
1.23252
0
LINE
8
BLACK
6
CONTINUOUS
10
1.10914
20
1.23252
11
1.11078
21
1.2324
0
LINE
8
BLACK
6
CONTINUOUS
10
1.11078
20
1.2324
11
1.11186
21
1.23116
0
LINE
8
BLACK
6
CONTINUOUS
10
1.11186
20
1.23116
11
1.11174
21
1.22952
0
LINE
8
BLACK
6
CONTINUOUS
10
1.11174
20
1.22952
11
1.1108
21
1.22764
0
LINE
8
BLACK
6
CONTINUOUS
10
1.1108
20
1.22764
11
1.11054
21
1.22741
0
LINE
8
BLACK
6
CONTINUOUS
10
1.11054
20
1.22741
11
1.1104
21
1.22708
0
LINE
8
BLACK
6
CONTINUOUS
10
1.1104
20
1.22708
11
1.11032
21
1.227
0
LINE
8
BLACK
6
CONTINUOUS
10
1.11032
20
1.227
11
1.12174
21
1.227
0
LINE
8
BLACK
6
CONTINUOUS
10
1.12174
20
1.227
11
1.12174
21
1.23048
0
LINE
8
BLACK
6
CONTINUOUS
10
1.12174
20
1.23048
11
1.12237
21
1.232
0
LINE
8
BLACK
6
CONTINUOUS
10
1.12237
20
1.232
11
1.12389
21
1.23263
0
LINE
8
BLACK
6
CONTINUOUS
10
1.12389
20
1.23263
11
1.12541
21
1.232
0
LINE
8
BLACK
6
CONTINUOUS
10
1.09791
20
1.23606
11
1.09854
21
1.23454
0
LINE
8
BLACK
6
CONTINUOUS
10
1.09854
20
1.23454
11
1.09791
21
1.23302
0
LINE
8
BLACK
6
CONTINUOUS
10
1.09791
20
1.23302
11
1.09639
21
1.23239
0
LINE
8
BLACK
6
CONTINUOUS
10
1.09639
20
1.23239
11
1.08916
21
1.23239
0
LINE
8
BLACK
6
CONTINUOUS
10
1.08916
20
1.23239
11
1.08916
21
1.23097
0
LINE
8
BLACK
6
CONTINUOUS
10
1.08916
20
1.23097
11
1.09762
21
1.22504
0
LINE
8
BLACK
6
CONTINUOUS
10
1.09762
20
1.22504
11
1.09851
21
1.22366
0
LINE
8
BLACK
6
CONTINUOUS
10
1.09851
20
1.22366
11
1.09815
21
1.22205
0
LINE
8
BLACK
6
CONTINUOUS
10
1.09815
20
1.22205
11
1.09676
21
1.22117
0
LINE
8
BLACK
6
CONTINUOUS
10
1.09676
20
1.22117
11
1.09516
21
1.22152
0
LINE
8
BLACK
6
CONTINUOUS
10
1.09516
20
1.22152
11
1.08886
21
1.22593
0
LINE
8
BLACK
6
CONTINUOUS
10
1.08886
20
1.22593
11
1.08799
21
1.2242
0
LINE
8
BLACK
6
CONTINUOUS
10
1.08799
20
1.2242
11
1.08773
21
1.22397
0
LINE
8
BLACK
6
CONTINUOUS
10
1.08773
20
1.22397
11
1.08759
21
1.22364
0
LINE
8
BLACK
6
CONTINUOUS
10
1.08759
20
1.22364
11
1.08665
21
1.2227
0
LINE
8
BLACK
6
CONTINUOUS
10
1.08665
20
1.2227
11
1.08633
21
1.22257
0
LINE
8
BLACK
6
CONTINUOUS
10
1.08633
20
1.22257
11
1.08609
21
1.2223
0
LINE
8
BLACK
6
CONTINUOUS
10
1.08609
20
1.2223
11
1.08422
21
1.22136
0
LINE
8
BLACK
6
CONTINUOUS
10
1.08422
20
1.22136
11
1.08372
21
1.22132
0
LINE
8
BLACK
6
CONTINUOUS
10
1.08372
20
1.22132
11
1.08326
21
1.22113
0
LINE
8
BLACK
6
CONTINUOUS
10
1.08326
20
1.22113
11
1.08044
21
1.22113
0
LINE
8
BLACK
6
CONTINUOUS
10
1.08044
20
1.22113
11
1.07998
21
1.22132
0
LINE
8
BLACK
6
CONTINUOUS
10
1.07998
20
1.22132
11
1.07948
21
1.22136
0
LINE
8
BLACK
6
CONTINUOUS
10
1.07948
20
1.22136
11
1.0776
21
1.2223
0
LINE
8
BLACK
6
CONTINUOUS
10
1.0776
20
1.2223
11
1.07737
21
1.22257
0
LINE
8
BLACK
6
CONTINUOUS
10
1.07737
20
1.22257
11
1.07705
21
1.2227
0
LINE
8
BLACK
6
CONTINUOUS
10
1.07705
20
1.2227
11
1.07611
21
1.22364
0
LINE
8
BLACK
6
CONTINUOUS
10
1.07611
20
1.22364
11
1.07597
21
1.22397
0
LINE
8
BLACK
6
CONTINUOUS
10
1.07597
20
1.22397
11
1.07571
21
1.2242
0
LINE
8
BLACK
6
CONTINUOUS
10
1.07571
20
1.2242
11
1.07477
21
1.22607
0
LINE
8
BLACK
6
CONTINUOUS
10
1.07477
20
1.22607
11
1.07473
21
1.22657
0
LINE
8
BLACK
6
CONTINUOUS
10
1.07473
20
1.22657
11
1.07454
21
1.22704
0
LINE
8
BLACK
6
CONTINUOUS
10
1.07454
20
1.22704
11
1.07454
21
1.23454
0
LINE
8
BLACK
6
CONTINUOUS
10
1.07454
20
1.23454
11
1.07517
21
1.23606
0
LINE
8
BLACK
6
CONTINUOUS
10
1.07517
20
1.23606
11
1.07669
21
1.23669
0
LINE
8
BLACK
6
CONTINUOUS
10
1.07669
20
1.23669
11
1.09639
21
1.23669
0
LINE
8
BLACK
6
CONTINUOUS
10
1.09639
20
1.23669
11
1.09791
21
1.23606
0
LINE
8
BLACK
6
CONTINUOUS
10
1.07884
20
1.22754
11
1.07939
21
1.22643
0
LINE
8
BLACK
6
CONTINUOUS
10
1.07939
20
1.22643
11
1.07984
21
1.22599
0
LINE
8
BLACK
6
CONTINUOUS
10
1.07984
20
1.22599
11
1.08095
21
1.22543
0
LINE
8
BLACK
6
CONTINUOUS
10
1.08095
20
1.22543
11
1.08275
21
1.22543
0
LINE
8
BLACK
6
CONTINUOUS
10
1.08275
20
1.22543
11
1.08386
21
1.22599
0
LINE
8
BLACK
6
CONTINUOUS
10
1.08386
20
1.22599
11
1.0843
21
1.22643
0
LINE
8
BLACK
6
CONTINUOUS
10
1.0843
20
1.22643
11
1.08486
21
1.22754
0
LINE
8
BLACK
6
CONTINUOUS
10
1.08486
20
1.22754
11
1.08486
21
1.23239
0
LINE
8
BLACK
6
CONTINUOUS
10
1.08486
20
1.23239
11
1.07884
21
1.23239
0
LINE
8
BLACK
6
CONTINUOUS
10
1.07884
20
1.23239
11
1.07884
21
1.22754
0
LINE
8
BLACK
6
CONTINUOUS
10
1.13496
20
1.29122
11
1.13717
21
1.28845
0
LINE
8
BLACK
6
CONTINUOUS
10
1.13717
20
1.28845
11
1.13795
21
1.285
0
LINE
8
BLACK
6
CONTINUOUS
10
1.13795
20
1.285
11
1.13717
21
1.28155
0
LINE
8
BLACK
6
CONTINUOUS
10
1.13717
20
1.28155
11
1.13496
21
1.27878
0
LINE
8
BLACK
6
CONTINUOUS
10
1.13496
20
1.27878
11
1.13295
21
1.27782
0
LINE
8
BLACK
6
CONTINUOUS
10
1.13295
20
1.27782
11
1.13295
21
1.24
0
LINE
8
BLACK
6
CONTINUOUS
10
1.13295
20
1.24
11
1.13277
21
1.23899
0
LINE
8
BLACK
6
CONTINUOUS
10
1.13277
20
1.23899
11
1.13148
21
1.23744
0
LINE
8
BLACK
6
CONTINUOUS
10
1.13148
20
1.23744
11
1.12949
21
1.23709
0
LINE
8
BLACK
6
CONTINUOUS
10
1.12949
20
1.23709
11
1.12774
21
1.2381
0
LINE
8
BLACK
6
CONTINUOUS
10
1.12774
20
1.2381
11
1.12705
21
1.24
0
LINE
8
BLACK
6
CONTINUOUS
10
1.12705
20
1.24
11
1.12705
21
1.27705
0
LINE
8
BLACK
6
CONTINUOUS
10
1.12705
20
1.27705
11
1.07295
21
1.27705
0
LINE
8
BLACK
6
CONTINUOUS
10
1.07295
20
1.27705
11
1.07295
21
1.24
0
LINE
8
BLACK
6
CONTINUOUS
10
1.07295
20
1.24
11
1.07277
21
1.23899
0
LINE
8
BLACK
6
CONTINUOUS
10
1.07277
20
1.23899
11
1.07148
21
1.23744
0
LINE
8
BLACK
6
CONTINUOUS
10
1.07148
20
1.23744
11
1.06949
21
1.23709
0
LINE
8
BLACK
6
CONTINUOUS
10
1.06949
20
1.23709
11
1.06774
21
1.2381
0
LINE
8
BLACK
6
CONTINUOUS
10
1.06774
20
1.2381
11
1.06705
21
1.24
0
LINE
8
BLACK
6
CONTINUOUS
10
1.06705
20
1.24
11
1.06705
21
1.28
0
LINE
8
BLACK
6
CONTINUOUS
10
1.06705
20
1.28
11
1.06711
21
1.28038
0
LINE
8
BLACK
6
CONTINUOUS
10
1.06711
20
1.28038
11
1.06709
21
1.28051
0
LINE
8
BLACK
6
CONTINUOUS
10
1.06709
20
1.28051
11
1.06716
21
1.28063
0
LINE
8
BLACK
6
CONTINUOUS
10
1.06716
20
1.28063
11
1.06723
21
1.28101
0
LINE
8
BLACK
6
CONTINUOUS
10
1.06723
20
1.28101
11
1.06772
21
1.2816
0
LINE
8
BLACK
6
CONTINUOUS
10
1.06772
20
1.2816
11
1.0681
21
1.28226
0
LINE
8
BLACK
6
CONTINUOUS
10
1.0681
20
1.28226
11
1.06835
21
1.28235
0
LINE
8
BLACK
6
CONTINUOUS
10
1.06835
20
1.28235
11
1.06852
21
1.28256
0
LINE
8
BLACK
6
CONTINUOUS
10
1.06852
20
1.28256
11
1.06928
21
1.28269
0
LINE
8
BLACK
6
CONTINUOUS
10
1.06928
20
1.28269
11
1.07
21
1.28295
0
LINE
8
BLACK
6
CONTINUOUS
10
1.07
20
1.28295
11
1.12251
21
1.28295
0
LINE
8
BLACK
6
CONTINUOUS
10
1.12251
20
1.28295
11
1.12205
21
1.285
0
LINE
8
BLACK
6
CONTINUOUS
10
1.12205
20
1.285
11
1.12283
21
1.28845
0
LINE
8
BLACK
6
CONTINUOUS
10
1.12283
20
1.28845
11
1.12504
21
1.29122
0
LINE
8
BLACK
6
CONTINUOUS
10
1.12504
20
1.29122
11
1.12823
21
1.29275
0
LINE
8
BLACK
6
CONTINUOUS
10
1.12823
20
1.29275
11
1.13177
21
1.29275
0
LINE
8
BLACK
6
CONTINUOUS
10
1.13177
20
1.29275
11
1.13496
21
1.29122
0
LINE
8
BLACK
6
CONTINUOUS
10
1.12843
20
1.28343
11
1.12959
21
1.28295
0
LINE
8
BLACK
6
CONTINUOUS
10
1.12959
20
1.28295
11
1.13
21
1.28295
0
LINE
8
BLACK
6
CONTINUOUS
10
1.13
20
1.28295
11
1.13029
21
1.2829
0
LINE
8
BLACK
6
CONTINUOUS
10
1.13029
20
1.2829
11
1.13157
21
1.28343
0
LINE
8
BLACK
6
CONTINUOUS
10
1.13157
20
1.28343
11
1.13222
21
1.285
0
LINE
8
BLACK
6
CONTINUOUS
10
1.13222
20
1.285
11
1.13157
21
1.28657
0
LINE
8
BLACK
6
CONTINUOUS
10
1.13157
20
1.28657
11
1.13
21
1.28722
0
LINE
8
BLACK
6
CONTINUOUS
10
1.13
20
1.28722
11
1.12843
21
1.28657
0
LINE
8
BLACK
6
CONTINUOUS
10
1.12843
20
1.28657
11
1.12778
21
1.285
0
LINE
8
BLACK
6
CONTINUOUS
10
1.12778
20
1.285
11
1.12843
21
1.28343
0
LINE
8
BLACK
6
CONTINUOUS
10
0.637438
20
1.27317
11
0.638009
21
1.27179
0
LINE
8
BLACK
6
CONTINUOUS
10
0.638009
20
1.27179
11
0.638009
21
1.25209
0
LINE
8
BLACK
6
CONTINUOUS
10
0.638009
20
1.25209
11
0.637438
21
1.25071
0
LINE
8
BLACK
6
CONTINUOUS
10
0.637438
20
1.25071
11
0.636059
21
1.25014
0
LINE
8
BLACK
6
CONTINUOUS
10
0.636059
20
1.25014
11
0.634681
21
1.25071
0
LINE
8
BLACK
6
CONTINUOUS
10
0.634681
20
1.25071
11
0.634109
21
1.25209
0
LINE
8
BLACK
6
CONTINUOUS
10
0.634109
20
1.25209
11
0.634109
21
1.25972
0
LINE
8
BLACK
6
CONTINUOUS
10
0.634109
20
1.25972
11
0.633456
21
1.26038
0
LINE
8
BLACK
6
CONTINUOUS
10
0.633456
20
1.26038
11
0.626362
21
1.25092
0
LINE
8
BLACK
6
CONTINUOUS
10
0.626362
20
1.25092
11
0.625078
21
1.25016
0
LINE
8
BLACK
6
CONTINUOUS
10
0.625078
20
1.25016
11
0.623632
21
1.25053
0
LINE
8
BLACK
6
CONTINUOUS
10
0.623632
20
1.25053
11
0.622872
21
1.25181
0
LINE
8
BLACK
6
CONTINUOUS
10
0.622872
20
1.25181
11
0.623242
21
1.25326
0
LINE
8
BLACK
6
CONTINUOUS
10
0.623242
20
1.25326
11
0.63067
21
1.26316
0
LINE
8
BLACK
6
CONTINUOUS
10
0.63067
20
1.26316
11
0.623424
21
1.27041
0
LINE
8
BLACK
6
CONTINUOUS
10
0.623424
20
1.27041
11
0.622852
21
1.27179
0
LINE
8
BLACK
6
CONTINUOUS
10
0.622852
20
1.27179
11
0.623424
21
1.27317
0
LINE
8
BLACK
6
CONTINUOUS
10
0.623424
20
1.27317
11
0.624802
21
1.27374
0
LINE
8
BLACK
6
CONTINUOUS
10
0.624802
20
1.27374
11
0.626181
21
1.27317
0
LINE
8
BLACK
6
CONTINUOUS
10
0.626181
20
1.27317
11
0.634109
21
1.26524
0
LINE
8
BLACK
6
CONTINUOUS
10
0.634109
20
1.26524
11
0.634109
21
1.27179
0
LINE
8
BLACK
6
CONTINUOUS
10
0.634109
20
1.27179
11
0.634681
21
1.27317
0
LINE
8
BLACK
6
CONTINUOUS
10
0.634681
20
1.27317
11
0.636059
21
1.27374
0
LINE
8
BLACK
6
CONTINUOUS
10
0.636059
20
1.27374
11
0.637438
21
1.27317
0
LINE
8
BLACK
6
CONTINUOUS
10
0.489827
20
1.27354
11
0.489972
21
1.27353
0
LINE
8
BLACK
6
CONTINUOUS
10
0.489972
20
1.27353
11
0.490377
21
1.27307
0
LINE
8
BLACK
6
CONTINUOUS
10
0.490377
20
1.27307
11
0.490844
21
1.27266
0
LINE
8
BLACK
6
CONTINUOUS
10
0.490844
20
1.27266
11
0.490854
21
1.27252
0
LINE
8
BLACK
6
CONTINUOUS
10
0.490854
20
1.27252
11
0.49095
21
1.27241
0
LINE
8
BLACK
6
CONTINUOUS
10
0.49095
20
1.27241
11
0.497517
21
1.25271
0
LINE
8
BLACK
6
CONTINUOUS
10
0.497517
20
1.25271
11
0.497411
21
1.25122
0
LINE
8
BLACK
6
CONTINUOUS
10
0.497411
20
1.25122
11
0.496283
21
1.25024
0
LINE
8
BLACK
6
CONTINUOUS
10
0.496283
20
1.25024
11
0.494795
21
1.25035
0
LINE
8
BLACK
6
CONTINUOUS
10
0.494795
20
1.25035
11
0.493817
21
1.25147
0
LINE
8
BLACK
6
CONTINUOUS
10
0.493817
20
1.25147
11
0.492385
21
1.25577
0
LINE
8
BLACK
6
CONTINUOUS
10
0.492385
20
1.25577
11
0.485815
21
1.25577
0
LINE
8
BLACK
6
CONTINUOUS
10
0.485815
20
1.25577
11
0.484383
21
1.25147
0
LINE
8
BLACK
6
CONTINUOUS
10
0.484383
20
1.25147
11
0.483405
21
1.25035
0
LINE
8
BLACK
6
CONTINUOUS
10
0.483405
20
1.25035
11
0.481917
21
1.25024
0
LINE
8
BLACK
6
CONTINUOUS
10
0.481917
20
1.25024
11
0.480789
21
1.25122
0
LINE
8
BLACK
6
CONTINUOUS
10
0.480789
20
1.25122
11
0.480683
21
1.25271
0
LINE
8
BLACK
6
CONTINUOUS
10
0.480683
20
1.25271
11
0.48725
21
1.27241
0
LINE
8
BLACK
6
CONTINUOUS
10
0.48725
20
1.27241
11
0.487345
21
1.27252
0
LINE
8
BLACK
6
CONTINUOUS
10
0.487345
20
1.27252
11
0.487356
21
1.27266
0
LINE
8
BLACK
6
CONTINUOUS
10
0.487356
20
1.27266
11
0.487823
21
1.27307
0
LINE
8
BLACK
6
CONTINUOUS
10
0.487823
20
1.27307
11
0.488228
21
1.27353
0
LINE
8
BLACK
6
CONTINUOUS
10
0.488228
20
1.27353
11
0.488373
21
1.27354
0
LINE
8
BLACK
6
CONTINUOUS
10
0.488373
20
1.27354
11
0.488483
21
1.27364
0
LINE
8
BLACK
6
CONTINUOUS
10
0.488483
20
1.27364
11
0.4891
21
1.2736
0
LINE
8
BLACK
6
CONTINUOUS
10
0.4891
20
1.2736
11
0.489717
21
1.27364
0
LINE
8
BLACK
6
CONTINUOUS
10
0.489717
20
1.27364
11
0.489827
21
1.27354
0
LINE
8
BLACK
6
CONTINUOUS
10
0.487115
20
1.25967
11
0.491085
21
1.25967
0
LINE
8
BLACK
6
CONTINUOUS
10
0.491085
20
1.25967
11
0.4891
21
1.26562
0
LINE
8
BLACK
6
CONTINUOUS
10
0.4891
20
1.26562
11
0.487115
21
1.25967
0
LINE
8
BLACK
6
CONTINUOUS
10
1.17129
20
1.33564
11
1.17186
21
1.33426
0
LINE
8
BLACK
6
CONTINUOUS
10
1.17186
20
1.33426
11
1.17129
21
1.33288
0
LINE
8
BLACK
6
CONTINUOUS
10
1.17129
20
1.33288
11
1.16991
21
1.33231
0
LINE
8
BLACK
6
CONTINUOUS
10
1.16991
20
1.33231
11
1.16228
21
1.33231
0
LINE
8
BLACK
6
CONTINUOUS
10
1.16228
20
1.33231
11
1.16162
21
1.33166
0
LINE
8
BLACK
6
CONTINUOUS
10
1.16162
20
1.33166
11
1.17108
21
1.32456
0
LINE
8
BLACK
6
CONTINUOUS
10
1.17108
20
1.32456
11
1.17184
21
1.32328
0
LINE
8
BLACK
6
CONTINUOUS
10
1.17184
20
1.32328
11
1.17147
21
1.32183
0
LINE
8
BLACK
6
CONTINUOUS
10
1.17147
20
1.32183
11
1.17019
21
1.32107
0
LINE
8
BLACK
6
CONTINUOUS
10
1.17019
20
1.32107
11
1.16874
21
1.32144
0
LINE
8
BLACK
6
CONTINUOUS
10
1.16874
20
1.32144
11
1.15884
21
1.32887
0
LINE
8
BLACK
6
CONTINUOUS
10
1.15884
20
1.32887
11
1.15159
21
1.32162
0
LINE
8
BLACK
6
CONTINUOUS
10
1.15159
20
1.32162
11
1.15021
21
1.32105
0
LINE
8
BLACK
6
CONTINUOUS
10
1.15021
20
1.32105
11
1.14883
21
1.32162
0
LINE
8
BLACK
6
CONTINUOUS
10
1.14883
20
1.32162
11
1.14826
21
1.323
0
LINE
8
BLACK
6
CONTINUOUS
10
1.14826
20
1.323
11
1.14883
21
1.32438
0
LINE
8
BLACK
6
CONTINUOUS
10
1.14883
20
1.32438
11
1.15676
21
1.33231
0
LINE
8
BLACK
6
CONTINUOUS
10
1.15676
20
1.33231
11
1.15021
21
1.33231
0
LINE
8
BLACK
6
CONTINUOUS
10
1.15021
20
1.33231
11
1.14883
21
1.33288
0
LINE
8
BLACK
6
CONTINUOUS
10
1.14883
20
1.33288
11
1.14826
21
1.33426
0
LINE
8
BLACK
6
CONTINUOUS
10
1.14826
20
1.33426
11
1.14883
21
1.33564
0
LINE
8
BLACK
6
CONTINUOUS
10
1.14883
20
1.33564
11
1.15021
21
1.33621
0
LINE
8
BLACK
6
CONTINUOUS
10
1.15021
20
1.33621
11
1.16991
21
1.33621
0
LINE
8
BLACK
6
CONTINUOUS
10
1.16991
20
1.33621
11
1.17129
21
1.33564
0
LINE
8
BLACK
6
CONTINUOUS
10
1.10923
20
1.45234
11
1.1169
21
1.45029
0
LINE
8
BLACK
6
CONTINUOUS
10
1.1169
20
1.45029
11
1.12713
21
1.45029
0
LINE
8
BLACK
6
CONTINUOUS
10
1.12713
20
1.45029
11
1.13013
21
1.44948
0
LINE
8
BLACK
6
CONTINUOUS
10
1.13013
20
1.44948
11
1.13233
21
1.44729
0
LINE
8
BLACK
6
CONTINUOUS
10
1.13233
20
1.44729
11
1.13313
21
1.44429
0
LINE
8
BLACK
6
CONTINUOUS
10
1.13313
20
1.44429
11
1.13313
21
1.44144
0
LINE
8
BLACK
6
CONTINUOUS
10
1.13313
20
1.44144
11
1.13416
21
1.44071
0
LINE
8
BLACK
6
CONTINUOUS
10
1.13416
20
1.44071
11
1.14071
21
1.43416
0
LINE
8
BLACK
6
CONTINUOUS
10
1.14071
20
1.43416
11
1.14603
21
1.42657
0
LINE
8
BLACK
6
CONTINUOUS
10
1.14603
20
1.42657
11
1.14994
21
1.41818
0
LINE
8
BLACK
6
CONTINUOUS
10
1.14994
20
1.41818
11
1.15234
21
1.40923
0
LINE
8
BLACK
6
CONTINUOUS
10
1.15234
20
1.40923
11
1.15315
21
1.4
0
LINE
8
BLACK
6
CONTINUOUS
10
1.15315
20
1.4
11
1.15234
21
1.39077
0
LINE
8
BLACK
6
CONTINUOUS
10
1.15234
20
1.39077
11
1.14994
21
1.38182
0
LINE
8
BLACK
6
CONTINUOUS
10
1.14994
20
1.38182
11
1.14603
21
1.37343
0
LINE
8
BLACK
6
CONTINUOUS
10
1.14603
20
1.37343
11
1.14071
21
1.36584
0
LINE
8
BLACK
6
CONTINUOUS
10
1.14071
20
1.36584
11
1.13416
21
1.35929
0
LINE
8
BLACK
6
CONTINUOUS
10
1.13416
20
1.35929
11
1.13313
21
1.35856
0
LINE
8
BLACK
6
CONTINUOUS
10
1.13313
20
1.35856
11
1.13313
21
1.35286
0
LINE
8
BLACK
6
CONTINUOUS
10
1.13313
20
1.35286
11
1.13233
21
1.34986
0
LINE
8
BLACK
6
CONTINUOUS
10
1.13233
20
1.34986
11
1.13013
21
1.34766
0
LINE
8
BLACK
6
CONTINUOUS
10
1.13013
20
1.34766
11
1.12713
21
1.34686
0
LINE
8
BLACK
6
CONTINUOUS
10
1.12713
20
1.34686
11
1.12413
21
1.34766
0
LINE
8
BLACK
6
CONTINUOUS
10
1.12413
20
1.34766
11
1.12194
21
1.34986
0
LINE
8
BLACK
6
CONTINUOUS
10
1.12194
20
1.34986
11
1.12147
21
1.35159
0
LINE
8
BLACK
6
CONTINUOUS
10
1.12147
20
1.35159
11
1.11818
21
1.35006
0
LINE
8
BLACK
6
CONTINUOUS
10
1.11818
20
1.35006
11
1.10923
21
1.34766
0
LINE
8
BLACK
6
CONTINUOUS
10
1.10923
20
1.34766
11
1.1
21
1.34685
0
LINE
8
BLACK
6
CONTINUOUS
10
1.1
20
1.34685
11
1.09077
21
1.34766
0
LINE
8
BLACK
6
CONTINUOUS
10
1.09077
20
1.34766
11
1.08904
21
1.34812
0
LINE
8
BLACK
6
CONTINUOUS
10
1.08904
20
1.34812
11
1.08617
21
1.34717
0
LINE
8
BLACK
6
CONTINUOUS
10
1.08617
20
1.34717
11
1.08521
21
1.34711
0
LINE
8
BLACK
6
CONTINUOUS
10
1.08521
20
1.34711
11
1.08428
21
1.34686
0
LINE
8
BLACK
6
CONTINUOUS
10
1.08428
20
1.34686
11
1.07856
21
1.34686
0
LINE
8
BLACK
6
CONTINUOUS
10
1.07856
20
1.34686
11
1.07723
21
1.34721
0
LINE
8
BLACK
6
CONTINUOUS
10
1.07723
20
1.34721
11
1.07588
21
1.34749
0
LINE
8
BLACK
6
CONTINUOUS
10
1.07588
20
1.34749
11
1.07016
21
1.35035
0
LINE
8
BLACK
6
CONTINUOUS
10
1.07016
20
1.35035
11
1.06944
21
1.35099
0
LINE
8
BLACK
6
CONTINUOUS
10
1.06944
20
1.35099
11
1.0686
21
1.35147
0
LINE
8
BLACK
6
CONTINUOUS
10
1.0686
20
1.35147
11
1.06575
21
1.35433
0
LINE
8
BLACK
6
CONTINUOUS
10
1.06575
20
1.35433
11
1.06526
21
1.35517
0
LINE
8
BLACK
6
CONTINUOUS
10
1.06526
20
1.35517
11
1.06462
21
1.35589
0
LINE
8
BLACK
6
CONTINUOUS
10
1.06462
20
1.35589
11
1.06177
21
1.3616
0
LINE
8
BLACK
6
CONTINUOUS
10
1.06177
20
1.3616
11
1.06149
21
1.36295
0
LINE
8
BLACK
6
CONTINUOUS
10
1.06149
20
1.36295
11
1.06124
21
1.36388
0
LINE
8
BLACK
6
CONTINUOUS
10
1.06124
20
1.36388
11
1.05929
21
1.36584
0
LINE
8
BLACK
6
CONTINUOUS
10
1.05929
20
1.36584
11
1.05397
21
1.37343
0
LINE
8
BLACK
6
CONTINUOUS
10
1.05397
20
1.37343
11
1.05006
21
1.38182
0
LINE
8
BLACK
6
CONTINUOUS
10
1.05006
20
1.38182
11
1.04766
21
1.39077
0
LINE
8
BLACK
6
CONTINUOUS
10
1.04766
20
1.39077
11
1.04685
21
1.4
0
LINE
8
BLACK
6
CONTINUOUS
10
1.04685
20
1.4
11
1.04766
21
1.40923
0
LINE
8
BLACK
6
CONTINUOUS
10
1.04766
20
1.40923
11
1.05006
21
1.41818
0
LINE
8
BLACK
6
CONTINUOUS
10
1.05006
20
1.41818
11
1.05397
21
1.42657
0
LINE
8
BLACK
6
CONTINUOUS
10
1.05397
20
1.42657
11
1.05929
21
1.43416
0
LINE
8
BLACK
6
CONTINUOUS
10
1.05929
20
1.43416
11
1.06113
21
1.43601
0
LINE
8
BLACK
6
CONTINUOUS
10
1.06113
20
1.43601
11
1.06113
21
1.44429
0
LINE
8
BLACK
6
CONTINUOUS
10
1.06113
20
1.44429
11
1.06194
21
1.44729
0
LINE
8
BLACK
6
CONTINUOUS
10
1.06194
20
1.44729
11
1.06413
21
1.44948
0
LINE
8
BLACK
6
CONTINUOUS
10
1.06413
20
1.44948
11
1.06713
21
1.45029
0
LINE
8
BLACK
6
CONTINUOUS
10
1.06713
20
1.45029
11
1.0831
21
1.45029
0
LINE
8
BLACK
6
CONTINUOUS
10
1.0831
20
1.45029
11
1.09077
21
1.45234
0
LINE
8
BLACK
6
CONTINUOUS
10
1.09077
20
1.45234
11
1.1
21
1.45315
0
LINE
8
BLACK
6
CONTINUOUS
10
1.1
20
1.45315
11
1.10923
21
1.45234
0
LINE
8
BLACK
6
CONTINUOUS
10
1.17078
20
1.47921
11
1.17176
21
1.47808
0
LINE
8
BLACK
6
CONTINUOUS
10
1.17176
20
1.47808
11
1.17165
21
1.47659
0
LINE
8
BLACK
6
CONTINUOUS
10
1.17165
20
1.47659
11
1.17053
21
1.47562
0
LINE
8
BLACK
6
CONTINUOUS
10
1.17053
20
1.47562
11
1.16623
21
1.47418
0
LINE
8
BLACK
6
CONTINUOUS
10
1.16623
20
1.47418
11
1.16623
21
1.46761
0
LINE
8
BLACK
6
CONTINUOUS
10
1.16623
20
1.46761
11
1.17053
21
1.46618
0
LINE
8
BLACK
6
CONTINUOUS
10
1.17053
20
1.46618
11
1.17165
21
1.46521
0
LINE
8
BLACK
6
CONTINUOUS
10
1.17165
20
1.46521
11
1.17176
21
1.46372
0
LINE
8
BLACK
6
CONTINUOUS
10
1.17176
20
1.46372
11
1.17078
21
1.46259
0
LINE
8
BLACK
6
CONTINUOUS
10
1.17078
20
1.46259
11
1.16929
21
1.46248
0
LINE
8
BLACK
6
CONTINUOUS
10
1.16929
20
1.46248
11
1.14959
21
1.46905
0
LINE
8
BLACK
6
CONTINUOUS
10
1.14959
20
1.46905
11
1.14948
21
1.46915
0
LINE
8
BLACK
6
CONTINUOUS
10
1.14948
20
1.46915
11
1.14934
21
1.46916
0
LINE
8
BLACK
6
CONTINUOUS
10
1.14934
20
1.46916
11
1.14893
21
1.46962
0
LINE
8
BLACK
6
CONTINUOUS
10
1.14893
20
1.46962
11
1.14847
21
1.47003
0
LINE
8
BLACK
6
CONTINUOUS
10
1.14847
20
1.47003
11
1.14846
21
1.47017
0
LINE
8
BLACK
6
CONTINUOUS
10
1.14846
20
1.47017
11
1.14836
21
1.47028
0
LINE
8
BLACK
6
CONTINUOUS
10
1.14836
20
1.47028
11
1.1484
21
1.4709
0
LINE
8
BLACK
6
CONTINUOUS
10
1.1484
20
1.4709
11
1.14836
21
1.47152
0
LINE
8
BLACK
6
CONTINUOUS
10
1.14836
20
1.47152
11
1.14846
21
1.47163
0
LINE
8
BLACK
6
CONTINUOUS
10
1.14846
20
1.47163
11
1.14847
21
1.47177
0
LINE
8
BLACK
6
CONTINUOUS
10
1.14847
20
1.47177
11
1.14893
21
1.47218
0
LINE
8
BLACK
6
CONTINUOUS
10
1.14893
20
1.47218
11
1.14934
21
1.47264
0
LINE
8
BLACK
6
CONTINUOUS
10
1.14934
20
1.47264
11
1.14948
21
1.47265
0
LINE
8
BLACK
6
CONTINUOUS
10
1.14948
20
1.47265
11
1.14959
21
1.47275
0
LINE
8
BLACK
6
CONTINUOUS
10
1.14959
20
1.47275
11
1.16929
21
1.47932
0
LINE
8
BLACK
6
CONTINUOUS
10
1.16929
20
1.47932
11
1.17078
21
1.47921
0
LINE
8
BLACK
6
CONTINUOUS
10
1.15638
20
1.4709
11
1.16233
21
1.46891
0
LINE
8
BLACK
6
CONTINUOUS
10
1.16233
20
1.46891
11
1.16233
21
1.47288
0
LINE
8
BLACK
6
CONTINUOUS
10
1.16233
20
1.47288
11
1.15638
21
1.4709
0
CIRCLE
8
BLACK
10
0.86
20
1.46
40
0.00688976
0
CIRCLE
8
BLACK
10
0.86
20
1.36
40
0.00688976
0
CIRCLE
8
BLACK
10
0.76
20
1.46
40
0.00688976
0
CIRCLE
8
BLACK
10
0.76
20
1.36
40
0.00688976
0
CIRCLE
8
BLACK
10
0.66
20
1.46
40
0.00688976
0
CIRCLE
8
BLACK
10
0.66
20
1.36
40
0.00688976
0
CIRCLE
8
BLACK
10
0.56
20
1.46
40
0.00688976
0
CIRCLE
8
BLACK
10
0.56
20
1.36
40
0.00688976
0
CIRCLE
8
BLACK
10
0.46
20
1.46
40
0.00688976
0
CIRCLE
8
BLACK
10
0.46
20
1.36
40
0.00688976
0
CIRCLE
8
BLACK
10
0.72
20
0.13
40
0.00688976
0
CIRCLE
8
BLACK
10
0.72
20
0.23
40
0.00688976
0
CIRCLE
8
BLACK
10
0.62
20
0.13
40
0.00688976
0
CIRCLE
8
BLACK
10
0.62
20
0.23
40
0.00688976
0
CIRCLE
8
BLACK
10
0.52
20
0.13
40
0.00688976
0
CIRCLE
8
BLACK
10
0.52
20
0.23
40
0.00688976
0
CIRCLE
8
BLACK
10
0.82
20
0.13
40
0.00688976
0
CIRCLE
8
BLACK
10
0.82
20
0.23
40
0.00688976
0
CIRCLE
8
BLACK
10
0.2
20
0.2
40
0.00688976
0
CIRCLE
8
BLACK
10
0.2
20
1.4
40
0.00688976
0
CIRCLE
8
BLACK
10
1.4
20
1.4
40
0.00688976
0
CIRCLE
8
BLACK
10
1.4
20
0.2
40
0.00688976
0
CIRCLE
8
BLACK
10
0.991417
20
0.155984
40
0.00688976
0
CIRCLE
8
BLACK
10
0.991417
20
0.404016
40
0.00688976
0
CIRCLE
8
BLACK
10
1.16858
20
0.155984
40
0.00688976
0
CIRCLE
8
BLACK
10
1.16858
20
0.404016
40
0.00688976
0
CIRCLE
8
BLACK
10
0.42
20
0.13
40
0.00688976
0
CIRCLE
8
BLACK
10
0.42
20
0.23
40
0.00688976
0
CIRCLE
8
BLACK
10
1.1
20
1.4
40
0.00688976
  0
ENDSEC
  0
EOF
