  0
SECTION
  2
HEADER
  9
$ANGBASE
  50
0.0
  9
$ANGDIR
  70
1
  9
$MEASUREMENT
  70
0
  0
ENDSEC
  0
SECTION
  2
TABLES
  0
TABLE
  2
LTYPE
  70
4
  0
LTYPE
  5
40F
  2
CONTINUOUS
  70
0
  3
Solid line
  72
65
  73
0
  40
0.0
  0
LTYPE
  5
410
  2
DASHDOT
 70
0
  3
Dash Dot ____ _ ____ _
 72
65
 73
4
 40
2.0
 49
1.25
 49
-0.25
 49
0.25
 49
-0.25
  0
LTYPE
  5
411
  2
DASHED
 70
0
  3
Dashed __ __ __ __ __
 72
65
 73
2
 40
0.75
 49
0.5
 49
-0.25
  0
LTYPE
  5
43B
  2
DOTTED
 70
0
  3
Dotted .  .  .  .
 72
65
 73
2
 40
0.2
 49
0.0
 49
-0.2
  0
ENDTAB
  0
TABLE
  2
STYLE
  70
4
  0
STYLE
  2
KICAD
  70
0
  40
0
  41
1
  42
1
  50
0
  71
0
  3
isocp.shx
  0
STYLE
  2
KICADB
  70
0
  40
0
  41
1
  42
1
  50
0
  71
0
  3
isocp.shx
  0
STYLE
  2
KICADI
  70
0
  40
0
  41
1
  42
1
  50
15
  71
0
  3
isocp.shx
  0
STYLE
  2
KICADBI
  70
0
  40
0
  41
1
  42
1
  50
15
  71
0
  3
isocp.shx
  0
ENDTAB
  0
TABLE
  2
LAYER
  70
1
  0
LAYER
  2
BLACK
  70
0
  62
7
  6
CONTINUOUS
  0
ENDTAB
  0
ENDSEC
  0
SECTION
  2
ENTITIES
0
LINE
8
BLACK
6
CONTINUOUS
10
0.819439
20
0.90194
11
0.819568
21
0.901963
0
LINE
8
BLACK
6
CONTINUOUS
10
0.819568
20
0.901963
11
0.819681
21
0.901897
0
LINE
8
BLACK
6
CONTINUOUS
10
0.819681
20
0.901897
11
0.820065
21
0.90183
0
LINE
8
BLACK
6
CONTINUOUS
10
0.820065
20
0.90183
11
0.820653
21
0.901337
0
LINE
8
BLACK
6
CONTINUOUS
10
0.820653
20
0.901337
11
0.821317
21
0.900953
0
LINE
8
BLACK
6
CONTINUOUS
10
0.821317
20
0.900953
11
0.821408
21
0.900703
0
LINE
8
BLACK
6
CONTINUOUS
10
0.821408
20
0.900703
11
0.821612
21
0.900531
0
LINE
8
BLACK
6
CONTINUOUS
10
0.821612
20
0.900531
11
0.821746
21
0.899776
0
LINE
8
BLACK
6
CONTINUOUS
10
0.821746
20
0.899776
11
0.822008
21
0.899055
0
LINE
8
BLACK
6
CONTINUOUS
10
0.822008
20
0.899055
11
0.822008
21
0.780945
0
LINE
8
BLACK
6
CONTINUOUS
10
0.822008
20
0.780945
11
0.82194
21
0.780561
0
LINE
8
BLACK
6
CONTINUOUS
10
0.82194
20
0.780561
11
0.821963
21
0.780432
0
LINE
8
BLACK
6
CONTINUOUS
10
0.821963
20
0.780432
11
0.821897
21
0.780319
0
LINE
8
BLACK
6
CONTINUOUS
10
0.821897
20
0.780319
11
0.82183
21
0.779935
0
LINE
8
BLACK
6
CONTINUOUS
10
0.82183
20
0.779935
11
0.821337
21
0.779347
0
LINE
8
BLACK
6
CONTINUOUS
10
0.821337
20
0.779347
11
0.820953
21
0.778683
0
LINE
8
BLACK
6
CONTINUOUS
10
0.820953
20
0.778683
11
0.820703
21
0.778592
0
LINE
8
BLACK
6
CONTINUOUS
10
0.820703
20
0.778592
11
0.820531
21
0.778388
0
LINE
8
BLACK
6
CONTINUOUS
10
0.820531
20
0.778388
11
0.819776
21
0.778254
0
LINE
8
BLACK
6
CONTINUOUS
10
0.819776
20
0.778254
11
0.819055
21
0.777992
0
LINE
8
BLACK
6
CONTINUOUS
10
0.819055
20
0.777992
11
0.700945
21
0.777992
0
LINE
8
BLACK
6
CONTINUOUS
10
0.700945
20
0.777992
11
0.700561
21
0.77806
0
LINE
8
BLACK
6
CONTINUOUS
10
0.700561
20
0.77806
11
0.700432
21
0.778037
0
LINE
8
BLACK
6
CONTINUOUS
10
0.700432
20
0.778037
11
0.700319
21
0.778103
0
LINE
8
BLACK
6
CONTINUOUS
10
0.700319
20
0.778103
11
0.699935
21
0.77817
0
LINE
8
BLACK
6
CONTINUOUS
10
0.699935
20
0.77817
11
0.699347
21
0.778663
0
LINE
8
BLACK
6
CONTINUOUS
10
0.699347
20
0.778663
11
0.698683
21
0.779047
0
LINE
8
BLACK
6
CONTINUOUS
10
0.698683
20
0.779047
11
0.698592
21
0.779297
0
LINE
8
BLACK
6
CONTINUOUS
10
0.698592
20
0.779297
11
0.698388
21
0.779469
0
LINE
8
BLACK
6
CONTINUOUS
10
0.698388
20
0.779469
11
0.698254
21
0.780224
0
LINE
8
BLACK
6
CONTINUOUS
10
0.698254
20
0.780224
11
0.697992
21
0.780945
0
LINE
8
BLACK
6
CONTINUOUS
10
0.697992
20
0.780945
11
0.697992
21
0.899055
0
LINE
8
BLACK
6
CONTINUOUS
10
0.697992
20
0.899055
11
0.69806
21
0.899439
0
LINE
8
BLACK
6
CONTINUOUS
10
0.69806
20
0.899439
11
0.698037
21
0.899568
0
LINE
8
BLACK
6
CONTINUOUS
10
0.698037
20
0.899568
11
0.698103
21
0.899681
0
LINE
8
BLACK
6
CONTINUOUS
10
0.698103
20
0.899681
11
0.69817
21
0.900065
0
LINE
8
BLACK
6
CONTINUOUS
10
0.69817
20
0.900065
11
0.698663
21
0.900653
0
LINE
8
BLACK
6
CONTINUOUS
10
0.698663
20
0.900653
11
0.699047
21
0.901317
0
LINE
8
BLACK
6
CONTINUOUS
10
0.699047
20
0.901317
11
0.699297
21
0.901408
0
LINE
8
BLACK
6
CONTINUOUS
10
0.699297
20
0.901408
11
0.699469
21
0.901612
0
LINE
8
BLACK
6
CONTINUOUS
10
0.699469
20
0.901612
11
0.700224
21
0.901746
0
LINE
8
BLACK
6
CONTINUOUS
10
0.700224
20
0.901746
11
0.700945
21
0.902008
0
LINE
8
BLACK
6
CONTINUOUS
10
0.700945
20
0.902008
11
0.819055
21
0.902008
0
LINE
8
BLACK
6
CONTINUOUS
10
0.819055
20
0.902008
11
0.819439
21
0.90194
0
LINE
8
BLACK
6
CONTINUOUS
10
0.703898
20
0.896102
11
0.703898
21
0.783898
0
LINE
8
BLACK
6
CONTINUOUS
10
0.703898
20
0.783898
11
0.816102
21
0.783898
0
LINE
8
BLACK
6
CONTINUOUS
10
0.816102
20
0.783898
11
0.816102
21
0.896102
0
LINE
8
BLACK
6
CONTINUOUS
10
0.816102
20
0.896102
11
0.703898
21
0.896102
0
LINE
8
BLACK
6
CONTINUOUS
10
0.659773
20
0.964632
11
0.66132
21
0.963334
0
LINE
8
BLACK
6
CONTINUOUS
10
0.66132
20
0.963334
11
0.661671
21
0.961345
0
LINE
8
BLACK
6
CONTINUOUS
10
0.661671
20
0.961345
11
0.660661
21
0.959596
0
LINE
8
BLACK
6
CONTINUOUS
10
0.660661
20
0.959596
11
0.658763
21
0.958905
0
LINE
8
BLACK
6
CONTINUOUS
10
0.658763
20
0.958905
11
0.640898
21
0.958905
0
LINE
8
BLACK
6
CONTINUOUS
10
0.640898
20
0.958905
11
0.649736
21
0.948804
0
LINE
8
BLACK
6
CONTINUOUS
10
0.649736
20
0.948804
11
0.649966
21
0.948424
0
LINE
8
BLACK
6
CONTINUOUS
10
0.649966
20
0.948424
11
0.650071
21
0.948336
0
LINE
8
BLACK
6
CONTINUOUS
10
0.650071
20
0.948336
11
0.650092
21
0.948215
0
LINE
8
BLACK
6
CONTINUOUS
10
0.650092
20
0.948215
11
0.650267
21
0.947926
0
LINE
8
BLACK
6
CONTINUOUS
10
0.650267
20
0.947926
11
0.650284
21
0.947131
0
LINE
8
BLACK
6
CONTINUOUS
10
0.650284
20
0.947131
11
0.650422
21
0.946347
0
LINE
8
BLACK
6
CONTINUOUS
10
0.650422
20
0.946347
11
0.650304
21
0.946143
0
LINE
8
BLACK
6
CONTINUOUS
10
0.650304
20
0.946143
11
0.650309
21
0.945907
0
LINE
8
BLACK
6
CONTINUOUS
10
0.650309
20
0.945907
11
0.64981
21
0.945287
0
LINE
8
BLACK
6
CONTINUOUS
10
0.64981
20
0.945287
11
0.649412
21
0.944597
0
LINE
8
BLACK
6
CONTINUOUS
10
0.649412
20
0.944597
11
0.649191
21
0.944517
0
LINE
8
BLACK
6
CONTINUOUS
10
0.649191
20
0.944517
11
0.649043
21
0.944333
0
LINE
8
BLACK
6
CONTINUOUS
10
0.649043
20
0.944333
11
0.648262
21
0.944179
0
LINE
8
BLACK
6
CONTINUOUS
10
0.648262
20
0.944179
11
0.647514
21
0.943907
0
LINE
8
BLACK
6
CONTINUOUS
10
0.647514
20
0.943907
11
0.642587
21
0.943907
0
LINE
8
BLACK
6
CONTINUOUS
10
0.642587
20
0.943907
11
0.639889
21
0.942558
0
LINE
8
BLACK
6
CONTINUOUS
10
0.639889
20
0.942558
11
0.638692
21
0.941361
0
LINE
8
BLACK
6
CONTINUOUS
10
0.638692
20
0.941361
11
0.637343
21
0.938663
0
LINE
8
BLACK
6
CONTINUOUS
10
0.637343
20
0.938663
11
0.637343
21
0.930684
0
LINE
8
BLACK
6
CONTINUOUS
10
0.637343
20
0.930684
11
0.638692
21
0.927986
0
LINE
8
BLACK
6
CONTINUOUS
10
0.638692
20
0.927986
11
0.639889
21
0.926789
0
LINE
8
BLACK
6
CONTINUOUS
10
0.639889
20
0.926789
11
0.642587
21
0.92544
0
LINE
8
BLACK
6
CONTINUOUS
10
0.642587
20
0.92544
11
0.652441
21
0.92544
0
LINE
8
BLACK
6
CONTINUOUS
10
0.652441
20
0.92544
11
0.655139
21
0.926789
0
LINE
8
BLACK
6
CONTINUOUS
10
0.655139
20
0.926789
11
0.656675
21
0.928325
0
LINE
8
BLACK
6
CONTINUOUS
10
0.656675
20
0.928325
11
0.657515
21
0.928913
0
LINE
8
BLACK
6
CONTINUOUS
10
0.657515
20
0.928913
11
0.659527
21
0.929089
0
LINE
8
BLACK
6
CONTINUOUS
10
0.659527
20
0.929089
11
0.661181
21
0.927931
0
LINE
8
BLACK
6
CONTINUOUS
10
0.661181
20
0.927931
11
0.661704
21
0.92598
0
LINE
8
BLACK
6
CONTINUOUS
10
0.661704
20
0.92598
11
0.660851
21
0.924149
0
LINE
8
BLACK
6
CONTINUOUS
10
0.660851
20
0.924149
11
0.658976
21
0.922274
0
LINE
8
BLACK
6
CONTINUOUS
10
0.658976
20
0.922274
11
0.658253
21
0.921768
0
LINE
8
BLACK
6
CONTINUOUS
10
0.658253
20
0.921768
11
0.658208
21
0.921721
0
LINE
8
BLACK
6
CONTINUOUS
10
0.658208
20
0.921721
11
0.654459
21
0.919846
0
LINE
8
BLACK
6
CONTINUOUS
10
0.654459
20
0.919846
11
0.653476
21
0.919554
0
LINE
8
BLACK
6
CONTINUOUS
10
0.653476
20
0.919554
11
0.653304
21
0.919595
0
LINE
8
BLACK
6
CONTINUOUS
10
0.653304
20
0.919595
11
0.653138
21
0.919535
0
LINE
8
BLACK
6
CONTINUOUS
10
0.653138
20
0.919535
11
0.64189
21
0.919535
0
LINE
8
BLACK
6
CONTINUOUS
10
0.64189
20
0.919535
11
0.64088
21
0.919713
0
LINE
8
BLACK
6
CONTINUOUS
10
0.64088
20
0.919713
11
0.640745
21
0.919826
0
LINE
8
BLACK
6
CONTINUOUS
10
0.640745
20
0.919826
11
0.640569
21
0.919846
0
LINE
8
BLACK
6
CONTINUOUS
10
0.640569
20
0.919846
11
0.63682
21
0.921721
0
LINE
8
BLACK
6
CONTINUOUS
10
0.63682
20
0.921721
11
0.636111
21
0.922247
0
LINE
8
BLACK
6
CONTINUOUS
10
0.636111
20
0.922247
11
0.636052
21
0.922274
0
LINE
8
BLACK
6
CONTINUOUS
10
0.636052
20
0.922274
11
0.634178
21
0.924149
0
LINE
8
BLACK
6
CONTINUOUS
10
0.634178
20
0.924149
11
0.633671
21
0.924872
0
LINE
8
BLACK
6
CONTINUOUS
10
0.633671
20
0.924872
11
0.633624
21
0.924916
0
LINE
8
BLACK
6
CONTINUOUS
10
0.633624
20
0.924916
11
0.63175
21
0.928666
0
LINE
8
BLACK
6
CONTINUOUS
10
0.63175
20
0.928666
11
0.631457
21
0.929649
0
LINE
8
BLACK
6
CONTINUOUS
10
0.631457
20
0.929649
11
0.631498
21
0.929821
0
LINE
8
BLACK
6
CONTINUOUS
10
0.631498
20
0.929821
11
0.631438
21
0.929986
0
LINE
8
BLACK
6
CONTINUOUS
10
0.631438
20
0.929986
11
0.631438
21
0.93936
0
LINE
8
BLACK
6
CONTINUOUS
10
0.631438
20
0.93936
11
0.631616
21
0.94037
0
LINE
8
BLACK
6
CONTINUOUS
10
0.631616
20
0.94037
11
0.631729
21
0.940505
0
LINE
8
BLACK
6
CONTINUOUS
10
0.631729
20
0.940505
11
0.63175
21
0.940681
0
LINE
8
BLACK
6
CONTINUOUS
10
0.63175
20
0.940681
11
0.633624
21
0.94443
0
LINE
8
BLACK
6
CONTINUOUS
10
0.633624
20
0.94443
11
0.63415
21
0.945139
0
LINE
8
BLACK
6
CONTINUOUS
10
0.63415
20
0.945139
11
0.634178
21
0.945198
0
LINE
8
BLACK
6
CONTINUOUS
10
0.634178
20
0.945198
11
0.636052
21
0.947073
0
LINE
8
BLACK
6
CONTINUOUS
10
0.636052
20
0.947073
11
0.636775
21
0.947579
0
LINE
8
BLACK
6
CONTINUOUS
10
0.636775
20
0.947579
11
0.63682
21
0.947626
0
LINE
8
BLACK
6
CONTINUOUS
10
0.63682
20
0.947626
11
0.640569
21
0.9495
0
LINE
8
BLACK
6
CONTINUOUS
10
0.640569
20
0.9495
11
0.641133
21
0.949668
0
LINE
8
BLACK
6
CONTINUOUS
10
0.641133
20
0.949668
11
0.632169
21
0.959913
0
LINE
8
BLACK
6
CONTINUOUS
10
0.632169
20
0.959913
11
0.631939
21
0.960293
0
LINE
8
BLACK
6
CONTINUOUS
10
0.631939
20
0.960293
11
0.631834
21
0.960381
0
LINE
8
BLACK
6
CONTINUOUS
10
0.631834
20
0.960381
11
0.631812
21
0.960502
0
LINE
8
BLACK
6
CONTINUOUS
10
0.631812
20
0.960502
11
0.631637
21
0.96079
0
LINE
8
BLACK
6
CONTINUOUS
10
0.631637
20
0.96079
11
0.631621
21
0.961586
0
LINE
8
BLACK
6
CONTINUOUS
10
0.631621
20
0.961586
11
0.631483
21
0.96237
0
LINE
8
BLACK
6
CONTINUOUS
10
0.631483
20
0.96237
11
0.631601
21
0.962574
0
LINE
8
BLACK
6
CONTINUOUS
10
0.631601
20
0.962574
11
0.631596
21
0.96281
0
LINE
8
BLACK
6
CONTINUOUS
10
0.631596
20
0.96281
11
0.632095
21
0.96343
0
LINE
8
BLACK
6
CONTINUOUS
10
0.632095
20
0.96343
11
0.632493
21
0.964119
0
LINE
8
BLACK
6
CONTINUOUS
10
0.632493
20
0.964119
11
0.632714
21
0.9642
0
LINE
8
BLACK
6
CONTINUOUS
10
0.632714
20
0.9642
11
0.632862
21
0.964384
0
LINE
8
BLACK
6
CONTINUOUS
10
0.632862
20
0.964384
11
0.633643
21
0.964538
0
LINE
8
BLACK
6
CONTINUOUS
10
0.633643
20
0.964538
11
0.634391
21
0.96481
0
LINE
8
BLACK
6
CONTINUOUS
10
0.634391
20
0.96481
11
0.658763
21
0.96481
0
LINE
8
BLACK
6
CONTINUOUS
10
0.658763
20
0.96481
11
0.659773
21
0.964632
0
LINE
8
BLACK
6
CONTINUOUS
10
0.684144
20
0.964632
11
0.68428
21
0.964519
0
LINE
8
BLACK
6
CONTINUOUS
10
0.68428
20
0.964519
11
0.684455
21
0.964499
0
LINE
8
BLACK
6
CONTINUOUS
10
0.684455
20
0.964499
11
0.688205
21
0.962624
0
LINE
8
BLACK
6
CONTINUOUS
10
0.688205
20
0.962624
11
0.688914
21
0.962098
0
LINE
8
BLACK
6
CONTINUOUS
10
0.688914
20
0.962098
11
0.688972
21
0.962071
0
LINE
8
BLACK
6
CONTINUOUS
10
0.688972
20
0.962071
11
0.690847
21
0.960196
0
LINE
8
BLACK
6
CONTINUOUS
10
0.690847
20
0.960196
11
0.691105
21
0.959827
0
LINE
8
BLACK
6
CONTINUOUS
10
0.691105
20
0.959827
11
0.691216
21
0.959746
0
LINE
8
BLACK
6
CONTINUOUS
10
0.691216
20
0.959746
11
0.694965
21
0.954122
0
LINE
8
BLACK
6
CONTINUOUS
10
0.694965
20
0.954122
11
0.695364
21
0.953214
0
LINE
8
BLACK
6
CONTINUOUS
10
0.695364
20
0.953214
11
0.695373
21
0.9532
0
LINE
8
BLACK
6
CONTINUOUS
10
0.695373
20
0.9532
11
0.697248
21
0.945701
0
LINE
8
BLACK
6
CONTINUOUS
10
0.697248
20
0.945701
11
0.697289
21
0.945113
0
LINE
8
BLACK
6
CONTINUOUS
10
0.697289
20
0.945113
11
0.697336
21
0.944985
0
LINE
8
BLACK
6
CONTINUOUS
10
0.697336
20
0.944985
11
0.697336
21
0.929986
0
LINE
8
BLACK
6
CONTINUOUS
10
0.697336
20
0.929986
11
0.697158
21
0.928977
0
LINE
8
BLACK
6
CONTINUOUS
10
0.697158
20
0.928977
11
0.697044
21
0.928841
0
LINE
8
BLACK
6
CONTINUOUS
10
0.697044
20
0.928841
11
0.697024
21
0.928666
0
LINE
8
BLACK
6
CONTINUOUS
10
0.697024
20
0.928666
11
0.695149
21
0.924916
0
LINE
8
BLACK
6
CONTINUOUS
10
0.695149
20
0.924916
11
0.694624
21
0.924207
0
LINE
8
BLACK
6
CONTINUOUS
10
0.694624
20
0.924207
11
0.694596
21
0.924149
0
LINE
8
BLACK
6
CONTINUOUS
10
0.694596
20
0.924149
11
0.692722
21
0.922274
0
LINE
8
BLACK
6
CONTINUOUS
10
0.692722
20
0.922274
11
0.691999
21
0.921768
0
LINE
8
BLACK
6
CONTINUOUS
10
0.691999
20
0.921768
11
0.691954
21
0.921721
0
LINE
8
BLACK
6
CONTINUOUS
10
0.691954
20
0.921721
11
0.688205
21
0.919846
0
LINE
8
BLACK
6
CONTINUOUS
10
0.688205
20
0.919846
11
0.687222
21
0.919554
0
LINE
8
BLACK
6
CONTINUOUS
10
0.687222
20
0.919554
11
0.68705
21
0.919595
0
LINE
8
BLACK
6
CONTINUOUS
10
0.68705
20
0.919595
11
0.686884
21
0.919535
0
LINE
8
BLACK
6
CONTINUOUS
10
0.686884
20
0.919535
11
0.679385
21
0.919535
0
LINE
8
BLACK
6
CONTINUOUS
10
0.679385
20
0.919535
11
0.678375
21
0.919713
0
LINE
8
BLACK
6
CONTINUOUS
10
0.678375
20
0.919713
11
0.67824
21
0.919826
0
LINE
8
BLACK
6
CONTINUOUS
10
0.67824
20
0.919826
11
0.678065
21
0.919846
0
LINE
8
BLACK
6
CONTINUOUS
10
0.678065
20
0.919846
11
0.674315
21
0.921721
0
LINE
8
BLACK
6
CONTINUOUS
10
0.674315
20
0.921721
11
0.673606
21
0.922247
0
LINE
8
BLACK
6
CONTINUOUS
10
0.673606
20
0.922247
11
0.673548
21
0.922274
0
LINE
8
BLACK
6
CONTINUOUS
10
0.673548
20
0.922274
11
0.671673
21
0.924149
0
LINE
8
BLACK
6
CONTINUOUS
10
0.671673
20
0.924149
11
0.671167
21
0.924872
0
LINE
8
BLACK
6
CONTINUOUS
10
0.671167
20
0.924872
11
0.67112
21
0.924916
0
LINE
8
BLACK
6
CONTINUOUS
10
0.67112
20
0.924916
11
0.669245
21
0.928666
0
LINE
8
BLACK
6
CONTINUOUS
10
0.669245
20
0.928666
11
0.668953
21
0.929649
0
LINE
8
BLACK
6
CONTINUOUS
10
0.668953
20
0.929649
11
0.668994
21
0.929821
0
LINE
8
BLACK
6
CONTINUOUS
10
0.668994
20
0.929821
11
0.668933
21
0.929986
0
LINE
8
BLACK
6
CONTINUOUS
10
0.668933
20
0.929986
11
0.668933
21
0.93936
0
LINE
8
BLACK
6
CONTINUOUS
10
0.668933
20
0.93936
11
0.669111
21
0.94037
0
LINE
8
BLACK
6
CONTINUOUS
10
0.669111
20
0.94037
11
0.669225
21
0.940505
0
LINE
8
BLACK
6
CONTINUOUS
10
0.669225
20
0.940505
11
0.669245
21
0.940681
0
LINE
8
BLACK
6
CONTINUOUS
10
0.669245
20
0.940681
11
0.67112
21
0.94443
0
LINE
8
BLACK
6
CONTINUOUS
10
0.67112
20
0.94443
11
0.671646
21
0.945139
0
LINE
8
BLACK
6
CONTINUOUS
10
0.671646
20
0.945139
11
0.671673
21
0.945198
0
LINE
8
BLACK
6
CONTINUOUS
10
0.671673
20
0.945198
11
0.673548
21
0.947073
0
LINE
8
BLACK
6
CONTINUOUS
10
0.673548
20
0.947073
11
0.674271
21
0.947579
0
LINE
8
BLACK
6
CONTINUOUS
10
0.674271
20
0.947579
11
0.674315
21
0.947626
0
LINE
8
BLACK
6
CONTINUOUS
10
0.674315
20
0.947626
11
0.678065
21
0.9495
0
LINE
8
BLACK
6
CONTINUOUS
10
0.678065
20
0.9495
11
0.679047
21
0.949793
0
LINE
8
BLACK
6
CONTINUOUS
10
0.679047
20
0.949793
11
0.679219
21
0.949752
0
LINE
8
BLACK
6
CONTINUOUS
10
0.679219
20
0.949752
11
0.679385
21
0.949812
0
LINE
8
BLACK
6
CONTINUOUS
10
0.679385
20
0.949812
11
0.686884
21
0.949812
0
LINE
8
BLACK
6
CONTINUOUS
10
0.686884
20
0.949812
11
0.687894
21
0.949634
0
LINE
8
BLACK
6
CONTINUOUS
10
0.687894
20
0.949634
11
0.688029
21
0.949521
0
LINE
8
BLACK
6
CONTINUOUS
10
0.688029
20
0.949521
11
0.688205
21
0.9495
0
LINE
8
BLACK
6
CONTINUOUS
10
0.688205
20
0.9495
11
0.690497
21
0.948354
0
LINE
8
BLACK
6
CONTINUOUS
10
0.690497
20
0.948354
11
0.689768
21
0.951271
0
LINE
8
BLACK
6
CONTINUOUS
10
0.689768
20
0.951271
11
0.686464
21
0.956227
0
LINE
8
BLACK
6
CONTINUOUS
10
0.686464
20
0.956227
11
0.685135
21
0.957556
0
LINE
8
BLACK
6
CONTINUOUS
10
0.685135
20
0.957556
11
0.682438
21
0.958905
0
LINE
8
BLACK
6
CONTINUOUS
10
0.682438
20
0.958905
11
0.675636
21
0.958905
0
LINE
8
BLACK
6
CONTINUOUS
10
0.675636
20
0.958905
11
0.674626
21
0.959083
0
LINE
8
BLACK
6
CONTINUOUS
10
0.674626
20
0.959083
11
0.673078
21
0.960381
0
LINE
8
BLACK
6
CONTINUOUS
10
0.673078
20
0.960381
11
0.672728
21
0.96237
0
LINE
8
BLACK
6
CONTINUOUS
10
0.672728
20
0.96237
11
0.673738
21
0.964119
0
LINE
8
BLACK
6
CONTINUOUS
10
0.673738
20
0.964119
11
0.675636
21
0.96481
0
LINE
8
BLACK
6
CONTINUOUS
10
0.675636
20
0.96481
11
0.683135
21
0.96481
0
LINE
8
BLACK
6
CONTINUOUS
10
0.683135
20
0.96481
11
0.684144
21
0.964632
0
LINE
8
BLACK
6
CONTINUOUS
10
0.677385
20
0.942558
11
0.676187
21
0.941361
0
LINE
8
BLACK
6
CONTINUOUS
10
0.676187
20
0.941361
11
0.674839
21
0.938663
0
LINE
8
BLACK
6
CONTINUOUS
10
0.674839
20
0.938663
11
0.674839
21
0.930684
0
LINE
8
BLACK
6
CONTINUOUS
10
0.674839
20
0.930684
11
0.676187
21
0.927986
0
LINE
8
BLACK
6
CONTINUOUS
10
0.676187
20
0.927986
11
0.677385
21
0.926789
0
LINE
8
BLACK
6
CONTINUOUS
10
0.677385
20
0.926789
11
0.680082
21
0.92544
0
LINE
8
BLACK
6
CONTINUOUS
10
0.680082
20
0.92544
11
0.686187
21
0.92544
0
LINE
8
BLACK
6
CONTINUOUS
10
0.686187
20
0.92544
11
0.688884
21
0.926789
0
LINE
8
BLACK
6
CONTINUOUS
10
0.688884
20
0.926789
11
0.690082
21
0.927986
0
LINE
8
BLACK
6
CONTINUOUS
10
0.690082
20
0.927986
11
0.69143
21
0.930684
0
LINE
8
BLACK
6
CONTINUOUS
10
0.69143
20
0.930684
11
0.69143
21
0.938663
0
LINE
8
BLACK
6
CONTINUOUS
10
0.69143
20
0.938663
11
0.690082
21
0.941361
0
LINE
8
BLACK
6
CONTINUOUS
10
0.690082
20
0.941361
11
0.688885
21
0.942558
0
LINE
8
BLACK
6
CONTINUOUS
10
0.688885
20
0.942558
11
0.686187
21
0.943907
0
LINE
8
BLACK
6
CONTINUOUS
10
0.686187
20
0.943907
11
0.680082
21
0.943907
0
LINE
8
BLACK
6
CONTINUOUS
10
0.680082
20
0.943907
11
0.677385
21
0.942558
0
LINE
8
BLACK
6
CONTINUOUS
10
0.727264
20
0.964632
11
0.727399
21
0.964519
0
LINE
8
BLACK
6
CONTINUOUS
10
0.727399
20
0.964519
11
0.727575
21
0.964499
0
LINE
8
BLACK
6
CONTINUOUS
10
0.727575
20
0.964499
11
0.731324
21
0.962624
0
LINE
8
BLACK
6
CONTINUOUS
10
0.731324
20
0.962624
11
0.732033
21
0.962098
0
LINE
8
BLACK
6
CONTINUOUS
10
0.732033
20
0.962098
11
0.732092
21
0.962071
0
LINE
8
BLACK
6
CONTINUOUS
10
0.732092
20
0.962071
11
0.733966
21
0.960196
0
LINE
8
BLACK
6
CONTINUOUS
10
0.733966
20
0.960196
11
0.734555
21
0.959356
0
LINE
8
BLACK
6
CONTINUOUS
10
0.734555
20
0.959356
11
0.734731
21
0.957344
0
LINE
8
BLACK
6
CONTINUOUS
10
0.734731
20
0.957344
11
0.733572
21
0.955689
0
LINE
8
BLACK
6
CONTINUOUS
10
0.733572
20
0.955689
11
0.731621
21
0.955166
0
LINE
8
BLACK
6
CONTINUOUS
10
0.731621
20
0.955166
11
0.729791
21
0.95602
0
LINE
8
BLACK
6
CONTINUOUS
10
0.729791
20
0.95602
11
0.728255
21
0.957556
0
LINE
8
BLACK
6
CONTINUOUS
10
0.728255
20
0.957556
11
0.725557
21
0.958905
0
LINE
8
BLACK
6
CONTINUOUS
10
0.725557
20
0.958905
11
0.717577
21
0.958905
0
LINE
8
BLACK
6
CONTINUOUS
10
0.717577
20
0.958905
11
0.71488
21
0.957556
0
LINE
8
BLACK
6
CONTINUOUS
10
0.71488
20
0.957556
11
0.713683
21
0.956359
0
LINE
8
BLACK
6
CONTINUOUS
10
0.713683
20
0.956359
11
0.712334
21
0.953661
0
LINE
8
BLACK
6
CONTINUOUS
10
0.712334
20
0.953661
11
0.712334
21
0.951088
0
LINE
8
BLACK
6
CONTINUOUS
10
0.712334
20
0.951088
11
0.713837
21
0.94658
0
LINE
8
BLACK
6
CONTINUOUS
10
0.713837
20
0.94658
11
0.735841
21
0.924575
0
LINE
8
BLACK
6
CONTINUOUS
10
0.735841
20
0.924575
11
0.736211
21
0.924047
0
LINE
8
BLACK
6
CONTINUOUS
10
0.736211
20
0.924047
11
0.73631
21
0.923964
0
LINE
8
BLACK
6
CONTINUOUS
10
0.73631
20
0.923964
11
0.736324
21
0.923885
0
LINE
8
BLACK
6
CONTINUOUS
10
0.736324
20
0.923885
11
0.736429
21
0.923735
0
LINE
8
BLACK
6
CONTINUOUS
10
0.736429
20
0.923735
11
0.736507
21
0.92285
0
LINE
8
BLACK
6
CONTINUOUS
10
0.736507
20
0.92285
11
0.736661
21
0.921975
0
LINE
8
BLACK
6
CONTINUOUS
10
0.736661
20
0.921975
11
0.736594
21
0.921858
0
LINE
8
BLACK
6
CONTINUOUS
10
0.736594
20
0.921858
11
0.736605
21
0.921723
0
LINE
8
BLACK
6
CONTINUOUS
10
0.736605
20
0.921723
11
0.736096
21
0.920995
0
LINE
8
BLACK
6
CONTINUOUS
10
0.736096
20
0.920995
11
0.735651
21
0.920225
0
LINE
8
BLACK
6
CONTINUOUS
10
0.735651
20
0.920225
11
0.735524
21
0.920179
0
LINE
8
BLACK
6
CONTINUOUS
10
0.735524
20
0.920179
11
0.735447
21
0.920069
0
LINE
8
BLACK
6
CONTINUOUS
10
0.735447
20
0.920069
11
0.734588
21
0.919839
0
LINE
8
BLACK
6
CONTINUOUS
10
0.734588
20
0.919839
11
0.733753
21
0.919535
0
LINE
8
BLACK
6
CONTINUOUS
10
0.733753
20
0.919535
11
0.709381
21
0.919535
0
LINE
8
BLACK
6
CONTINUOUS
10
0.709381
20
0.919535
11
0.708371
21
0.919713
0
LINE
8
BLACK
6
CONTINUOUS
10
0.708371
20
0.919713
11
0.706824
21
0.921011
0
LINE
8
BLACK
6
CONTINUOUS
10
0.706824
20
0.921011
11
0.706473
21
0.923
0
LINE
8
BLACK
6
CONTINUOUS
10
0.706473
20
0.923
11
0.707483
21
0.924749
0
LINE
8
BLACK
6
CONTINUOUS
10
0.707483
20
0.924749
11
0.709381
21
0.92544
0
LINE
8
BLACK
6
CONTINUOUS
10
0.709381
20
0.92544
11
0.726625
21
0.92544
0
LINE
8
BLACK
6
CONTINUOUS
10
0.726625
20
0.92544
11
0.709168
21
0.942897
0
LINE
8
BLACK
6
CONTINUOUS
10
0.709168
20
0.942897
11
0.70858
21
0.943737
0
LINE
8
BLACK
6
CONTINUOUS
10
0.70858
20
0.943737
11
0.708565
21
0.943913
0
LINE
8
BLACK
6
CONTINUOUS
10
0.708565
20
0.943913
11
0.708455
21
0.944051
0
LINE
8
BLACK
6
CONTINUOUS
10
0.708455
20
0.944051
11
0.70658
21
0.949675
0
LINE
8
BLACK
6
CONTINUOUS
10
0.70658
20
0.949675
11
0.706451
21
0.950548
0
LINE
8
BLACK
6
CONTINUOUS
10
0.706451
20
0.950548
11
0.706429
21
0.950609
0
LINE
8
BLACK
6
CONTINUOUS
10
0.706429
20
0.950609
11
0.706429
21
0.954358
0
LINE
8
BLACK
6
CONTINUOUS
10
0.706429
20
0.954358
11
0.706607
21
0.955368
0
LINE
8
BLACK
6
CONTINUOUS
10
0.706607
20
0.955368
11
0.70672
21
0.955504
0
LINE
8
BLACK
6
CONTINUOUS
10
0.70672
20
0.955504
11
0.70674
21
0.955679
0
LINE
8
BLACK
6
CONTINUOUS
10
0.70674
20
0.955679
11
0.708615
21
0.959428
0
LINE
8
BLACK
6
CONTINUOUS
10
0.708615
20
0.959428
11
0.709141
21
0.960138
0
LINE
8
BLACK
6
CONTINUOUS
10
0.709141
20
0.960138
11
0.709168
21
0.960196
0
LINE
8
BLACK
6
CONTINUOUS
10
0.709168
20
0.960196
11
0.711043
21
0.962071
0
LINE
8
BLACK
6
CONTINUOUS
10
0.711043
20
0.962071
11
0.711766
21
0.962577
0
LINE
8
BLACK
6
CONTINUOUS
10
0.711766
20
0.962577
11
0.71181
21
0.962624
0
LINE
8
BLACK
6
CONTINUOUS
10
0.71181
20
0.962624
11
0.71556
21
0.964499
0
LINE
8
BLACK
6
CONTINUOUS
10
0.71556
20
0.964499
11
0.716543
21
0.964791
0
LINE
8
BLACK
6
CONTINUOUS
10
0.716543
20
0.964791
11
0.716714
21
0.96475
0
LINE
8
BLACK
6
CONTINUOUS
10
0.716714
20
0.96475
11
0.71688
21
0.96481
0
LINE
8
BLACK
6
CONTINUOUS
10
0.71688
20
0.96481
11
0.726254
21
0.96481
0
LINE
8
BLACK
6
CONTINUOUS
10
0.726254
20
0.96481
11
0.727264
21
0.964632
0
LINE
8
BLACK
6
CONTINUOUS
10
0.767653
20
0.964783
11
0.76772
21
0.964802
0
LINE
8
BLACK
6
CONTINUOUS
10
0.76772
20
0.964802
11
0.767831
21
0.964752
0
LINE
8
BLACK
6
CONTINUOUS
10
0.767831
20
0.964752
11
0.768509
21
0.964632
0
LINE
8
BLACK
6
CONTINUOUS
10
0.768509
20
0.964632
11
0.768989
21
0.964229
0
LINE
8
BLACK
6
CONTINUOUS
10
0.768989
20
0.964229
11
0.769561
21
0.963971
0
LINE
8
BLACK
6
CONTINUOUS
10
0.769561
20
0.963971
11
0.76974
21
0.963599
0
LINE
8
BLACK
6
CONTINUOUS
10
0.76974
20
0.963599
11
0.770056
21
0.963334
0
LINE
8
BLACK
6
CONTINUOUS
10
0.770056
20
0.963334
11
0.770165
21
0.962716
0
LINE
8
BLACK
6
CONTINUOUS
10
0.770165
20
0.962716
11
0.770437
21
0.962151
0
LINE
8
BLACK
6
CONTINUOUS
10
0.770437
20
0.962151
11
0.772312
21
0.943404
0
LINE
8
BLACK
6
CONTINUOUS
10
0.772312
20
0.943404
11
0.772235
21
0.942381
0
LINE
8
BLACK
6
CONTINUOUS
10
0.772235
20
0.942381
11
0.772224
21
0.942365
0
LINE
8
BLACK
6
CONTINUOUS
10
0.772224
20
0.942365
11
0.772226
21
0.942346
0
LINE
8
BLACK
6
CONTINUOUS
10
0.772226
20
0.942346
11
0.771658
21
0.941534
0
LINE
8
BLACK
6
CONTINUOUS
10
0.771658
20
0.941534
11
0.771097
21
0.940712
0
LINE
8
BLACK
6
CONTINUOUS
10
0.771097
20
0.940712
11
0.771079
21
0.940707
0
LINE
8
BLACK
6
CONTINUOUS
10
0.771079
20
0.940707
11
0.771067
21
0.940691
0
LINE
8
BLACK
6
CONTINUOUS
10
0.771067
20
0.940691
11
0.770108
21
0.940434
0
LINE
8
BLACK
6
CONTINUOUS
10
0.770108
20
0.940434
11
0.769153
21
0.940165
0
LINE
8
BLACK
6
CONTINUOUS
10
0.769153
20
0.940165
11
0.769135
21
0.940173
0
LINE
8
BLACK
6
CONTINUOUS
10
0.769135
20
0.940173
11
0.769116
21
0.940168
0
LINE
8
BLACK
6
CONTINUOUS
10
0.769116
20
0.940168
11
0.768218
21
0.940587
0
LINE
8
BLACK
6
CONTINUOUS
10
0.768218
20
0.940587
11
0.767312
21
0.940996
0
LINE
8
BLACK
6
CONTINUOUS
10
0.767312
20
0.940996
11
0.767303
21
0.941014
0
LINE
8
BLACK
6
CONTINUOUS
10
0.767303
20
0.941014
11
0.767286
21
0.941022
0
LINE
8
BLACK
6
CONTINUOUS
10
0.767286
20
0.941022
11
0.76575
21
0.942558
0
LINE
8
BLACK
6
CONTINUOUS
10
0.76575
20
0.942558
11
0.763052
21
0.943907
0
LINE
8
BLACK
6
CONTINUOUS
10
0.763052
20
0.943907
11
0.755073
21
0.943907
0
LINE
8
BLACK
6
CONTINUOUS
10
0.755073
20
0.943907
11
0.752375
21
0.942558
0
LINE
8
BLACK
6
CONTINUOUS
10
0.752375
20
0.942558
11
0.751178
21
0.941361
0
LINE
8
BLACK
6
CONTINUOUS
10
0.751178
20
0.941361
11
0.749829
21
0.938663
0
LINE
8
BLACK
6
CONTINUOUS
10
0.749829
20
0.938663
11
0.749829
21
0.930684
0
LINE
8
BLACK
6
CONTINUOUS
10
0.749829
20
0.930684
11
0.751178
21
0.927986
0
LINE
8
BLACK
6
CONTINUOUS
10
0.751178
20
0.927986
11
0.752375
21
0.926789
0
LINE
8
BLACK
6
CONTINUOUS
10
0.752375
20
0.926789
11
0.755073
21
0.92544
0
LINE
8
BLACK
6
CONTINUOUS
10
0.755073
20
0.92544
11
0.763052
21
0.92544
0
LINE
8
BLACK
6
CONTINUOUS
10
0.763052
20
0.92544
11
0.76575
21
0.926789
0
LINE
8
BLACK
6
CONTINUOUS
10
0.76575
20
0.926789
11
0.767286
21
0.928325
0
LINE
8
BLACK
6
CONTINUOUS
10
0.767286
20
0.928325
11
0.768126
21
0.928913
0
LINE
8
BLACK
6
CONTINUOUS
10
0.768126
20
0.928913
11
0.770138
21
0.929089
0
LINE
8
BLACK
6
CONTINUOUS
10
0.770138
20
0.929089
11
0.771793
21
0.927931
0
LINE
8
BLACK
6
CONTINUOUS
10
0.771793
20
0.927931
11
0.772315
21
0.92598
0
LINE
8
BLACK
6
CONTINUOUS
10
0.772315
20
0.92598
11
0.771462
21
0.924149
0
LINE
8
BLACK
6
CONTINUOUS
10
0.771462
20
0.924149
11
0.769587
21
0.922274
0
LINE
8
BLACK
6
CONTINUOUS
10
0.769587
20
0.922274
11
0.768864
21
0.921768
0
LINE
8
BLACK
6
CONTINUOUS
10
0.768864
20
0.921768
11
0.76882
21
0.921721
0
LINE
8
BLACK
6
CONTINUOUS
10
0.76882
20
0.921721
11
0.76507
21
0.919846
0
LINE
8
BLACK
6
CONTINUOUS
10
0.76507
20
0.919846
11
0.764087
21
0.919554
0
LINE
8
BLACK
6
CONTINUOUS
10
0.764087
20
0.919554
11
0.763915
21
0.919595
0
LINE
8
BLACK
6
CONTINUOUS
10
0.763915
20
0.919595
11
0.763749
21
0.919535
0
LINE
8
BLACK
6
CONTINUOUS
10
0.763749
20
0.919535
11
0.754376
21
0.919535
0
LINE
8
BLACK
6
CONTINUOUS
10
0.754376
20
0.919535
11
0.753366
21
0.919713
0
LINE
8
BLACK
6
CONTINUOUS
10
0.753366
20
0.919713
11
0.75323
21
0.919826
0
LINE
8
BLACK
6
CONTINUOUS
10
0.75323
20
0.919826
11
0.753055
21
0.919846
0
LINE
8
BLACK
6
CONTINUOUS
10
0.753055
20
0.919846
11
0.749306
21
0.921721
0
LINE
8
BLACK
6
CONTINUOUS
10
0.749306
20
0.921721
11
0.748597
21
0.922247
0
LINE
8
BLACK
6
CONTINUOUS
10
0.748597
20
0.922247
11
0.748538
21
0.922274
0
LINE
8
BLACK
6
CONTINUOUS
10
0.748538
20
0.922274
11
0.746663
21
0.924149
0
LINE
8
BLACK
6
CONTINUOUS
10
0.746663
20
0.924149
11
0.746157
21
0.924872
0
LINE
8
BLACK
6
CONTINUOUS
10
0.746157
20
0.924872
11
0.74611
21
0.924916
0
LINE
8
BLACK
6
CONTINUOUS
10
0.74611
20
0.924916
11
0.744236
21
0.928666
0
LINE
8
BLACK
6
CONTINUOUS
10
0.744236
20
0.928666
11
0.743943
21
0.929649
0
LINE
8
BLACK
6
CONTINUOUS
10
0.743943
20
0.929649
11
0.743984
21
0.929821
0
LINE
8
BLACK
6
CONTINUOUS
10
0.743984
20
0.929821
11
0.743924
21
0.929986
0
LINE
8
BLACK
6
CONTINUOUS
10
0.743924
20
0.929986
11
0.743924
21
0.93936
0
LINE
8
BLACK
6
CONTINUOUS
10
0.743924
20
0.93936
11
0.744102
21
0.94037
0
LINE
8
BLACK
6
CONTINUOUS
10
0.744102
20
0.94037
11
0.744215
21
0.940505
0
LINE
8
BLACK
6
CONTINUOUS
10
0.744215
20
0.940505
11
0.744236
21
0.940681
0
LINE
8
BLACK
6
CONTINUOUS
10
0.744236
20
0.940681
11
0.74611
21
0.94443
0
LINE
8
BLACK
6
CONTINUOUS
10
0.74611
20
0.94443
11
0.746636
21
0.945139
0
LINE
8
BLACK
6
CONTINUOUS
10
0.746636
20
0.945139
11
0.746663
21
0.945198
0
LINE
8
BLACK
6
CONTINUOUS
10
0.746663
20
0.945198
11
0.748538
21
0.947073
0
LINE
8
BLACK
6
CONTINUOUS
10
0.748538
20
0.947073
11
0.749261
21
0.947579
0
LINE
8
BLACK
6
CONTINUOUS
10
0.749261
20
0.947579
11
0.749306
21
0.947626
0
LINE
8
BLACK
6
CONTINUOUS
10
0.749306
20
0.947626
11
0.753055
21
0.9495
0
LINE
8
BLACK
6
CONTINUOUS
10
0.753055
20
0.9495
11
0.754038
21
0.949793
0
LINE
8
BLACK
6
CONTINUOUS
10
0.754038
20
0.949793
11
0.75421
21
0.949752
0
LINE
8
BLACK
6
CONTINUOUS
10
0.75421
20
0.949752
11
0.754376
21
0.949812
0
LINE
8
BLACK
6
CONTINUOUS
10
0.754376
20
0.949812
11
0.763749
21
0.949812
0
LINE
8
BLACK
6
CONTINUOUS
10
0.763749
20
0.949812
11
0.764759
21
0.949634
0
LINE
8
BLACK
6
CONTINUOUS
10
0.764759
20
0.949634
11
0.764895
21
0.949521
0
LINE
8
BLACK
6
CONTINUOUS
10
0.764895
20
0.949521
11
0.76507
21
0.9495
0
LINE
8
BLACK
6
CONTINUOUS
10
0.76507
20
0.9495
11
0.765804
21
0.949133
0
LINE
8
BLACK
6
CONTINUOUS
10
0.765804
20
0.949133
11
0.764827
21
0.958905
0
LINE
8
BLACK
6
CONTINUOUS
10
0.764827
20
0.958905
11
0.748751
21
0.958905
0
LINE
8
BLACK
6
CONTINUOUS
10
0.748751
20
0.958905
11
0.747741
21
0.959083
0
LINE
8
BLACK
6
CONTINUOUS
10
0.747741
20
0.959083
11
0.746194
21
0.960381
0
LINE
8
BLACK
6
CONTINUOUS
10
0.746194
20
0.960381
11
0.745843
21
0.96237
0
LINE
8
BLACK
6
CONTINUOUS
10
0.745843
20
0.96237
11
0.746853
21
0.964119
0
LINE
8
BLACK
6
CONTINUOUS
10
0.746853
20
0.964119
11
0.748751
21
0.96481
0
LINE
8
BLACK
6
CONTINUOUS
10
0.748751
20
0.96481
11
0.767499
21
0.96481
0
LINE
8
BLACK
6
CONTINUOUS
10
0.767499
20
0.96481
11
0.767653
21
0.964783
0
LINE
8
BLACK
6
CONTINUOUS
10
0.80038
20
0.964632
11
0.800515
21
0.964519
0
LINE
8
BLACK
6
CONTINUOUS
10
0.800515
20
0.964519
11
0.800691
21
0.964499
0
LINE
8
BLACK
6
CONTINUOUS
10
0.800691
20
0.964499
11
0.80444
21
0.962624
0
LINE
8
BLACK
6
CONTINUOUS
10
0.80444
20
0.962624
11
0.805149
21
0.962098
0
LINE
8
BLACK
6
CONTINUOUS
10
0.805149
20
0.962098
11
0.805207
21
0.962071
0
LINE
8
BLACK
6
CONTINUOUS
10
0.805207
20
0.962071
11
0.807082
21
0.960196
0
LINE
8
BLACK
6
CONTINUOUS
10
0.807082
20
0.960196
11
0.807589
21
0.959473
0
LINE
8
BLACK
6
CONTINUOUS
10
0.807589
20
0.959473
11
0.807635
21
0.959428
0
LINE
8
BLACK
6
CONTINUOUS
10
0.807635
20
0.959428
11
0.80951
21
0.955679
0
LINE
8
BLACK
6
CONTINUOUS
10
0.80951
20
0.955679
11
0.809802
21
0.954696
0
LINE
8
BLACK
6
CONTINUOUS
10
0.809802
20
0.954696
11
0.809761
21
0.954524
0
LINE
8
BLACK
6
CONTINUOUS
10
0.809761
20
0.954524
11
0.809822
21
0.954358
0
LINE
8
BLACK
6
CONTINUOUS
10
0.809822
20
0.954358
11
0.809822
21
0.952484
0
LINE
8
BLACK
6
CONTINUOUS
10
0.809822
20
0.952484
11
0.809644
21
0.951474
0
LINE
8
BLACK
6
CONTINUOUS
10
0.809644
20
0.951474
11
0.80953
21
0.951338
0
LINE
8
BLACK
6
CONTINUOUS
10
0.80953
20
0.951338
11
0.80951
21
0.951163
0
LINE
8
BLACK
6
CONTINUOUS
10
0.80951
20
0.951163
11
0.807635
21
0.947414
0
LINE
8
BLACK
6
CONTINUOUS
10
0.807635
20
0.947414
11
0.807109
21
0.946705
0
LINE
8
BLACK
6
CONTINUOUS
10
0.807109
20
0.946705
11
0.807082
21
0.946646
0
LINE
8
BLACK
6
CONTINUOUS
10
0.807082
20
0.946646
11
0.805421
21
0.944985
0
LINE
8
BLACK
6
CONTINUOUS
10
0.805421
20
0.944985
11
0.807082
21
0.943323
0
LINE
8
BLACK
6
CONTINUOUS
10
0.807082
20
0.943323
11
0.807589
21
0.9426
0
LINE
8
BLACK
6
CONTINUOUS
10
0.807589
20
0.9426
11
0.807635
21
0.942556
0
LINE
8
BLACK
6
CONTINUOUS
10
0.807635
20
0.942556
11
0.80951
21
0.938806
0
LINE
8
BLACK
6
CONTINUOUS
10
0.80951
20
0.938806
11
0.809802
21
0.937823
0
LINE
8
BLACK
6
CONTINUOUS
10
0.809802
20
0.937823
11
0.809761
21
0.937651
0
LINE
8
BLACK
6
CONTINUOUS
10
0.809761
20
0.937651
11
0.809822
21
0.937486
0
LINE
8
BLACK
6
CONTINUOUS
10
0.809822
20
0.937486
11
0.809822
21
0.929986
0
LINE
8
BLACK
6
CONTINUOUS
10
0.809822
20
0.929986
11
0.809644
21
0.928977
0
LINE
8
BLACK
6
CONTINUOUS
10
0.809644
20
0.928977
11
0.80953
21
0.928841
0
LINE
8
BLACK
6
CONTINUOUS
10
0.80953
20
0.928841
11
0.80951
21
0.928666
0
LINE
8
BLACK
6
CONTINUOUS
10
0.80951
20
0.928666
11
0.807635
21
0.924916
0
LINE
8
BLACK
6
CONTINUOUS
10
0.807635
20
0.924916
11
0.807109
21
0.924207
0
LINE
8
BLACK
6
CONTINUOUS
10
0.807109
20
0.924207
11
0.807082
21
0.924149
0
LINE
8
BLACK
6
CONTINUOUS
10
0.807082
20
0.924149
11
0.805207
21
0.922274
0
LINE
8
BLACK
6
CONTINUOUS
10
0.805207
20
0.922274
11
0.804484
21
0.921768
0
LINE
8
BLACK
6
CONTINUOUS
10
0.804484
20
0.921768
11
0.80444
21
0.921721
0
LINE
8
BLACK
6
CONTINUOUS
10
0.80444
20
0.921721
11
0.800691
21
0.919846
0
LINE
8
BLACK
6
CONTINUOUS
10
0.800691
20
0.919846
11
0.799708
21
0.919554
0
LINE
8
BLACK
6
CONTINUOUS
10
0.799708
20
0.919554
11
0.799536
21
0.919595
0
LINE
8
BLACK
6
CONTINUOUS
10
0.799536
20
0.919595
11
0.79937
21
0.919535
0
LINE
8
BLACK
6
CONTINUOUS
10
0.79937
20
0.919535
11
0.791871
21
0.919535
0
LINE
8
BLACK
6
CONTINUOUS
10
0.791871
20
0.919535
11
0.790861
21
0.919713
0
LINE
8
BLACK
6
CONTINUOUS
10
0.790861
20
0.919713
11
0.790726
21
0.919826
0
LINE
8
BLACK
6
CONTINUOUS
10
0.790726
20
0.919826
11
0.79055
21
0.919846
0
LINE
8
BLACK
6
CONTINUOUS
10
0.79055
20
0.919846
11
0.786801
21
0.921721
0
LINE
8
BLACK
6
CONTINUOUS
10
0.786801
20
0.921721
11
0.786092
21
0.922247
0
LINE
8
BLACK
6
CONTINUOUS
10
0.786092
20
0.922247
11
0.786034
21
0.922274
0
LINE
8
BLACK
6
CONTINUOUS
10
0.786034
20
0.922274
11
0.784159
21
0.924149
0
LINE
8
BLACK
6
CONTINUOUS
10
0.784159
20
0.924149
11
0.783652
21
0.924872
0
LINE
8
BLACK
6
CONTINUOUS
10
0.783652
20
0.924872
11
0.783606
21
0.924916
0
LINE
8
BLACK
6
CONTINUOUS
10
0.783606
20
0.924916
11
0.781731
21
0.928666
0
LINE
8
BLACK
6
CONTINUOUS
10
0.781731
20
0.928666
11
0.781439
21
0.929649
0
LINE
8
BLACK
6
CONTINUOUS
10
0.781439
20
0.929649
11
0.78148
21
0.929821
0
LINE
8
BLACK
6
CONTINUOUS
10
0.78148
20
0.929821
11
0.781419
21
0.929986
0
LINE
8
BLACK
6
CONTINUOUS
10
0.781419
20
0.929986
11
0.781419
21
0.937486
0
LINE
8
BLACK
6
CONTINUOUS
10
0.781419
20
0.937486
11
0.781597
21
0.938495
0
LINE
8
BLACK
6
CONTINUOUS
10
0.781597
20
0.938495
11
0.781711
21
0.938631
0
LINE
8
BLACK
6
CONTINUOUS
10
0.781711
20
0.938631
11
0.781731
21
0.938806
0
LINE
8
BLACK
6
CONTINUOUS
10
0.781731
20
0.938806
11
0.783606
21
0.942556
0
LINE
8
BLACK
6
CONTINUOUS
10
0.783606
20
0.942556
11
0.784132
21
0.943265
0
LINE
8
BLACK
6
CONTINUOUS
10
0.784132
20
0.943265
11
0.784159
21
0.943323
0
LINE
8
BLACK
6
CONTINUOUS
10
0.784159
20
0.943323
11
0.78582
21
0.944985
0
LINE
8
BLACK
6
CONTINUOUS
10
0.78582
20
0.944985
11
0.784159
21
0.946646
0
LINE
8
BLACK
6
CONTINUOUS
10
0.784159
20
0.946646
11
0.783652
21
0.947369
0
LINE
8
BLACK
6
CONTINUOUS
10
0.783652
20
0.947369
11
0.783606
21
0.947414
0
LINE
8
BLACK
6
CONTINUOUS
10
0.783606
20
0.947414
11
0.781731
21
0.951163
0
LINE
8
BLACK
6
CONTINUOUS
10
0.781731
20
0.951163
11
0.781439
21
0.952146
0
LINE
8
BLACK
6
CONTINUOUS
10
0.781439
20
0.952146
11
0.78148
21
0.952318
0
LINE
8
BLACK
6
CONTINUOUS
10
0.78148
20
0.952318
11
0.781419
21
0.952484
0
LINE
8
BLACK
6
CONTINUOUS
10
0.781419
20
0.952484
11
0.781419
21
0.954358
0
LINE
8
BLACK
6
CONTINUOUS
10
0.781419
20
0.954358
11
0.781597
21
0.955368
0
LINE
8
BLACK
6
CONTINUOUS
10
0.781597
20
0.955368
11
0.781711
21
0.955504
0
LINE
8
BLACK
6
CONTINUOUS
10
0.781711
20
0.955504
11
0.781731
21
0.955679
0
LINE
8
BLACK
6
CONTINUOUS
10
0.781731
20
0.955679
11
0.783606
21
0.959428
0
LINE
8
BLACK
6
CONTINUOUS
10
0.783606
20
0.959428
11
0.784132
21
0.960138
0
LINE
8
BLACK
6
CONTINUOUS
10
0.784132
20
0.960138
11
0.784159
21
0.960196
0
LINE
8
BLACK
6
CONTINUOUS
10
0.784159
20
0.960196
11
0.786034
21
0.962071
0
LINE
8
BLACK
6
CONTINUOUS
10
0.786034
20
0.962071
11
0.786757
21
0.962577
0
LINE
8
BLACK
6
CONTINUOUS
10
0.786757
20
0.962577
11
0.786801
21
0.962624
0
LINE
8
BLACK
6
CONTINUOUS
10
0.786801
20
0.962624
11
0.79055
21
0.964499
0
LINE
8
BLACK
6
CONTINUOUS
10
0.79055
20
0.964499
11
0.791533
21
0.964791
0
LINE
8
BLACK
6
CONTINUOUS
10
0.791533
20
0.964791
11
0.791705
21
0.96475
0
LINE
8
BLACK
6
CONTINUOUS
10
0.791705
20
0.96475
11
0.791871
21
0.96481
0
LINE
8
BLACK
6
CONTINUOUS
10
0.791871
20
0.96481
11
0.79937
21
0.96481
0
LINE
8
BLACK
6
CONTINUOUS
10
0.79937
20
0.96481
11
0.80038
21
0.964632
0
LINE
8
BLACK
6
CONTINUOUS
10
0.789871
20
0.940683
11
0.788673
21
0.939486
0
LINE
8
BLACK
6
CONTINUOUS
10
0.788673
20
0.939486
11
0.787325
21
0.936789
0
LINE
8
BLACK
6
CONTINUOUS
10
0.787325
20
0.936789
11
0.787325
21
0.930684
0
LINE
8
BLACK
6
CONTINUOUS
10
0.787325
20
0.930684
11
0.788673
21
0.927986
0
LINE
8
BLACK
6
CONTINUOUS
10
0.788673
20
0.927986
11
0.789871
21
0.926789
0
LINE
8
BLACK
6
CONTINUOUS
10
0.789871
20
0.926789
11
0.792568
21
0.92544
0
LINE
8
BLACK
6
CONTINUOUS
10
0.792568
20
0.92544
11
0.798673
21
0.92544
0
LINE
8
BLACK
6
CONTINUOUS
10
0.798673
20
0.92544
11
0.80137
21
0.926789
0
LINE
8
BLACK
6
CONTINUOUS
10
0.80137
20
0.926789
11
0.802568
21
0.927986
0
LINE
8
BLACK
6
CONTINUOUS
10
0.802568
20
0.927986
11
0.803916
21
0.930684
0
LINE
8
BLACK
6
CONTINUOUS
10
0.803916
20
0.930684
11
0.803916
21
0.936789
0
LINE
8
BLACK
6
CONTINUOUS
10
0.803916
20
0.936789
11
0.802568
21
0.939486
0
LINE
8
BLACK
6
CONTINUOUS
10
0.802568
20
0.939486
11
0.80137
21
0.940683
0
LINE
8
BLACK
6
CONTINUOUS
10
0.80137
20
0.940683
11
0.798673
21
0.942032
0
LINE
8
BLACK
6
CONTINUOUS
10
0.798673
20
0.942032
11
0.792568
21
0.942032
0
LINE
8
BLACK
6
CONTINUOUS
10
0.792568
20
0.942032
11
0.789871
21
0.940683
0
LINE
8
BLACK
6
CONTINUOUS
10
0.789871
20
0.957556
11
0.788673
21
0.956359
0
LINE
8
BLACK
6
CONTINUOUS
10
0.788673
20
0.956359
11
0.787325
21
0.953661
0
LINE
8
BLACK
6
CONTINUOUS
10
0.787325
20
0.953661
11
0.787325
21
0.953181
0
LINE
8
BLACK
6
CONTINUOUS
10
0.787325
20
0.953181
11
0.788673
21
0.950483
0
LINE
8
BLACK
6
CONTINUOUS
10
0.788673
20
0.950483
11
0.789871
21
0.949286
0
LINE
8
BLACK
6
CONTINUOUS
10
0.789871
20
0.949286
11
0.792568
21
0.947937
0
LINE
8
BLACK
6
CONTINUOUS
10
0.792568
20
0.947937
11
0.798673
21
0.947937
0
LINE
8
BLACK
6
CONTINUOUS
10
0.798673
20
0.947937
11
0.80137
21
0.949286
0
LINE
8
BLACK
6
CONTINUOUS
10
0.80137
20
0.949286
11
0.802568
21
0.950483
0
LINE
8
BLACK
6
CONTINUOUS
10
0.802568
20
0.950483
11
0.803916
21
0.953181
0
LINE
8
BLACK
6
CONTINUOUS
10
0.803916
20
0.953181
11
0.803916
21
0.953661
0
LINE
8
BLACK
6
CONTINUOUS
10
0.803916
20
0.953661
11
0.802568
21
0.956359
0
LINE
8
BLACK
6
CONTINUOUS
10
0.802568
20
0.956359
11
0.80137
21
0.957556
0
LINE
8
BLACK
6
CONTINUOUS
10
0.80137
20
0.957556
11
0.798673
21
0.958905
0
LINE
8
BLACK
6
CONTINUOUS
10
0.798673
20
0.958905
11
0.792568
21
0.958905
0
LINE
8
BLACK
6
CONTINUOUS
10
0.792568
20
0.958905
11
0.789871
21
0.957556
0
LINE
8
BLACK
6
CONTINUOUS
10
0.867731
20
0.964657
11
0.867795
21
0.964659
0
LINE
8
BLACK
6
CONTINUOUS
10
0.867795
20
0.964659
11
0.87342
21
0.962784
0
LINE
8
BLACK
6
CONTINUOUS
10
0.87342
20
0.962784
11
0.874321
21
0.962296
0
LINE
8
BLACK
6
CONTINUOUS
10
0.874321
20
0.962296
11
0.874414
21
0.962145
0
LINE
8
BLACK
6
CONTINUOUS
10
0.874414
20
0.962145
11
0.874574
21
0.962071
0
LINE
8
BLACK
6
CONTINUOUS
10
0.874574
20
0.962071
11
0.878323
21
0.958321
0
LINE
8
BLACK
6
CONTINUOUS
10
0.878323
20
0.958321
11
0.87883
21
0.957598
0
LINE
8
BLACK
6
CONTINUOUS
10
0.87883
20
0.957598
11
0.878876
21
0.957554
0
LINE
8
BLACK
6
CONTINUOUS
10
0.878876
20
0.957554
11
0.880751
21
0.953804
0
LINE
8
BLACK
6
CONTINUOUS
10
0.880751
20
0.953804
11
0.880896
21
0.953316
0
LINE
8
BLACK
6
CONTINUOUS
10
0.880896
20
0.953316
11
0.880975
21
0.9532
0
LINE
8
BLACK
6
CONTINUOUS
10
0.880975
20
0.9532
11
0.88285
21
0.945701
0
LINE
8
BLACK
6
CONTINUOUS
10
0.88285
20
0.945701
11
0.882891
21
0.945113
0
LINE
8
BLACK
6
CONTINUOUS
10
0.882891
20
0.945113
11
0.882938
21
0.944985
0
LINE
8
BLACK
6
CONTINUOUS
10
0.882938
20
0.944985
11
0.882938
21
0.93936
0
LINE
8
BLACK
6
CONTINUOUS
10
0.882938
20
0.93936
11
0.882835
21
0.93878
0
LINE
8
BLACK
6
CONTINUOUS
10
0.882835
20
0.93878
11
0.88285
21
0.938644
0
LINE
8
BLACK
6
CONTINUOUS
10
0.88285
20
0.938644
11
0.880975
21
0.931145
0
LINE
8
BLACK
6
CONTINUOUS
10
0.880975
20
0.931145
11
0.880767
21
0.93068
0
LINE
8
BLACK
6
CONTINUOUS
10
0.880767
20
0.93068
11
0.880751
21
0.930541
0
LINE
8
BLACK
6
CONTINUOUS
10
0.880751
20
0.930541
11
0.878876
21
0.926791
0
LINE
8
BLACK
6
CONTINUOUS
10
0.878876
20
0.926791
11
0.878351
21
0.926082
0
LINE
8
BLACK
6
CONTINUOUS
10
0.878351
20
0.926082
11
0.878323
21
0.926024
0
LINE
8
BLACK
6
CONTINUOUS
10
0.878323
20
0.926024
11
0.874574
21
0.922274
0
LINE
8
BLACK
6
CONTINUOUS
10
0.874574
20
0.922274
11
0.873734
21
0.921686
0
LINE
8
BLACK
6
CONTINUOUS
10
0.873734
20
0.921686
11
0.873558
21
0.921671
0
LINE
8
BLACK
6
CONTINUOUS
10
0.873558
20
0.921671
11
0.87342
21
0.921561
0
LINE
8
BLACK
6
CONTINUOUS
10
0.87342
20
0.921561
11
0.867795
21
0.919686
0
LINE
8
BLACK
6
CONTINUOUS
10
0.867795
20
0.919686
11
0.866922
21
0.919557
0
LINE
8
BLACK
6
CONTINUOUS
10
0.866922
20
0.919557
11
0.866862
21
0.919535
0
LINE
8
BLACK
6
CONTINUOUS
10
0.866862
20
0.919535
11
0.863112
21
0.919535
0
LINE
8
BLACK
6
CONTINUOUS
10
0.863112
20
0.919535
11
0.862243
21
0.919688
0
LINE
8
BLACK
6
CONTINUOUS
10
0.862243
20
0.919688
11
0.862178
21
0.919686
0
LINE
8
BLACK
6
CONTINUOUS
10
0.862178
20
0.919686
11
0.856554
21
0.921561
0
LINE
8
BLACK
6
CONTINUOUS
10
0.856554
20
0.921561
11
0.855652
21
0.922049
0
LINE
8
BLACK
6
CONTINUOUS
10
0.855652
20
0.922049
11
0.85556
21
0.9222
0
LINE
8
BLACK
6
CONTINUOUS
10
0.85556
20
0.9222
11
0.8554
21
0.922274
0
LINE
8
BLACK
6
CONTINUOUS
10
0.8554
20
0.922274
11
0.853525
21
0.924149
0
LINE
8
BLACK
6
CONTINUOUS
10
0.853525
20
0.924149
11
0.852937
21
0.924989
0
LINE
8
BLACK
6
CONTINUOUS
10
0.852937
20
0.924989
11
0.852761
21
0.927001
0
LINE
8
BLACK
6
CONTINUOUS
10
0.852761
20
0.927001
11
0.853919
21
0.928656
0
LINE
8
BLACK
6
CONTINUOUS
10
0.853919
20
0.928656
11
0.85587
21
0.929178
0
LINE
8
BLACK
6
CONTINUOUS
10
0.85587
20
0.929178
11
0.857701
21
0.928325
0
LINE
8
BLACK
6
CONTINUOUS
10
0.857701
20
0.928325
11
0.859083
21
0.926943
0
LINE
8
BLACK
6
CONTINUOUS
10
0.859083
20
0.926943
11
0.863591
21
0.92544
0
LINE
8
BLACK
6
CONTINUOUS
10
0.863591
20
0.92544
11
0.866382
21
0.92544
0
LINE
8
BLACK
6
CONTINUOUS
10
0.866382
20
0.92544
11
0.870891
21
0.926943
0
LINE
8
BLACK
6
CONTINUOUS
10
0.870891
20
0.926943
11
0.873809
21
0.929861
0
LINE
8
BLACK
6
CONTINUOUS
10
0.873809
20
0.929861
11
0.875324
21
0.932892
0
LINE
8
BLACK
6
CONTINUOUS
10
0.875324
20
0.932892
11
0.877032
21
0.939724
0
LINE
8
BLACK
6
CONTINUOUS
10
0.877032
20
0.939724
11
0.877032
21
0.944621
0
LINE
8
BLACK
6
CONTINUOUS
10
0.877032
20
0.944621
11
0.875324
21
0.951453
0
LINE
8
BLACK
6
CONTINUOUS
10
0.875324
20
0.951453
11
0.873809
21
0.954484
0
LINE
8
BLACK
6
CONTINUOUS
10
0.873809
20
0.954484
11
0.870891
21
0.957402
0
LINE
8
BLACK
6
CONTINUOUS
10
0.870891
20
0.957402
11
0.866382
21
0.958905
0
LINE
8
BLACK
6
CONTINUOUS
10
0.866382
20
0.958905
11
0.863591
21
0.958905
0
LINE
8
BLACK
6
CONTINUOUS
10
0.863591
20
0.958905
11
0.859083
21
0.957402
0
LINE
8
BLACK
6
CONTINUOUS
10
0.859083
20
0.957402
11
0.857701
21
0.95602
0
LINE
8
BLACK
6
CONTINUOUS
10
0.857701
20
0.95602
11
0.856861
21
0.955432
0
LINE
8
BLACK
6
CONTINUOUS
10
0.856861
20
0.955432
11
0.854849
21
0.955256
0
LINE
8
BLACK
6
CONTINUOUS
10
0.854849
20
0.955256
11
0.853194
21
0.956414
0
LINE
8
BLACK
6
CONTINUOUS
10
0.853194
20
0.956414
11
0.852672
21
0.958365
0
LINE
8
BLACK
6
CONTINUOUS
10
0.852672
20
0.958365
11
0.853525
21
0.960196
0
LINE
8
BLACK
6
CONTINUOUS
10
0.853525
20
0.960196
11
0.8554
21
0.962071
0
LINE
8
BLACK
6
CONTINUOUS
10
0.8554
20
0.962071
11
0.85624
21
0.962659
0
LINE
8
BLACK
6
CONTINUOUS
10
0.85624
20
0.962659
11
0.856416
21
0.962674
0
LINE
8
BLACK
6
CONTINUOUS
10
0.856416
20
0.962674
11
0.856554
21
0.962784
0
LINE
8
BLACK
6
CONTINUOUS
10
0.856554
20
0.962784
11
0.862178
21
0.964659
0
LINE
8
BLACK
6
CONTINUOUS
10
0.862178
20
0.964659
11
0.863052
21
0.964788
0
LINE
8
BLACK
6
CONTINUOUS
10
0.863052
20
0.964788
11
0.863112
21
0.96481
0
LINE
8
BLACK
6
CONTINUOUS
10
0.863112
20
0.96481
11
0.866862
21
0.96481
0
LINE
8
BLACK
6
CONTINUOUS
10
0.866862
20
0.96481
11
0.867731
21
0.964657
0
LINE
8
BLACK
6
CONTINUOUS
10
0.610501
20
0.964591
11
0.611425
21
0.964454
0
LINE
8
BLACK
6
CONTINUOUS
10
0.611425
20
0.964454
11
0.611481
21
0.96439
0
LINE
8
BLACK
6
CONTINUOUS
10
0.611481
20
0.96439
11
0.611564
21
0.964373
0
LINE
8
BLACK
6
CONTINUOUS
10
0.611564
20
0.964373
11
0.612145
21
0.963642
0
LINE
8
BLACK
6
CONTINUOUS
10
0.612145
20
0.963642
11
0.612765
21
0.962943
0
LINE
8
BLACK
6
CONTINUOUS
10
0.612765
20
0.962943
11
0.612767
21
0.962858
0
LINE
8
BLACK
6
CONTINUOUS
10
0.612767
20
0.962858
11
0.61282
21
0.962791
0
LINE
8
BLACK
6
CONTINUOUS
10
0.61282
20
0.962791
11
0.625943
21
0.923421
0
LINE
8
BLACK
6
CONTINUOUS
10
0.625943
20
0.923421
11
0.626094
21
0.922407
0
LINE
8
BLACK
6
CONTINUOUS
10
0.626094
20
0.922407
11
0.625351
21
0.920528
0
LINE
8
BLACK
6
CONTINUOUS
10
0.625351
20
0.920528
11
0.623575
21
0.919567
0
LINE
8
BLACK
6
CONTINUOUS
10
0.623575
20
0.919567
11
0.621596
21
0.919972
0
LINE
8
BLACK
6
CONTINUOUS
10
0.621596
20
0.919972
11
0.620341
21
0.921554
0
LINE
8
BLACK
6
CONTINUOUS
10
0.620341
20
0.921554
11
0.617264
21
0.930783
0
LINE
8
BLACK
6
CONTINUOUS
10
0.617264
20
0.930783
11
0.602773
21
0.930783
0
LINE
8
BLACK
6
CONTINUOUS
10
0.602773
20
0.930783
11
0.599697
21
0.921554
0
LINE
8
BLACK
6
CONTINUOUS
10
0.599697
20
0.921554
11
0.599208
21
0.920652
0
LINE
8
BLACK
6
CONTINUOUS
10
0.599208
20
0.920652
11
0.597487
21
0.919595
0
LINE
8
BLACK
6
CONTINUOUS
10
0.597487
20
0.919595
11
0.595489
21
0.919891
0
LINE
8
BLACK
6
CONTINUOUS
10
0.595489
20
0.919891
11
0.594149
21
0.921402
0
LINE
8
BLACK
6
CONTINUOUS
10
0.594149
20
0.921402
11
0.594094
21
0.923421
0
LINE
8
BLACK
6
CONTINUOUS
10
0.594094
20
0.923421
11
0.607217
21
0.962791
0
LINE
8
BLACK
6
CONTINUOUS
10
0.607217
20
0.962791
11
0.607706
21
0.963693
0
LINE
8
BLACK
6
CONTINUOUS
10
0.607706
20
0.963693
11
0.607778
21
0.963737
0
LINE
8
BLACK
6
CONTINUOUS
10
0.607778
20
0.963737
11
0.607809
21
0.963817
0
LINE
8
BLACK
6
CONTINUOUS
10
0.607809
20
0.963817
11
0.608631
21
0.964261
0
LINE
8
BLACK
6
CONTINUOUS
10
0.608631
20
0.964261
11
0.609427
21
0.96475
0
LINE
8
BLACK
6
CONTINUOUS
10
0.609427
20
0.96475
11
0.609511
21
0.964738
0
LINE
8
BLACK
6
CONTINUOUS
10
0.609511
20
0.964738
11
0.609586
21
0.964778
0
LINE
8
BLACK
6
CONTINUOUS
10
0.609586
20
0.964778
11
0.610501
21
0.964591
0
LINE
8
BLACK
6
CONTINUOUS
10
0.604742
20
0.936689
11
0.615296
21
0.936689
0
LINE
8
BLACK
6
CONTINUOUS
10
0.615296
20
0.936689
11
0.610019
21
0.95252
0
LINE
8
BLACK
6
CONTINUOUS
10
0.610019
20
0.95252
11
0.604742
21
0.936689
0
LINE
8
BLACK
6
CONTINUOUS
10
0.839124
20
0.964743
11
0.839253
21
0.964765
0
LINE
8
BLACK
6
CONTINUOUS
10
0.839253
20
0.964765
11
0.839366
21
0.9647
0
LINE
8
BLACK
6
CONTINUOUS
10
0.839366
20
0.9647
11
0.83975
21
0.964632
0
LINE
8
BLACK
6
CONTINUOUS
10
0.83975
20
0.964632
11
0.840338
21
0.964139
0
LINE
8
BLACK
6
CONTINUOUS
10
0.840338
20
0.964139
11
0.841002
21
0.963755
0
LINE
8
BLACK
6
CONTINUOUS
10
0.841002
20
0.963755
11
0.841093
21
0.963505
0
LINE
8
BLACK
6
CONTINUOUS
10
0.841093
20
0.963505
11
0.841297
21
0.963334
0
LINE
8
BLACK
6
CONTINUOUS
10
0.841297
20
0.963334
11
0.841431
21
0.962578
0
LINE
8
BLACK
6
CONTINUOUS
10
0.841431
20
0.962578
11
0.841693
21
0.961857
0
LINE
8
BLACK
6
CONTINUOUS
10
0.841693
20
0.961857
11
0.841693
21
0.922487
0
LINE
8
BLACK
6
CONTINUOUS
10
0.841693
20
0.922487
11
0.841515
21
0.921477
0
LINE
8
BLACK
6
CONTINUOUS
10
0.841515
20
0.921477
11
0.840216
21
0.91993
0
LINE
8
BLACK
6
CONTINUOUS
10
0.840216
20
0.91993
11
0.838227
21
0.919579
0
LINE
8
BLACK
6
CONTINUOUS
10
0.838227
20
0.919579
11
0.836478
21
0.920589
0
LINE
8
BLACK
6
CONTINUOUS
10
0.836478
20
0.920589
11
0.835787
21
0.922487
0
LINE
8
BLACK
6
CONTINUOUS
10
0.835787
20
0.922487
11
0.835787
21
0.940157
0
LINE
8
BLACK
6
CONTINUOUS
10
0.835787
20
0.940157
11
0.825617
21
0.940157
0
LINE
8
BLACK
6
CONTINUOUS
10
0.825617
20
0.940157
11
0.824607
21
0.940335
0
LINE
8
BLACK
6
CONTINUOUS
10
0.824607
20
0.940335
11
0.82306
21
0.941633
0
LINE
8
BLACK
6
CONTINUOUS
10
0.82306
20
0.941633
11
0.822709
21
0.943623
0
LINE
8
BLACK
6
CONTINUOUS
10
0.822709
20
0.943623
11
0.823719
21
0.945372
0
LINE
8
BLACK
6
CONTINUOUS
10
0.823719
20
0.945372
11
0.825617
21
0.946063
0
LINE
8
BLACK
6
CONTINUOUS
10
0.825617
20
0.946063
11
0.835787
21
0.946063
0
LINE
8
BLACK
6
CONTINUOUS
10
0.835787
20
0.946063
11
0.835787
21
0.958905
0
LINE
8
BLACK
6
CONTINUOUS
10
0.835787
20
0.958905
11
0.819992
21
0.958905
0
LINE
8
BLACK
6
CONTINUOUS
10
0.819992
20
0.958905
11
0.818983
21
0.959083
0
LINE
8
BLACK
6
CONTINUOUS
10
0.818983
20
0.959083
11
0.817435
21
0.960381
0
LINE
8
BLACK
6
CONTINUOUS
10
0.817435
20
0.960381
11
0.817085
21
0.96237
0
LINE
8
BLACK
6
CONTINUOUS
10
0.817085
20
0.96237
11
0.818094
21
0.964119
0
LINE
8
BLACK
6
CONTINUOUS
10
0.818094
20
0.964119
11
0.819992
21
0.96481
0
LINE
8
BLACK
6
CONTINUOUS
10
0.819992
20
0.96481
11
0.83874
21
0.96481
0
LINE
8
BLACK
6
CONTINUOUS
10
0.83874
20
0.96481
11
0.839124
21
0.964743
0
LINE
8
BLACK
6
CONTINUOUS
10
0.917864
20
0.964743
11
0.917993
21
0.964765
0
LINE
8
BLACK
6
CONTINUOUS
10
0.917993
20
0.964765
11
0.918107
21
0.9647
0
LINE
8
BLACK
6
CONTINUOUS
10
0.918107
20
0.9647
11
0.91849
21
0.964632
0
LINE
8
BLACK
6
CONTINUOUS
10
0.91849
20
0.964632
11
0.919078
21
0.964139
0
LINE
8
BLACK
6
CONTINUOUS
10
0.919078
20
0.964139
11
0.919742
21
0.963755
0
LINE
8
BLACK
6
CONTINUOUS
10
0.919742
20
0.963755
11
0.919833
21
0.963505
0
LINE
8
BLACK
6
CONTINUOUS
10
0.919833
20
0.963505
11
0.920037
21
0.963334
0
LINE
8
BLACK
6
CONTINUOUS
10
0.920037
20
0.963334
11
0.920171
21
0.962578
0
LINE
8
BLACK
6
CONTINUOUS
10
0.920171
20
0.962578
11
0.920433
21
0.961857
0
LINE
8
BLACK
6
CONTINUOUS
10
0.920433
20
0.961857
11
0.920433
21
0.922487
0
LINE
8
BLACK
6
CONTINUOUS
10
0.920433
20
0.922487
11
0.920255
21
0.921477
0
LINE
8
BLACK
6
CONTINUOUS
10
0.920255
20
0.921477
11
0.918957
21
0.91993
0
LINE
8
BLACK
6
CONTINUOUS
10
0.918957
20
0.91993
11
0.916968
21
0.919579
0
LINE
8
BLACK
6
CONTINUOUS
10
0.916968
20
0.919579
11
0.915218
21
0.920589
0
LINE
8
BLACK
6
CONTINUOUS
10
0.915218
20
0.920589
11
0.914528
21
0.922487
0
LINE
8
BLACK
6
CONTINUOUS
10
0.914528
20
0.922487
11
0.914528
21
0.938282
0
LINE
8
BLACK
6
CONTINUOUS
10
0.914528
20
0.938282
11
0.902482
21
0.938282
0
LINE
8
BLACK
6
CONTINUOUS
10
0.902482
20
0.938282
11
0.901472
21
0.93846
0
LINE
8
BLACK
6
CONTINUOUS
10
0.901472
20
0.93846
11
0.901337
21
0.938574
0
LINE
8
BLACK
6
CONTINUOUS
10
0.901337
20
0.938574
11
0.901162
21
0.938594
0
LINE
8
BLACK
6
CONTINUOUS
10
0.901162
20
0.938594
11
0.897412
21
0.940469
0
LINE
8
BLACK
6
CONTINUOUS
10
0.897412
20
0.940469
11
0.896703
21
0.940995
0
LINE
8
BLACK
6
CONTINUOUS
10
0.896703
20
0.940995
11
0.896645
21
0.941022
0
LINE
8
BLACK
6
CONTINUOUS
10
0.896645
20
0.941022
11
0.89477
21
0.942897
0
LINE
8
BLACK
6
CONTINUOUS
10
0.89477
20
0.942897
11
0.894264
21
0.94362
0
LINE
8
BLACK
6
CONTINUOUS
10
0.894264
20
0.94362
11
0.894217
21
0.943664
0
LINE
8
BLACK
6
CONTINUOUS
10
0.894217
20
0.943664
11
0.892342
21
0.947414
0
LINE
8
BLACK
6
CONTINUOUS
10
0.892342
20
0.947414
11
0.89205
21
0.948397
0
LINE
8
BLACK
6
CONTINUOUS
10
0.89205
20
0.948397
11
0.892091
21
0.948568
0
LINE
8
BLACK
6
CONTINUOUS
10
0.892091
20
0.948568
11
0.89203
21
0.948734
0
LINE
8
BLACK
6
CONTINUOUS
10
0.89203
20
0.948734
11
0.89203
21
0.954358
0
LINE
8
BLACK
6
CONTINUOUS
10
0.89203
20
0.954358
11
0.892208
21
0.955368
0
LINE
8
BLACK
6
CONTINUOUS
10
0.892208
20
0.955368
11
0.892322
21
0.955504
0
LINE
8
BLACK
6
CONTINUOUS
10
0.892322
20
0.955504
11
0.892342
21
0.955679
0
LINE
8
BLACK
6
CONTINUOUS
10
0.892342
20
0.955679
11
0.894217
21
0.959428
0
LINE
8
BLACK
6
CONTINUOUS
10
0.894217
20
0.959428
11
0.894743
21
0.960138
0
LINE
8
BLACK
6
CONTINUOUS
10
0.894743
20
0.960138
11
0.89477
21
0.960196
0
LINE
8
BLACK
6
CONTINUOUS
10
0.89477
20
0.960196
11
0.896645
21
0.962071
0
LINE
8
BLACK
6
CONTINUOUS
10
0.896645
20
0.962071
11
0.897368
21
0.962577
0
LINE
8
BLACK
6
CONTINUOUS
10
0.897368
20
0.962577
11
0.897412
21
0.962624
0
LINE
8
BLACK
6
CONTINUOUS
10
0.897412
20
0.962624
11
0.901162
21
0.964499
0
LINE
8
BLACK
6
CONTINUOUS
10
0.901162
20
0.964499
11
0.902145
21
0.964791
0
LINE
8
BLACK
6
CONTINUOUS
10
0.902145
20
0.964791
11
0.902316
21
0.96475
0
LINE
8
BLACK
6
CONTINUOUS
10
0.902316
20
0.96475
11
0.902482
21
0.96481
0
LINE
8
BLACK
6
CONTINUOUS
10
0.902482
20
0.96481
11
0.91748
21
0.96481
0
LINE
8
BLACK
6
CONTINUOUS
10
0.91748
20
0.96481
11
0.917864
21
0.964743
0
LINE
8
BLACK
6
CONTINUOUS
10
0.900482
20
0.957556
11
0.899285
21
0.956359
0
LINE
8
BLACK
6
CONTINUOUS
10
0.899285
20
0.956359
11
0.897936
21
0.953661
0
LINE
8
BLACK
6
CONTINUOUS
10
0.897936
20
0.953661
11
0.897936
21
0.949431
0
LINE
8
BLACK
6
CONTINUOUS
10
0.897936
20
0.949431
11
0.899285
21
0.946734
0
LINE
8
BLACK
6
CONTINUOUS
10
0.899285
20
0.946734
11
0.900482
21
0.945537
0
LINE
8
BLACK
6
CONTINUOUS
10
0.900482
20
0.945537
11
0.903179
21
0.944188
0
LINE
8
BLACK
6
CONTINUOUS
10
0.903179
20
0.944188
11
0.914528
21
0.944188
0
LINE
8
BLACK
6
CONTINUOUS
10
0.914528
20
0.944188
11
0.914528
21
0.958905
0
LINE
8
BLACK
6
CONTINUOUS
10
0.914528
20
0.958905
11
0.903179
21
0.958905
0
LINE
8
BLACK
6
CONTINUOUS
10
0.903179
20
0.958905
11
0.900482
21
0.957556
  0
ENDSEC
  0
EOF
