  0
SECTION
  2
HEADER
  9
$ANGBASE
  50
0.0
  9
$ANGDIR
  70
1
  9
$MEASUREMENT
  70
0
  0
ENDSEC
  0
SECTION
  2
TABLES
  0
TABLE
  2
LTYPE
  70
4
  0
LTYPE
  5
40F
  2
CONTINUOUS
  70
0
  3
Solid line
  72
65
  73
0
  40
0.0
  0
LTYPE
  5
410
  2
DASHDOT
 70
0
  3
Dash Dot ____ _ ____ _
 72
65
 73
4
 40
2.0
 49
1.25
 49
-0.25
 49
0.25
 49
-0.25
  0
LTYPE
  5
411
  2
DASHED
 70
0
  3
Dashed __ __ __ __ __
 72
65
 73
2
 40
0.75
 49
0.5
 49
-0.25
  0
LTYPE
  5
43B
  2
DOTTED
 70
0
  3
Dotted .  .  .  .
 72
65
 73
2
 40
0.2
 49
0.0
 49
-0.2
  0
ENDTAB
  0
TABLE
  2
STYLE
  70
4
  0
STYLE
  2
KICAD
  70
0
  40
0
  41
1
  42
1
  50
0
  71
0
  3
isocp.shx
  0
STYLE
  2
KICADB
  70
0
  40
0
  41
1
  42
1
  50
0
  71
0
  3
isocp.shx
  0
STYLE
  2
KICADI
  70
0
  40
0
  41
1
  42
1
  50
15
  71
0
  3
isocp.shx
  0
STYLE
  2
KICADBI
  70
0
  40
0
  41
1
  42
1
  50
15
  71
0
  3
isocp.shx
  0
ENDTAB
  0
TABLE
  2
LAYER
  70
1
  0
LAYER
  2
BLACK
  70
0
  62
7
  6
CONTINUOUS
  0
ENDTAB
  0
ENDSEC
  0
SECTION
  2
ENTITIES
0
LINE
8
BLACK
6
CONTINUOUS
10
0.214106
20
0.325192
11
0.228034
21
0.322826
0
LINE
8
BLACK
6
CONTINUOUS
10
0.228034
20
0.322826
11
0.24161
21
0.318914
0
LINE
8
BLACK
6
CONTINUOUS
10
0.24161
20
0.318914
11
0.254663
21
0.313508
0
LINE
8
BLACK
6
CONTINUOUS
10
0.254663
20
0.313508
11
0.267028
21
0.306674
0
LINE
8
BLACK
6
CONTINUOUS
10
0.267028
20
0.306674
11
0.27855
21
0.298498
0
LINE
8
BLACK
6
CONTINUOUS
10
0.27855
20
0.298498
11
0.289084
21
0.289084
0
LINE
8
BLACK
6
CONTINUOUS
10
0.289084
20
0.289084
11
0.298498
21
0.27855
0
LINE
8
BLACK
6
CONTINUOUS
10
0.298498
20
0.27855
11
0.306674
21
0.267028
0
LINE
8
BLACK
6
CONTINUOUS
10
0.306674
20
0.267028
11
0.313508
21
0.254663
0
LINE
8
BLACK
6
CONTINUOUS
10
0.313508
20
0.254663
11
0.318914
21
0.24161
0
LINE
8
BLACK
6
CONTINUOUS
10
0.318914
20
0.24161
11
0.322826
21
0.228034
0
LINE
8
BLACK
6
CONTINUOUS
10
0.322826
20
0.228034
11
0.325192
21
0.214106
0
LINE
8
BLACK
6
CONTINUOUS
10
0.325192
20
0.214106
11
0.325984
21
0.2
0
LINE
8
BLACK
6
CONTINUOUS
10
0.325984
20
0.2
11
0.325192
21
0.185894
0
LINE
8
BLACK
6
CONTINUOUS
10
0.325192
20
0.185894
11
0.322826
21
0.171966
0
LINE
8
BLACK
6
CONTINUOUS
10
0.322826
20
0.171966
11
0.318914
21
0.15839
0
LINE
8
BLACK
6
CONTINUOUS
10
0.318914
20
0.15839
11
0.313508
21
0.145337
0
LINE
8
BLACK
6
CONTINUOUS
10
0.313508
20
0.145337
11
0.306674
21
0.132972
0
LINE
8
BLACK
6
CONTINUOUS
10
0.306674
20
0.132972
11
0.298498
21
0.12145
0
LINE
8
BLACK
6
CONTINUOUS
10
0.298498
20
0.12145
11
0.289084
21
0.110916
0
LINE
8
BLACK
6
CONTINUOUS
10
0.289084
20
0.110916
11
0.27855
21
0.101502
0
LINE
8
BLACK
6
CONTINUOUS
10
0.27855
20
0.101502
11
0.267028
21
0.0933261
0
LINE
8
BLACK
6
CONTINUOUS
10
0.267028
20
0.0933261
11
0.254663
21
0.0864921
0
LINE
8
BLACK
6
CONTINUOUS
10
0.254663
20
0.0864921
11
0.24161
21
0.0810856
0
LINE
8
BLACK
6
CONTINUOUS
10
0.24161
20
0.0810856
11
0.228034
21
0.0771744
0
LINE
8
BLACK
6
CONTINUOUS
10
0.228034
20
0.0771744
11
0.214106
21
0.0748079
0
LINE
8
BLACK
6
CONTINUOUS
10
0.214106
20
0.0748079
11
0.2
21
0.0740157
0
LINE
8
BLACK
6
CONTINUOUS
10
0.2
20
0.0740157
11
0.185894
21
0.0748079
0
LINE
8
BLACK
6
CONTINUOUS
10
0.185894
20
0.0748079
11
0.171966
21
0.0771744
0
LINE
8
BLACK
6
CONTINUOUS
10
0.171966
20
0.0771744
11
0.15839
21
0.0810856
0
LINE
8
BLACK
6
CONTINUOUS
10
0.15839
20
0.0810856
11
0.145337
21
0.0864921
0
LINE
8
BLACK
6
CONTINUOUS
10
0.145337
20
0.0864921
11
0.132972
21
0.0933261
0
LINE
8
BLACK
6
CONTINUOUS
10
0.132972
20
0.0933261
11
0.12145
21
0.101502
0
LINE
8
BLACK
6
CONTINUOUS
10
0.12145
20
0.101502
11
0.110916
21
0.110916
0
LINE
8
BLACK
6
CONTINUOUS
10
0.110916
20
0.110916
11
0.101502
21
0.12145
0
LINE
8
BLACK
6
CONTINUOUS
10
0.101502
20
0.12145
11
0.0933261
21
0.132972
0
LINE
8
BLACK
6
CONTINUOUS
10
0.0933261
20
0.132972
11
0.0864921
21
0.145337
0
LINE
8
BLACK
6
CONTINUOUS
10
0.0864921
20
0.145337
11
0.0810856
21
0.15839
0
LINE
8
BLACK
6
CONTINUOUS
10
0.0810856
20
0.15839
11
0.0771744
21
0.171966
0
LINE
8
BLACK
6
CONTINUOUS
10
0.0771744
20
0.171966
11
0.0748079
21
0.185894
0
LINE
8
BLACK
6
CONTINUOUS
10
0.0748079
20
0.185894
11
0.0740157
21
0.2
0
LINE
8
BLACK
6
CONTINUOUS
10
0.0740157
20
0.2
11
0.0748079
21
0.214106
0
LINE
8
BLACK
6
CONTINUOUS
10
0.0748079
20
0.214106
11
0.0771744
21
0.228034
0
LINE
8
BLACK
6
CONTINUOUS
10
0.0771744
20
0.228034
11
0.0810856
21
0.24161
0
LINE
8
BLACK
6
CONTINUOUS
10
0.0810856
20
0.24161
11
0.0864921
21
0.254663
0
LINE
8
BLACK
6
CONTINUOUS
10
0.0864921
20
0.254663
11
0.0933261
21
0.267028
0
LINE
8
BLACK
6
CONTINUOUS
10
0.0933261
20
0.267028
11
0.101502
21
0.27855
0
LINE
8
BLACK
6
CONTINUOUS
10
0.101502
20
0.27855
11
0.110916
21
0.289084
0
LINE
8
BLACK
6
CONTINUOUS
10
0.110916
20
0.289084
11
0.12145
21
0.298498
0
LINE
8
BLACK
6
CONTINUOUS
10
0.12145
20
0.298498
11
0.132972
21
0.306674
0
LINE
8
BLACK
6
CONTINUOUS
10
0.132972
20
0.306674
11
0.145337
21
0.313508
0
LINE
8
BLACK
6
CONTINUOUS
10
0.145337
20
0.313508
11
0.15839
21
0.318914
0
LINE
8
BLACK
6
CONTINUOUS
10
0.15839
20
0.318914
11
0.171966
21
0.322826
0
LINE
8
BLACK
6
CONTINUOUS
10
0.171966
20
0.322826
11
0.185894
21
0.325192
0
LINE
8
BLACK
6
CONTINUOUS
10
0.185894
20
0.325192
11
0.2
21
0.325984
0
LINE
8
BLACK
6
CONTINUOUS
10
0.2
20
0.325984
11
0.214106
21
0.325192
0
LINE
8
BLACK
6
CONTINUOUS
10
1.41411
20
0.325192
11
1.42803
21
0.322826
0
LINE
8
BLACK
6
CONTINUOUS
10
1.42803
20
0.322826
11
1.44161
21
0.318914
0
LINE
8
BLACK
6
CONTINUOUS
10
1.44161
20
0.318914
11
1.45466
21
0.313508
0
LINE
8
BLACK
6
CONTINUOUS
10
1.45466
20
0.313508
11
1.46703
21
0.306674
0
LINE
8
BLACK
6
CONTINUOUS
10
1.46703
20
0.306674
11
1.47855
21
0.298498
0
LINE
8
BLACK
6
CONTINUOUS
10
1.47855
20
0.298498
11
1.48908
21
0.289084
0
LINE
8
BLACK
6
CONTINUOUS
10
1.48908
20
0.289084
11
1.4985
21
0.27855
0
LINE
8
BLACK
6
CONTINUOUS
10
1.4985
20
0.27855
11
1.50667
21
0.267028
0
LINE
8
BLACK
6
CONTINUOUS
10
1.50667
20
0.267028
11
1.51351
21
0.254663
0
LINE
8
BLACK
6
CONTINUOUS
10
1.51351
20
0.254663
11
1.51891
21
0.24161
0
LINE
8
BLACK
6
CONTINUOUS
10
1.51891
20
0.24161
11
1.52283
21
0.228034
0
LINE
8
BLACK
6
CONTINUOUS
10
1.52283
20
0.228034
11
1.52519
21
0.214106
0
LINE
8
BLACK
6
CONTINUOUS
10
1.52519
20
0.214106
11
1.52598
21
0.2
0
LINE
8
BLACK
6
CONTINUOUS
10
1.52598
20
0.2
11
1.52519
21
0.185894
0
LINE
8
BLACK
6
CONTINUOUS
10
1.52519
20
0.185894
11
1.52283
21
0.171966
0
LINE
8
BLACK
6
CONTINUOUS
10
1.52283
20
0.171966
11
1.51891
21
0.15839
0
LINE
8
BLACK
6
CONTINUOUS
10
1.51891
20
0.15839
11
1.51351
21
0.145337
0
LINE
8
BLACK
6
CONTINUOUS
10
1.51351
20
0.145337
11
1.50667
21
0.132972
0
LINE
8
BLACK
6
CONTINUOUS
10
1.50667
20
0.132972
11
1.4985
21
0.12145
0
LINE
8
BLACK
6
CONTINUOUS
10
1.4985
20
0.12145
11
1.48908
21
0.110916
0
LINE
8
BLACK
6
CONTINUOUS
10
1.48908
20
0.110916
11
1.47855
21
0.101502
0
LINE
8
BLACK
6
CONTINUOUS
10
1.47855
20
0.101502
11
1.46703
21
0.0933261
0
LINE
8
BLACK
6
CONTINUOUS
10
1.46703
20
0.0933261
11
1.45466
21
0.0864921
0
LINE
8
BLACK
6
CONTINUOUS
10
1.45466
20
0.0864921
11
1.44161
21
0.0810856
0
LINE
8
BLACK
6
CONTINUOUS
10
1.44161
20
0.0810856
11
1.42803
21
0.0771744
0
LINE
8
BLACK
6
CONTINUOUS
10
1.42803
20
0.0771744
11
1.41411
21
0.0748079
0
LINE
8
BLACK
6
CONTINUOUS
10
1.41411
20
0.0748079
11
1.4
21
0.0740157
0
LINE
8
BLACK
6
CONTINUOUS
10
1.4
20
0.0740157
11
1.38589
21
0.0748079
0
LINE
8
BLACK
6
CONTINUOUS
10
1.38589
20
0.0748079
11
1.37197
21
0.0771744
0
LINE
8
BLACK
6
CONTINUOUS
10
1.37197
20
0.0771744
11
1.35839
21
0.0810856
0
LINE
8
BLACK
6
CONTINUOUS
10
1.35839
20
0.0810856
11
1.34534
21
0.0864921
0
LINE
8
BLACK
6
CONTINUOUS
10
1.34534
20
0.0864921
11
1.33297
21
0.0933261
0
LINE
8
BLACK
6
CONTINUOUS
10
1.33297
20
0.0933261
11
1.32145
21
0.101502
0
LINE
8
BLACK
6
CONTINUOUS
10
1.32145
20
0.101502
11
1.31092
21
0.110916
0
LINE
8
BLACK
6
CONTINUOUS
10
1.31092
20
0.110916
11
1.3015
21
0.12145
0
LINE
8
BLACK
6
CONTINUOUS
10
1.3015
20
0.12145
11
1.29333
21
0.132972
0
LINE
8
BLACK
6
CONTINUOUS
10
1.29333
20
0.132972
11
1.28649
21
0.145337
0
LINE
8
BLACK
6
CONTINUOUS
10
1.28649
20
0.145337
11
1.28109
21
0.15839
0
LINE
8
BLACK
6
CONTINUOUS
10
1.28109
20
0.15839
11
1.27717
21
0.171966
0
LINE
8
BLACK
6
CONTINUOUS
10
1.27717
20
0.171966
11
1.27481
21
0.185894
0
LINE
8
BLACK
6
CONTINUOUS
10
1.27481
20
0.185894
11
1.27402
21
0.2
0
LINE
8
BLACK
6
CONTINUOUS
10
1.27402
20
0.2
11
1.27481
21
0.214106
0
LINE
8
BLACK
6
CONTINUOUS
10
1.27481
20
0.214106
11
1.27717
21
0.228034
0
LINE
8
BLACK
6
CONTINUOUS
10
1.27717
20
0.228034
11
1.28109
21
0.24161
0
LINE
8
BLACK
6
CONTINUOUS
10
1.28109
20
0.24161
11
1.28649
21
0.254663
0
LINE
8
BLACK
6
CONTINUOUS
10
1.28649
20
0.254663
11
1.29333
21
0.267028
0
LINE
8
BLACK
6
CONTINUOUS
10
1.29333
20
0.267028
11
1.3015
21
0.27855
0
LINE
8
BLACK
6
CONTINUOUS
10
1.3015
20
0.27855
11
1.31092
21
0.289084
0
LINE
8
BLACK
6
CONTINUOUS
10
1.31092
20
0.289084
11
1.32145
21
0.298498
0
LINE
8
BLACK
6
CONTINUOUS
10
1.32145
20
0.298498
11
1.33297
21
0.306674
0
LINE
8
BLACK
6
CONTINUOUS
10
1.33297
20
0.306674
11
1.34534
21
0.313508
0
LINE
8
BLACK
6
CONTINUOUS
10
1.34534
20
0.313508
11
1.35839
21
0.318914
0
LINE
8
BLACK
6
CONTINUOUS
10
1.35839
20
0.318914
11
1.37197
21
0.322826
0
LINE
8
BLACK
6
CONTINUOUS
10
1.37197
20
0.322826
11
1.38589
21
0.325192
0
LINE
8
BLACK
6
CONTINUOUS
10
1.38589
20
0.325192
11
1.4
21
0.325984
0
LINE
8
BLACK
6
CONTINUOUS
10
1.4
20
0.325984
11
1.41411
21
0.325192
0
LINE
8
BLACK
6
CONTINUOUS
10
0.453013
20
0.167275
11
0.455568
21
0.165568
0
LINE
8
BLACK
6
CONTINUOUS
10
0.455568
20
0.165568
11
0.457275
21
0.163013
0
LINE
8
BLACK
6
CONTINUOUS
10
0.457275
20
0.163013
11
0.457874
21
0.16
0
LINE
8
BLACK
6
CONTINUOUS
10
0.457874
20
0.16
11
0.457874
21
0.1
0
LINE
8
BLACK
6
CONTINUOUS
10
0.457874
20
0.1
11
0.457275
21
0.0969867
0
LINE
8
BLACK
6
CONTINUOUS
10
0.457275
20
0.0969867
11
0.455568
21
0.0944322
0
LINE
8
BLACK
6
CONTINUOUS
10
0.455568
20
0.0944322
11
0.453013
21
0.0927254
0
LINE
8
BLACK
6
CONTINUOUS
10
0.453013
20
0.0927254
11
0.45
21
0.092126
0
LINE
8
BLACK
6
CONTINUOUS
10
0.45
20
0.092126
11
0.39
21
0.092126
0
LINE
8
BLACK
6
CONTINUOUS
10
0.39
20
0.092126
11
0.386987
21
0.0927254
0
LINE
8
BLACK
6
CONTINUOUS
10
0.386987
20
0.0927254
11
0.384432
21
0.0944322
0
LINE
8
BLACK
6
CONTINUOUS
10
0.384432
20
0.0944322
11
0.382725
21
0.0969867
0
LINE
8
BLACK
6
CONTINUOUS
10
0.382725
20
0.0969867
11
0.382126
21
0.1
0
LINE
8
BLACK
6
CONTINUOUS
10
0.382126
20
0.1
11
0.382126
21
0.16
0
LINE
8
BLACK
6
CONTINUOUS
10
0.382126
20
0.16
11
0.382725
21
0.163013
0
LINE
8
BLACK
6
CONTINUOUS
10
0.382725
20
0.163013
11
0.384432
21
0.165568
0
LINE
8
BLACK
6
CONTINUOUS
10
0.384432
20
0.165568
11
0.386987
21
0.167275
0
LINE
8
BLACK
6
CONTINUOUS
10
0.386987
20
0.167275
11
0.39
21
0.167874
0
LINE
8
BLACK
6
CONTINUOUS
10
0.39
20
0.167874
11
0.45
21
0.167874
0
LINE
8
BLACK
6
CONTINUOUS
10
0.45
20
0.167874
11
0.453013
21
0.167275
0
LINE
8
BLACK
6
CONTINUOUS
10
0.553013
20
0.167275
11
0.555568
21
0.165568
0
LINE
8
BLACK
6
CONTINUOUS
10
0.555568
20
0.165568
11
0.557275
21
0.163013
0
LINE
8
BLACK
6
CONTINUOUS
10
0.557275
20
0.163013
11
0.557874
21
0.16
0
LINE
8
BLACK
6
CONTINUOUS
10
0.557874
20
0.16
11
0.557874
21
0.1
0
LINE
8
BLACK
6
CONTINUOUS
10
0.557874
20
0.1
11
0.557275
21
0.0969867
0
LINE
8
BLACK
6
CONTINUOUS
10
0.557275
20
0.0969867
11
0.555568
21
0.0944322
0
LINE
8
BLACK
6
CONTINUOUS
10
0.555568
20
0.0944322
11
0.553013
21
0.0927254
0
LINE
8
BLACK
6
CONTINUOUS
10
0.553013
20
0.0927254
11
0.55
21
0.092126
0
LINE
8
BLACK
6
CONTINUOUS
10
0.55
20
0.092126
11
0.49
21
0.092126
0
LINE
8
BLACK
6
CONTINUOUS
10
0.49
20
0.092126
11
0.486987
21
0.0927254
0
LINE
8
BLACK
6
CONTINUOUS
10
0.486987
20
0.0927254
11
0.484432
21
0.0944322
0
LINE
8
BLACK
6
CONTINUOUS
10
0.484432
20
0.0944322
11
0.482725
21
0.0969867
0
LINE
8
BLACK
6
CONTINUOUS
10
0.482725
20
0.0969867
11
0.482126
21
0.1
0
LINE
8
BLACK
6
CONTINUOUS
10
0.482126
20
0.1
11
0.482126
21
0.16
0
LINE
8
BLACK
6
CONTINUOUS
10
0.482126
20
0.16
11
0.482725
21
0.163013
0
LINE
8
BLACK
6
CONTINUOUS
10
0.482725
20
0.163013
11
0.484432
21
0.165568
0
LINE
8
BLACK
6
CONTINUOUS
10
0.484432
20
0.165568
11
0.486987
21
0.167275
0
LINE
8
BLACK
6
CONTINUOUS
10
0.486987
20
0.167275
11
0.49
21
0.167874
0
LINE
8
BLACK
6
CONTINUOUS
10
0.49
20
0.167874
11
0.55
21
0.167874
0
LINE
8
BLACK
6
CONTINUOUS
10
0.55
20
0.167874
11
0.553013
21
0.167275
0
LINE
8
BLACK
6
CONTINUOUS
10
0.653013
20
0.167275
11
0.655568
21
0.165568
0
LINE
8
BLACK
6
CONTINUOUS
10
0.655568
20
0.165568
11
0.657275
21
0.163013
0
LINE
8
BLACK
6
CONTINUOUS
10
0.657275
20
0.163013
11
0.657874
21
0.16
0
LINE
8
BLACK
6
CONTINUOUS
10
0.657874
20
0.16
11
0.657874
21
0.1
0
LINE
8
BLACK
6
CONTINUOUS
10
0.657874
20
0.1
11
0.657275
21
0.0969867
0
LINE
8
BLACK
6
CONTINUOUS
10
0.657275
20
0.0969867
11
0.655568
21
0.0944322
0
LINE
8
BLACK
6
CONTINUOUS
10
0.655568
20
0.0944322
11
0.653013
21
0.0927254
0
LINE
8
BLACK
6
CONTINUOUS
10
0.653013
20
0.0927254
11
0.65
21
0.092126
0
LINE
8
BLACK
6
CONTINUOUS
10
0.65
20
0.092126
11
0.59
21
0.092126
0
LINE
8
BLACK
6
CONTINUOUS
10
0.59
20
0.092126
11
0.586987
21
0.0927254
0
LINE
8
BLACK
6
CONTINUOUS
10
0.586987
20
0.0927254
11
0.584432
21
0.0944322
0
LINE
8
BLACK
6
CONTINUOUS
10
0.584432
20
0.0944322
11
0.582725
21
0.0969867
0
LINE
8
BLACK
6
CONTINUOUS
10
0.582725
20
0.0969867
11
0.582126
21
0.1
0
LINE
8
BLACK
6
CONTINUOUS
10
0.582126
20
0.1
11
0.582126
21
0.16
0
LINE
8
BLACK
6
CONTINUOUS
10
0.582126
20
0.16
11
0.582725
21
0.163013
0
LINE
8
BLACK
6
CONTINUOUS
10
0.582725
20
0.163013
11
0.584432
21
0.165568
0
LINE
8
BLACK
6
CONTINUOUS
10
0.584432
20
0.165568
11
0.586987
21
0.167275
0
LINE
8
BLACK
6
CONTINUOUS
10
0.586987
20
0.167275
11
0.59
21
0.167874
0
LINE
8
BLACK
6
CONTINUOUS
10
0.59
20
0.167874
11
0.65
21
0.167874
0
LINE
8
BLACK
6
CONTINUOUS
10
0.65
20
0.167874
11
0.653013
21
0.167275
0
LINE
8
BLACK
6
CONTINUOUS
10
0.753013
20
0.167275
11
0.755568
21
0.165568
0
LINE
8
BLACK
6
CONTINUOUS
10
0.755568
20
0.165568
11
0.757275
21
0.163013
0
LINE
8
BLACK
6
CONTINUOUS
10
0.757275
20
0.163013
11
0.757874
21
0.16
0
LINE
8
BLACK
6
CONTINUOUS
10
0.757874
20
0.16
11
0.757874
21
0.1
0
LINE
8
BLACK
6
CONTINUOUS
10
0.757874
20
0.1
11
0.757275
21
0.0969867
0
LINE
8
BLACK
6
CONTINUOUS
10
0.757275
20
0.0969867
11
0.755568
21
0.0944322
0
LINE
8
BLACK
6
CONTINUOUS
10
0.755568
20
0.0944322
11
0.753013
21
0.0927254
0
LINE
8
BLACK
6
CONTINUOUS
10
0.753013
20
0.0927254
11
0.75
21
0.092126
0
LINE
8
BLACK
6
CONTINUOUS
10
0.75
20
0.092126
11
0.69
21
0.092126
0
LINE
8
BLACK
6
CONTINUOUS
10
0.69
20
0.092126
11
0.686987
21
0.0927254
0
LINE
8
BLACK
6
CONTINUOUS
10
0.686987
20
0.0927254
11
0.684432
21
0.0944322
0
LINE
8
BLACK
6
CONTINUOUS
10
0.684432
20
0.0944322
11
0.682725
21
0.0969867
0
LINE
8
BLACK
6
CONTINUOUS
10
0.682725
20
0.0969867
11
0.682126
21
0.1
0
LINE
8
BLACK
6
CONTINUOUS
10
0.682126
20
0.1
11
0.682126
21
0.16
0
LINE
8
BLACK
6
CONTINUOUS
10
0.682126
20
0.16
11
0.682725
21
0.163013
0
LINE
8
BLACK
6
CONTINUOUS
10
0.682725
20
0.163013
11
0.684432
21
0.165568
0
LINE
8
BLACK
6
CONTINUOUS
10
0.684432
20
0.165568
11
0.686987
21
0.167275
0
LINE
8
BLACK
6
CONTINUOUS
10
0.686987
20
0.167275
11
0.69
21
0.167874
0
LINE
8
BLACK
6
CONTINUOUS
10
0.69
20
0.167874
11
0.75
21
0.167874
0
LINE
8
BLACK
6
CONTINUOUS
10
0.75
20
0.167874
11
0.753013
21
0.167275
0
LINE
8
BLACK
6
CONTINUOUS
10
0.853013
20
0.167275
11
0.855568
21
0.165568
0
LINE
8
BLACK
6
CONTINUOUS
10
0.855568
20
0.165568
11
0.857275
21
0.163013
0
LINE
8
BLACK
6
CONTINUOUS
10
0.857275
20
0.163013
11
0.857874
21
0.16
0
LINE
8
BLACK
6
CONTINUOUS
10
0.857874
20
0.16
11
0.857874
21
0.1
0
LINE
8
BLACK
6
CONTINUOUS
10
0.857874
20
0.1
11
0.857275
21
0.0969867
0
LINE
8
BLACK
6
CONTINUOUS
10
0.857275
20
0.0969867
11
0.855568
21
0.0944322
0
LINE
8
BLACK
6
CONTINUOUS
10
0.855568
20
0.0944322
11
0.853013
21
0.0927254
0
LINE
8
BLACK
6
CONTINUOUS
10
0.853013
20
0.0927254
11
0.85
21
0.092126
0
LINE
8
BLACK
6
CONTINUOUS
10
0.85
20
0.092126
11
0.79
21
0.092126
0
LINE
8
BLACK
6
CONTINUOUS
10
0.79
20
0.092126
11
0.786987
21
0.0927254
0
LINE
8
BLACK
6
CONTINUOUS
10
0.786987
20
0.0927254
11
0.784432
21
0.0944322
0
LINE
8
BLACK
6
CONTINUOUS
10
0.784432
20
0.0944322
11
0.782725
21
0.0969867
0
LINE
8
BLACK
6
CONTINUOUS
10
0.782725
20
0.0969867
11
0.782126
21
0.1
0
LINE
8
BLACK
6
CONTINUOUS
10
0.782126
20
0.1
11
0.782126
21
0.16
0
LINE
8
BLACK
6
CONTINUOUS
10
0.782126
20
0.16
11
0.782725
21
0.163013
0
LINE
8
BLACK
6
CONTINUOUS
10
0.782725
20
0.163013
11
0.784432
21
0.165568
0
LINE
8
BLACK
6
CONTINUOUS
10
0.784432
20
0.165568
11
0.786987
21
0.167275
0
LINE
8
BLACK
6
CONTINUOUS
10
0.786987
20
0.167275
11
0.79
21
0.167874
0
LINE
8
BLACK
6
CONTINUOUS
10
0.79
20
0.167874
11
0.85
21
0.167874
0
LINE
8
BLACK
6
CONTINUOUS
10
0.85
20
0.167874
11
0.853013
21
0.167275
0
LINE
8
BLACK
6
CONTINUOUS
10
1.02743
20
0.196259
11
1.02999
21
0.194552
0
LINE
8
BLACK
6
CONTINUOUS
10
1.02999
20
0.194552
11
1.03169
21
0.191998
0
LINE
8
BLACK
6
CONTINUOUS
10
1.03169
20
0.191998
11
1.03229
21
0.188984
0
LINE
8
BLACK
6
CONTINUOUS
10
1.03229
20
0.188984
11
1.03229
21
0.122984
0
LINE
8
BLACK
6
CONTINUOUS
10
1.03229
20
0.122984
11
1.03169
21
0.119971
0
LINE
8
BLACK
6
CONTINUOUS
10
1.03169
20
0.119971
11
1.02999
21
0.117416
0
LINE
8
BLACK
6
CONTINUOUS
10
1.02999
20
0.117416
11
1.02743
21
0.11571
0
LINE
8
BLACK
6
CONTINUOUS
10
1.02743
20
0.11571
11
1.02442
21
0.11511
0
LINE
8
BLACK
6
CONTINUOUS
10
1.02442
20
0.11511
11
0.958417
21
0.11511
0
LINE
8
BLACK
6
CONTINUOUS
10
0.958417
20
0.11511
11
0.955404
21
0.11571
0
LINE
8
BLACK
6
CONTINUOUS
10
0.955404
20
0.11571
11
0.95285
21
0.117416
0
LINE
8
BLACK
6
CONTINUOUS
10
0.95285
20
0.117416
11
0.951143
21
0.119971
0
LINE
8
BLACK
6
CONTINUOUS
10
0.951143
20
0.119971
11
0.950543
21
0.122984
0
LINE
8
BLACK
6
CONTINUOUS
10
0.950543
20
0.122984
11
0.950543
21
0.188984
0
LINE
8
BLACK
6
CONTINUOUS
10
0.950543
20
0.188984
11
0.951143
21
0.191998
0
LINE
8
BLACK
6
CONTINUOUS
10
0.951143
20
0.191998
11
0.95285
21
0.194552
0
LINE
8
BLACK
6
CONTINUOUS
10
0.95285
20
0.194552
11
0.955404
21
0.196259
0
LINE
8
BLACK
6
CONTINUOUS
10
0.955404
20
0.196259
11
0.958417
21
0.196858
0
LINE
8
BLACK
6
CONTINUOUS
10
0.958417
20
0.196858
11
1.02442
21
0.196858
0
LINE
8
BLACK
6
CONTINUOUS
10
1.02442
20
0.196858
11
1.02743
21
0.196259
0
LINE
8
BLACK
6
CONTINUOUS
10
1.2046
20
0.196259
11
1.20715
21
0.194552
0
LINE
8
BLACK
6
CONTINUOUS
10
1.20715
20
0.194552
11
1.20886
21
0.191998
0
LINE
8
BLACK
6
CONTINUOUS
10
1.20886
20
0.191998
11
1.20946
21
0.188984
0
LINE
8
BLACK
6
CONTINUOUS
10
1.20946
20
0.188984
11
1.20946
21
0.122984
0
LINE
8
BLACK
6
CONTINUOUS
10
1.20946
20
0.122984
11
1.20886
21
0.119971
0
LINE
8
BLACK
6
CONTINUOUS
10
1.20886
20
0.119971
11
1.20715
21
0.117416
0
LINE
8
BLACK
6
CONTINUOUS
10
1.20715
20
0.117416
11
1.2046
21
0.11571
0
LINE
8
BLACK
6
CONTINUOUS
10
1.2046
20
0.11571
11
1.20158
21
0.11511
0
LINE
8
BLACK
6
CONTINUOUS
10
1.20158
20
0.11511
11
1.13558
21
0.11511
0
LINE
8
BLACK
6
CONTINUOUS
10
1.13558
20
0.11511
11
1.13257
21
0.11571
0
LINE
8
BLACK
6
CONTINUOUS
10
1.13257
20
0.11571
11
1.13001
21
0.117416
0
LINE
8
BLACK
6
CONTINUOUS
10
1.13001
20
0.117416
11
1.12831
21
0.119971
0
LINE
8
BLACK
6
CONTINUOUS
10
1.12831
20
0.119971
11
1.12771
21
0.122984
0
LINE
8
BLACK
6
CONTINUOUS
10
1.12771
20
0.122984
11
1.12771
21
0.188984
0
LINE
8
BLACK
6
CONTINUOUS
10
1.12771
20
0.188984
11
1.12831
21
0.191998
0
LINE
8
BLACK
6
CONTINUOUS
10
1.12831
20
0.191998
11
1.13001
21
0.194552
0
LINE
8
BLACK
6
CONTINUOUS
10
1.13001
20
0.194552
11
1.13257
21
0.196259
0
LINE
8
BLACK
6
CONTINUOUS
10
1.13257
20
0.196259
11
1.13558
21
0.196858
0
LINE
8
BLACK
6
CONTINUOUS
10
1.13558
20
0.196858
11
1.20158
21
0.196858
0
LINE
8
BLACK
6
CONTINUOUS
10
1.20158
20
0.196858
11
1.2046
21
0.196259
0
LINE
8
BLACK
6
CONTINUOUS
10
0.453013
20
0.267275
11
0.455568
21
0.265568
0
LINE
8
BLACK
6
CONTINUOUS
10
0.455568
20
0.265568
11
0.457275
21
0.263013
0
LINE
8
BLACK
6
CONTINUOUS
10
0.457275
20
0.263013
11
0.457874
21
0.26
0
LINE
8
BLACK
6
CONTINUOUS
10
0.457874
20
0.26
11
0.457874
21
0.2
0
LINE
8
BLACK
6
CONTINUOUS
10
0.457874
20
0.2
11
0.457275
21
0.196987
0
LINE
8
BLACK
6
CONTINUOUS
10
0.457275
20
0.196987
11
0.455568
21
0.194432
0
LINE
8
BLACK
6
CONTINUOUS
10
0.455568
20
0.194432
11
0.453013
21
0.192725
0
LINE
8
BLACK
6
CONTINUOUS
10
0.453013
20
0.192725
11
0.45
21
0.192126
0
LINE
8
BLACK
6
CONTINUOUS
10
0.45
20
0.192126
11
0.39
21
0.192126
0
LINE
8
BLACK
6
CONTINUOUS
10
0.39
20
0.192126
11
0.386987
21
0.192725
0
LINE
8
BLACK
6
CONTINUOUS
10
0.386987
20
0.192725
11
0.384432
21
0.194432
0
LINE
8
BLACK
6
CONTINUOUS
10
0.384432
20
0.194432
11
0.382725
21
0.196987
0
LINE
8
BLACK
6
CONTINUOUS
10
0.382725
20
0.196987
11
0.382126
21
0.2
0
LINE
8
BLACK
6
CONTINUOUS
10
0.382126
20
0.2
11
0.382126
21
0.26
0
LINE
8
BLACK
6
CONTINUOUS
10
0.382126
20
0.26
11
0.382725
21
0.263013
0
LINE
8
BLACK
6
CONTINUOUS
10
0.382725
20
0.263013
11
0.384432
21
0.265568
0
LINE
8
BLACK
6
CONTINUOUS
10
0.384432
20
0.265568
11
0.386987
21
0.267275
0
LINE
8
BLACK
6
CONTINUOUS
10
0.386987
20
0.267275
11
0.39
21
0.267874
0
LINE
8
BLACK
6
CONTINUOUS
10
0.39
20
0.267874
11
0.45
21
0.267874
0
LINE
8
BLACK
6
CONTINUOUS
10
0.45
20
0.267874
11
0.453013
21
0.267275
0
LINE
8
BLACK
6
CONTINUOUS
10
0.553013
20
0.267275
11
0.555568
21
0.265568
0
LINE
8
BLACK
6
CONTINUOUS
10
0.555568
20
0.265568
11
0.557275
21
0.263013
0
LINE
8
BLACK
6
CONTINUOUS
10
0.557275
20
0.263013
11
0.557874
21
0.26
0
LINE
8
BLACK
6
CONTINUOUS
10
0.557874
20
0.26
11
0.557874
21
0.2
0
LINE
8
BLACK
6
CONTINUOUS
10
0.557874
20
0.2
11
0.557275
21
0.196987
0
LINE
8
BLACK
6
CONTINUOUS
10
0.557275
20
0.196987
11
0.555568
21
0.194432
0
LINE
8
BLACK
6
CONTINUOUS
10
0.555568
20
0.194432
11
0.553013
21
0.192725
0
LINE
8
BLACK
6
CONTINUOUS
10
0.553013
20
0.192725
11
0.55
21
0.192126
0
LINE
8
BLACK
6
CONTINUOUS
10
0.55
20
0.192126
11
0.49
21
0.192126
0
LINE
8
BLACK
6
CONTINUOUS
10
0.49
20
0.192126
11
0.486987
21
0.192725
0
LINE
8
BLACK
6
CONTINUOUS
10
0.486987
20
0.192725
11
0.484432
21
0.194432
0
LINE
8
BLACK
6
CONTINUOUS
10
0.484432
20
0.194432
11
0.482725
21
0.196987
0
LINE
8
BLACK
6
CONTINUOUS
10
0.482725
20
0.196987
11
0.482126
21
0.2
0
LINE
8
BLACK
6
CONTINUOUS
10
0.482126
20
0.2
11
0.482126
21
0.26
0
LINE
8
BLACK
6
CONTINUOUS
10
0.482126
20
0.26
11
0.482725
21
0.263013
0
LINE
8
BLACK
6
CONTINUOUS
10
0.482725
20
0.263013
11
0.484432
21
0.265568
0
LINE
8
BLACK
6
CONTINUOUS
10
0.484432
20
0.265568
11
0.486987
21
0.267275
0
LINE
8
BLACK
6
CONTINUOUS
10
0.486987
20
0.267275
11
0.49
21
0.267874
0
LINE
8
BLACK
6
CONTINUOUS
10
0.49
20
0.267874
11
0.55
21
0.267874
0
LINE
8
BLACK
6
CONTINUOUS
10
0.55
20
0.267874
11
0.553013
21
0.267275
0
LINE
8
BLACK
6
CONTINUOUS
10
0.653013
20
0.267275
11
0.655568
21
0.265568
0
LINE
8
BLACK
6
CONTINUOUS
10
0.655568
20
0.265568
11
0.657275
21
0.263013
0
LINE
8
BLACK
6
CONTINUOUS
10
0.657275
20
0.263013
11
0.657874
21
0.26
0
LINE
8
BLACK
6
CONTINUOUS
10
0.657874
20
0.26
11
0.657874
21
0.2
0
LINE
8
BLACK
6
CONTINUOUS
10
0.657874
20
0.2
11
0.657275
21
0.196987
0
LINE
8
BLACK
6
CONTINUOUS
10
0.657275
20
0.196987
11
0.655568
21
0.194432
0
LINE
8
BLACK
6
CONTINUOUS
10
0.655568
20
0.194432
11
0.653013
21
0.192725
0
LINE
8
BLACK
6
CONTINUOUS
10
0.653013
20
0.192725
11
0.65
21
0.192126
0
LINE
8
BLACK
6
CONTINUOUS
10
0.65
20
0.192126
11
0.59
21
0.192126
0
LINE
8
BLACK
6
CONTINUOUS
10
0.59
20
0.192126
11
0.586987
21
0.192725
0
LINE
8
BLACK
6
CONTINUOUS
10
0.586987
20
0.192725
11
0.584432
21
0.194432
0
LINE
8
BLACK
6
CONTINUOUS
10
0.584432
20
0.194432
11
0.582725
21
0.196987
0
LINE
8
BLACK
6
CONTINUOUS
10
0.582725
20
0.196987
11
0.582126
21
0.2
0
LINE
8
BLACK
6
CONTINUOUS
10
0.582126
20
0.2
11
0.582126
21
0.26
0
LINE
8
BLACK
6
CONTINUOUS
10
0.582126
20
0.26
11
0.582725
21
0.263013
0
LINE
8
BLACK
6
CONTINUOUS
10
0.582725
20
0.263013
11
0.584432
21
0.265568
0
LINE
8
BLACK
6
CONTINUOUS
10
0.584432
20
0.265568
11
0.586987
21
0.267275
0
LINE
8
BLACK
6
CONTINUOUS
10
0.586987
20
0.267275
11
0.59
21
0.267874
0
LINE
8
BLACK
6
CONTINUOUS
10
0.59
20
0.267874
11
0.65
21
0.267874
0
LINE
8
BLACK
6
CONTINUOUS
10
0.65
20
0.267874
11
0.653013
21
0.267275
0
LINE
8
BLACK
6
CONTINUOUS
10
0.753013
20
0.267275
11
0.755568
21
0.265568
0
LINE
8
BLACK
6
CONTINUOUS
10
0.755568
20
0.265568
11
0.757275
21
0.263013
0
LINE
8
BLACK
6
CONTINUOUS
10
0.757275
20
0.263013
11
0.757874
21
0.26
0
LINE
8
BLACK
6
CONTINUOUS
10
0.757874
20
0.26
11
0.757874
21
0.2
0
LINE
8
BLACK
6
CONTINUOUS
10
0.757874
20
0.2
11
0.757275
21
0.196987
0
LINE
8
BLACK
6
CONTINUOUS
10
0.757275
20
0.196987
11
0.755568
21
0.194432
0
LINE
8
BLACK
6
CONTINUOUS
10
0.755568
20
0.194432
11
0.753013
21
0.192725
0
LINE
8
BLACK
6
CONTINUOUS
10
0.753013
20
0.192725
11
0.75
21
0.192126
0
LINE
8
BLACK
6
CONTINUOUS
10
0.75
20
0.192126
11
0.69
21
0.192126
0
LINE
8
BLACK
6
CONTINUOUS
10
0.69
20
0.192126
11
0.686987
21
0.192725
0
LINE
8
BLACK
6
CONTINUOUS
10
0.686987
20
0.192725
11
0.684432
21
0.194432
0
LINE
8
BLACK
6
CONTINUOUS
10
0.684432
20
0.194432
11
0.682725
21
0.196987
0
LINE
8
BLACK
6
CONTINUOUS
10
0.682725
20
0.196987
11
0.682126
21
0.2
0
LINE
8
BLACK
6
CONTINUOUS
10
0.682126
20
0.2
11
0.682126
21
0.26
0
LINE
8
BLACK
6
CONTINUOUS
10
0.682126
20
0.26
11
0.682725
21
0.263013
0
LINE
8
BLACK
6
CONTINUOUS
10
0.682725
20
0.263013
11
0.684432
21
0.265568
0
LINE
8
BLACK
6
CONTINUOUS
10
0.684432
20
0.265568
11
0.686987
21
0.267275
0
LINE
8
BLACK
6
CONTINUOUS
10
0.686987
20
0.267275
11
0.69
21
0.267874
0
LINE
8
BLACK
6
CONTINUOUS
10
0.69
20
0.267874
11
0.75
21
0.267874
0
LINE
8
BLACK
6
CONTINUOUS
10
0.75
20
0.267874
11
0.753013
21
0.267275
0
LINE
8
BLACK
6
CONTINUOUS
10
0.853013
20
0.267275
11
0.855568
21
0.265568
0
LINE
8
BLACK
6
CONTINUOUS
10
0.855568
20
0.265568
11
0.857275
21
0.263013
0
LINE
8
BLACK
6
CONTINUOUS
10
0.857275
20
0.263013
11
0.857874
21
0.26
0
LINE
8
BLACK
6
CONTINUOUS
10
0.857874
20
0.26
11
0.857874
21
0.2
0
LINE
8
BLACK
6
CONTINUOUS
10
0.857874
20
0.2
11
0.857275
21
0.196987
0
LINE
8
BLACK
6
CONTINUOUS
10
0.857275
20
0.196987
11
0.855568
21
0.194432
0
LINE
8
BLACK
6
CONTINUOUS
10
0.855568
20
0.194432
11
0.853013
21
0.192725
0
LINE
8
BLACK
6
CONTINUOUS
10
0.853013
20
0.192725
11
0.85
21
0.192126
0
LINE
8
BLACK
6
CONTINUOUS
10
0.85
20
0.192126
11
0.79
21
0.192126
0
LINE
8
BLACK
6
CONTINUOUS
10
0.79
20
0.192126
11
0.786987
21
0.192725
0
LINE
8
BLACK
6
CONTINUOUS
10
0.786987
20
0.192725
11
0.784432
21
0.194432
0
LINE
8
BLACK
6
CONTINUOUS
10
0.784432
20
0.194432
11
0.782725
21
0.196987
0
LINE
8
BLACK
6
CONTINUOUS
10
0.782725
20
0.196987
11
0.782126
21
0.2
0
LINE
8
BLACK
6
CONTINUOUS
10
0.782126
20
0.2
11
0.782126
21
0.26
0
LINE
8
BLACK
6
CONTINUOUS
10
0.782126
20
0.26
11
0.782725
21
0.263013
0
LINE
8
BLACK
6
CONTINUOUS
10
0.782725
20
0.263013
11
0.784432
21
0.265568
0
LINE
8
BLACK
6
CONTINUOUS
10
0.784432
20
0.265568
11
0.786987
21
0.267275
0
LINE
8
BLACK
6
CONTINUOUS
10
0.786987
20
0.267275
11
0.79
21
0.267874
0
LINE
8
BLACK
6
CONTINUOUS
10
0.79
20
0.267874
11
0.85
21
0.267874
0
LINE
8
BLACK
6
CONTINUOUS
10
0.85
20
0.267874
11
0.853013
21
0.267275
0
LINE
8
BLACK
6
CONTINUOUS
10
1.02743
20
0.44429
11
1.02999
21
0.442584
0
LINE
8
BLACK
6
CONTINUOUS
10
1.02999
20
0.442584
11
1.03169
21
0.440029
0
LINE
8
BLACK
6
CONTINUOUS
10
1.03169
20
0.440029
11
1.03229
21
0.437016
0
LINE
8
BLACK
6
CONTINUOUS
10
1.03229
20
0.437016
11
1.03229
21
0.371016
0
LINE
8
BLACK
6
CONTINUOUS
10
1.03229
20
0.371016
11
1.03169
21
0.368002
0
LINE
8
BLACK
6
CONTINUOUS
10
1.03169
20
0.368002
11
1.02999
21
0.365448
0
LINE
8
BLACK
6
CONTINUOUS
10
1.02999
20
0.365448
11
1.02743
21
0.363741
0
LINE
8
BLACK
6
CONTINUOUS
10
1.02743
20
0.363741
11
1.02442
21
0.363142
0
LINE
8
BLACK
6
CONTINUOUS
10
1.02442
20
0.363142
11
0.958417
21
0.363142
0
LINE
8
BLACK
6
CONTINUOUS
10
0.958417
20
0.363142
11
0.955404
21
0.363741
0
LINE
8
BLACK
6
CONTINUOUS
10
0.955404
20
0.363741
11
0.95285
21
0.365448
0
LINE
8
BLACK
6
CONTINUOUS
10
0.95285
20
0.365448
11
0.951143
21
0.368002
0
LINE
8
BLACK
6
CONTINUOUS
10
0.951143
20
0.368002
11
0.950543
21
0.371016
0
LINE
8
BLACK
6
CONTINUOUS
10
0.950543
20
0.371016
11
0.950543
21
0.437016
0
LINE
8
BLACK
6
CONTINUOUS
10
0.950543
20
0.437016
11
0.951143
21
0.440029
0
LINE
8
BLACK
6
CONTINUOUS
10
0.951143
20
0.440029
11
0.95285
21
0.442584
0
LINE
8
BLACK
6
CONTINUOUS
10
0.95285
20
0.442584
11
0.955404
21
0.44429
0
LINE
8
BLACK
6
CONTINUOUS
10
0.955404
20
0.44429
11
0.958417
21
0.44489
0
LINE
8
BLACK
6
CONTINUOUS
10
0.958417
20
0.44489
11
1.02442
21
0.44489
0
LINE
8
BLACK
6
CONTINUOUS
10
1.02442
20
0.44489
11
1.02743
21
0.44429
0
LINE
8
BLACK
6
CONTINUOUS
10
1.2046
20
0.44429
11
1.20715
21
0.442584
0
LINE
8
BLACK
6
CONTINUOUS
10
1.20715
20
0.442584
11
1.20886
21
0.440029
0
LINE
8
BLACK
6
CONTINUOUS
10
1.20886
20
0.440029
11
1.20946
21
0.437016
0
LINE
8
BLACK
6
CONTINUOUS
10
1.20946
20
0.437016
11
1.20946
21
0.371016
0
LINE
8
BLACK
6
CONTINUOUS
10
1.20946
20
0.371016
11
1.20886
21
0.368002
0
LINE
8
BLACK
6
CONTINUOUS
10
1.20886
20
0.368002
11
1.20715
21
0.365448
0
LINE
8
BLACK
6
CONTINUOUS
10
1.20715
20
0.365448
11
1.2046
21
0.363741
0
LINE
8
BLACK
6
CONTINUOUS
10
1.2046
20
0.363741
11
1.20158
21
0.363142
0
LINE
8
BLACK
6
CONTINUOUS
10
1.20158
20
0.363142
11
1.13558
21
0.363142
0
LINE
8
BLACK
6
CONTINUOUS
10
1.13558
20
0.363142
11
1.13257
21
0.363741
0
LINE
8
BLACK
6
CONTINUOUS
10
1.13257
20
0.363741
11
1.13001
21
0.365448
0
LINE
8
BLACK
6
CONTINUOUS
10
1.13001
20
0.365448
11
1.12831
21
0.368002
0
LINE
8
BLACK
6
CONTINUOUS
10
1.12831
20
0.368002
11
1.12771
21
0.371016
0
LINE
8
BLACK
6
CONTINUOUS
10
1.12771
20
0.371016
11
1.12771
21
0.437016
0
LINE
8
BLACK
6
CONTINUOUS
10
1.12771
20
0.437016
11
1.12831
21
0.440029
0
LINE
8
BLACK
6
CONTINUOUS
10
1.12831
20
0.440029
11
1.13001
21
0.442584
0
LINE
8
BLACK
6
CONTINUOUS
10
1.13001
20
0.442584
11
1.13257
21
0.44429
0
LINE
8
BLACK
6
CONTINUOUS
10
1.13257
20
0.44429
11
1.13558
21
0.44489
0
LINE
8
BLACK
6
CONTINUOUS
10
1.13558
20
0.44489
11
1.20158
21
0.44489
0
LINE
8
BLACK
6
CONTINUOUS
10
1.20158
20
0.44489
11
1.2046
21
0.44429
0
LINE
8
BLACK
6
CONTINUOUS
10
0.310887
20
0.886015
11
0.313442
21
0.884308
0
LINE
8
BLACK
6
CONTINUOUS
10
0.313442
20
0.884308
11
0.315149
21
0.881753
0
LINE
8
BLACK
6
CONTINUOUS
10
0.315149
20
0.881753
11
0.315748
21
0.87874
0
LINE
8
BLACK
6
CONTINUOUS
10
0.315748
20
0.87874
11
0.315748
21
0.72126
0
LINE
8
BLACK
6
CONTINUOUS
10
0.315748
20
0.72126
11
0.315149
21
0.718247
0
LINE
8
BLACK
6
CONTINUOUS
10
0.315149
20
0.718247
11
0.313442
21
0.715692
0
LINE
8
BLACK
6
CONTINUOUS
10
0.313442
20
0.715692
11
0.310887
21
0.713985
0
LINE
8
BLACK
6
CONTINUOUS
10
0.310887
20
0.713985
11
0.307874
21
0.713386
0
LINE
8
BLACK
6
CONTINUOUS
10
0.307874
20
0.713386
11
0.111024
21
0.713386
0
LINE
8
BLACK
6
CONTINUOUS
10
0.111024
20
0.713386
11
0.10801
21
0.713985
0
LINE
8
BLACK
6
CONTINUOUS
10
0.10801
20
0.713985
11
0.105456
21
0.715692
0
LINE
8
BLACK
6
CONTINUOUS
10
0.105456
20
0.715692
11
0.103749
21
0.718247
0
LINE
8
BLACK
6
CONTINUOUS
10
0.103749
20
0.718247
11
0.10315
21
0.72126
0
LINE
8
BLACK
6
CONTINUOUS
10
0.10315
20
0.72126
11
0.10315
21
0.87874
0
LINE
8
BLACK
6
CONTINUOUS
10
0.10315
20
0.87874
11
0.103749
21
0.881753
0
LINE
8
BLACK
6
CONTINUOUS
10
0.103749
20
0.881753
11
0.105456
21
0.884308
0
LINE
8
BLACK
6
CONTINUOUS
10
0.105456
20
0.884308
11
0.10801
21
0.886015
0
LINE
8
BLACK
6
CONTINUOUS
10
0.10801
20
0.886015
11
0.111024
21
0.886614
0
LINE
8
BLACK
6
CONTINUOUS
10
0.111024
20
0.886614
11
0.307874
21
0.886614
0
LINE
8
BLACK
6
CONTINUOUS
10
0.307874
20
0.886614
11
0.310887
21
0.886015
0
LINE
8
BLACK
6
CONTINUOUS
10
1.49199
20
0.886015
11
1.49454
21
0.884308
0
LINE
8
BLACK
6
CONTINUOUS
10
1.49454
20
0.884308
11
1.49625
21
0.881753
0
LINE
8
BLACK
6
CONTINUOUS
10
1.49625
20
0.881753
11
1.49685
21
0.87874
0
LINE
8
BLACK
6
CONTINUOUS
10
1.49685
20
0.87874
11
1.49685
21
0.72126
0
LINE
8
BLACK
6
CONTINUOUS
10
1.49685
20
0.72126
11
1.49625
21
0.718247
0
LINE
8
BLACK
6
CONTINUOUS
10
1.49625
20
0.718247
11
1.49454
21
0.715692
0
LINE
8
BLACK
6
CONTINUOUS
10
1.49454
20
0.715692
11
1.49199
21
0.713985
0
LINE
8
BLACK
6
CONTINUOUS
10
1.49199
20
0.713985
11
1.48898
21
0.713386
0
LINE
8
BLACK
6
CONTINUOUS
10
1.48898
20
0.713386
11
1.29213
21
0.713386
0
LINE
8
BLACK
6
CONTINUOUS
10
1.29213
20
0.713386
11
1.28911
21
0.713985
0
LINE
8
BLACK
6
CONTINUOUS
10
1.28911
20
0.713985
11
1.28656
21
0.715692
0
LINE
8
BLACK
6
CONTINUOUS
10
1.28656
20
0.715692
11
1.28485
21
0.718247
0
LINE
8
BLACK
6
CONTINUOUS
10
1.28485
20
0.718247
11
1.28425
21
0.72126
0
LINE
8
BLACK
6
CONTINUOUS
10
1.28425
20
0.72126
11
1.28425
21
0.87874
0
LINE
8
BLACK
6
CONTINUOUS
10
1.28425
20
0.87874
11
1.28485
21
0.881753
0
LINE
8
BLACK
6
CONTINUOUS
10
1.28485
20
0.881753
11
1.28656
21
0.884308
0
LINE
8
BLACK
6
CONTINUOUS
10
1.28656
20
0.884308
11
1.28911
21
0.886015
0
LINE
8
BLACK
6
CONTINUOUS
10
1.28911
20
0.886015
11
1.29213
21
0.886614
0
LINE
8
BLACK
6
CONTINUOUS
10
1.29213
20
0.886614
11
1.48898
21
0.886614
0
LINE
8
BLACK
6
CONTINUOUS
10
1.48898
20
0.886614
11
1.49199
21
0.886015
0
LINE
8
BLACK
6
CONTINUOUS
10
0.214106
20
1.52519
11
0.228034
21
1.52283
0
LINE
8
BLACK
6
CONTINUOUS
10
0.228034
20
1.52283
11
0.24161
21
1.51891
0
LINE
8
BLACK
6
CONTINUOUS
10
0.24161
20
1.51891
11
0.254663
21
1.51351
0
LINE
8
BLACK
6
CONTINUOUS
10
0.254663
20
1.51351
11
0.267028
21
1.50667
0
LINE
8
BLACK
6
CONTINUOUS
10
0.267028
20
1.50667
11
0.27855
21
1.4985
0
LINE
8
BLACK
6
CONTINUOUS
10
0.27855
20
1.4985
11
0.289084
21
1.48908
0
LINE
8
BLACK
6
CONTINUOUS
10
0.289084
20
1.48908
11
0.298498
21
1.47855
0
LINE
8
BLACK
6
CONTINUOUS
10
0.298498
20
1.47855
11
0.306674
21
1.46703
0
LINE
8
BLACK
6
CONTINUOUS
10
0.306674
20
1.46703
11
0.313508
21
1.45466
0
LINE
8
BLACK
6
CONTINUOUS
10
0.313508
20
1.45466
11
0.318914
21
1.44161
0
LINE
8
BLACK
6
CONTINUOUS
10
0.318914
20
1.44161
11
0.322826
21
1.42803
0
LINE
8
BLACK
6
CONTINUOUS
10
0.322826
20
1.42803
11
0.325192
21
1.41411
0
LINE
8
BLACK
6
CONTINUOUS
10
0.325192
20
1.41411
11
0.325984
21
1.4
0
LINE
8
BLACK
6
CONTINUOUS
10
0.325984
20
1.4
11
0.325192
21
1.38589
0
LINE
8
BLACK
6
CONTINUOUS
10
0.325192
20
1.38589
11
0.322826
21
1.37197
0
LINE
8
BLACK
6
CONTINUOUS
10
0.322826
20
1.37197
11
0.318914
21
1.35839
0
LINE
8
BLACK
6
CONTINUOUS
10
0.318914
20
1.35839
11
0.313508
21
1.34534
0
LINE
8
BLACK
6
CONTINUOUS
10
0.313508
20
1.34534
11
0.306674
21
1.33297
0
LINE
8
BLACK
6
CONTINUOUS
10
0.306674
20
1.33297
11
0.298498
21
1.32145
0
LINE
8
BLACK
6
CONTINUOUS
10
0.298498
20
1.32145
11
0.289084
21
1.31092
0
LINE
8
BLACK
6
CONTINUOUS
10
0.289084
20
1.31092
11
0.27855
21
1.3015
0
LINE
8
BLACK
6
CONTINUOUS
10
0.27855
20
1.3015
11
0.267028
21
1.29333
0
LINE
8
BLACK
6
CONTINUOUS
10
0.267028
20
1.29333
11
0.254663
21
1.28649
0
LINE
8
BLACK
6
CONTINUOUS
10
0.254663
20
1.28649
11
0.24161
21
1.28109
0
LINE
8
BLACK
6
CONTINUOUS
10
0.24161
20
1.28109
11
0.228034
21
1.27717
0
LINE
8
BLACK
6
CONTINUOUS
10
0.228034
20
1.27717
11
0.214106
21
1.27481
0
LINE
8
BLACK
6
CONTINUOUS
10
0.214106
20
1.27481
11
0.2
21
1.27402
0
LINE
8
BLACK
6
CONTINUOUS
10
0.2
20
1.27402
11
0.185894
21
1.27481
0
LINE
8
BLACK
6
CONTINUOUS
10
0.185894
20
1.27481
11
0.171966
21
1.27717
0
LINE
8
BLACK
6
CONTINUOUS
10
0.171966
20
1.27717
11
0.15839
21
1.28109
0
LINE
8
BLACK
6
CONTINUOUS
10
0.15839
20
1.28109
11
0.145337
21
1.28649
0
LINE
8
BLACK
6
CONTINUOUS
10
0.145337
20
1.28649
11
0.132972
21
1.29333
0
LINE
8
BLACK
6
CONTINUOUS
10
0.132972
20
1.29333
11
0.12145
21
1.3015
0
LINE
8
BLACK
6
CONTINUOUS
10
0.12145
20
1.3015
11
0.110916
21
1.31092
0
LINE
8
BLACK
6
CONTINUOUS
10
0.110916
20
1.31092
11
0.101502
21
1.32145
0
LINE
8
BLACK
6
CONTINUOUS
10
0.101502
20
1.32145
11
0.0933261
21
1.33297
0
LINE
8
BLACK
6
CONTINUOUS
10
0.0933261
20
1.33297
11
0.0864921
21
1.34534
0
LINE
8
BLACK
6
CONTINUOUS
10
0.0864921
20
1.34534
11
0.0810856
21
1.35839
0
LINE
8
BLACK
6
CONTINUOUS
10
0.0810856
20
1.35839
11
0.0771744
21
1.37197
0
LINE
8
BLACK
6
CONTINUOUS
10
0.0771744
20
1.37197
11
0.0748079
21
1.38589
0
LINE
8
BLACK
6
CONTINUOUS
10
0.0748079
20
1.38589
11
0.0740157
21
1.4
0
LINE
8
BLACK
6
CONTINUOUS
10
0.0740157
20
1.4
11
0.0748079
21
1.41411
0
LINE
8
BLACK
6
CONTINUOUS
10
0.0748079
20
1.41411
11
0.0771744
21
1.42803
0
LINE
8
BLACK
6
CONTINUOUS
10
0.0771744
20
1.42803
11
0.0810856
21
1.44161
0
LINE
8
BLACK
6
CONTINUOUS
10
0.0810856
20
1.44161
11
0.0864921
21
1.45466
0
LINE
8
BLACK
6
CONTINUOUS
10
0.0864921
20
1.45466
11
0.0933261
21
1.46703
0
LINE
8
BLACK
6
CONTINUOUS
10
0.0933261
20
1.46703
11
0.101502
21
1.47855
0
LINE
8
BLACK
6
CONTINUOUS
10
0.101502
20
1.47855
11
0.110916
21
1.48908
0
LINE
8
BLACK
6
CONTINUOUS
10
0.110916
20
1.48908
11
0.12145
21
1.4985
0
LINE
8
BLACK
6
CONTINUOUS
10
0.12145
20
1.4985
11
0.132972
21
1.50667
0
LINE
8
BLACK
6
CONTINUOUS
10
0.132972
20
1.50667
11
0.145337
21
1.51351
0
LINE
8
BLACK
6
CONTINUOUS
10
0.145337
20
1.51351
11
0.15839
21
1.51891
0
LINE
8
BLACK
6
CONTINUOUS
10
0.15839
20
1.51891
11
0.171966
21
1.52283
0
LINE
8
BLACK
6
CONTINUOUS
10
0.171966
20
1.52283
11
0.185894
21
1.52519
0
LINE
8
BLACK
6
CONTINUOUS
10
0.185894
20
1.52519
11
0.2
21
1.52598
0
LINE
8
BLACK
6
CONTINUOUS
10
0.2
20
1.52598
11
0.214106
21
1.52519
0
LINE
8
BLACK
6
CONTINUOUS
10
1.41411
20
1.52519
11
1.42803
21
1.52283
0
LINE
8
BLACK
6
CONTINUOUS
10
1.42803
20
1.52283
11
1.44161
21
1.51891
0
LINE
8
BLACK
6
CONTINUOUS
10
1.44161
20
1.51891
11
1.45466
21
1.51351
0
LINE
8
BLACK
6
CONTINUOUS
10
1.45466
20
1.51351
11
1.46703
21
1.50667
0
LINE
8
BLACK
6
CONTINUOUS
10
1.46703
20
1.50667
11
1.47855
21
1.4985
0
LINE
8
BLACK
6
CONTINUOUS
10
1.47855
20
1.4985
11
1.48908
21
1.48908
0
LINE
8
BLACK
6
CONTINUOUS
10
1.48908
20
1.48908
11
1.4985
21
1.47855
0
LINE
8
BLACK
6
CONTINUOUS
10
1.4985
20
1.47855
11
1.50667
21
1.46703
0
LINE
8
BLACK
6
CONTINUOUS
10
1.50667
20
1.46703
11
1.51351
21
1.45466
0
LINE
8
BLACK
6
CONTINUOUS
10
1.51351
20
1.45466
11
1.51891
21
1.44161
0
LINE
8
BLACK
6
CONTINUOUS
10
1.51891
20
1.44161
11
1.52283
21
1.42803
0
LINE
8
BLACK
6
CONTINUOUS
10
1.52283
20
1.42803
11
1.52519
21
1.41411
0
LINE
8
BLACK
6
CONTINUOUS
10
1.52519
20
1.41411
11
1.52598
21
1.4
0
LINE
8
BLACK
6
CONTINUOUS
10
1.52598
20
1.4
11
1.52519
21
1.38589
0
LINE
8
BLACK
6
CONTINUOUS
10
1.52519
20
1.38589
11
1.52283
21
1.37197
0
LINE
8
BLACK
6
CONTINUOUS
10
1.52283
20
1.37197
11
1.51891
21
1.35839
0
LINE
8
BLACK
6
CONTINUOUS
10
1.51891
20
1.35839
11
1.51351
21
1.34534
0
LINE
8
BLACK
6
CONTINUOUS
10
1.51351
20
1.34534
11
1.50667
21
1.33297
0
LINE
8
BLACK
6
CONTINUOUS
10
1.50667
20
1.33297
11
1.4985
21
1.32145
0
LINE
8
BLACK
6
CONTINUOUS
10
1.4985
20
1.32145
11
1.48908
21
1.31092
0
LINE
8
BLACK
6
CONTINUOUS
10
1.48908
20
1.31092
11
1.47855
21
1.3015
0
LINE
8
BLACK
6
CONTINUOUS
10
1.47855
20
1.3015
11
1.46703
21
1.29333
0
LINE
8
BLACK
6
CONTINUOUS
10
1.46703
20
1.29333
11
1.45466
21
1.28649
0
LINE
8
BLACK
6
CONTINUOUS
10
1.45466
20
1.28649
11
1.44161
21
1.28109
0
LINE
8
BLACK
6
CONTINUOUS
10
1.44161
20
1.28109
11
1.42803
21
1.27717
0
LINE
8
BLACK
6
CONTINUOUS
10
1.42803
20
1.27717
11
1.41411
21
1.27481
0
LINE
8
BLACK
6
CONTINUOUS
10
1.41411
20
1.27481
11
1.4
21
1.27402
0
LINE
8
BLACK
6
CONTINUOUS
10
1.4
20
1.27402
11
1.38589
21
1.27481
0
LINE
8
BLACK
6
CONTINUOUS
10
1.38589
20
1.27481
11
1.37197
21
1.27717
0
LINE
8
BLACK
6
CONTINUOUS
10
1.37197
20
1.27717
11
1.35839
21
1.28109
0
LINE
8
BLACK
6
CONTINUOUS
10
1.35839
20
1.28109
11
1.34534
21
1.28649
0
LINE
8
BLACK
6
CONTINUOUS
10
1.34534
20
1.28649
11
1.33297
21
1.29333
0
LINE
8
BLACK
6
CONTINUOUS
10
1.33297
20
1.29333
11
1.32145
21
1.3015
0
LINE
8
BLACK
6
CONTINUOUS
10
1.32145
20
1.3015
11
1.31092
21
1.31092
0
LINE
8
BLACK
6
CONTINUOUS
10
1.31092
20
1.31092
11
1.3015
21
1.32145
0
LINE
8
BLACK
6
CONTINUOUS
10
1.3015
20
1.32145
11
1.29333
21
1.33297
0
LINE
8
BLACK
6
CONTINUOUS
10
1.29333
20
1.33297
11
1.28649
21
1.34534
0
LINE
8
BLACK
6
CONTINUOUS
10
1.28649
20
1.34534
11
1.28109
21
1.35839
0
LINE
8
BLACK
6
CONTINUOUS
10
1.28109
20
1.35839
11
1.27717
21
1.37197
0
LINE
8
BLACK
6
CONTINUOUS
10
1.27717
20
1.37197
11
1.27481
21
1.38589
0
LINE
8
BLACK
6
CONTINUOUS
10
1.27481
20
1.38589
11
1.27402
21
1.4
0
LINE
8
BLACK
6
CONTINUOUS
10
1.27402
20
1.4
11
1.27481
21
1.41411
0
LINE
8
BLACK
6
CONTINUOUS
10
1.27481
20
1.41411
11
1.27717
21
1.42803
0
LINE
8
BLACK
6
CONTINUOUS
10
1.27717
20
1.42803
11
1.28109
21
1.44161
0
LINE
8
BLACK
6
CONTINUOUS
10
1.28109
20
1.44161
11
1.28649
21
1.45466
0
LINE
8
BLACK
6
CONTINUOUS
10
1.28649
20
1.45466
11
1.29333
21
1.46703
0
LINE
8
BLACK
6
CONTINUOUS
10
1.29333
20
1.46703
11
1.3015
21
1.47855
0
LINE
8
BLACK
6
CONTINUOUS
10
1.3015
20
1.47855
11
1.31092
21
1.48908
0
LINE
8
BLACK
6
CONTINUOUS
10
1.31092
20
1.48908
11
1.32145
21
1.4985
0
LINE
8
BLACK
6
CONTINUOUS
10
1.32145
20
1.4985
11
1.33297
21
1.50667
0
LINE
8
BLACK
6
CONTINUOUS
10
1.33297
20
1.50667
11
1.34534
21
1.51351
0
LINE
8
BLACK
6
CONTINUOUS
10
1.34534
20
1.51351
11
1.35839
21
1.51891
0
LINE
8
BLACK
6
CONTINUOUS
10
1.35839
20
1.51891
11
1.37197
21
1.52283
0
LINE
8
BLACK
6
CONTINUOUS
10
1.37197
20
1.52283
11
1.38589
21
1.52519
0
LINE
8
BLACK
6
CONTINUOUS
10
1.38589
20
1.52519
11
1.4
21
1.52598
0
LINE
8
BLACK
6
CONTINUOUS
10
1.4
20
1.52598
11
1.41411
21
1.52519
0
LINE
8
BLACK
6
CONTINUOUS
10
0.493013
20
1.39727
11
0.495568
21
1.39557
0
LINE
8
BLACK
6
CONTINUOUS
10
0.495568
20
1.39557
11
0.497275
21
1.39301
0
LINE
8
BLACK
6
CONTINUOUS
10
0.497275
20
1.39301
11
0.497874
21
1.39
0
LINE
8
BLACK
6
CONTINUOUS
10
0.497874
20
1.39
11
0.497874
21
1.33
0
LINE
8
BLACK
6
CONTINUOUS
10
0.497874
20
1.33
11
0.497275
21
1.32699
0
LINE
8
BLACK
6
CONTINUOUS
10
0.497275
20
1.32699
11
0.495568
21
1.32443
0
LINE
8
BLACK
6
CONTINUOUS
10
0.495568
20
1.32443
11
0.493013
21
1.32273
0
LINE
8
BLACK
6
CONTINUOUS
10
0.493013
20
1.32273
11
0.49
21
1.32213
0
LINE
8
BLACK
6
CONTINUOUS
10
0.49
20
1.32213
11
0.43
21
1.32213
0
LINE
8
BLACK
6
CONTINUOUS
10
0.43
20
1.32213
11
0.426987
21
1.32273
0
LINE
8
BLACK
6
CONTINUOUS
10
0.426987
20
1.32273
11
0.424432
21
1.32443
0
LINE
8
BLACK
6
CONTINUOUS
10
0.424432
20
1.32443
11
0.422725
21
1.32699
0
LINE
8
BLACK
6
CONTINUOUS
10
0.422725
20
1.32699
11
0.422126
21
1.33
0
LINE
8
BLACK
6
CONTINUOUS
10
0.422126
20
1.33
11
0.422126
21
1.39
0
LINE
8
BLACK
6
CONTINUOUS
10
0.422126
20
1.39
11
0.422725
21
1.39301
0
LINE
8
BLACK
6
CONTINUOUS
10
0.422725
20
1.39301
11
0.424432
21
1.39557
0
LINE
8
BLACK
6
CONTINUOUS
10
0.424432
20
1.39557
11
0.426987
21
1.39727
0
LINE
8
BLACK
6
CONTINUOUS
10
0.426987
20
1.39727
11
0.43
21
1.39787
0
LINE
8
BLACK
6
CONTINUOUS
10
0.43
20
1.39787
11
0.49
21
1.39787
0
LINE
8
BLACK
6
CONTINUOUS
10
0.49
20
1.39787
11
0.493013
21
1.39727
0
LINE
8
BLACK
6
CONTINUOUS
10
0.593013
20
1.39727
11
0.595568
21
1.39557
0
LINE
8
BLACK
6
CONTINUOUS
10
0.595568
20
1.39557
11
0.597275
21
1.39301
0
LINE
8
BLACK
6
CONTINUOUS
10
0.597275
20
1.39301
11
0.597874
21
1.39
0
LINE
8
BLACK
6
CONTINUOUS
10
0.597874
20
1.39
11
0.597874
21
1.33
0
LINE
8
BLACK
6
CONTINUOUS
10
0.597874
20
1.33
11
0.597275
21
1.32699
0
LINE
8
BLACK
6
CONTINUOUS
10
0.597275
20
1.32699
11
0.595568
21
1.32443
0
LINE
8
BLACK
6
CONTINUOUS
10
0.595568
20
1.32443
11
0.593013
21
1.32273
0
LINE
8
BLACK
6
CONTINUOUS
10
0.593013
20
1.32273
11
0.59
21
1.32213
0
LINE
8
BLACK
6
CONTINUOUS
10
0.59
20
1.32213
11
0.53
21
1.32213
0
LINE
8
BLACK
6
CONTINUOUS
10
0.53
20
1.32213
11
0.526987
21
1.32273
0
LINE
8
BLACK
6
CONTINUOUS
10
0.526987
20
1.32273
11
0.524432
21
1.32443
0
LINE
8
BLACK
6
CONTINUOUS
10
0.524432
20
1.32443
11
0.522725
21
1.32699
0
LINE
8
BLACK
6
CONTINUOUS
10
0.522725
20
1.32699
11
0.522126
21
1.33
0
LINE
8
BLACK
6
CONTINUOUS
10
0.522126
20
1.33
11
0.522126
21
1.39
0
LINE
8
BLACK
6
CONTINUOUS
10
0.522126
20
1.39
11
0.522725
21
1.39301
0
LINE
8
BLACK
6
CONTINUOUS
10
0.522725
20
1.39301
11
0.524432
21
1.39557
0
LINE
8
BLACK
6
CONTINUOUS
10
0.524432
20
1.39557
11
0.526987
21
1.39727
0
LINE
8
BLACK
6
CONTINUOUS
10
0.526987
20
1.39727
11
0.53
21
1.39787
0
LINE
8
BLACK
6
CONTINUOUS
10
0.53
20
1.39787
11
0.59
21
1.39787
0
LINE
8
BLACK
6
CONTINUOUS
10
0.59
20
1.39787
11
0.593013
21
1.39727
0
LINE
8
BLACK
6
CONTINUOUS
10
0.693013
20
1.39727
11
0.695568
21
1.39557
0
LINE
8
BLACK
6
CONTINUOUS
10
0.695568
20
1.39557
11
0.697275
21
1.39301
0
LINE
8
BLACK
6
CONTINUOUS
10
0.697275
20
1.39301
11
0.697874
21
1.39
0
LINE
8
BLACK
6
CONTINUOUS
10
0.697874
20
1.39
11
0.697874
21
1.33
0
LINE
8
BLACK
6
CONTINUOUS
10
0.697874
20
1.33
11
0.697275
21
1.32699
0
LINE
8
BLACK
6
CONTINUOUS
10
0.697275
20
1.32699
11
0.695568
21
1.32443
0
LINE
8
BLACK
6
CONTINUOUS
10
0.695568
20
1.32443
11
0.693013
21
1.32273
0
LINE
8
BLACK
6
CONTINUOUS
10
0.693013
20
1.32273
11
0.69
21
1.32213
0
LINE
8
BLACK
6
CONTINUOUS
10
0.69
20
1.32213
11
0.63
21
1.32213
0
LINE
8
BLACK
6
CONTINUOUS
10
0.63
20
1.32213
11
0.626987
21
1.32273
0
LINE
8
BLACK
6
CONTINUOUS
10
0.626987
20
1.32273
11
0.624432
21
1.32443
0
LINE
8
BLACK
6
CONTINUOUS
10
0.624432
20
1.32443
11
0.622725
21
1.32699
0
LINE
8
BLACK
6
CONTINUOUS
10
0.622725
20
1.32699
11
0.622126
21
1.33
0
LINE
8
BLACK
6
CONTINUOUS
10
0.622126
20
1.33
11
0.622126
21
1.39
0
LINE
8
BLACK
6
CONTINUOUS
10
0.622126
20
1.39
11
0.622725
21
1.39301
0
LINE
8
BLACK
6
CONTINUOUS
10
0.622725
20
1.39301
11
0.624432
21
1.39557
0
LINE
8
BLACK
6
CONTINUOUS
10
0.624432
20
1.39557
11
0.626987
21
1.39727
0
LINE
8
BLACK
6
CONTINUOUS
10
0.626987
20
1.39727
11
0.63
21
1.39787
0
LINE
8
BLACK
6
CONTINUOUS
10
0.63
20
1.39787
11
0.69
21
1.39787
0
LINE
8
BLACK
6
CONTINUOUS
10
0.69
20
1.39787
11
0.693013
21
1.39727
0
LINE
8
BLACK
6
CONTINUOUS
10
0.793013
20
1.39727
11
0.795568
21
1.39557
0
LINE
8
BLACK
6
CONTINUOUS
10
0.795568
20
1.39557
11
0.797275
21
1.39301
0
LINE
8
BLACK
6
CONTINUOUS
10
0.797275
20
1.39301
11
0.797874
21
1.39
0
LINE
8
BLACK
6
CONTINUOUS
10
0.797874
20
1.39
11
0.797874
21
1.33
0
LINE
8
BLACK
6
CONTINUOUS
10
0.797874
20
1.33
11
0.797275
21
1.32699
0
LINE
8
BLACK
6
CONTINUOUS
10
0.797275
20
1.32699
11
0.795568
21
1.32443
0
LINE
8
BLACK
6
CONTINUOUS
10
0.795568
20
1.32443
11
0.793013
21
1.32273
0
LINE
8
BLACK
6
CONTINUOUS
10
0.793013
20
1.32273
11
0.79
21
1.32213
0
LINE
8
BLACK
6
CONTINUOUS
10
0.79
20
1.32213
11
0.73
21
1.32213
0
LINE
8
BLACK
6
CONTINUOUS
10
0.73
20
1.32213
11
0.726987
21
1.32273
0
LINE
8
BLACK
6
CONTINUOUS
10
0.726987
20
1.32273
11
0.724432
21
1.32443
0
LINE
8
BLACK
6
CONTINUOUS
10
0.724432
20
1.32443
11
0.722725
21
1.32699
0
LINE
8
BLACK
6
CONTINUOUS
10
0.722725
20
1.32699
11
0.722126
21
1.33
0
LINE
8
BLACK
6
CONTINUOUS
10
0.722126
20
1.33
11
0.722126
21
1.39
0
LINE
8
BLACK
6
CONTINUOUS
10
0.722126
20
1.39
11
0.722725
21
1.39301
0
LINE
8
BLACK
6
CONTINUOUS
10
0.722725
20
1.39301
11
0.724432
21
1.39557
0
LINE
8
BLACK
6
CONTINUOUS
10
0.724432
20
1.39557
11
0.726987
21
1.39727
0
LINE
8
BLACK
6
CONTINUOUS
10
0.726987
20
1.39727
11
0.73
21
1.39787
0
LINE
8
BLACK
6
CONTINUOUS
10
0.73
20
1.39787
11
0.79
21
1.39787
0
LINE
8
BLACK
6
CONTINUOUS
10
0.79
20
1.39787
11
0.793013
21
1.39727
0
LINE
8
BLACK
6
CONTINUOUS
10
0.893013
20
1.39727
11
0.895568
21
1.39557
0
LINE
8
BLACK
6
CONTINUOUS
10
0.895568
20
1.39557
11
0.897275
21
1.39301
0
LINE
8
BLACK
6
CONTINUOUS
10
0.897275
20
1.39301
11
0.897874
21
1.39
0
LINE
8
BLACK
6
CONTINUOUS
10
0.897874
20
1.39
11
0.897874
21
1.33
0
LINE
8
BLACK
6
CONTINUOUS
10
0.897874
20
1.33
11
0.897275
21
1.32699
0
LINE
8
BLACK
6
CONTINUOUS
10
0.897275
20
1.32699
11
0.895568
21
1.32443
0
LINE
8
BLACK
6
CONTINUOUS
10
0.895568
20
1.32443
11
0.893013
21
1.32273
0
LINE
8
BLACK
6
CONTINUOUS
10
0.893013
20
1.32273
11
0.89
21
1.32213
0
LINE
8
BLACK
6
CONTINUOUS
10
0.89
20
1.32213
11
0.83
21
1.32213
0
LINE
8
BLACK
6
CONTINUOUS
10
0.83
20
1.32213
11
0.826987
21
1.32273
0
LINE
8
BLACK
6
CONTINUOUS
10
0.826987
20
1.32273
11
0.824432
21
1.32443
0
LINE
8
BLACK
6
CONTINUOUS
10
0.824432
20
1.32443
11
0.822725
21
1.32699
0
LINE
8
BLACK
6
CONTINUOUS
10
0.822725
20
1.32699
11
0.822126
21
1.33
0
LINE
8
BLACK
6
CONTINUOUS
10
0.822126
20
1.33
11
0.822126
21
1.39
0
LINE
8
BLACK
6
CONTINUOUS
10
0.822126
20
1.39
11
0.822725
21
1.39301
0
LINE
8
BLACK
6
CONTINUOUS
10
0.822725
20
1.39301
11
0.824432
21
1.39557
0
LINE
8
BLACK
6
CONTINUOUS
10
0.824432
20
1.39557
11
0.826987
21
1.39727
0
LINE
8
BLACK
6
CONTINUOUS
10
0.826987
20
1.39727
11
0.83
21
1.39787
0
LINE
8
BLACK
6
CONTINUOUS
10
0.83
20
1.39787
11
0.89
21
1.39787
0
LINE
8
BLACK
6
CONTINUOUS
10
0.89
20
1.39787
11
0.893013
21
1.39727
0
LINE
8
BLACK
6
CONTINUOUS
10
1.10955
20
1.46027
11
1.11886
21
1.45804
0
LINE
8
BLACK
6
CONTINUOUS
10
1.11886
20
1.45804
11
1.1277
21
1.45437
0
LINE
8
BLACK
6
CONTINUOUS
10
1.1277
20
1.45437
11
1.13587
21
1.44937
0
LINE
8
BLACK
6
CONTINUOUS
10
1.13587
20
1.44937
11
1.14315
21
1.44315
0
LINE
8
BLACK
6
CONTINUOUS
10
1.14315
20
1.44315
11
1.14937
21
1.43587
0
LINE
8
BLACK
6
CONTINUOUS
10
1.14937
20
1.43587
11
1.15437
21
1.4277
0
LINE
8
BLACK
6
CONTINUOUS
10
1.15437
20
1.4277
11
1.15804
21
1.41886
0
LINE
8
BLACK
6
CONTINUOUS
10
1.15804
20
1.41886
11
1.16027
21
1.40955
0
LINE
8
BLACK
6
CONTINUOUS
10
1.16027
20
1.40955
11
1.16102
21
1.4
0
LINE
8
BLACK
6
CONTINUOUS
10
1.16102
20
1.4
11
1.16027
21
1.39045
0
LINE
8
BLACK
6
CONTINUOUS
10
1.16027
20
1.39045
11
1.15804
21
1.38114
0
LINE
8
BLACK
6
CONTINUOUS
10
1.15804
20
1.38114
11
1.15437
21
1.3723
0
LINE
8
BLACK
6
CONTINUOUS
10
1.15437
20
1.3723
11
1.14937
21
1.36413
0
LINE
8
BLACK
6
CONTINUOUS
10
1.14937
20
1.36413
11
1.14315
21
1.35685
0
LINE
8
BLACK
6
CONTINUOUS
10
1.14315
20
1.35685
11
1.13587
21
1.35063
0
LINE
8
BLACK
6
CONTINUOUS
10
1.13587
20
1.35063
11
1.1277
21
1.34563
0
LINE
8
BLACK
6
CONTINUOUS
10
1.1277
20
1.34563
11
1.11886
21
1.34196
0
LINE
8
BLACK
6
CONTINUOUS
10
1.11886
20
1.34196
11
1.10955
21
1.33973
0
LINE
8
BLACK
6
CONTINUOUS
10
1.10955
20
1.33973
11
1.1
21
1.33898
0
LINE
8
BLACK
6
CONTINUOUS
10
1.1
20
1.33898
11
1.09045
21
1.33973
0
LINE
8
BLACK
6
CONTINUOUS
10
1.09045
20
1.33973
11
1.08114
21
1.34196
0
LINE
8
BLACK
6
CONTINUOUS
10
1.08114
20
1.34196
11
1.0723
21
1.34563
0
LINE
8
BLACK
6
CONTINUOUS
10
1.0723
20
1.34563
11
1.06413
21
1.35063
0
LINE
8
BLACK
6
CONTINUOUS
10
1.06413
20
1.35063
11
1.05685
21
1.35685
0
LINE
8
BLACK
6
CONTINUOUS
10
1.05685
20
1.35685
11
1.05063
21
1.36413
0
LINE
8
BLACK
6
CONTINUOUS
10
1.05063
20
1.36413
11
1.04563
21
1.3723
0
LINE
8
BLACK
6
CONTINUOUS
10
1.04563
20
1.3723
11
1.04196
21
1.38114
0
LINE
8
BLACK
6
CONTINUOUS
10
1.04196
20
1.38114
11
1.03973
21
1.39045
0
LINE
8
BLACK
6
CONTINUOUS
10
1.03973
20
1.39045
11
1.03898
21
1.4
0
LINE
8
BLACK
6
CONTINUOUS
10
1.03898
20
1.4
11
1.03973
21
1.40955
0
LINE
8
BLACK
6
CONTINUOUS
10
1.03973
20
1.40955
11
1.04196
21
1.41886
0
LINE
8
BLACK
6
CONTINUOUS
10
1.04196
20
1.41886
11
1.04563
21
1.4277
0
LINE
8
BLACK
6
CONTINUOUS
10
1.04563
20
1.4277
11
1.05063
21
1.43587
0
LINE
8
BLACK
6
CONTINUOUS
10
1.05063
20
1.43587
11
1.05685
21
1.44315
0
LINE
8
BLACK
6
CONTINUOUS
10
1.05685
20
1.44315
11
1.06413
21
1.44937
0
LINE
8
BLACK
6
CONTINUOUS
10
1.06413
20
1.44937
11
1.0723
21
1.45437
0
LINE
8
BLACK
6
CONTINUOUS
10
1.0723
20
1.45437
11
1.08114
21
1.45804
0
LINE
8
BLACK
6
CONTINUOUS
10
1.08114
20
1.45804
11
1.09045
21
1.46027
0
LINE
8
BLACK
6
CONTINUOUS
10
1.09045
20
1.46027
11
1.1
21
1.46102
0
LINE
8
BLACK
6
CONTINUOUS
10
1.1
20
1.46102
11
1.10955
21
1.46027
0
LINE
8
BLACK
6
CONTINUOUS
10
0.493013
20
1.49727
11
0.495568
21
1.49557
0
LINE
8
BLACK
6
CONTINUOUS
10
0.495568
20
1.49557
11
0.497275
21
1.49301
0
LINE
8
BLACK
6
CONTINUOUS
10
0.497275
20
1.49301
11
0.497874
21
1.49
0
LINE
8
BLACK
6
CONTINUOUS
10
0.497874
20
1.49
11
0.497874
21
1.43
0
LINE
8
BLACK
6
CONTINUOUS
10
0.497874
20
1.43
11
0.497275
21
1.42699
0
LINE
8
BLACK
6
CONTINUOUS
10
0.497275
20
1.42699
11
0.495568
21
1.42443
0
LINE
8
BLACK
6
CONTINUOUS
10
0.495568
20
1.42443
11
0.493013
21
1.42273
0
LINE
8
BLACK
6
CONTINUOUS
10
0.493013
20
1.42273
11
0.49
21
1.42213
0
LINE
8
BLACK
6
CONTINUOUS
10
0.49
20
1.42213
11
0.43
21
1.42213
0
LINE
8
BLACK
6
CONTINUOUS
10
0.43
20
1.42213
11
0.426987
21
1.42273
0
LINE
8
BLACK
6
CONTINUOUS
10
0.426987
20
1.42273
11
0.424432
21
1.42443
0
LINE
8
BLACK
6
CONTINUOUS
10
0.424432
20
1.42443
11
0.422725
21
1.42699
0
LINE
8
BLACK
6
CONTINUOUS
10
0.422725
20
1.42699
11
0.422126
21
1.43
0
LINE
8
BLACK
6
CONTINUOUS
10
0.422126
20
1.43
11
0.422126
21
1.49
0
LINE
8
BLACK
6
CONTINUOUS
10
0.422126
20
1.49
11
0.422725
21
1.49301
0
LINE
8
BLACK
6
CONTINUOUS
10
0.422725
20
1.49301
11
0.424432
21
1.49557
0
LINE
8
BLACK
6
CONTINUOUS
10
0.424432
20
1.49557
11
0.426987
21
1.49727
0
LINE
8
BLACK
6
CONTINUOUS
10
0.426987
20
1.49727
11
0.43
21
1.49787
0
LINE
8
BLACK
6
CONTINUOUS
10
0.43
20
1.49787
11
0.49
21
1.49787
0
LINE
8
BLACK
6
CONTINUOUS
10
0.49
20
1.49787
11
0.493013
21
1.49727
0
LINE
8
BLACK
6
CONTINUOUS
10
0.593013
20
1.49727
11
0.595568
21
1.49557
0
LINE
8
BLACK
6
CONTINUOUS
10
0.595568
20
1.49557
11
0.597275
21
1.49301
0
LINE
8
BLACK
6
CONTINUOUS
10
0.597275
20
1.49301
11
0.597874
21
1.49
0
LINE
8
BLACK
6
CONTINUOUS
10
0.597874
20
1.49
11
0.597874
21
1.43
0
LINE
8
BLACK
6
CONTINUOUS
10
0.597874
20
1.43
11
0.597275
21
1.42699
0
LINE
8
BLACK
6
CONTINUOUS
10
0.597275
20
1.42699
11
0.595568
21
1.42443
0
LINE
8
BLACK
6
CONTINUOUS
10
0.595568
20
1.42443
11
0.593013
21
1.42273
0
LINE
8
BLACK
6
CONTINUOUS
10
0.593013
20
1.42273
11
0.59
21
1.42213
0
LINE
8
BLACK
6
CONTINUOUS
10
0.59
20
1.42213
11
0.53
21
1.42213
0
LINE
8
BLACK
6
CONTINUOUS
10
0.53
20
1.42213
11
0.526987
21
1.42273
0
LINE
8
BLACK
6
CONTINUOUS
10
0.526987
20
1.42273
11
0.524432
21
1.42443
0
LINE
8
BLACK
6
CONTINUOUS
10
0.524432
20
1.42443
11
0.522725
21
1.42699
0
LINE
8
BLACK
6
CONTINUOUS
10
0.522725
20
1.42699
11
0.522126
21
1.43
0
LINE
8
BLACK
6
CONTINUOUS
10
0.522126
20
1.43
11
0.522126
21
1.49
0
LINE
8
BLACK
6
CONTINUOUS
10
0.522126
20
1.49
11
0.522725
21
1.49301
0
LINE
8
BLACK
6
CONTINUOUS
10
0.522725
20
1.49301
11
0.524432
21
1.49557
0
LINE
8
BLACK
6
CONTINUOUS
10
0.524432
20
1.49557
11
0.526987
21
1.49727
0
LINE
8
BLACK
6
CONTINUOUS
10
0.526987
20
1.49727
11
0.53
21
1.49787
0
LINE
8
BLACK
6
CONTINUOUS
10
0.53
20
1.49787
11
0.59
21
1.49787
0
LINE
8
BLACK
6
CONTINUOUS
10
0.59
20
1.49787
11
0.593013
21
1.49727
0
LINE
8
BLACK
6
CONTINUOUS
10
0.693013
20
1.49727
11
0.695568
21
1.49557
0
LINE
8
BLACK
6
CONTINUOUS
10
0.695568
20
1.49557
11
0.697275
21
1.49301
0
LINE
8
BLACK
6
CONTINUOUS
10
0.697275
20
1.49301
11
0.697874
21
1.49
0
LINE
8
BLACK
6
CONTINUOUS
10
0.697874
20
1.49
11
0.697874
21
1.43
0
LINE
8
BLACK
6
CONTINUOUS
10
0.697874
20
1.43
11
0.697275
21
1.42699
0
LINE
8
BLACK
6
CONTINUOUS
10
0.697275
20
1.42699
11
0.695568
21
1.42443
0
LINE
8
BLACK
6
CONTINUOUS
10
0.695568
20
1.42443
11
0.693013
21
1.42273
0
LINE
8
BLACK
6
CONTINUOUS
10
0.693013
20
1.42273
11
0.69
21
1.42213
0
LINE
8
BLACK
6
CONTINUOUS
10
0.69
20
1.42213
11
0.63
21
1.42213
0
LINE
8
BLACK
6
CONTINUOUS
10
0.63
20
1.42213
11
0.626987
21
1.42273
0
LINE
8
BLACK
6
CONTINUOUS
10
0.626987
20
1.42273
11
0.624432
21
1.42443
0
LINE
8
BLACK
6
CONTINUOUS
10
0.624432
20
1.42443
11
0.622725
21
1.42699
0
LINE
8
BLACK
6
CONTINUOUS
10
0.622725
20
1.42699
11
0.622126
21
1.43
0
LINE
8
BLACK
6
CONTINUOUS
10
0.622126
20
1.43
11
0.622126
21
1.49
0
LINE
8
BLACK
6
CONTINUOUS
10
0.622126
20
1.49
11
0.622725
21
1.49301
0
LINE
8
BLACK
6
CONTINUOUS
10
0.622725
20
1.49301
11
0.624432
21
1.49557
0
LINE
8
BLACK
6
CONTINUOUS
10
0.624432
20
1.49557
11
0.626987
21
1.49727
0
LINE
8
BLACK
6
CONTINUOUS
10
0.626987
20
1.49727
11
0.63
21
1.49787
0
LINE
8
BLACK
6
CONTINUOUS
10
0.63
20
1.49787
11
0.69
21
1.49787
0
LINE
8
BLACK
6
CONTINUOUS
10
0.69
20
1.49787
11
0.693013
21
1.49727
0
LINE
8
BLACK
6
CONTINUOUS
10
0.793013
20
1.49727
11
0.795568
21
1.49557
0
LINE
8
BLACK
6
CONTINUOUS
10
0.795568
20
1.49557
11
0.797275
21
1.49301
0
LINE
8
BLACK
6
CONTINUOUS
10
0.797275
20
1.49301
11
0.797874
21
1.49
0
LINE
8
BLACK
6
CONTINUOUS
10
0.797874
20
1.49
11
0.797874
21
1.43
0
LINE
8
BLACK
6
CONTINUOUS
10
0.797874
20
1.43
11
0.797275
21
1.42699
0
LINE
8
BLACK
6
CONTINUOUS
10
0.797275
20
1.42699
11
0.795568
21
1.42443
0
LINE
8
BLACK
6
CONTINUOUS
10
0.795568
20
1.42443
11
0.793013
21
1.42273
0
LINE
8
BLACK
6
CONTINUOUS
10
0.793013
20
1.42273
11
0.79
21
1.42213
0
LINE
8
BLACK
6
CONTINUOUS
10
0.79
20
1.42213
11
0.73
21
1.42213
0
LINE
8
BLACK
6
CONTINUOUS
10
0.73
20
1.42213
11
0.726987
21
1.42273
0
LINE
8
BLACK
6
CONTINUOUS
10
0.726987
20
1.42273
11
0.724432
21
1.42443
0
LINE
8
BLACK
6
CONTINUOUS
10
0.724432
20
1.42443
11
0.722725
21
1.42699
0
LINE
8
BLACK
6
CONTINUOUS
10
0.722725
20
1.42699
11
0.722126
21
1.43
0
LINE
8
BLACK
6
CONTINUOUS
10
0.722126
20
1.43
11
0.722126
21
1.49
0
LINE
8
BLACK
6
CONTINUOUS
10
0.722126
20
1.49
11
0.722725
21
1.49301
0
LINE
8
BLACK
6
CONTINUOUS
10
0.722725
20
1.49301
11
0.724432
21
1.49557
0
LINE
8
BLACK
6
CONTINUOUS
10
0.724432
20
1.49557
11
0.726987
21
1.49727
0
LINE
8
BLACK
6
CONTINUOUS
10
0.726987
20
1.49727
11
0.73
21
1.49787
0
LINE
8
BLACK
6
CONTINUOUS
10
0.73
20
1.49787
11
0.79
21
1.49787
0
LINE
8
BLACK
6
CONTINUOUS
10
0.79
20
1.49787
11
0.793013
21
1.49727
0
LINE
8
BLACK
6
CONTINUOUS
10
0.893013
20
1.49727
11
0.895568
21
1.49557
0
LINE
8
BLACK
6
CONTINUOUS
10
0.895568
20
1.49557
11
0.897275
21
1.49301
0
LINE
8
BLACK
6
CONTINUOUS
10
0.897275
20
1.49301
11
0.897874
21
1.49
0
LINE
8
BLACK
6
CONTINUOUS
10
0.897874
20
1.49
11
0.897874
21
1.43
0
LINE
8
BLACK
6
CONTINUOUS
10
0.897874
20
1.43
11
0.897275
21
1.42699
0
LINE
8
BLACK
6
CONTINUOUS
10
0.897275
20
1.42699
11
0.895568
21
1.42443
0
LINE
8
BLACK
6
CONTINUOUS
10
0.895568
20
1.42443
11
0.893013
21
1.42273
0
LINE
8
BLACK
6
CONTINUOUS
10
0.893013
20
1.42273
11
0.89
21
1.42213
0
LINE
8
BLACK
6
CONTINUOUS
10
0.89
20
1.42213
11
0.83
21
1.42213
0
LINE
8
BLACK
6
CONTINUOUS
10
0.83
20
1.42213
11
0.826987
21
1.42273
0
LINE
8
BLACK
6
CONTINUOUS
10
0.826987
20
1.42273
11
0.824432
21
1.42443
0
LINE
8
BLACK
6
CONTINUOUS
10
0.824432
20
1.42443
11
0.822725
21
1.42699
0
LINE
8
BLACK
6
CONTINUOUS
10
0.822725
20
1.42699
11
0.822126
21
1.43
0
LINE
8
BLACK
6
CONTINUOUS
10
0.822126
20
1.43
11
0.822126
21
1.49
0
LINE
8
BLACK
6
CONTINUOUS
10
0.822126
20
1.49
11
0.822725
21
1.49301
0
LINE
8
BLACK
6
CONTINUOUS
10
0.822725
20
1.49301
11
0.824432
21
1.49557
0
LINE
8
BLACK
6
CONTINUOUS
10
0.824432
20
1.49557
11
0.826987
21
1.49727
0
LINE
8
BLACK
6
CONTINUOUS
10
0.826987
20
1.49727
11
0.83
21
1.49787
0
LINE
8
BLACK
6
CONTINUOUS
10
0.83
20
1.49787
11
0.89
21
1.49787
0
LINE
8
BLACK
6
CONTINUOUS
10
0.89
20
1.49787
11
0.893013
21
1.49727
  0
ENDSEC
  0
EOF
