  0
SECTION
  2
HEADER
  9
$ANGBASE
  50
0.0
  9
$ANGDIR
  70
1
  9
$MEASUREMENT
  70
0
  0
ENDSEC
  0
SECTION
  2
TABLES
  0
TABLE
  2
LTYPE
  70
4
  0
LTYPE
  5
40F
  2
CONTINUOUS
  70
0
  3
Solid line
  72
65
  73
0
  40
0.0
  0
LTYPE
  5
410
  2
DASHDOT
 70
0
  3
Dash Dot ____ _ ____ _
 72
65
 73
4
 40
2.0
 49
1.25
 49
-0.25
 49
0.25
 49
-0.25
  0
LTYPE
  5
411
  2
DASHED
 70
0
  3
Dashed __ __ __ __ __
 72
65
 73
2
 40
0.75
 49
0.5
 49
-0.25
  0
LTYPE
  5
43B
  2
DOTTED
 70
0
  3
Dotted .  .  .  .
 72
65
 73
2
 40
0.2
 49
0.0
 49
-0.2
  0
ENDTAB
  0
TABLE
  2
STYLE
  70
4
  0
STYLE
  2
KICAD
  70
0
  40
0
  41
1
  42
1
  50
0
  71
0
  3
isocp.shx
  0
STYLE
  2
KICADB
  70
0
  40
0
  41
1
  42
1
  50
0
  71
0
  3
isocp.shx
  0
STYLE
  2
KICADI
  70
0
  40
0
  41
1
  42
1
  50
15
  71
0
  3
isocp.shx
  0
STYLE
  2
KICADBI
  70
0
  40
0
  41
1
  42
1
  50
15
  71
0
  3
isocp.shx
  0
ENDTAB
  0
TABLE
  2
LAYER
  70
1
  0
LAYER
  2
BLACK
  70
0
  62
7
  6
CONTINUOUS
  0
ENDTAB
  0
ENDSEC
  0
SECTION
  2
ENTITIES
0
LINE
8
BLACK
6
CONTINUOUS
10
0.595433
20
0.691102
11
0.524567
21
0.691102
0
LINE
8
BLACK
6
CONTINUOUS
10
0.524567
20
0.691102
11
0.524567
21
0.730472
0
LINE
8
BLACK
6
CONTINUOUS
10
0.524567
20
0.730472
11
0.595433
21
0.730472
0
LINE
8
BLACK
6
CONTINUOUS
10
0.595433
20
0.730472
11
0.595433
21
0.691102
0
LINE
8
BLACK
6
CONTINUOUS
10
1
20
0.7125
11
0.965
21
0.7125
0
LINE
8
BLACK
6
CONTINUOUS
10
0.965
20
0.7125
11
0.965
21
0.7675
0
LINE
8
BLACK
6
CONTINUOUS
10
0.965
20
0.7675
11
1
21
0.7675
0
LINE
8
BLACK
6
CONTINUOUS
10
1
20
0.7675
11
1
21
0.7125
0
LINE
8
BLACK
6
CONTINUOUS
10
1.075
20
0.7125
11
1.04
21
0.7125
0
LINE
8
BLACK
6
CONTINUOUS
10
1.04
20
0.7125
11
1.04
21
0.7675
0
LINE
8
BLACK
6
CONTINUOUS
10
1.04
20
0.7675
11
1.075
21
0.7675
0
LINE
8
BLACK
6
CONTINUOUS
10
1.075
20
0.7675
11
1.075
21
0.7125
0
LINE
8
BLACK
6
CONTINUOUS
10
0.595433
20
0.789528
11
0.524567
21
0.789528
0
LINE
8
BLACK
6
CONTINUOUS
10
0.524567
20
0.789528
11
0.524567
21
0.828898
0
LINE
8
BLACK
6
CONTINUOUS
10
0.524567
20
0.828898
11
0.595433
21
0.828898
0
LINE
8
BLACK
6
CONTINUOUS
10
0.595433
20
0.828898
11
0.595433
21
0.789528
0
LINE
8
BLACK
6
CONTINUOUS
10
1
20
0.7925
11
0.965
21
0.7925
0
LINE
8
BLACK
6
CONTINUOUS
10
0.965
20
0.7925
11
0.965
21
0.8475
0
LINE
8
BLACK
6
CONTINUOUS
10
0.965
20
0.8475
11
1
21
0.8475
0
LINE
8
BLACK
6
CONTINUOUS
10
1
20
0.8475
11
1
21
0.7925
0
LINE
8
BLACK
6
CONTINUOUS
10
1.075
20
0.7925
11
1.04
21
0.7925
0
LINE
8
BLACK
6
CONTINUOUS
10
1.04
20
0.7925
11
1.04
21
0.8475
0
LINE
8
BLACK
6
CONTINUOUS
10
1.04
20
0.8475
11
1.075
21
0.8475
0
LINE
8
BLACK
6
CONTINUOUS
10
1.075
20
0.8475
11
1.075
21
0.7925
0
LINE
8
BLACK
6
CONTINUOUS
10
0.697008
20
0.795709
11
0.653701
21
0.795709
0
LINE
8
BLACK
6
CONTINUOUS
10
0.653701
20
0.795709
11
0.653701
21
0.805551
0
LINE
8
BLACK
6
CONTINUOUS
10
0.653701
20
0.805551
11
0.697008
21
0.805551
0
LINE
8
BLACK
6
CONTINUOUS
10
0.697008
20
0.805551
11
0.697008
21
0.795709
0
LINE
8
BLACK
6
CONTINUOUS
10
0.866299
20
0.795709
11
0.822992
21
0.795709
0
LINE
8
BLACK
6
CONTINUOUS
10
0.822992
20
0.795709
11
0.822992
21
0.805551
0
LINE
8
BLACK
6
CONTINUOUS
10
0.822992
20
0.805551
11
0.866299
21
0.805551
0
LINE
8
BLACK
6
CONTINUOUS
10
0.866299
20
0.805551
11
0.866299
21
0.795709
0
LINE
8
BLACK
6
CONTINUOUS
10
0.697008
20
0.815394
11
0.653701
21
0.815394
0
LINE
8
BLACK
6
CONTINUOUS
10
0.653701
20
0.815394
11
0.653701
21
0.825236
0
LINE
8
BLACK
6
CONTINUOUS
10
0.653701
20
0.825236
11
0.697008
21
0.825236
0
LINE
8
BLACK
6
CONTINUOUS
10
0.697008
20
0.825236
11
0.697008
21
0.815394
0
LINE
8
BLACK
6
CONTINUOUS
10
0.866299
20
0.815394
11
0.822992
21
0.815394
0
LINE
8
BLACK
6
CONTINUOUS
10
0.822992
20
0.815394
11
0.822992
21
0.825236
0
LINE
8
BLACK
6
CONTINUOUS
10
0.822992
20
0.825236
11
0.866299
21
0.825236
0
LINE
8
BLACK
6
CONTINUOUS
10
0.866299
20
0.825236
11
0.866299
21
0.815394
0
LINE
8
BLACK
6
CONTINUOUS
10
0.697008
20
0.835079
11
0.653701
21
0.835079
0
LINE
8
BLACK
6
CONTINUOUS
10
0.653701
20
0.835079
11
0.653701
21
0.844921
0
LINE
8
BLACK
6
CONTINUOUS
10
0.653701
20
0.844921
11
0.697008
21
0.844921
0
LINE
8
BLACK
6
CONTINUOUS
10
0.697008
20
0.844921
11
0.697008
21
0.835079
0
LINE
8
BLACK
6
CONTINUOUS
10
0.866299
20
0.835079
11
0.822992
21
0.835079
0
LINE
8
BLACK
6
CONTINUOUS
10
0.822992
20
0.835079
11
0.822992
21
0.844921
0
LINE
8
BLACK
6
CONTINUOUS
10
0.822992
20
0.844921
11
0.866299
21
0.844921
0
LINE
8
BLACK
6
CONTINUOUS
10
0.866299
20
0.844921
11
0.866299
21
0.835079
0
LINE
8
BLACK
6
CONTINUOUS
10
0.697008
20
0.854764
11
0.653701
21
0.854764
0
LINE
8
BLACK
6
CONTINUOUS
10
0.653701
20
0.854764
11
0.653701
21
0.864606
0
LINE
8
BLACK
6
CONTINUOUS
10
0.653701
20
0.864606
11
0.697008
21
0.864606
0
LINE
8
BLACK
6
CONTINUOUS
10
0.697008
20
0.864606
11
0.697008
21
0.854764
0
LINE
8
BLACK
6
CONTINUOUS
10
0.866299
20
0.854764
11
0.822992
21
0.854764
0
LINE
8
BLACK
6
CONTINUOUS
10
0.822992
20
0.854764
11
0.822992
21
0.864606
0
LINE
8
BLACK
6
CONTINUOUS
10
0.822992
20
0.864606
11
0.866299
21
0.864606
0
LINE
8
BLACK
6
CONTINUOUS
10
0.866299
20
0.864606
11
0.866299
21
0.854764
0
LINE
8
BLACK
6
CONTINUOUS
10
0.697008
20
0.874449
11
0.653701
21
0.874449
0
LINE
8
BLACK
6
CONTINUOUS
10
0.653701
20
0.874449
11
0.653701
21
0.884291
0
LINE
8
BLACK
6
CONTINUOUS
10
0.653701
20
0.884291
11
0.697008
21
0.884291
0
LINE
8
BLACK
6
CONTINUOUS
10
0.697008
20
0.884291
11
0.697008
21
0.874449
0
LINE
8
BLACK
6
CONTINUOUS
10
0.866299
20
0.874449
11
0.822992
21
0.874449
0
LINE
8
BLACK
6
CONTINUOUS
10
0.822992
20
0.874449
11
0.822992
21
0.884291
0
LINE
8
BLACK
6
CONTINUOUS
10
0.822992
20
0.884291
11
0.866299
21
0.884291
0
LINE
8
BLACK
6
CONTINUOUS
10
0.866299
20
0.884291
11
0.866299
21
0.874449
0
LINE
8
BLACK
6
CONTINUOUS
10
0.7225
20
0.9925
11
0.6875
21
0.9925
0
LINE
8
BLACK
6
CONTINUOUS
10
0.6875
20
0.9925
11
0.6875
21
1.0475
0
LINE
8
BLACK
6
CONTINUOUS
10
0.6875
20
1.0475
11
0.7225
21
1.0475
0
LINE
8
BLACK
6
CONTINUOUS
10
0.7225
20
1.0475
11
0.7225
21
0.9925
0
LINE
8
BLACK
6
CONTINUOUS
10
0.7975
20
0.9925
11
0.7625
21
0.9925
0
LINE
8
BLACK
6
CONTINUOUS
10
0.7625
20
0.9925
11
0.7625
21
1.0475
0
LINE
8
BLACK
6
CONTINUOUS
10
0.7625
20
1.0475
11
0.7975
21
1.0475
0
LINE
8
BLACK
6
CONTINUOUS
10
0.7975
20
1.0475
11
0.7975
21
0.9925
0
LINE
8
BLACK
6
CONTINUOUS
10
0.8625
20
0.9925
11
0.8275
21
0.9925
0
LINE
8
BLACK
6
CONTINUOUS
10
0.8275
20
0.9925
11
0.8275
21
1.0475
0
LINE
8
BLACK
6
CONTINUOUS
10
0.8275
20
1.0475
11
0.8625
21
1.0475
0
LINE
8
BLACK
6
CONTINUOUS
10
0.8625
20
1.0475
11
0.8625
21
0.9925
0
LINE
8
BLACK
6
CONTINUOUS
10
0.9375
20
0.9925
11
0.9025
21
0.9925
0
LINE
8
BLACK
6
CONTINUOUS
10
0.9025
20
0.9925
11
0.9025
21
1.0475
0
LINE
8
BLACK
6
CONTINUOUS
10
0.9025
20
1.0475
11
0.9375
21
1.0475
0
LINE
8
BLACK
6
CONTINUOUS
10
0.9375
20
1.0475
11
0.9375
21
0.9925
0
LINE
8
BLACK
6
CONTINUOUS
10
1.1275
20
1.165
11
1.0725
21
1.165
0
LINE
8
BLACK
6
CONTINUOUS
10
1.0725
20
1.165
11
1.0725
21
1.2
0
LINE
8
BLACK
6
CONTINUOUS
10
1.0725
20
1.2
11
1.1275
21
1.2
0
LINE
8
BLACK
6
CONTINUOUS
10
1.1275
20
1.2
11
1.1275
21
1.165
0
LINE
8
BLACK
6
CONTINUOUS
10
0.5167
20
1.16655
11
0.4655
21
1.16655
0
LINE
8
BLACK
6
CONTINUOUS
10
0.4655
20
1.16655
11
0.4655
21
1.23345
0
LINE
8
BLACK
6
CONTINUOUS
10
0.4655
20
1.23345
11
0.5167
21
1.23345
0
LINE
8
BLACK
6
CONTINUOUS
10
0.5167
20
1.23345
11
0.5167
21
1.16655
0
LINE
8
BLACK
6
CONTINUOUS
10
0.6545
20
1.16655
11
0.6033
21
1.16655
0
LINE
8
BLACK
6
CONTINUOUS
10
0.6033
20
1.16655
11
0.6033
21
1.23345
0
LINE
8
BLACK
6
CONTINUOUS
10
0.6033
20
1.23345
11
0.6545
21
1.23345
0
LINE
8
BLACK
6
CONTINUOUS
10
0.6545
20
1.23345
11
0.6545
21
1.16655
0
LINE
8
BLACK
6
CONTINUOUS
10
1.1275
20
1.24
11
1.0725
21
1.24
0
LINE
8
BLACK
6
CONTINUOUS
10
1.0725
20
1.24
11
1.0725
21
1.275
0
LINE
8
BLACK
6
CONTINUOUS
10
1.0725
20
1.275
11
1.1275
21
1.275
0
LINE
8
BLACK
6
CONTINUOUS
10
1.1275
20
1.275
11
1.1275
21
1.24
0
LINE
8
BLACK
6
CONTINUOUS
10
1.12953
20
1.30059
11
1.07047
21
1.30059
0
LINE
8
BLACK
6
CONTINUOUS
10
1.07047
20
1.30059
11
1.07047
21
1.34193
0
LINE
8
BLACK
6
CONTINUOUS
10
1.07047
20
1.34193
11
1.12953
21
1.34193
0
LINE
8
BLACK
6
CONTINUOUS
10
1.12953
20
1.34193
11
1.12953
21
1.30059
0
LINE
8
BLACK
6
CONTINUOUS
10
1.12953
20
1.45807
11
1.07047
21
1.45807
0
LINE
8
BLACK
6
CONTINUOUS
10
1.07047
20
1.45807
11
1.07047
21
1.49941
0
LINE
8
BLACK
6
CONTINUOUS
10
1.07047
20
1.49941
11
1.12953
21
1.49941
0
LINE
8
BLACK
6
CONTINUOUS
10
1.12953
20
1.49941
11
1.12953
21
1.45807
  0
ENDSEC
  0
EOF
