  0
SECTION
  2
HEADER
  9
$ANGBASE
  50
0.0
  9
$ANGDIR
  70
1
  9
$MEASUREMENT
  70
0
  0
ENDSEC
  0
SECTION
  2
TABLES
  0
TABLE
  2
LTYPE
  70
4
  0
LTYPE
  5
40F
  2
CONTINUOUS
  70
0
  3
Solid line
  72
65
  73
0
  40
0.0
  0
LTYPE
  5
410
  2
DASHDOT
 70
0
  3
Dash Dot ____ _ ____ _
 72
65
 73
4
 40
2.0
 49
1.25
 49
-0.25
 49
0.25
 49
-0.25
  0
LTYPE
  5
411
  2
DASHED
 70
0
  3
Dashed __ __ __ __ __
 72
65
 73
2
 40
0.75
 49
0.5
 49
-0.25
  0
LTYPE
  5
43B
  2
DOTTED
 70
0
  3
Dotted .  .  .  .
 72
65
 73
2
 40
0.2
 49
0.0
 49
-0.2
  0
ENDTAB
  0
TABLE
  2
STYLE
  70
4
  0
STYLE
  2
KICAD
  70
0
  40
0
  41
1
  42
1
  50
0
  71
0
  3
isocp.shx
  0
STYLE
  2
KICADB
  70
0
  40
0
  41
1
  42
1
  50
0
  71
0
  3
isocp.shx
  0
STYLE
  2
KICADI
  70
0
  40
0
  41
1
  42
1
  50
15
  71
0
  3
isocp.shx
  0
STYLE
  2
KICADBI
  70
0
  40
0
  41
1
  42
1
  50
15
  71
0
  3
isocp.shx
  0
ENDTAB
  0
TABLE
  2
LAYER
  70
1
  0
LAYER
  2
BLACK
  70
0
  62
7
  6
CONTINUOUS
  0
ENDTAB
  0
ENDSEC
  0
SECTION
  2
ENTITIES
0
LINE
8
BLACK
6
CONTINUOUS
10
0.648076
20
0.843948
11
0.64814
21
0.84395
0
LINE
8
BLACK
6
CONTINUOUS
10
0.64814
20
0.84395
11
0.653765
21
0.842075
0
LINE
8
BLACK
6
CONTINUOUS
10
0.653765
20
0.842075
11
0.654666
21
0.841587
0
LINE
8
BLACK
6
CONTINUOUS
10
0.654666
20
0.841587
11
0.654759
21
0.841437
0
LINE
8
BLACK
6
CONTINUOUS
10
0.654759
20
0.841437
11
0.654919
21
0.841362
0
LINE
8
BLACK
6
CONTINUOUS
10
0.654919
20
0.841362
11
0.656794
21
0.839487
0
LINE
8
BLACK
6
CONTINUOUS
10
0.656794
20
0.839487
11
0.657382
21
0.838647
0
LINE
8
BLACK
6
CONTINUOUS
10
0.657382
20
0.838647
11
0.657558
21
0.836635
0
LINE
8
BLACK
6
CONTINUOUS
10
0.657558
20
0.836635
11
0.656399
21
0.834981
0
LINE
8
BLACK
6
CONTINUOUS
10
0.656399
20
0.834981
11
0.654448
21
0.834458
0
LINE
8
BLACK
6
CONTINUOUS
10
0.654448
20
0.834458
11
0.652618
21
0.835311
0
LINE
8
BLACK
6
CONTINUOUS
10
0.652618
20
0.835311
11
0.651236
21
0.836693
0
LINE
8
BLACK
6
CONTINUOUS
10
0.651236
20
0.836693
11
0.646727
21
0.838196
0
LINE
8
BLACK
6
CONTINUOUS
10
0.646727
20
0.838196
11
0.643936
21
0.838196
0
LINE
8
BLACK
6
CONTINUOUS
10
0.643936
20
0.838196
11
0.639428
21
0.836693
0
LINE
8
BLACK
6
CONTINUOUS
10
0.639428
20
0.836693
11
0.63651
21
0.833775
0
LINE
8
BLACK
6
CONTINUOUS
10
0.63651
20
0.833775
11
0.634994
21
0.830744
0
LINE
8
BLACK
6
CONTINUOUS
10
0.634994
20
0.830744
11
0.633286
21
0.823912
0
LINE
8
BLACK
6
CONTINUOUS
10
0.633286
20
0.823912
11
0.633286
21
0.819015
0
LINE
8
BLACK
6
CONTINUOUS
10
0.633286
20
0.819015
11
0.634994
21
0.812183
0
LINE
8
BLACK
6
CONTINUOUS
10
0.634994
20
0.812183
11
0.63651
21
0.809152
0
LINE
8
BLACK
6
CONTINUOUS
10
0.63651
20
0.809152
11
0.639428
21
0.806234
0
LINE
8
BLACK
6
CONTINUOUS
10
0.639428
20
0.806234
11
0.643936
21
0.804731
0
LINE
8
BLACK
6
CONTINUOUS
10
0.643936
20
0.804731
11
0.646727
21
0.804731
0
LINE
8
BLACK
6
CONTINUOUS
10
0.646727
20
0.804731
11
0.651236
21
0.806234
0
LINE
8
BLACK
6
CONTINUOUS
10
0.651236
20
0.806234
11
0.652618
21
0.807616
0
LINE
8
BLACK
6
CONTINUOUS
10
0.652618
20
0.807616
11
0.653458
21
0.808204
0
LINE
8
BLACK
6
CONTINUOUS
10
0.653458
20
0.808204
11
0.65547
21
0.80838
0
LINE
8
BLACK
6
CONTINUOUS
10
0.65547
20
0.80838
11
0.657124
21
0.807222
0
LINE
8
BLACK
6
CONTINUOUS
10
0.657124
20
0.807222
11
0.657647
21
0.805271
0
LINE
8
BLACK
6
CONTINUOUS
10
0.657647
20
0.805271
11
0.656794
21
0.80344
0
LINE
8
BLACK
6
CONTINUOUS
10
0.656794
20
0.80344
11
0.654919
21
0.801566
0
LINE
8
BLACK
6
CONTINUOUS
10
0.654919
20
0.801566
11
0.654079
21
0.800977
0
LINE
8
BLACK
6
CONTINUOUS
10
0.654079
20
0.800977
11
0.653903
21
0.800962
0
LINE
8
BLACK
6
CONTINUOUS
10
0.653903
20
0.800962
11
0.653765
21
0.800852
0
LINE
8
BLACK
6
CONTINUOUS
10
0.653765
20
0.800852
11
0.64814
21
0.798978
0
LINE
8
BLACK
6
CONTINUOUS
10
0.64814
20
0.798978
11
0.647267
21
0.798848
0
LINE
8
BLACK
6
CONTINUOUS
10
0.647267
20
0.798848
11
0.647207
21
0.798826
0
LINE
8
BLACK
6
CONTINUOUS
10
0.647207
20
0.798826
11
0.643457
21
0.798826
0
LINE
8
BLACK
6
CONTINUOUS
10
0.643457
20
0.798826
11
0.642588
21
0.798979
0
LINE
8
BLACK
6
CONTINUOUS
10
0.642588
20
0.798979
11
0.642523
21
0.798978
0
LINE
8
BLACK
6
CONTINUOUS
10
0.642523
20
0.798978
11
0.636899
21
0.800852
0
LINE
8
BLACK
6
CONTINUOUS
10
0.636899
20
0.800852
11
0.635997
21
0.801341
0
LINE
8
BLACK
6
CONTINUOUS
10
0.635997
20
0.801341
11
0.635905
21
0.801491
0
LINE
8
BLACK
6
CONTINUOUS
10
0.635905
20
0.801491
11
0.635745
21
0.801566
0
LINE
8
BLACK
6
CONTINUOUS
10
0.635745
20
0.801566
11
0.631995
21
0.805315
0
LINE
8
BLACK
6
CONTINUOUS
10
0.631995
20
0.805315
11
0.631489
21
0.806038
0
LINE
8
BLACK
6
CONTINUOUS
10
0.631489
20
0.806038
11
0.631442
21
0.806083
0
LINE
8
BLACK
6
CONTINUOUS
10
0.631442
20
0.806083
11
0.629567
21
0.809832
0
LINE
8
BLACK
6
CONTINUOUS
10
0.629567
20
0.809832
11
0.629422
21
0.810321
0
LINE
8
BLACK
6
CONTINUOUS
10
0.629422
20
0.810321
11
0.629344
21
0.810436
0
LINE
8
BLACK
6
CONTINUOUS
10
0.629344
20
0.810436
11
0.627469
21
0.817936
0
LINE
8
BLACK
6
CONTINUOUS
10
0.627469
20
0.817936
11
0.627428
21
0.818523
0
LINE
8
BLACK
6
CONTINUOUS
10
0.627428
20
0.818523
11
0.627381
21
0.818652
0
LINE
8
BLACK
6
CONTINUOUS
10
0.627381
20
0.818652
11
0.627381
21
0.824276
0
LINE
8
BLACK
6
CONTINUOUS
10
0.627381
20
0.824276
11
0.627483
21
0.824856
0
LINE
8
BLACK
6
CONTINUOUS
10
0.627483
20
0.824856
11
0.627469
21
0.824992
0
LINE
8
BLACK
6
CONTINUOUS
10
0.627469
20
0.824992
11
0.629344
21
0.832491
0
LINE
8
BLACK
6
CONTINUOUS
10
0.629344
20
0.832491
11
0.629551
21
0.832957
0
LINE
8
BLACK
6
CONTINUOUS
10
0.629551
20
0.832957
11
0.629567
21
0.833096
0
LINE
8
BLACK
6
CONTINUOUS
10
0.629567
20
0.833096
11
0.631442
21
0.836845
0
LINE
8
BLACK
6
CONTINUOUS
10
0.631442
20
0.836845
11
0.631968
21
0.837554
0
LINE
8
BLACK
6
CONTINUOUS
10
0.631968
20
0.837554
11
0.631995
21
0.837612
0
LINE
8
BLACK
6
CONTINUOUS
10
0.631995
20
0.837612
11
0.635745
21
0.841362
0
LINE
8
BLACK
6
CONTINUOUS
10
0.635745
20
0.841362
11
0.636585
21
0.84195
0
LINE
8
BLACK
6
CONTINUOUS
10
0.636585
20
0.84195
11
0.636761
21
0.841966
0
LINE
8
BLACK
6
CONTINUOUS
10
0.636761
20
0.841966
11
0.636899
21
0.842075
0
LINE
8
BLACK
6
CONTINUOUS
10
0.636899
20
0.842075
11
0.642523
21
0.84395
0
LINE
8
BLACK
6
CONTINUOUS
10
0.642523
20
0.84395
11
0.643396
21
0.84408
0
LINE
8
BLACK
6
CONTINUOUS
10
0.643396
20
0.84408
11
0.643457
21
0.844102
0
LINE
8
BLACK
6
CONTINUOUS
10
0.643457
20
0.844102
11
0.647207
21
0.844102
0
LINE
8
BLACK
6
CONTINUOUS
10
0.647207
20
0.844102
11
0.648076
21
0.843948
0
LINE
8
BLACK
6
CONTINUOUS
10
0.726957
20
0.843924
11
0.727092
21
0.84381
0
LINE
8
BLACK
6
CONTINUOUS
10
0.727092
20
0.84381
11
0.727267
21
0.84379
0
LINE
8
BLACK
6
CONTINUOUS
10
0.727267
20
0.84379
11
0.731017
21
0.841915
0
LINE
8
BLACK
6
CONTINUOUS
10
0.731017
20
0.841915
11
0.731726
21
0.841389
0
LINE
8
BLACK
6
CONTINUOUS
10
0.731726
20
0.841389
11
0.731784
21
0.841362
0
LINE
8
BLACK
6
CONTINUOUS
10
0.731784
20
0.841362
11
0.733659
21
0.839487
0
LINE
8
BLACK
6
CONTINUOUS
10
0.733659
20
0.839487
11
0.734165
21
0.838764
0
LINE
8
BLACK
6
CONTINUOUS
10
0.734165
20
0.838764
11
0.734212
21
0.83872
0
LINE
8
BLACK
6
CONTINUOUS
10
0.734212
20
0.83872
11
0.736087
21
0.83497
0
LINE
8
BLACK
6
CONTINUOUS
10
0.736087
20
0.83497
11
0.736379
21
0.833987
0
LINE
8
BLACK
6
CONTINUOUS
10
0.736379
20
0.833987
11
0.736338
21
0.833816
0
LINE
8
BLACK
6
CONTINUOUS
10
0.736338
20
0.833816
11
0.736399
21
0.83365
0
LINE
8
BLACK
6
CONTINUOUS
10
0.736399
20
0.83365
11
0.736399
21
0.8299
0
LINE
8
BLACK
6
CONTINUOUS
10
0.736399
20
0.8299
11
0.736245
21
0.829031
0
LINE
8
BLACK
6
CONTINUOUS
10
0.736245
20
0.829031
11
0.736247
21
0.828966
0
LINE
8
BLACK
6
CONTINUOUS
10
0.736247
20
0.828966
11
0.734372
21
0.823342
0
LINE
8
BLACK
6
CONTINUOUS
10
0.734372
20
0.823342
11
0.733884
21
0.82244
0
LINE
8
BLACK
6
CONTINUOUS
10
0.733884
20
0.82244
11
0.733734
21
0.822348
0
LINE
8
BLACK
6
CONTINUOUS
10
0.733734
20
0.822348
11
0.733659
21
0.822188
0
LINE
8
BLACK
6
CONTINUOUS
10
0.733659
20
0.822188
11
0.716202
21
0.804731
0
LINE
8
BLACK
6
CONTINUOUS
10
0.716202
20
0.804731
11
0.733446
21
0.804731
0
LINE
8
BLACK
6
CONTINUOUS
10
0.733446
20
0.804731
11
0.734456
21
0.804553
0
LINE
8
BLACK
6
CONTINUOUS
10
0.734456
20
0.804553
11
0.736003
21
0.803255
0
LINE
8
BLACK
6
CONTINUOUS
10
0.736003
20
0.803255
11
0.736354
21
0.801266
0
LINE
8
BLACK
6
CONTINUOUS
10
0.736354
20
0.801266
11
0.735344
21
0.799517
0
LINE
8
BLACK
6
CONTINUOUS
10
0.735344
20
0.799517
11
0.733446
21
0.798826
0
LINE
8
BLACK
6
CONTINUOUS
10
0.733446
20
0.798826
11
0.709074
21
0.798826
0
LINE
8
BLACK
6
CONTINUOUS
10
0.709074
20
0.798826
11
0.708439
21
0.798938
0
LINE
8
BLACK
6
CONTINUOUS
10
0.708439
20
0.798938
11
0.70831
21
0.798927
0
LINE
8
BLACK
6
CONTINUOUS
10
0.70831
20
0.798927
11
0.708244
21
0.798972
0
LINE
8
BLACK
6
CONTINUOUS
10
0.708244
20
0.798972
11
0.708064
21
0.799004
0
LINE
8
BLACK
6
CONTINUOUS
10
0.708064
20
0.799004
11
0.707383
21
0.799575
0
LINE
8
BLACK
6
CONTINUOUS
10
0.707383
20
0.799575
11
0.706655
21
0.800085
0
LINE
8
BLACK
6
CONTINUOUS
10
0.706655
20
0.800085
11
0.70662
21
0.800216
0
LINE
8
BLACK
6
CONTINUOUS
10
0.70662
20
0.800216
11
0.706517
21
0.800302
0
LINE
8
BLACK
6
CONTINUOUS
10
0.706517
20
0.800302
11
0.706362
21
0.801178
0
LINE
8
BLACK
6
CONTINUOUS
10
0.706362
20
0.801178
11
0.706132
21
0.802036
0
LINE
8
BLACK
6
CONTINUOUS
10
0.706132
20
0.802036
11
0.706189
21
0.802158
0
LINE
8
BLACK
6
CONTINUOUS
10
0.706189
20
0.802158
11
0.706166
21
0.802291
0
LINE
8
BLACK
6
CONTINUOUS
10
0.706166
20
0.802291
11
0.706611
21
0.803062
0
LINE
8
BLACK
6
CONTINUOUS
10
0.706611
20
0.803062
11
0.706986
21
0.803867
0
LINE
8
BLACK
6
CONTINUOUS
10
0.706986
20
0.803867
11
0.72899
21
0.825871
0
LINE
8
BLACK
6
CONTINUOUS
10
0.72899
20
0.825871
11
0.730493
21
0.830379
0
LINE
8
BLACK
6
CONTINUOUS
10
0.730493
20
0.830379
11
0.730493
21
0.832953
0
LINE
8
BLACK
6
CONTINUOUS
10
0.730493
20
0.832953
11
0.729144
21
0.83565
0
LINE
8
BLACK
6
CONTINUOUS
10
0.729144
20
0.83565
11
0.727947
21
0.836847
0
LINE
8
BLACK
6
CONTINUOUS
10
0.727947
20
0.836847
11
0.72525
21
0.838196
0
LINE
8
BLACK
6
CONTINUOUS
10
0.72525
20
0.838196
11
0.71727
21
0.838196
0
LINE
8
BLACK
6
CONTINUOUS
10
0.71727
20
0.838196
11
0.714572
21
0.836847
0
LINE
8
BLACK
6
CONTINUOUS
10
0.714572
20
0.836847
11
0.713037
21
0.835311
0
LINE
8
BLACK
6
CONTINUOUS
10
0.713037
20
0.835311
11
0.712196
21
0.834723
0
LINE
8
BLACK
6
CONTINUOUS
10
0.712196
20
0.834723
11
0.710184
21
0.834547
0
LINE
8
BLACK
6
CONTINUOUS
10
0.710184
20
0.834547
11
0.70853
21
0.835706
0
LINE
8
BLACK
6
CONTINUOUS
10
0.70853
20
0.835706
11
0.708007
21
0.837657
0
LINE
8
BLACK
6
CONTINUOUS
10
0.708007
20
0.837657
11
0.708861
21
0.839487
0
LINE
8
BLACK
6
CONTINUOUS
10
0.708861
20
0.839487
11
0.710735
21
0.841362
0
LINE
8
BLACK
6
CONTINUOUS
10
0.710735
20
0.841362
11
0.711459
21
0.841868
0
LINE
8
BLACK
6
CONTINUOUS
10
0.711459
20
0.841868
11
0.711503
21
0.841915
0
LINE
8
BLACK
6
CONTINUOUS
10
0.711503
20
0.841915
11
0.715252
21
0.84379
0
LINE
8
BLACK
6
CONTINUOUS
10
0.715252
20
0.84379
11
0.716235
21
0.844082
0
LINE
8
BLACK
6
CONTINUOUS
10
0.716235
20
0.844082
11
0.716407
21
0.844041
0
LINE
8
BLACK
6
CONTINUOUS
10
0.716407
20
0.844041
11
0.716573
21
0.844102
0
LINE
8
BLACK
6
CONTINUOUS
10
0.716573
20
0.844102
11
0.725947
21
0.844102
0
LINE
8
BLACK
6
CONTINUOUS
10
0.725947
20
0.844102
11
0.726957
21
0.843924
0
LINE
8
BLACK
6
CONTINUOUS
10
0.764452
20
0.843924
11
0.764587
21
0.84381
0
LINE
8
BLACK
6
CONTINUOUS
10
0.764587
20
0.84381
11
0.764763
21
0.84379
0
LINE
8
BLACK
6
CONTINUOUS
10
0.764763
20
0.84379
11
0.768512
21
0.841915
0
LINE
8
BLACK
6
CONTINUOUS
10
0.768512
20
0.841915
11
0.769221
21
0.841389
0
LINE
8
BLACK
6
CONTINUOUS
10
0.769221
20
0.841389
11
0.769279
21
0.841362
0
LINE
8
BLACK
6
CONTINUOUS
10
0.769279
20
0.841362
11
0.771154
21
0.839487
0
LINE
8
BLACK
6
CONTINUOUS
10
0.771154
20
0.839487
11
0.771661
21
0.838764
0
LINE
8
BLACK
6
CONTINUOUS
10
0.771661
20
0.838764
11
0.771707
21
0.83872
0
LINE
8
BLACK
6
CONTINUOUS
10
0.771707
20
0.83872
11
0.773582
21
0.83497
0
LINE
8
BLACK
6
CONTINUOUS
10
0.773582
20
0.83497
11
0.773874
21
0.833987
0
LINE
8
BLACK
6
CONTINUOUS
10
0.773874
20
0.833987
11
0.773833
21
0.833816
0
LINE
8
BLACK
6
CONTINUOUS
10
0.773833
20
0.833816
11
0.773894
21
0.83365
0
LINE
8
BLACK
6
CONTINUOUS
10
0.773894
20
0.83365
11
0.773894
21
0.831775
0
LINE
8
BLACK
6
CONTINUOUS
10
0.773894
20
0.831775
11
0.773716
21
0.830765
0
LINE
8
BLACK
6
CONTINUOUS
10
0.773716
20
0.830765
11
0.773602
21
0.83063
0
LINE
8
BLACK
6
CONTINUOUS
10
0.773602
20
0.83063
11
0.773582
21
0.830454
0
LINE
8
BLACK
6
CONTINUOUS
10
0.773582
20
0.830454
11
0.771707
21
0.826705
0
LINE
8
BLACK
6
CONTINUOUS
10
0.771707
20
0.826705
11
0.771181
21
0.825996
0
LINE
8
BLACK
6
CONTINUOUS
10
0.771181
20
0.825996
11
0.771154
21
0.825938
0
LINE
8
BLACK
6
CONTINUOUS
10
0.771154
20
0.825938
11
0.769493
21
0.824276
0
LINE
8
BLACK
6
CONTINUOUS
10
0.769493
20
0.824276
11
0.771154
21
0.822614
0
LINE
8
BLACK
6
CONTINUOUS
10
0.771154
20
0.822614
11
0.771661
21
0.821891
0
LINE
8
BLACK
6
CONTINUOUS
10
0.771661
20
0.821891
11
0.771707
21
0.821847
0
LINE
8
BLACK
6
CONTINUOUS
10
0.771707
20
0.821847
11
0.773582
21
0.818097
0
LINE
8
BLACK
6
CONTINUOUS
10
0.773582
20
0.818097
11
0.773874
21
0.817114
0
LINE
8
BLACK
6
CONTINUOUS
10
0.773874
20
0.817114
11
0.773833
21
0.816943
0
LINE
8
BLACK
6
CONTINUOUS
10
0.773833
20
0.816943
11
0.773894
21
0.816777
0
LINE
8
BLACK
6
CONTINUOUS
10
0.773894
20
0.816777
11
0.773894
21
0.809278
0
LINE
8
BLACK
6
CONTINUOUS
10
0.773894
20
0.809278
11
0.773716
21
0.808268
0
LINE
8
BLACK
6
CONTINUOUS
10
0.773716
20
0.808268
11
0.773602
21
0.808133
0
LINE
8
BLACK
6
CONTINUOUS
10
0.773602
20
0.808133
11
0.773582
21
0.807957
0
LINE
8
BLACK
6
CONTINUOUS
10
0.773582
20
0.807957
11
0.771707
21
0.804208
0
LINE
8
BLACK
6
CONTINUOUS
10
0.771707
20
0.804208
11
0.771181
21
0.803499
0
LINE
8
BLACK
6
CONTINUOUS
10
0.771181
20
0.803499
11
0.771154
21
0.80344
0
LINE
8
BLACK
6
CONTINUOUS
10
0.771154
20
0.80344
11
0.769279
21
0.801566
0
LINE
8
BLACK
6
CONTINUOUS
10
0.769279
20
0.801566
11
0.768556
21
0.801059
0
LINE
8
BLACK
6
CONTINUOUS
10
0.768556
20
0.801059
11
0.768512
21
0.801013
0
LINE
8
BLACK
6
CONTINUOUS
10
0.768512
20
0.801013
11
0.764763
21
0.799138
0
LINE
8
BLACK
6
CONTINUOUS
10
0.764763
20
0.799138
11
0.76378
21
0.798845
0
LINE
8
BLACK
6
CONTINUOUS
10
0.76378
20
0.798845
11
0.763608
21
0.798886
0
LINE
8
BLACK
6
CONTINUOUS
10
0.763608
20
0.798886
11
0.763442
21
0.798826
0
LINE
8
BLACK
6
CONTINUOUS
10
0.763442
20
0.798826
11
0.755943
21
0.798826
0
LINE
8
BLACK
6
CONTINUOUS
10
0.755943
20
0.798826
11
0.754933
21
0.799004
0
LINE
8
BLACK
6
CONTINUOUS
10
0.754933
20
0.799004
11
0.754798
21
0.799118
0
LINE
8
BLACK
6
CONTINUOUS
10
0.754798
20
0.799118
11
0.754622
21
0.799138
0
LINE
8
BLACK
6
CONTINUOUS
10
0.754622
20
0.799138
11
0.750873
21
0.801013
0
LINE
8
BLACK
6
CONTINUOUS
10
0.750873
20
0.801013
11
0.750164
21
0.801538
0
LINE
8
BLACK
6
CONTINUOUS
10
0.750164
20
0.801538
11
0.750106
21
0.801566
0
LINE
8
BLACK
6
CONTINUOUS
10
0.750106
20
0.801566
11
0.748231
21
0.80344
0
LINE
8
BLACK
6
CONTINUOUS
10
0.748231
20
0.80344
11
0.747724
21
0.804163
0
LINE
8
BLACK
6
CONTINUOUS
10
0.747724
20
0.804163
11
0.747678
21
0.804208
0
LINE
8
BLACK
6
CONTINUOUS
10
0.747678
20
0.804208
11
0.745803
21
0.807957
0
LINE
8
BLACK
6
CONTINUOUS
10
0.745803
20
0.807957
11
0.745511
21
0.80894
0
LINE
8
BLACK
6
CONTINUOUS
10
0.745511
20
0.80894
11
0.745552
21
0.809112
0
LINE
8
BLACK
6
CONTINUOUS
10
0.745552
20
0.809112
11
0.745491
21
0.809278
0
LINE
8
BLACK
6
CONTINUOUS
10
0.745491
20
0.809278
11
0.745491
21
0.816777
0
LINE
8
BLACK
6
CONTINUOUS
10
0.745491
20
0.816777
11
0.745669
21
0.817787
0
LINE
8
BLACK
6
CONTINUOUS
10
0.745669
20
0.817787
11
0.745783
21
0.817922
0
LINE
8
BLACK
6
CONTINUOUS
10
0.745783
20
0.817922
11
0.745803
21
0.818097
0
LINE
8
BLACK
6
CONTINUOUS
10
0.745803
20
0.818097
11
0.747678
21
0.821847
0
LINE
8
BLACK
6
CONTINUOUS
10
0.747678
20
0.821847
11
0.748204
21
0.822556
0
LINE
8
BLACK
6
CONTINUOUS
10
0.748204
20
0.822556
11
0.748231
21
0.822614
0
LINE
8
BLACK
6
CONTINUOUS
10
0.748231
20
0.822614
11
0.749892
21
0.824276
0
LINE
8
BLACK
6
CONTINUOUS
10
0.749892
20
0.824276
11
0.748231
21
0.825938
0
LINE
8
BLACK
6
CONTINUOUS
10
0.748231
20
0.825938
11
0.747724
21
0.826661
0
LINE
8
BLACK
6
CONTINUOUS
10
0.747724
20
0.826661
11
0.747678
21
0.826705
0
LINE
8
BLACK
6
CONTINUOUS
10
0.747678
20
0.826705
11
0.745803
21
0.830454
0
LINE
8
BLACK
6
CONTINUOUS
10
0.745803
20
0.830454
11
0.745511
21
0.831437
0
LINE
8
BLACK
6
CONTINUOUS
10
0.745511
20
0.831437
11
0.745552
21
0.831609
0
LINE
8
BLACK
6
CONTINUOUS
10
0.745552
20
0.831609
11
0.745491
21
0.831775
0
LINE
8
BLACK
6
CONTINUOUS
10
0.745491
20
0.831775
11
0.745491
21
0.83365
0
LINE
8
BLACK
6
CONTINUOUS
10
0.745491
20
0.83365
11
0.745669
21
0.83466
0
LINE
8
BLACK
6
CONTINUOUS
10
0.745669
20
0.83466
11
0.745783
21
0.834795
0
LINE
8
BLACK
6
CONTINUOUS
10
0.745783
20
0.834795
11
0.745803
21
0.83497
0
LINE
8
BLACK
6
CONTINUOUS
10
0.745803
20
0.83497
11
0.747678
21
0.83872
0
LINE
8
BLACK
6
CONTINUOUS
10
0.747678
20
0.83872
11
0.748204
21
0.839429
0
LINE
8
BLACK
6
CONTINUOUS
10
0.748204
20
0.839429
11
0.748231
21
0.839487
0
LINE
8
BLACK
6
CONTINUOUS
10
0.748231
20
0.839487
11
0.750106
21
0.841362
0
LINE
8
BLACK
6
CONTINUOUS
10
0.750106
20
0.841362
11
0.750829
21
0.841868
0
LINE
8
BLACK
6
CONTINUOUS
10
0.750829
20
0.841868
11
0.750873
21
0.841915
0
LINE
8
BLACK
6
CONTINUOUS
10
0.750873
20
0.841915
11
0.754622
21
0.84379
0
LINE
8
BLACK
6
CONTINUOUS
10
0.754622
20
0.84379
11
0.755605
21
0.844082
0
LINE
8
BLACK
6
CONTINUOUS
10
0.755605
20
0.844082
11
0.755777
21
0.844041
0
LINE
8
BLACK
6
CONTINUOUS
10
0.755777
20
0.844041
11
0.755943
21
0.844102
0
LINE
8
BLACK
6
CONTINUOUS
10
0.755943
20
0.844102
11
0.763442
21
0.844102
0
LINE
8
BLACK
6
CONTINUOUS
10
0.763442
20
0.844102
11
0.764452
21
0.843924
0
LINE
8
BLACK
6
CONTINUOUS
10
0.753943
20
0.819974
11
0.752745
21
0.818777
0
LINE
8
BLACK
6
CONTINUOUS
10
0.752745
20
0.818777
11
0.751397
21
0.81608
0
LINE
8
BLACK
6
CONTINUOUS
10
0.751397
20
0.81608
11
0.751397
21
0.809975
0
LINE
8
BLACK
6
CONTINUOUS
10
0.751397
20
0.809975
11
0.752745
21
0.807277
0
LINE
8
BLACK
6
CONTINUOUS
10
0.752745
20
0.807277
11
0.753943
21
0.80608
0
LINE
8
BLACK
6
CONTINUOUS
10
0.753943
20
0.80608
11
0.75664
21
0.804731
0
LINE
8
BLACK
6
CONTINUOUS
10
0.75664
20
0.804731
11
0.762745
21
0.804731
0
LINE
8
BLACK
6
CONTINUOUS
10
0.762745
20
0.804731
11
0.765442
21
0.80608
0
LINE
8
BLACK
6
CONTINUOUS
10
0.765442
20
0.80608
11
0.76664
21
0.807277
0
LINE
8
BLACK
6
CONTINUOUS
10
0.76664
20
0.807277
11
0.767988
21
0.809975
0
LINE
8
BLACK
6
CONTINUOUS
10
0.767988
20
0.809975
11
0.767988
21
0.81608
0
LINE
8
BLACK
6
CONTINUOUS
10
0.767988
20
0.81608
11
0.76664
21
0.818777
0
LINE
8
BLACK
6
CONTINUOUS
10
0.76664
20
0.818777
11
0.765442
21
0.819974
0
LINE
8
BLACK
6
CONTINUOUS
10
0.765442
20
0.819974
11
0.762745
21
0.821323
0
LINE
8
BLACK
6
CONTINUOUS
10
0.762745
20
0.821323
11
0.75664
21
0.821323
0
LINE
8
BLACK
6
CONTINUOUS
10
0.75664
20
0.821323
11
0.753943
21
0.819974
0
LINE
8
BLACK
6
CONTINUOUS
10
0.753943
20
0.836847
11
0.752745
21
0.83565
0
LINE
8
BLACK
6
CONTINUOUS
10
0.752745
20
0.83565
11
0.751397
21
0.832953
0
LINE
8
BLACK
6
CONTINUOUS
10
0.751397
20
0.832953
11
0.751397
21
0.832472
0
LINE
8
BLACK
6
CONTINUOUS
10
0.751397
20
0.832472
11
0.752745
21
0.829775
0
LINE
8
BLACK
6
CONTINUOUS
10
0.752745
20
0.829775
11
0.753943
21
0.828577
0
LINE
8
BLACK
6
CONTINUOUS
10
0.753943
20
0.828577
11
0.75664
21
0.827229
0
LINE
8
BLACK
6
CONTINUOUS
10
0.75664
20
0.827229
11
0.762745
21
0.827229
0
LINE
8
BLACK
6
CONTINUOUS
10
0.762745
20
0.827229
11
0.765442
21
0.828577
0
LINE
8
BLACK
6
CONTINUOUS
10
0.765442
20
0.828577
11
0.76664
21
0.829775
0
LINE
8
BLACK
6
CONTINUOUS
10
0.76664
20
0.829775
11
0.767988
21
0.832472
0
LINE
8
BLACK
6
CONTINUOUS
10
0.767988
20
0.832472
11
0.767988
21
0.832953
0
LINE
8
BLACK
6
CONTINUOUS
10
0.767988
20
0.832953
11
0.76664
21
0.83565
0
LINE
8
BLACK
6
CONTINUOUS
10
0.76664
20
0.83565
11
0.765442
21
0.836847
0
LINE
8
BLACK
6
CONTINUOUS
10
0.765442
20
0.836847
11
0.762745
21
0.838196
0
LINE
8
BLACK
6
CONTINUOUS
10
0.762745
20
0.838196
11
0.75664
21
0.838196
0
LINE
8
BLACK
6
CONTINUOUS
10
0.75664
20
0.838196
11
0.753943
21
0.836847
0
LINE
8
BLACK
6
CONTINUOUS
10
0.850691
20
0.843924
11
0.850826
21
0.84381
0
LINE
8
BLACK
6
CONTINUOUS
10
0.850826
20
0.84381
11
0.851002
21
0.84379
0
LINE
8
BLACK
6
CONTINUOUS
10
0.851002
20
0.84379
11
0.854751
21
0.841915
0
LINE
8
BLACK
6
CONTINUOUS
10
0.854751
20
0.841915
11
0.85546
21
0.841389
0
LINE
8
BLACK
6
CONTINUOUS
10
0.85546
20
0.841389
11
0.855519
21
0.841362
0
LINE
8
BLACK
6
CONTINUOUS
10
0.855519
20
0.841362
11
0.857393
21
0.839487
0
LINE
8
BLACK
6
CONTINUOUS
10
0.857393
20
0.839487
11
0.8579
21
0.838764
0
LINE
8
BLACK
6
CONTINUOUS
10
0.8579
20
0.838764
11
0.857947
21
0.83872
0
LINE
8
BLACK
6
CONTINUOUS
10
0.857947
20
0.83872
11
0.859821
21
0.83497
0
LINE
8
BLACK
6
CONTINUOUS
10
0.859821
20
0.83497
11
0.860114
21
0.833987
0
LINE
8
BLACK
6
CONTINUOUS
10
0.860114
20
0.833987
11
0.860073
21
0.833816
0
LINE
8
BLACK
6
CONTINUOUS
10
0.860073
20
0.833816
11
0.860133
21
0.83365
0
LINE
8
BLACK
6
CONTINUOUS
10
0.860133
20
0.83365
11
0.860133
21
0.8299
0
LINE
8
BLACK
6
CONTINUOUS
10
0.860133
20
0.8299
11
0.85998
21
0.829031
0
LINE
8
BLACK
6
CONTINUOUS
10
0.85998
20
0.829031
11
0.859982
21
0.828966
0
LINE
8
BLACK
6
CONTINUOUS
10
0.859982
20
0.828966
11
0.858107
21
0.823342
0
LINE
8
BLACK
6
CONTINUOUS
10
0.858107
20
0.823342
11
0.857618
21
0.82244
0
LINE
8
BLACK
6
CONTINUOUS
10
0.857618
20
0.82244
11
0.857468
21
0.822348
0
LINE
8
BLACK
6
CONTINUOUS
10
0.857468
20
0.822348
11
0.857393
21
0.822188
0
LINE
8
BLACK
6
CONTINUOUS
10
0.857393
20
0.822188
11
0.839937
21
0.804731
0
LINE
8
BLACK
6
CONTINUOUS
10
0.839937
20
0.804731
11
0.85718
21
0.804731
0
LINE
8
BLACK
6
CONTINUOUS
10
0.85718
20
0.804731
11
0.85819
21
0.804553
0
LINE
8
BLACK
6
CONTINUOUS
10
0.85819
20
0.804553
11
0.859737
21
0.803255
0
LINE
8
BLACK
6
CONTINUOUS
10
0.859737
20
0.803255
11
0.860088
21
0.801266
0
LINE
8
BLACK
6
CONTINUOUS
10
0.860088
20
0.801266
11
0.859078
21
0.799517
0
LINE
8
BLACK
6
CONTINUOUS
10
0.859078
20
0.799517
11
0.85718
21
0.798826
0
LINE
8
BLACK
6
CONTINUOUS
10
0.85718
20
0.798826
11
0.832808
21
0.798826
0
LINE
8
BLACK
6
CONTINUOUS
10
0.832808
20
0.798826
11
0.832174
21
0.798938
0
LINE
8
BLACK
6
CONTINUOUS
10
0.832174
20
0.798938
11
0.832044
21
0.798927
0
LINE
8
BLACK
6
CONTINUOUS
10
0.832044
20
0.798927
11
0.831979
21
0.798972
0
LINE
8
BLACK
6
CONTINUOUS
10
0.831979
20
0.798972
11
0.831798
21
0.799004
0
LINE
8
BLACK
6
CONTINUOUS
10
0.831798
20
0.799004
11
0.831118
21
0.799575
0
LINE
8
BLACK
6
CONTINUOUS
10
0.831118
20
0.799575
11
0.83039
21
0.800085
0
LINE
8
BLACK
6
CONTINUOUS
10
0.83039
20
0.800085
11
0.830355
21
0.800216
0
LINE
8
BLACK
6
CONTINUOUS
10
0.830355
20
0.800216
11
0.830251
21
0.800302
0
LINE
8
BLACK
6
CONTINUOUS
10
0.830251
20
0.800302
11
0.830097
21
0.801178
0
LINE
8
BLACK
6
CONTINUOUS
10
0.830097
20
0.801178
11
0.829867
21
0.802036
0
LINE
8
BLACK
6
CONTINUOUS
10
0.829867
20
0.802036
11
0.829924
21
0.802158
0
LINE
8
BLACK
6
CONTINUOUS
10
0.829924
20
0.802158
11
0.8299
21
0.802291
0
LINE
8
BLACK
6
CONTINUOUS
10
0.8299
20
0.802291
11
0.830345
21
0.803062
0
LINE
8
BLACK
6
CONTINUOUS
10
0.830345
20
0.803062
11
0.83072
21
0.803867
0
LINE
8
BLACK
6
CONTINUOUS
10
0.83072
20
0.803867
11
0.852725
21
0.825871
0
LINE
8
BLACK
6
CONTINUOUS
10
0.852725
20
0.825871
11
0.854228
21
0.830379
0
LINE
8
BLACK
6
CONTINUOUS
10
0.854228
20
0.830379
11
0.854228
21
0.832953
0
LINE
8
BLACK
6
CONTINUOUS
10
0.854228
20
0.832953
11
0.852879
21
0.83565
0
LINE
8
BLACK
6
CONTINUOUS
10
0.852879
20
0.83565
11
0.851682
21
0.836847
0
LINE
8
BLACK
6
CONTINUOUS
10
0.851682
20
0.836847
11
0.848984
21
0.838196
0
LINE
8
BLACK
6
CONTINUOUS
10
0.848984
20
0.838196
11
0.841004
21
0.838196
0
LINE
8
BLACK
6
CONTINUOUS
10
0.841004
20
0.838196
11
0.838307
21
0.836847
0
LINE
8
BLACK
6
CONTINUOUS
10
0.838307
20
0.836847
11
0.836771
21
0.835311
0
LINE
8
BLACK
6
CONTINUOUS
10
0.836771
20
0.835311
11
0.835931
21
0.834723
0
LINE
8
BLACK
6
CONTINUOUS
10
0.835931
20
0.834723
11
0.833919
21
0.834547
0
LINE
8
BLACK
6
CONTINUOUS
10
0.833919
20
0.834547
11
0.832264
21
0.835706
0
LINE
8
BLACK
6
CONTINUOUS
10
0.832264
20
0.835706
11
0.831742
21
0.837657
0
LINE
8
BLACK
6
CONTINUOUS
10
0.831742
20
0.837657
11
0.832595
21
0.839487
0
LINE
8
BLACK
6
CONTINUOUS
10
0.832595
20
0.839487
11
0.83447
21
0.841362
0
LINE
8
BLACK
6
CONTINUOUS
10
0.83447
20
0.841362
11
0.835193
21
0.841868
0
LINE
8
BLACK
6
CONTINUOUS
10
0.835193
20
0.841868
11
0.835237
21
0.841915
0
LINE
8
BLACK
6
CONTINUOUS
10
0.835237
20
0.841915
11
0.838987
21
0.84379
0
LINE
8
BLACK
6
CONTINUOUS
10
0.838987
20
0.84379
11
0.83997
21
0.844082
0
LINE
8
BLACK
6
CONTINUOUS
10
0.83997
20
0.844082
11
0.840142
21
0.844041
0
LINE
8
BLACK
6
CONTINUOUS
10
0.840142
20
0.844041
11
0.840307
21
0.844102
0
LINE
8
BLACK
6
CONTINUOUS
10
0.840307
20
0.844102
11
0.849681
21
0.844102
0
LINE
8
BLACK
6
CONTINUOUS
10
0.849681
20
0.844102
11
0.850691
21
0.843924
0
LINE
8
BLACK
6
CONTINUOUS
10
0.886312
20
0.843924
11
0.886447
21
0.84381
0
LINE
8
BLACK
6
CONTINUOUS
10
0.886447
20
0.84381
11
0.886622
21
0.84379
0
LINE
8
BLACK
6
CONTINUOUS
10
0.886622
20
0.84379
11
0.890372
21
0.841915
0
LINE
8
BLACK
6
CONTINUOUS
10
0.890372
20
0.841915
11
0.891081
21
0.841389
0
LINE
8
BLACK
6
CONTINUOUS
10
0.891081
20
0.841389
11
0.891139
21
0.841362
0
LINE
8
BLACK
6
CONTINUOUS
10
0.891139
20
0.841362
11
0.893014
21
0.839487
0
LINE
8
BLACK
6
CONTINUOUS
10
0.893014
20
0.839487
11
0.89352
21
0.838764
0
LINE
8
BLACK
6
CONTINUOUS
10
0.89352
20
0.838764
11
0.893567
21
0.83872
0
LINE
8
BLACK
6
CONTINUOUS
10
0.893567
20
0.83872
11
0.895442
21
0.83497
0
LINE
8
BLACK
6
CONTINUOUS
10
0.895442
20
0.83497
11
0.895587
21
0.834482
0
LINE
8
BLACK
6
CONTINUOUS
10
0.895587
20
0.834482
11
0.895665
21
0.834366
0
LINE
8
BLACK
6
CONTINUOUS
10
0.895665
20
0.834366
11
0.89754
21
0.826867
0
LINE
8
BLACK
6
CONTINUOUS
10
0.89754
20
0.826867
11
0.897582
21
0.826279
0
LINE
8
BLACK
6
CONTINUOUS
10
0.897582
20
0.826279
11
0.897628
21
0.826151
0
LINE
8
BLACK
6
CONTINUOUS
10
0.897628
20
0.826151
11
0.897628
21
0.816777
0
LINE
8
BLACK
6
CONTINUOUS
10
0.897628
20
0.816777
11
0.897526
21
0.816196
0
LINE
8
BLACK
6
CONTINUOUS
10
0.897526
20
0.816196
11
0.89754
21
0.816061
0
LINE
8
BLACK
6
CONTINUOUS
10
0.89754
20
0.816061
11
0.895665
21
0.808562
0
LINE
8
BLACK
6
CONTINUOUS
10
0.895665
20
0.808562
11
0.895458
21
0.808096
0
LINE
8
BLACK
6
CONTINUOUS
10
0.895458
20
0.808096
11
0.895442
21
0.807957
0
LINE
8
BLACK
6
CONTINUOUS
10
0.895442
20
0.807957
11
0.893567
21
0.804208
0
LINE
8
BLACK
6
CONTINUOUS
10
0.893567
20
0.804208
11
0.893041
21
0.803499
0
LINE
8
BLACK
6
CONTINUOUS
10
0.893041
20
0.803499
11
0.893014
21
0.80344
0
LINE
8
BLACK
6
CONTINUOUS
10
0.893014
20
0.80344
11
0.891139
21
0.801566
0
LINE
8
BLACK
6
CONTINUOUS
10
0.891139
20
0.801566
11
0.890416
21
0.801059
0
LINE
8
BLACK
6
CONTINUOUS
10
0.890416
20
0.801059
11
0.890372
21
0.801013
0
LINE
8
BLACK
6
CONTINUOUS
10
0.890372
20
0.801013
11
0.886622
21
0.799138
0
LINE
8
BLACK
6
CONTINUOUS
10
0.886622
20
0.799138
11
0.885639
21
0.798845
0
LINE
8
BLACK
6
CONTINUOUS
10
0.885639
20
0.798845
11
0.885468
21
0.798886
0
LINE
8
BLACK
6
CONTINUOUS
10
0.885468
20
0.798886
11
0.885302
21
0.798826
0
LINE
8
BLACK
6
CONTINUOUS
10
0.885302
20
0.798826
11
0.881552
21
0.798826
0
LINE
8
BLACK
6
CONTINUOUS
10
0.881552
20
0.798826
11
0.880542
21
0.799004
0
LINE
8
BLACK
6
CONTINUOUS
10
0.880542
20
0.799004
11
0.880407
21
0.799118
0
LINE
8
BLACK
6
CONTINUOUS
10
0.880407
20
0.799118
11
0.880232
21
0.799138
0
LINE
8
BLACK
6
CONTINUOUS
10
0.880232
20
0.799138
11
0.876482
21
0.801013
0
LINE
8
BLACK
6
CONTINUOUS
10
0.876482
20
0.801013
11
0.875773
21
0.801538
0
LINE
8
BLACK
6
CONTINUOUS
10
0.875773
20
0.801538
11
0.875715
21
0.801566
0
LINE
8
BLACK
6
CONTINUOUS
10
0.875715
20
0.801566
11
0.87384
21
0.80344
0
LINE
8
BLACK
6
CONTINUOUS
10
0.87384
20
0.80344
11
0.873334
21
0.804163
0
LINE
8
BLACK
6
CONTINUOUS
10
0.873334
20
0.804163
11
0.873287
21
0.804208
0
LINE
8
BLACK
6
CONTINUOUS
10
0.873287
20
0.804208
11
0.871412
21
0.807957
0
LINE
8
BLACK
6
CONTINUOUS
10
0.871412
20
0.807957
11
0.871267
21
0.808446
0
LINE
8
BLACK
6
CONTINUOUS
10
0.871267
20
0.808446
11
0.871189
21
0.808562
0
LINE
8
BLACK
6
CONTINUOUS
10
0.871189
20
0.808562
11
0.869314
21
0.816061
0
LINE
8
BLACK
6
CONTINUOUS
10
0.869314
20
0.816061
11
0.869272
21
0.816649
0
LINE
8
BLACK
6
CONTINUOUS
10
0.869272
20
0.816649
11
0.869226
21
0.816777
0
LINE
8
BLACK
6
CONTINUOUS
10
0.869226
20
0.816777
11
0.869226
21
0.826151
0
LINE
8
BLACK
6
CONTINUOUS
10
0.869226
20
0.826151
11
0.869328
21
0.826731
0
LINE
8
BLACK
6
CONTINUOUS
10
0.869328
20
0.826731
11
0.869314
21
0.826867
0
LINE
8
BLACK
6
CONTINUOUS
10
0.869314
20
0.826867
11
0.871189
21
0.834366
0
LINE
8
BLACK
6
CONTINUOUS
10
0.871189
20
0.834366
11
0.871396
21
0.834831
0
LINE
8
BLACK
6
CONTINUOUS
10
0.871396
20
0.834831
11
0.871412
21
0.83497
0
LINE
8
BLACK
6
CONTINUOUS
10
0.871412
20
0.83497
11
0.873287
21
0.83872
0
LINE
8
BLACK
6
CONTINUOUS
10
0.873287
20
0.83872
11
0.873813
21
0.839429
0
LINE
8
BLACK
6
CONTINUOUS
10
0.873813
20
0.839429
11
0.87384
21
0.839487
0
LINE
8
BLACK
6
CONTINUOUS
10
0.87384
20
0.839487
11
0.875715
21
0.841362
0
LINE
8
BLACK
6
CONTINUOUS
10
0.875715
20
0.841362
11
0.876438
21
0.841868
0
LINE
8
BLACK
6
CONTINUOUS
10
0.876438
20
0.841868
11
0.876482
21
0.841915
0
LINE
8
BLACK
6
CONTINUOUS
10
0.876482
20
0.841915
11
0.880232
21
0.84379
0
LINE
8
BLACK
6
CONTINUOUS
10
0.880232
20
0.84379
11
0.881215
21
0.844082
0
LINE
8
BLACK
6
CONTINUOUS
10
0.881215
20
0.844082
11
0.881386
21
0.844041
0
LINE
8
BLACK
6
CONTINUOUS
10
0.881386
20
0.844041
11
0.881552
21
0.844102
0
LINE
8
BLACK
6
CONTINUOUS
10
0.881552
20
0.844102
11
0.885302
21
0.844102
0
LINE
8
BLACK
6
CONTINUOUS
10
0.885302
20
0.844102
11
0.886312
21
0.843924
0
LINE
8
BLACK
6
CONTINUOUS
10
0.879552
20
0.836847
11
0.878355
21
0.83565
0
LINE
8
BLACK
6
CONTINUOUS
10
0.878355
20
0.83565
11
0.876839
21
0.832619
0
LINE
8
BLACK
6
CONTINUOUS
10
0.876839
20
0.832619
11
0.875131
21
0.825787
0
LINE
8
BLACK
6
CONTINUOUS
10
0.875131
20
0.825787
11
0.875131
21
0.81714
0
LINE
8
BLACK
6
CONTINUOUS
10
0.875131
20
0.81714
11
0.876839
21
0.810308
0
LINE
8
BLACK
6
CONTINUOUS
10
0.876839
20
0.810308
11
0.878355
21
0.807277
0
LINE
8
BLACK
6
CONTINUOUS
10
0.878355
20
0.807277
11
0.879552
21
0.80608
0
LINE
8
BLACK
6
CONTINUOUS
10
0.879552
20
0.80608
11
0.882249
21
0.804731
0
LINE
8
BLACK
6
CONTINUOUS
10
0.882249
20
0.804731
11
0.884605
21
0.804731
0
LINE
8
BLACK
6
CONTINUOUS
10
0.884605
20
0.804731
11
0.887302
21
0.80608
0
LINE
8
BLACK
6
CONTINUOUS
10
0.887302
20
0.80608
11
0.888499
21
0.807277
0
LINE
8
BLACK
6
CONTINUOUS
10
0.888499
20
0.807277
11
0.890015
21
0.810308
0
LINE
8
BLACK
6
CONTINUOUS
10
0.890015
20
0.810308
11
0.891723
21
0.81714
0
LINE
8
BLACK
6
CONTINUOUS
10
0.891723
20
0.81714
11
0.891723
21
0.825787
0
LINE
8
BLACK
6
CONTINUOUS
10
0.891723
20
0.825787
11
0.890015
21
0.832619
0
LINE
8
BLACK
6
CONTINUOUS
10
0.890015
20
0.832619
11
0.888499
21
0.83565
0
LINE
8
BLACK
6
CONTINUOUS
10
0.888499
20
0.83565
11
0.887302
21
0.836847
0
LINE
8
BLACK
6
CONTINUOUS
10
0.887302
20
0.836847
11
0.884605
21
0.838196
0
LINE
8
BLACK
6
CONTINUOUS
10
0.884605
20
0.838196
11
0.882249
21
0.838196
0
LINE
8
BLACK
6
CONTINUOUS
10
0.882249
20
0.838196
11
0.879552
21
0.836847
0
LINE
8
BLACK
6
CONTINUOUS
10
0.932608
20
0.844024
11
0.932744
21
0.844045
0
LINE
8
BLACK
6
CONTINUOUS
10
0.932744
20
0.844045
11
0.932848
21
0.843982
0
LINE
8
BLACK
6
CONTINUOUS
10
0.932848
20
0.843982
11
0.933181
21
0.843924
0
LINE
8
BLACK
6
CONTINUOUS
10
0.933181
20
0.843924
11
0.933791
21
0.843412
0
LINE
8
BLACK
6
CONTINUOUS
10
0.933791
20
0.843412
11
0.934472
21
0.843
0
LINE
8
BLACK
6
CONTINUOUS
10
0.934472
20
0.843
11
0.934548
21
0.842777
0
LINE
8
BLACK
6
CONTINUOUS
10
0.934548
20
0.842777
11
0.934728
21
0.842625
0
LINE
8
BLACK
6
CONTINUOUS
10
0.934728
20
0.842625
11
0.934866
21
0.841841
0
LINE
8
BLACK
6
CONTINUOUS
10
0.934866
20
0.841841
11
0.935123
21
0.841088
0
LINE
8
BLACK
6
CONTINUOUS
10
0.935123
20
0.841088
11
0.935038
21
0.840868
0
LINE
8
BLACK
6
CONTINUOUS
10
0.935038
20
0.840868
11
0.935079
21
0.840636
0
LINE
8
BLACK
6
CONTINUOUS
10
0.935079
20
0.840636
11
0.934681
21
0.839947
0
LINE
8
BLACK
6
CONTINUOUS
10
0.934681
20
0.839947
11
0.934393
21
0.839204
0
LINE
8
BLACK
6
CONTINUOUS
10
0.934393
20
0.839204
11
0.925437
21
0.828969
0
LINE
8
BLACK
6
CONTINUOUS
10
0.925437
20
0.828969
11
0.925682
21
0.828925
0
LINE
8
BLACK
6
CONTINUOUS
10
0.925682
20
0.828925
11
0.925817
21
0.828812
0
LINE
8
BLACK
6
CONTINUOUS
10
0.925817
20
0.828812
11
0.925992
21
0.828792
0
LINE
8
BLACK
6
CONTINUOUS
10
0.925992
20
0.828792
11
0.929742
21
0.826917
0
LINE
8
BLACK
6
CONTINUOUS
10
0.929742
20
0.826917
11
0.930451
21
0.826391
0
LINE
8
BLACK
6
CONTINUOUS
10
0.930451
20
0.826391
11
0.930509
21
0.826364
0
LINE
8
BLACK
6
CONTINUOUS
10
0.930509
20
0.826364
11
0.932384
21
0.824489
0
LINE
8
BLACK
6
CONTINUOUS
10
0.932384
20
0.824489
11
0.93289
21
0.823766
0
LINE
8
BLACK
6
CONTINUOUS
10
0.93289
20
0.823766
11
0.932937
21
0.823722
0
LINE
8
BLACK
6
CONTINUOUS
10
0.932937
20
0.823722
11
0.934812
21
0.819972
0
LINE
8
BLACK
6
CONTINUOUS
10
0.934812
20
0.819972
11
0.935104
21
0.818989
0
LINE
8
BLACK
6
CONTINUOUS
10
0.935104
20
0.818989
11
0.935063
21
0.818818
0
LINE
8
BLACK
6
CONTINUOUS
10
0.935063
20
0.818818
11
0.935124
21
0.818652
0
LINE
8
BLACK
6
CONTINUOUS
10
0.935124
20
0.818652
11
0.935124
21
0.809278
0
LINE
8
BLACK
6
CONTINUOUS
10
0.935124
20
0.809278
11
0.934946
21
0.808268
0
LINE
8
BLACK
6
CONTINUOUS
10
0.934946
20
0.808268
11
0.934832
21
0.808133
0
LINE
8
BLACK
6
CONTINUOUS
10
0.934832
20
0.808133
11
0.934812
21
0.807957
0
LINE
8
BLACK
6
CONTINUOUS
10
0.934812
20
0.807957
11
0.932937
21
0.804208
0
LINE
8
BLACK
6
CONTINUOUS
10
0.932937
20
0.804208
11
0.932411
21
0.803499
0
LINE
8
BLACK
6
CONTINUOUS
10
0.932411
20
0.803499
11
0.932384
21
0.80344
0
LINE
8
BLACK
6
CONTINUOUS
10
0.932384
20
0.80344
11
0.930509
21
0.801566
0
LINE
8
BLACK
6
CONTINUOUS
10
0.930509
20
0.801566
11
0.929786
21
0.801059
0
LINE
8
BLACK
6
CONTINUOUS
10
0.929786
20
0.801059
11
0.929742
21
0.801013
0
LINE
8
BLACK
6
CONTINUOUS
10
0.929742
20
0.801013
11
0.925992
21
0.799138
0
LINE
8
BLACK
6
CONTINUOUS
10
0.925992
20
0.799138
11
0.925009
21
0.798845
0
LINE
8
BLACK
6
CONTINUOUS
10
0.925009
20
0.798845
11
0.924838
21
0.798886
0
LINE
8
BLACK
6
CONTINUOUS
10
0.924838
20
0.798886
11
0.924672
21
0.798826
0
LINE
8
BLACK
6
CONTINUOUS
10
0.924672
20
0.798826
11
0.913423
21
0.798826
0
LINE
8
BLACK
6
CONTINUOUS
10
0.913423
20
0.798826
11
0.912413
21
0.799004
0
LINE
8
BLACK
6
CONTINUOUS
10
0.912413
20
0.799004
11
0.912278
21
0.799118
0
LINE
8
BLACK
6
CONTINUOUS
10
0.912278
20
0.799118
11
0.912103
21
0.799138
0
LINE
8
BLACK
6
CONTINUOUS
10
0.912103
20
0.799138
11
0.908353
21
0.801013
0
LINE
8
BLACK
6
CONTINUOUS
10
0.908353
20
0.801013
11
0.907644
21
0.801538
0
LINE
8
BLACK
6
CONTINUOUS
10
0.907644
20
0.801538
11
0.907586
21
0.801566
0
LINE
8
BLACK
6
CONTINUOUS
10
0.907586
20
0.801566
11
0.905711
21
0.80344
0
LINE
8
BLACK
6
CONTINUOUS
10
0.905711
20
0.80344
11
0.905123
21
0.80428
0
LINE
8
BLACK
6
CONTINUOUS
10
0.905123
20
0.80428
11
0.904947
21
0.806293
0
LINE
8
BLACK
6
CONTINUOUS
10
0.904947
20
0.806293
11
0.906105
21
0.807947
0
LINE
8
BLACK
6
CONTINUOUS
10
0.906105
20
0.807947
11
0.908056
21
0.80847
0
LINE
8
BLACK
6
CONTINUOUS
10
0.908056
20
0.80847
11
0.909887
21
0.807616
0
LINE
8
BLACK
6
CONTINUOUS
10
0.909887
20
0.807616
11
0.911423
21
0.80608
0
LINE
8
BLACK
6
CONTINUOUS
10
0.911423
20
0.80608
11
0.91412
21
0.804731
0
LINE
8
BLACK
6
CONTINUOUS
10
0.91412
20
0.804731
11
0.923975
21
0.804731
0
LINE
8
BLACK
6
CONTINUOUS
10
0.923975
20
0.804731
11
0.926672
21
0.80608
0
LINE
8
BLACK
6
CONTINUOUS
10
0.926672
20
0.80608
11
0.927869
21
0.807277
0
LINE
8
BLACK
6
CONTINUOUS
10
0.927869
20
0.807277
11
0.929218
21
0.809975
0
LINE
8
BLACK
6
CONTINUOUS
10
0.929218
20
0.809975
11
0.929218
21
0.817955
0
LINE
8
BLACK
6
CONTINUOUS
10
0.929218
20
0.817955
11
0.927869
21
0.820652
0
LINE
8
BLACK
6
CONTINUOUS
10
0.927869
20
0.820652
11
0.926672
21
0.821849
0
LINE
8
BLACK
6
CONTINUOUS
10
0.926672
20
0.821849
11
0.923975
21
0.823198
0
LINE
8
BLACK
6
CONTINUOUS
10
0.923975
20
0.823198
11
0.919048
21
0.823198
0
LINE
8
BLACK
6
CONTINUOUS
10
0.919048
20
0.823198
11
0.91861
21
0.823275
0
LINE
8
BLACK
6
CONTINUOUS
10
0.91861
20
0.823275
11
0.918475
21
0.823254
0
LINE
8
BLACK
6
CONTINUOUS
10
0.918475
20
0.823254
11
0.91837
21
0.823317
0
LINE
8
BLACK
6
CONTINUOUS
10
0.91837
20
0.823317
11
0.918038
21
0.823376
0
LINE
8
BLACK
6
CONTINUOUS
10
0.918038
20
0.823376
11
0.917428
21
0.823888
0
LINE
8
BLACK
6
CONTINUOUS
10
0.917428
20
0.823888
11
0.916747
21
0.8243
0
LINE
8
BLACK
6
CONTINUOUS
10
0.916747
20
0.8243
11
0.916671
21
0.824523
0
LINE
8
BLACK
6
CONTINUOUS
10
0.916671
20
0.824523
11
0.91649
21
0.824674
0
LINE
8
BLACK
6
CONTINUOUS
10
0.91649
20
0.824674
11
0.916352
21
0.825458
0
LINE
8
BLACK
6
CONTINUOUS
10
0.916352
20
0.825458
11
0.916095
21
0.826212
0
LINE
8
BLACK
6
CONTINUOUS
10
0.916095
20
0.826212
11
0.916181
21
0.826431
0
LINE
8
BLACK
6
CONTINUOUS
10
0.916181
20
0.826431
11
0.91614
21
0.826663
0
LINE
8
BLACK
6
CONTINUOUS
10
0.91614
20
0.826663
11
0.916538
21
0.827353
0
LINE
8
BLACK
6
CONTINUOUS
10
0.916538
20
0.827353
11
0.916825
21
0.828095
0
LINE
8
BLACK
6
CONTINUOUS
10
0.916825
20
0.828095
11
0.925664
21
0.838196
0
LINE
8
BLACK
6
CONTINUOUS
10
0.925664
20
0.838196
11
0.907799
21
0.838196
0
LINE
8
BLACK
6
CONTINUOUS
10
0.907799
20
0.838196
11
0.906789
21
0.838374
0
LINE
8
BLACK
6
CONTINUOUS
10
0.906789
20
0.838374
11
0.905242
21
0.839672
0
LINE
8
BLACK
6
CONTINUOUS
10
0.905242
20
0.839672
11
0.904891
21
0.841662
0
LINE
8
BLACK
6
CONTINUOUS
10
0.904891
20
0.841662
11
0.905901
21
0.843411
0
LINE
8
BLACK
6
CONTINUOUS
10
0.905901
20
0.843411
11
0.907799
21
0.844102
0
LINE
8
BLACK
6
CONTINUOUS
10
0.907799
20
0.844102
11
0.932171
21
0.844102
0
LINE
8
BLACK
6
CONTINUOUS
10
0.932171
20
0.844102
11
0.932608
21
0.844024
0
LINE
8
BLACK
6
CONTINUOUS
10
0.963177
20
0.843924
11
0.963312
21
0.84381
0
LINE
8
BLACK
6
CONTINUOUS
10
0.963312
20
0.84381
11
0.963488
21
0.84379
0
LINE
8
BLACK
6
CONTINUOUS
10
0.963488
20
0.84379
11
0.967237
21
0.841915
0
LINE
8
BLACK
6
CONTINUOUS
10
0.967237
20
0.841915
11
0.967946
21
0.841389
0
LINE
8
BLACK
6
CONTINUOUS
10
0.967946
20
0.841389
11
0.968005
21
0.841362
0
LINE
8
BLACK
6
CONTINUOUS
10
0.968005
20
0.841362
11
0.969879
21
0.839487
0
LINE
8
BLACK
6
CONTINUOUS
10
0.969879
20
0.839487
11
0.970386
21
0.838764
0
LINE
8
BLACK
6
CONTINUOUS
10
0.970386
20
0.838764
11
0.970433
21
0.83872
0
LINE
8
BLACK
6
CONTINUOUS
10
0.970433
20
0.83872
11
0.972307
21
0.83497
0
LINE
8
BLACK
6
CONTINUOUS
10
0.972307
20
0.83497
11
0.9726
21
0.833987
0
LINE
8
BLACK
6
CONTINUOUS
10
0.9726
20
0.833987
11
0.972559
21
0.833816
0
LINE
8
BLACK
6
CONTINUOUS
10
0.972559
20
0.833816
11
0.972619
21
0.83365
0
LINE
8
BLACK
6
CONTINUOUS
10
0.972619
20
0.83365
11
0.972619
21
0.8299
0
LINE
8
BLACK
6
CONTINUOUS
10
0.972619
20
0.8299
11
0.972466
21
0.829031
0
LINE
8
BLACK
6
CONTINUOUS
10
0.972466
20
0.829031
11
0.972467
21
0.828966
0
LINE
8
BLACK
6
CONTINUOUS
10
0.972467
20
0.828966
11
0.970593
21
0.823342
0
LINE
8
BLACK
6
CONTINUOUS
10
0.970593
20
0.823342
11
0.970104
21
0.82244
0
LINE
8
BLACK
6
CONTINUOUS
10
0.970104
20
0.82244
11
0.969954
21
0.822348
0
LINE
8
BLACK
6
CONTINUOUS
10
0.969954
20
0.822348
11
0.969879
21
0.822188
0
LINE
8
BLACK
6
CONTINUOUS
10
0.969879
20
0.822188
11
0.952423
21
0.804731
0
LINE
8
BLACK
6
CONTINUOUS
10
0.952423
20
0.804731
11
0.969666
21
0.804731
0
LINE
8
BLACK
6
CONTINUOUS
10
0.969666
20
0.804731
11
0.970676
21
0.804553
0
LINE
8
BLACK
6
CONTINUOUS
10
0.970676
20
0.804553
11
0.972223
21
0.803255
0
LINE
8
BLACK
6
CONTINUOUS
10
0.972223
20
0.803255
11
0.972574
21
0.801266
0
LINE
8
BLACK
6
CONTINUOUS
10
0.972574
20
0.801266
11
0.971564
21
0.799517
0
LINE
8
BLACK
6
CONTINUOUS
10
0.971564
20
0.799517
11
0.969666
21
0.798826
0
LINE
8
BLACK
6
CONTINUOUS
10
0.969666
20
0.798826
11
0.945294
21
0.798826
0
LINE
8
BLACK
6
CONTINUOUS
10
0.945294
20
0.798826
11
0.94466
21
0.798938
0
LINE
8
BLACK
6
CONTINUOUS
10
0.94466
20
0.798938
11
0.94453
21
0.798927
0
LINE
8
BLACK
6
CONTINUOUS
10
0.94453
20
0.798927
11
0.944465
21
0.798972
0
LINE
8
BLACK
6
CONTINUOUS
10
0.944465
20
0.798972
11
0.944284
21
0.799004
0
LINE
8
BLACK
6
CONTINUOUS
10
0.944284
20
0.799004
11
0.943604
21
0.799575
0
LINE
8
BLACK
6
CONTINUOUS
10
0.943604
20
0.799575
11
0.942876
21
0.800085
0
LINE
8
BLACK
6
CONTINUOUS
10
0.942876
20
0.800085
11
0.942841
21
0.800216
0
LINE
8
BLACK
6
CONTINUOUS
10
0.942841
20
0.800216
11
0.942737
21
0.800302
0
LINE
8
BLACK
6
CONTINUOUS
10
0.942737
20
0.800302
11
0.942583
21
0.801178
0
LINE
8
BLACK
6
CONTINUOUS
10
0.942583
20
0.801178
11
0.942353
21
0.802036
0
LINE
8
BLACK
6
CONTINUOUS
10
0.942353
20
0.802036
11
0.94241
21
0.802158
0
LINE
8
BLACK
6
CONTINUOUS
10
0.94241
20
0.802158
11
0.942386
21
0.802291
0
LINE
8
BLACK
6
CONTINUOUS
10
0.942386
20
0.802291
11
0.942831
21
0.803062
0
LINE
8
BLACK
6
CONTINUOUS
10
0.942831
20
0.803062
11
0.943206
21
0.803867
0
LINE
8
BLACK
6
CONTINUOUS
10
0.943206
20
0.803867
11
0.965211
21
0.825871
0
LINE
8
BLACK
6
CONTINUOUS
10
0.965211
20
0.825871
11
0.966714
21
0.830379
0
LINE
8
BLACK
6
CONTINUOUS
10
0.966714
20
0.830379
11
0.966714
21
0.832953
0
LINE
8
BLACK
6
CONTINUOUS
10
0.966714
20
0.832953
11
0.965365
21
0.83565
0
LINE
8
BLACK
6
CONTINUOUS
10
0.965365
20
0.83565
11
0.964168
21
0.836847
0
LINE
8
BLACK
6
CONTINUOUS
10
0.964168
20
0.836847
11
0.96147
21
0.838196
0
LINE
8
BLACK
6
CONTINUOUS
10
0.96147
20
0.838196
11
0.95349
21
0.838196
0
LINE
8
BLACK
6
CONTINUOUS
10
0.95349
20
0.838196
11
0.950793
21
0.836847
0
LINE
8
BLACK
6
CONTINUOUS
10
0.950793
20
0.836847
11
0.949257
21
0.835311
0
LINE
8
BLACK
6
CONTINUOUS
10
0.949257
20
0.835311
11
0.948417
21
0.834723
0
LINE
8
BLACK
6
CONTINUOUS
10
0.948417
20
0.834723
11
0.946405
21
0.834547
0
LINE
8
BLACK
6
CONTINUOUS
10
0.946405
20
0.834547
11
0.94475
21
0.835706
0
LINE
8
BLACK
6
CONTINUOUS
10
0.94475
20
0.835706
11
0.944228
21
0.837657
0
LINE
8
BLACK
6
CONTINUOUS
10
0.944228
20
0.837657
11
0.945081
21
0.839487
0
LINE
8
BLACK
6
CONTINUOUS
10
0.945081
20
0.839487
11
0.946956
21
0.841362
0
LINE
8
BLACK
6
CONTINUOUS
10
0.946956
20
0.841362
11
0.947679
21
0.841868
0
LINE
8
BLACK
6
CONTINUOUS
10
0.947679
20
0.841868
11
0.947723
21
0.841915
0
LINE
8
BLACK
6
CONTINUOUS
10
0.947723
20
0.841915
11
0.951473
21
0.84379
0
LINE
8
BLACK
6
CONTINUOUS
10
0.951473
20
0.84379
11
0.952456
21
0.844082
0
LINE
8
BLACK
6
CONTINUOUS
10
0.952456
20
0.844082
11
0.952627
21
0.844041
0
LINE
8
BLACK
6
CONTINUOUS
10
0.952627
20
0.844041
11
0.952793
21
0.844102
0
LINE
8
BLACK
6
CONTINUOUS
10
0.952793
20
0.844102
11
0.962167
21
0.844102
0
LINE
8
BLACK
6
CONTINUOUS
10
0.962167
20
0.844102
11
0.963177
21
0.843924
0
LINE
8
BLACK
6
CONTINUOUS
10
0.696338
20
0.843047
11
0.697028
21
0.841149
0
LINE
8
BLACK
6
CONTINUOUS
10
0.697028
20
0.841149
11
0.697028
21
0.801779
0
LINE
8
BLACK
6
CONTINUOUS
10
0.697028
20
0.801779
11
0.69685
21
0.800769
0
LINE
8
BLACK
6
CONTINUOUS
10
0.69685
20
0.800769
11
0.695552
21
0.799222
0
LINE
8
BLACK
6
CONTINUOUS
10
0.695552
20
0.799222
11
0.693563
21
0.798871
0
LINE
8
BLACK
6
CONTINUOUS
10
0.693563
20
0.798871
11
0.691814
21
0.799881
0
LINE
8
BLACK
6
CONTINUOUS
10
0.691814
20
0.799881
11
0.691123
21
0.801779
0
LINE
8
BLACK
6
CONTINUOUS
10
0.691123
20
0.801779
11
0.691123
21
0.819448
0
LINE
8
BLACK
6
CONTINUOUS
10
0.691123
20
0.819448
11
0.674531
21
0.819448
0
LINE
8
BLACK
6
CONTINUOUS
10
0.674531
20
0.819448
11
0.674531
21
0.801779
0
LINE
8
BLACK
6
CONTINUOUS
10
0.674531
20
0.801779
11
0.674353
21
0.800769
0
LINE
8
BLACK
6
CONTINUOUS
10
0.674353
20
0.800769
11
0.673055
21
0.799222
0
LINE
8
BLACK
6
CONTINUOUS
10
0.673055
20
0.799222
11
0.671066
21
0.798871
0
LINE
8
BLACK
6
CONTINUOUS
10
0.671066
20
0.798871
11
0.669317
21
0.799881
0
LINE
8
BLACK
6
CONTINUOUS
10
0.669317
20
0.799881
11
0.668626
21
0.801779
0
LINE
8
BLACK
6
CONTINUOUS
10
0.668626
20
0.801779
11
0.668626
21
0.841149
0
LINE
8
BLACK
6
CONTINUOUS
10
0.668626
20
0.841149
11
0.668804
21
0.842159
0
LINE
8
BLACK
6
CONTINUOUS
10
0.668804
20
0.842159
11
0.670102
21
0.843706
0
LINE
8
BLACK
6
CONTINUOUS
10
0.670102
20
0.843706
11
0.672091
21
0.844057
0
LINE
8
BLACK
6
CONTINUOUS
10
0.672091
20
0.844057
11
0.67384
21
0.843047
0
LINE
8
BLACK
6
CONTINUOUS
10
0.67384
20
0.843047
11
0.674531
21
0.841149
0
LINE
8
BLACK
6
CONTINUOUS
10
0.674531
20
0.841149
11
0.674531
21
0.825354
0
LINE
8
BLACK
6
CONTINUOUS
10
0.674531
20
0.825354
11
0.691123
21
0.825354
0
LINE
8
BLACK
6
CONTINUOUS
10
0.691123
20
0.825354
11
0.691123
21
0.841149
0
LINE
8
BLACK
6
CONTINUOUS
10
0.691123
20
0.841149
11
0.691301
21
0.842159
0
LINE
8
BLACK
6
CONTINUOUS
10
0.691301
20
0.842159
11
0.692599
21
0.843706
0
LINE
8
BLACK
6
CONTINUOUS
10
0.692599
20
0.843706
11
0.694588
21
0.844057
0
LINE
8
BLACK
6
CONTINUOUS
10
0.694588
20
0.844057
11
0.696338
21
0.843047
0
LINE
8
BLACK
6
CONTINUOUS
10
0.81882
20
0.819552
11
0.820367
21
0.818253
0
LINE
8
BLACK
6
CONTINUOUS
10
0.820367
20
0.818253
11
0.820718
21
0.816264
0
LINE
8
BLACK
6
CONTINUOUS
10
0.820718
20
0.816264
11
0.819708
21
0.814515
0
LINE
8
BLACK
6
CONTINUOUS
10
0.819708
20
0.814515
11
0.81781
21
0.813824
0
LINE
8
BLACK
6
CONTINUOUS
10
0.81781
20
0.813824
11
0.787814
21
0.813824
0
LINE
8
BLACK
6
CONTINUOUS
10
0.787814
20
0.813824
11
0.786804
21
0.814002
0
LINE
8
BLACK
6
CONTINUOUS
10
0.786804
20
0.814002
11
0.785257
21
0.815301
0
LINE
8
BLACK
6
CONTINUOUS
10
0.785257
20
0.815301
11
0.784906
21
0.81729
0
LINE
8
BLACK
6
CONTINUOUS
10
0.784906
20
0.81729
11
0.785916
21
0.819039
0
LINE
8
BLACK
6
CONTINUOUS
10
0.785916
20
0.819039
11
0.787814
21
0.81973
0
LINE
8
BLACK
6
CONTINUOUS
10
0.787814
20
0.81973
11
0.81781
21
0.81973
0
LINE
8
BLACK
6
CONTINUOUS
10
0.81781
20
0.81973
11
0.81882
21
0.819552
  0
ENDSEC
  0
EOF
