  0
SECTION
  2
HEADER
  9
$ANGBASE
  50
0.0
  9
$ANGDIR
  70
1
  9
$MEASUREMENT
  70
0
  0
ENDSEC
  0
SECTION
  2
TABLES
  0
TABLE
  2
LTYPE
  70
4
  0
LTYPE
  5
40F
  2
CONTINUOUS
  70
0
  3
Solid line
  72
65
  73
0
  40
0.0
  0
LTYPE
  5
410
  2
DASHDOT
 70
0
  3
Dash Dot ____ _ ____ _
 72
65
 73
4
 40
2.0
 49
1.25
 49
-0.25
 49
0.25
 49
-0.25
  0
LTYPE
  5
411
  2
DASHED
 70
0
  3
Dashed __ __ __ __ __
 72
65
 73
2
 40
0.75
 49
0.5
 49
-0.25
  0
LTYPE
  5
43B
  2
DOTTED
 70
0
  3
Dotted .  .  .  .
 72
65
 73
2
 40
0.2
 49
0.0
 49
-0.2
  0
ENDTAB
  0
TABLE
  2
STYLE
  70
4
  0
STYLE
  2
KICAD
  70
0
  40
0
  41
1
  42
1
  50
0
  71
0
  3
isocp.shx
  0
STYLE
  2
KICADB
  70
0
  40
0
  41
1
  42
1
  50
0
  71
0
  3
isocp.shx
  0
STYLE
  2
KICADI
  70
0
  40
0
  41
1
  42
1
  50
15
  71
0
  3
isocp.shx
  0
STYLE
  2
KICADBI
  70
0
  40
0
  41
1
  42
1
  50
15
  71
0
  3
isocp.shx
  0
ENDTAB
  0
TABLE
  2
LAYER
  70
1
  0
LAYER
  2
BLACK
  70
0
  62
7
  6
CONTINUOUS
  0
ENDTAB
  0
ENDSEC
  0
SECTION
  2
ENTITIES
0
LINE
8
BLACK
6
CONTINUOUS
10
0.55
20
0.1
11
0.49
21
0.1
0
LINE
8
BLACK
6
CONTINUOUS
10
0.49
20
0.1
11
0.49
21
0.16
0
LINE
8
BLACK
6
CONTINUOUS
10
0.49
20
0.16
11
0.55
21
0.16
0
LINE
8
BLACK
6
CONTINUOUS
10
0.55
20
0.16
11
0.55
21
0.1
0
LINE
8
BLACK
6
CONTINUOUS
10
0.65
20
0.1
11
0.59
21
0.1
0
LINE
8
BLACK
6
CONTINUOUS
10
0.59
20
0.1
11
0.59
21
0.16
0
LINE
8
BLACK
6
CONTINUOUS
10
0.59
20
0.16
11
0.65
21
0.16
0
LINE
8
BLACK
6
CONTINUOUS
10
0.65
20
0.16
11
0.65
21
0.1
0
LINE
8
BLACK
6
CONTINUOUS
10
0.75
20
0.1
11
0.69
21
0.1
0
LINE
8
BLACK
6
CONTINUOUS
10
0.69
20
0.1
11
0.69
21
0.16
0
LINE
8
BLACK
6
CONTINUOUS
10
0.69
20
0.16
11
0.75
21
0.16
0
LINE
8
BLACK
6
CONTINUOUS
10
0.75
20
0.16
11
0.75
21
0.1
0
LINE
8
BLACK
6
CONTINUOUS
10
0.85
20
0.1
11
0.79
21
0.1
0
LINE
8
BLACK
6
CONTINUOUS
10
0.79
20
0.1
11
0.79
21
0.16
0
LINE
8
BLACK
6
CONTINUOUS
10
0.79
20
0.16
11
0.85
21
0.16
0
LINE
8
BLACK
6
CONTINUOUS
10
0.85
20
0.16
11
0.85
21
0.1
0
LINE
8
BLACK
6
CONTINUOUS
10
1.02442
20
0.122984
11
0.958417
21
0.122984
0
LINE
8
BLACK
6
CONTINUOUS
10
0.958417
20
0.122984
11
0.958417
21
0.188984
0
LINE
8
BLACK
6
CONTINUOUS
10
0.958417
20
0.188984
11
1.02442
21
0.188984
0
LINE
8
BLACK
6
CONTINUOUS
10
1.02442
20
0.188984
11
1.02442
21
0.122984
0
LINE
8
BLACK
6
CONTINUOUS
10
0.55
20
0.2
11
0.49
21
0.2
0
LINE
8
BLACK
6
CONTINUOUS
10
0.49
20
0.2
11
0.49
21
0.26
0
LINE
8
BLACK
6
CONTINUOUS
10
0.49
20
0.26
11
0.55
21
0.26
0
LINE
8
BLACK
6
CONTINUOUS
10
0.55
20
0.26
11
0.55
21
0.2
0
LINE
8
BLACK
6
CONTINUOUS
10
0.75
20
0.2
11
0.69
21
0.2
0
LINE
8
BLACK
6
CONTINUOUS
10
0.69
20
0.2
11
0.69
21
0.26
0
LINE
8
BLACK
6
CONTINUOUS
10
0.69
20
0.26
11
0.75
21
0.26
0
LINE
8
BLACK
6
CONTINUOUS
10
0.75
20
0.26
11
0.75
21
0.2
0
LINE
8
BLACK
6
CONTINUOUS
10
0.65
20
0.2
11
0.59
21
0.2
0
LINE
8
BLACK
6
CONTINUOUS
10
0.59
20
0.2
11
0.59
21
0.26
0
LINE
8
BLACK
6
CONTINUOUS
10
0.59
20
0.26
11
0.65
21
0.26
0
LINE
8
BLACK
6
CONTINUOUS
10
0.65
20
0.26
11
0.65
21
0.2
0
LINE
8
BLACK
6
CONTINUOUS
10
0.744866
20
0.894977
11
0.749256
21
0.89274
0
LINE
8
BLACK
6
CONTINUOUS
10
0.749256
20
0.89274
11
0.75274
21
0.889256
0
LINE
8
BLACK
6
CONTINUOUS
10
0.75274
20
0.889256
11
0.754977
21
0.884866
0
LINE
8
BLACK
6
CONTINUOUS
10
0.754977
20
0.884866
11
0.755748
21
0.88
0
LINE
8
BLACK
6
CONTINUOUS
10
0.755748
20
0.88
11
0.754977
21
0.875134
0
LINE
8
BLACK
6
CONTINUOUS
10
0.754977
20
0.875134
11
0.75274
21
0.870744
0
LINE
8
BLACK
6
CONTINUOUS
10
0.75274
20
0.870744
11
0.751811
21
0.869814
0
LINE
8
BLACK
6
CONTINUOUS
10
0.751811
20
0.869814
11
0.751811
21
0.544892
0
LINE
8
BLACK
6
CONTINUOUS
10
0.751811
20
0.544892
11
0.824892
21
0.471811
0
LINE
8
BLACK
6
CONTINUOUS
10
0.824892
20
0.471811
11
0.878811
21
0.471811
0
LINE
8
BLACK
6
CONTINUOUS
10
0.878811
20
0.471811
11
0.879193
21
0.471776
0
LINE
8
BLACK
6
CONTINUOUS
10
0.879193
20
0.471776
11
0.879356
21
0.471798
0
LINE
8
BLACK
6
CONTINUOUS
10
0.879356
20
0.471798
11
0.879623
21
0.471736
0
LINE
8
BLACK
6
CONTINUOUS
10
0.879623
20
0.471736
11
0.880981
21
0.47161
0
LINE
8
BLACK
6
CONTINUOUS
10
0.880981
20
0.47161
11
0.882254
21
0.471117
0
LINE
8
BLACK
6
CONTINUOUS
10
0.882254
20
0.471117
11
0.883582
21
0.470805
0
LINE
8
BLACK
6
CONTINUOUS
10
0.883582
20
0.470805
11
0.884261
21
0.470339
0
LINE
8
BLACK
6
CONTINUOUS
10
0.884261
20
0.470339
11
0.885029
21
0.470042
0
LINE
8
BLACK
6
CONTINUOUS
10
0.885029
20
0.470042
11
0.886037
21
0.469123
0
LINE
8
BLACK
6
CONTINUOUS
10
0.886037
20
0.469123
11
0.887163
21
0.468352
0
LINE
8
BLACK
6
CONTINUOUS
10
0.887163
20
0.468352
11
0.939688
21
0.415827
0
LINE
8
BLACK
6
CONTINUOUS
10
0.939688
20
0.415827
11
0.958417
21
0.415827
0
LINE
8
BLACK
6
CONTINUOUS
10
0.958417
20
0.415827
11
0.958417
21
0.437016
0
LINE
8
BLACK
6
CONTINUOUS
10
0.958417
20
0.437016
11
1.02442
21
0.437016
0
LINE
8
BLACK
6
CONTINUOUS
10
1.02442
20
0.437016
11
1.02442
21
0.371016
0
LINE
8
BLACK
6
CONTINUOUS
10
1.02442
20
0.371016
11
0.958417
21
0.371016
0
LINE
8
BLACK
6
CONTINUOUS
10
0.958417
20
0.371016
11
0.958417
21
0.392205
0
LINE
8
BLACK
6
CONTINUOUS
10
0.958417
20
0.392205
11
0.934795
21
0.392205
0
LINE
8
BLACK
6
CONTINUOUS
10
0.934795
20
0.392205
11
0.934413
21
0.39224
0
LINE
8
BLACK
6
CONTINUOUS
10
0.934413
20
0.39224
11
0.93425
21
0.392217
0
LINE
8
BLACK
6
CONTINUOUS
10
0.93425
20
0.392217
11
0.933983
21
0.39228
0
LINE
8
BLACK
6
CONTINUOUS
10
0.933983
20
0.39228
11
0.932625
21
0.392406
0
LINE
8
BLACK
6
CONTINUOUS
10
0.932625
20
0.392406
11
0.931353
21
0.392899
0
LINE
8
BLACK
6
CONTINUOUS
10
0.931353
20
0.392899
11
0.930025
21
0.393211
0
LINE
8
BLACK
6
CONTINUOUS
10
0.930025
20
0.393211
11
0.929345
21
0.393676
0
LINE
8
BLACK
6
CONTINUOUS
10
0.929345
20
0.393676
11
0.928578
21
0.393974
0
LINE
8
BLACK
6
CONTINUOUS
10
0.928578
20
0.393974
11
0.927569
21
0.394893
0
LINE
8
BLACK
6
CONTINUOUS
10
0.927569
20
0.394893
11
0.926444
21
0.395664
0
LINE
8
BLACK
6
CONTINUOUS
10
0.926444
20
0.395664
11
0.873919
21
0.448189
0
LINE
8
BLACK
6
CONTINUOUS
10
0.873919
20
0.448189
11
0.831811
21
0.448189
0
LINE
8
BLACK
6
CONTINUOUS
10
0.831811
20
0.448189
11
0.831811
21
0.26
0
LINE
8
BLACK
6
CONTINUOUS
10
0.831811
20
0.26
11
0.85
21
0.26
0
LINE
8
BLACK
6
CONTINUOUS
10
0.85
20
0.26
11
0.85
21
0.2
0
LINE
8
BLACK
6
CONTINUOUS
10
0.85
20
0.2
11
0.79
21
0.2
0
LINE
8
BLACK
6
CONTINUOUS
10
0.79
20
0.2
11
0.79
21
0.26
0
LINE
8
BLACK
6
CONTINUOUS
10
0.79
20
0.26
11
0.808189
21
0.26
0
LINE
8
BLACK
6
CONTINUOUS
10
0.808189
20
0.26
11
0.808189
21
0.455108
0
LINE
8
BLACK
6
CONTINUOUS
10
0.808189
20
0.455108
11
0.731648
21
0.531648
0
LINE
8
BLACK
6
CONTINUOUS
10
0.731648
20
0.531648
11
0.731403
21
0.531943
0
LINE
8
BLACK
6
CONTINUOUS
10
0.731403
20
0.531943
11
0.731272
21
0.532043
0
LINE
8
BLACK
6
CONTINUOUS
10
0.731272
20
0.532043
11
0.731127
21
0.532276
0
LINE
8
BLACK
6
CONTINUOUS
10
0.731127
20
0.532276
11
0.730256
21
0.533325
0
LINE
8
BLACK
6
CONTINUOUS
10
0.730256
20
0.533325
11
0.729705
21
0.534573
0
LINE
8
BLACK
6
CONTINUOUS
10
0.729705
20
0.534573
11
0.728987
21
0.535733
0
LINE
8
BLACK
6
CONTINUOUS
10
0.728987
20
0.535733
11
0.728835
21
0.536543
0
LINE
8
BLACK
6
CONTINUOUS
10
0.728835
20
0.536543
11
0.728503
21
0.537296
0
LINE
8
BLACK
6
CONTINUOUS
10
0.728503
20
0.537296
11
0.72844
21
0.538659
0
LINE
8
BLACK
6
CONTINUOUS
10
0.72844
20
0.538659
11
0.728189
21
0.54
0
LINE
8
BLACK
6
CONTINUOUS
10
0.728189
20
0.54
11
0.728189
21
0.869814
0
LINE
8
BLACK
6
CONTINUOUS
10
0.728189
20
0.869814
11
0.72726
21
0.870744
0
LINE
8
BLACK
6
CONTINUOUS
10
0.72726
20
0.870744
11
0.725023
21
0.875134
0
LINE
8
BLACK
6
CONTINUOUS
10
0.725023
20
0.875134
11
0.724252
21
0.88
0
LINE
8
BLACK
6
CONTINUOUS
10
0.724252
20
0.88
11
0.725023
21
0.884866
0
LINE
8
BLACK
6
CONTINUOUS
10
0.725023
20
0.884866
11
0.72726
21
0.889256
0
LINE
8
BLACK
6
CONTINUOUS
10
0.72726
20
0.889256
11
0.730744
21
0.89274
0
LINE
8
BLACK
6
CONTINUOUS
10
0.730744
20
0.89274
11
0.735134
21
0.894977
0
LINE
8
BLACK
6
CONTINUOUS
10
0.735134
20
0.894977
11
0.74
21
0.895748
0
LINE
8
BLACK
6
CONTINUOUS
10
0.74
20
0.895748
11
0.744866
21
0.894977
0
LINE
8
BLACK
6
CONTINUOUS
10
0.530382
20
0.961776
11
0.530545
21
0.961798
0
LINE
8
BLACK
6
CONTINUOUS
10
0.530545
20
0.961798
11
0.530812
21
0.961736
0
LINE
8
BLACK
6
CONTINUOUS
10
0.530812
20
0.961736
11
0.53217
21
0.96161
0
LINE
8
BLACK
6
CONTINUOUS
10
0.53217
20
0.96161
11
0.533443
21
0.961117
0
LINE
8
BLACK
6
CONTINUOUS
10
0.533443
20
0.961117
11
0.534771
21
0.960805
0
LINE
8
BLACK
6
CONTINUOUS
10
0.534771
20
0.960805
11
0.53545
21
0.960339
0
LINE
8
BLACK
6
CONTINUOUS
10
0.53545
20
0.960339
11
0.536218
21
0.960042
0
LINE
8
BLACK
6
CONTINUOUS
10
0.536218
20
0.960042
11
0.537226
21
0.959123
0
LINE
8
BLACK
6
CONTINUOUS
10
0.537226
20
0.959123
11
0.538352
21
0.958352
0
LINE
8
BLACK
6
CONTINUOUS
10
0.538352
20
0.958352
11
0.601135
21
0.895568
0
LINE
8
BLACK
6
CONTINUOUS
10
0.601135
20
0.895568
11
0.604866
21
0.894977
0
LINE
8
BLACK
6
CONTINUOUS
10
0.604866
20
0.894977
11
0.609256
21
0.89274
0
LINE
8
BLACK
6
CONTINUOUS
10
0.609256
20
0.89274
11
0.61274
21
0.889256
0
LINE
8
BLACK
6
CONTINUOUS
10
0.61274
20
0.889256
11
0.614977
21
0.884866
0
LINE
8
BLACK
6
CONTINUOUS
10
0.614977
20
0.884866
11
0.615748
21
0.88
0
LINE
8
BLACK
6
CONTINUOUS
10
0.615748
20
0.88
11
0.614977
21
0.875134
0
LINE
8
BLACK
6
CONTINUOUS
10
0.614977
20
0.875134
11
0.61274
21
0.870744
0
LINE
8
BLACK
6
CONTINUOUS
10
0.61274
20
0.870744
11
0.609256
21
0.86726
0
LINE
8
BLACK
6
CONTINUOUS
10
0.609256
20
0.86726
11
0.604866
21
0.865023
0
LINE
8
BLACK
6
CONTINUOUS
10
0.604866
20
0.865023
11
0.6
21
0.864252
0
LINE
8
BLACK
6
CONTINUOUS
10
0.6
20
0.864252
11
0.595134
21
0.865023
0
LINE
8
BLACK
6
CONTINUOUS
10
0.595134
20
0.865023
11
0.590744
21
0.86726
0
LINE
8
BLACK
6
CONTINUOUS
10
0.590744
20
0.86726
11
0.58726
21
0.870744
0
LINE
8
BLACK
6
CONTINUOUS
10
0.58726
20
0.870744
11
0.585023
21
0.875134
0
LINE
8
BLACK
6
CONTINUOUS
10
0.585023
20
0.875134
11
0.584432
21
0.878865
0
LINE
8
BLACK
6
CONTINUOUS
10
0.584432
20
0.878865
11
0.525108
21
0.938189
0
LINE
8
BLACK
6
CONTINUOUS
10
0.525108
20
0.938189
11
0.261979
21
0.938189
0
LINE
8
BLACK
6
CONTINUOUS
10
0.261979
20
0.938189
11
0.22126
21
0.89747
0
LINE
8
BLACK
6
CONTINUOUS
10
0.22126
20
0.89747
11
0.22126
21
0.87874
0
LINE
8
BLACK
6
CONTINUOUS
10
0.22126
20
0.87874
11
0.307874
21
0.87874
0
LINE
8
BLACK
6
CONTINUOUS
10
0.307874
20
0.87874
11
0.307874
21
0.72126
0
LINE
8
BLACK
6
CONTINUOUS
10
0.307874
20
0.72126
11
0.111024
21
0.72126
0
LINE
8
BLACK
6
CONTINUOUS
10
0.111024
20
0.72126
11
0.111024
21
0.87874
0
LINE
8
BLACK
6
CONTINUOUS
10
0.111024
20
0.87874
11
0.197638
21
0.87874
0
LINE
8
BLACK
6
CONTINUOUS
10
0.197638
20
0.87874
11
0.197638
21
0.902362
0
LINE
8
BLACK
6
CONTINUOUS
10
0.197638
20
0.902362
11
0.197673
21
0.902744
0
LINE
8
BLACK
6
CONTINUOUS
10
0.197673
20
0.902744
11
0.19765
21
0.902908
0
LINE
8
BLACK
6
CONTINUOUS
10
0.19765
20
0.902908
11
0.197713
21
0.903174
0
LINE
8
BLACK
6
CONTINUOUS
10
0.197713
20
0.903174
11
0.197839
21
0.904532
0
LINE
8
BLACK
6
CONTINUOUS
10
0.197839
20
0.904532
11
0.198332
21
0.905805
0
LINE
8
BLACK
6
CONTINUOUS
10
0.198332
20
0.905805
11
0.198644
21
0.907133
0
LINE
8
BLACK
6
CONTINUOUS
10
0.198644
20
0.907133
11
0.199109
21
0.907812
0
LINE
8
BLACK
6
CONTINUOUS
10
0.199109
20
0.907812
11
0.199407
21
0.90858
0
LINE
8
BLACK
6
CONTINUOUS
10
0.199407
20
0.90858
11
0.200326
21
0.909588
0
LINE
8
BLACK
6
CONTINUOUS
10
0.200326
20
0.909588
11
0.201097
21
0.910714
0
LINE
8
BLACK
6
CONTINUOUS
10
0.201097
20
0.910714
11
0.248735
21
0.958352
0
LINE
8
BLACK
6
CONTINUOUS
10
0.248735
20
0.958352
11
0.24903
21
0.958597
0
LINE
8
BLACK
6
CONTINUOUS
10
0.24903
20
0.958597
11
0.24913
21
0.958728
0
LINE
8
BLACK
6
CONTINUOUS
10
0.24913
20
0.958728
11
0.249362
21
0.958872
0
LINE
8
BLACK
6
CONTINUOUS
10
0.249362
20
0.958872
11
0.250412
21
0.959744
0
LINE
8
BLACK
6
CONTINUOUS
10
0.250412
20
0.959744
11
0.25166
21
0.960295
0
LINE
8
BLACK
6
CONTINUOUS
10
0.25166
20
0.960295
11
0.25282
21
0.961013
0
LINE
8
BLACK
6
CONTINUOUS
10
0.25282
20
0.961013
11
0.253629
21
0.961165
0
LINE
8
BLACK
6
CONTINUOUS
10
0.253629
20
0.961165
11
0.254382
21
0.961497
0
LINE
8
BLACK
6
CONTINUOUS
10
0.254382
20
0.961497
11
0.255745
21
0.96156
0
LINE
8
BLACK
6
CONTINUOUS
10
0.255745
20
0.96156
11
0.257087
21
0.961811
0
LINE
8
BLACK
6
CONTINUOUS
10
0.257087
20
0.961811
11
0.53
21
0.961811
0
LINE
8
BLACK
6
CONTINUOUS
10
0.53
20
0.961811
11
0.530382
21
0.961776
0
LINE
8
BLACK
6
CONTINUOUS
10
0.902084
20
0.979385
11
0.904184
21
0.979235
0
LINE
8
BLACK
6
CONTINUOUS
10
0.904184
20
0.979235
11
0.904846
21
0.978988
0
LINE
8
BLACK
6
CONTINUOUS
10
0.904846
20
0.978988
11
0.905546
21
0.978888
0
LINE
8
BLACK
6
CONTINUOUS
10
0.905546
20
0.978888
11
0.907461
21
0.978013
0
LINE
8
BLACK
6
CONTINUOUS
10
0.907461
20
0.978013
11
0.909434
21
0.977277
0
LINE
8
BLACK
6
CONTINUOUS
10
0.909434
20
0.977277
11
0.91
21
0.976854
0
LINE
8
BLACK
6
CONTINUOUS
10
0.91
20
0.976854
11
0.910643
21
0.97656
0
LINE
8
BLACK
6
CONTINUOUS
10
0.910643
20
0.97656
11
0.912234
21
0.975181
0
LINE
8
BLACK
6
CONTINUOUS
10
0.912234
20
0.975181
11
0.913919
21
0.973919
0
LINE
8
BLACK
6
CONTINUOUS
10
0.913919
20
0.973919
11
0.993919
21
0.893919
0
LINE
8
BLACK
6
CONTINUOUS
10
0.993919
20
0.893919
11
0.997277
21
0.889434
0
LINE
8
BLACK
6
CONTINUOUS
10
0.997277
20
0.889434
11
0.999235
21
0.884184
0
LINE
8
BLACK
6
CONTINUOUS
10
0.999235
20
0.884184
11
0.999635
21
0.878596
0
LINE
8
BLACK
6
CONTINUOUS
10
0.999635
20
0.878596
11
0.998444
21
0.873121
0
LINE
8
BLACK
6
CONTINUOUS
10
0.998444
20
0.873121
11
0.995759
21
0.868203
0
LINE
8
BLACK
6
CONTINUOUS
10
0.995759
20
0.868203
11
0.991797
21
0.864241
0
LINE
8
BLACK
6
CONTINUOUS
10
0.991797
20
0.864241
11
0.986879
21
0.861556
0
LINE
8
BLACK
6
CONTINUOUS
10
0.986879
20
0.861556
11
0.981404
21
0.860365
0
LINE
8
BLACK
6
CONTINUOUS
10
0.981404
20
0.860365
11
0.975816
21
0.860765
0
LINE
8
BLACK
6
CONTINUOUS
10
0.975816
20
0.860765
11
0.970566
21
0.862723
0
LINE
8
BLACK
6
CONTINUOUS
10
0.970566
20
0.862723
11
0.966081
21
0.866081
0
LINE
8
BLACK
6
CONTINUOUS
10
0.966081
20
0.866081
11
0.891846
21
0.940315
0
LINE
8
BLACK
6
CONTINUOUS
10
0.891846
20
0.940315
11
0.84
21
0.940315
0
LINE
8
BLACK
6
CONTINUOUS
10
0.84
20
0.940315
11
0.834454
21
0.941112
0
LINE
8
BLACK
6
CONTINUOUS
10
0.834454
20
0.941112
11
0.829357
21
0.94344
0
LINE
8
BLACK
6
CONTINUOUS
10
0.829357
20
0.94344
11
0.825123
21
0.947109
0
LINE
8
BLACK
6
CONTINUOUS
10
0.825123
20
0.947109
11
0.822094
21
0.951823
0
LINE
8
BLACK
6
CONTINUOUS
10
0.822094
20
0.951823
11
0.820515
21
0.957199
0
LINE
8
BLACK
6
CONTINUOUS
10
0.820515
20
0.957199
11
0.820515
21
0.962801
0
LINE
8
BLACK
6
CONTINUOUS
10
0.820515
20
0.962801
11
0.822094
21
0.968177
0
LINE
8
BLACK
6
CONTINUOUS
10
0.822094
20
0.968177
11
0.825123
21
0.972891
0
LINE
8
BLACK
6
CONTINUOUS
10
0.825123
20
0.972891
11
0.829357
21
0.97656
0
LINE
8
BLACK
6
CONTINUOUS
10
0.829357
20
0.97656
11
0.834454
21
0.978888
0
LINE
8
BLACK
6
CONTINUOUS
10
0.834454
20
0.978888
11
0.84
21
0.979685
0
LINE
8
BLACK
6
CONTINUOUS
10
0.84
20
0.979685
11
0.9
21
0.979685
0
LINE
8
BLACK
6
CONTINUOUS
10
0.9
20
0.979685
11
0.902084
21
0.979385
0
LINE
8
BLACK
6
CONTINUOUS
10
0.59
20
1.33
11
0.53
21
1.33
0
LINE
8
BLACK
6
CONTINUOUS
10
0.53
20
1.33
11
0.53
21
1.39
0
LINE
8
BLACK
6
CONTINUOUS
10
0.53
20
1.39
11
0.59
21
1.39
0
LINE
8
BLACK
6
CONTINUOUS
10
0.59
20
1.39
11
0.59
21
1.33
0
LINE
8
BLACK
6
CONTINUOUS
10
0.69
20
1.33
11
0.63
21
1.33
0
LINE
8
BLACK
6
CONTINUOUS
10
0.63
20
1.33
11
0.63
21
1.39
0
LINE
8
BLACK
6
CONTINUOUS
10
0.63
20
1.39
11
0.69
21
1.39
0
LINE
8
BLACK
6
CONTINUOUS
10
0.69
20
1.39
11
0.69
21
1.33
0
LINE
8
BLACK
6
CONTINUOUS
10
0.79
20
1.33
11
0.73
21
1.33
0
LINE
8
BLACK
6
CONTINUOUS
10
0.73
20
1.33
11
0.73
21
1.39
0
LINE
8
BLACK
6
CONTINUOUS
10
0.73
20
1.39
11
0.79
21
1.39
0
LINE
8
BLACK
6
CONTINUOUS
10
0.79
20
1.39
11
0.79
21
1.33
0
LINE
8
BLACK
6
CONTINUOUS
10
0.59
20
1.43
11
0.53
21
1.43
0
LINE
8
BLACK
6
CONTINUOUS
10
0.53
20
1.43
11
0.53
21
1.49
0
LINE
8
BLACK
6
CONTINUOUS
10
0.53
20
1.49
11
0.59
21
1.49
0
LINE
8
BLACK
6
CONTINUOUS
10
0.59
20
1.49
11
0.59
21
1.43
0
LINE
8
BLACK
6
CONTINUOUS
10
0.69
20
1.43
11
0.63
21
1.43
0
LINE
8
BLACK
6
CONTINUOUS
10
0.63
20
1.43
11
0.63
21
1.49
0
LINE
8
BLACK
6
CONTINUOUS
10
0.63
20
1.49
11
0.69
21
1.49
0
LINE
8
BLACK
6
CONTINUOUS
10
0.69
20
1.49
11
0.69
21
1.43
0
LINE
8
BLACK
6
CONTINUOUS
10
0.79
20
1.43
11
0.73
21
1.43
0
LINE
8
BLACK
6
CONTINUOUS
10
0.73
20
1.43
11
0.73
21
1.49
0
LINE
8
BLACK
6
CONTINUOUS
10
0.73
20
1.49
11
0.79
21
1.49
0
LINE
8
BLACK
6
CONTINUOUS
10
0.79
20
1.49
11
0.79
21
1.43
0
LINE
8
BLACK
6
CONTINUOUS
10
1.58542
20
1.58628
11
1.58684
21
1.58433
0
LINE
8
BLACK
6
CONTINUOUS
10
1.58684
20
1.58433
11
1.58703
21
1.58313
0
LINE
8
BLACK
6
CONTINUOUS
10
1.58703
20
1.58313
11
1.58703
21
0.0168701
0
LINE
8
BLACK
6
CONTINUOUS
10
1.58703
20
0.0168701
11
1.58628
21
0.0145791
0
LINE
8
BLACK
6
CONTINUOUS
10
1.58628
20
0.0145791
11
1.58433
21
0.0131632
0
LINE
8
BLACK
6
CONTINUOUS
10
1.58433
20
0.0131632
11
1.58313
21
0.0129724
0
LINE
8
BLACK
6
CONTINUOUS
10
1.58313
20
0.0129724
11
0.0168701
21
0.0129724
0
LINE
8
BLACK
6
CONTINUOUS
10
0.0168701
20
0.0129724
11
0.0145791
21
0.0137168
0
LINE
8
BLACK
6
CONTINUOUS
10
0.0145791
20
0.0137168
11
0.0131632
21
0.0156656
0
LINE
8
BLACK
6
CONTINUOUS
10
0.0131632
20
0.0156656
11
0.0129724
21
0.0168701
0
LINE
8
BLACK
6
CONTINUOUS
10
0.0129724
20
0.0168701
11
0.0129724
21
0.0982338
0
LINE
8
BLACK
6
CONTINUOUS
10
0.0129724
20
0.0982338
11
0.0129724
21
0.198234
0
LINE
8
BLACK
6
CONTINUOUS
10
0.0129724
20
0.198234
11
0.0129724
21
0.719494
0
LINE
8
BLACK
6
CONTINUOUS
10
0.0129724
20
0.719494
11
0.0129724
21
1.32823
0
LINE
8
BLACK
6
CONTINUOUS
10
0.0129724
20
1.32823
11
0.0129724
21
1.42823
0
LINE
8
BLACK
6
CONTINUOUS
10
0.0129724
20
1.42823
11
0.0129724
21
1.58313
0
LINE
8
BLACK
6
CONTINUOUS
10
0.0129724
20
1.58313
11
0.0137168
21
1.58542
0
LINE
8
BLACK
6
CONTINUOUS
10
0.0137168
20
1.58542
11
0.0156656
21
1.58684
0
LINE
8
BLACK
6
CONTINUOUS
10
0.0156656
20
1.58684
11
0.0168701
21
1.58703
0
LINE
8
BLACK
6
CONTINUOUS
10
0.0168701
20
1.58703
11
1.58313
21
1.58703
0
LINE
8
BLACK
6
CONTINUOUS
10
1.58313
20
1.58703
11
1.58542
21
1.58628
0
LINE
8
BLACK
6
CONTINUOUS
10
0.561831
20
0.161766
11
0.561716
21
0.162756
0
LINE
8
BLACK
6
CONTINUOUS
10
0.561716
20
0.162756
11
0.559929
21
0.166802
0
LINE
8
BLACK
6
CONTINUOUS
10
0.559929
20
0.166802
11
0.556802
21
0.169929
0
LINE
8
BLACK
6
CONTINUOUS
10
0.556802
20
0.169929
11
0.552756
21
0.171716
0
LINE
8
BLACK
6
CONTINUOUS
10
0.552756
20
0.171716
11
0.551766
21
0.171831
0
LINE
8
BLACK
6
CONTINUOUS
10
0.551766
20
0.171831
11
0.488234
21
0.171831
0
LINE
8
BLACK
6
CONTINUOUS
10
0.488234
20
0.171831
11
0.487244
21
0.171716
0
LINE
8
BLACK
6
CONTINUOUS
10
0.487244
20
0.171716
11
0.483198
21
0.169929
0
LINE
8
BLACK
6
CONTINUOUS
10
0.483198
20
0.169929
11
0.480071
21
0.166802
0
LINE
8
BLACK
6
CONTINUOUS
10
0.480071
20
0.166802
11
0.480071
21
0.166802
0
LINE
8
BLACK
6
CONTINUOUS
10
0.480071
20
0.166802
11
0.478284
21
0.162755
0
LINE
8
BLACK
6
CONTINUOUS
10
0.478284
20
0.162755
11
0.478169
21
0.161766
0
LINE
8
BLACK
6
CONTINUOUS
10
0.478169
20
0.161766
11
0.478169
21
0.0982338
0
LINE
8
BLACK
6
CONTINUOUS
10
0.478169
20
0.0982338
11
0.478169
21
0.0982337
0
LINE
8
BLACK
6
CONTINUOUS
10
0.478169
20
0.0982337
11
0.478284
21
0.0972444
0
LINE
8
BLACK
6
CONTINUOUS
10
0.478284
20
0.0972444
11
0.480071
21
0.0931982
0
LINE
8
BLACK
6
CONTINUOUS
10
0.480071
20
0.0931982
11
0.483198
21
0.0900706
0
LINE
8
BLACK
6
CONTINUOUS
10
0.483198
20
0.0900706
11
0.487245
21
0.088284
0
LINE
8
BLACK
6
CONTINUOUS
10
0.487245
20
0.088284
11
0.488234
21
0.0881693
0
LINE
8
BLACK
6
CONTINUOUS
10
0.488234
20
0.0881693
11
0.488234
21
0.0881693
0
LINE
8
BLACK
6
CONTINUOUS
10
0.488234
20
0.0881693
11
0.551766
21
0.0881693
0
LINE
8
BLACK
6
CONTINUOUS
10
0.551766
20
0.0881693
11
0.551766
21
0.0881693
0
LINE
8
BLACK
6
CONTINUOUS
10
0.551766
20
0.0881693
11
0.551766
21
0.0881693
0
LINE
8
BLACK
6
CONTINUOUS
10
0.551766
20
0.0881693
11
0.551881
21
0.0881826
0
LINE
8
BLACK
6
CONTINUOUS
10
0.551881
20
0.0881826
11
0.552756
21
0.088284
0
LINE
8
BLACK
6
CONTINUOUS
10
0.552756
20
0.088284
11
0.555015
21
0.0892817
0
LINE
8
BLACK
6
CONTINUOUS
10
0.555015
20
0.0892817
11
0.556802
21
0.0900706
0
LINE
8
BLACK
6
CONTINUOUS
10
0.556802
20
0.0900706
11
0.559929
21
0.0931982
0
LINE
8
BLACK
6
CONTINUOUS
10
0.559929
20
0.0931982
11
0.561716
21
0.0972444
0
LINE
8
BLACK
6
CONTINUOUS
10
0.561716
20
0.0972444
11
0.561831
21
0.0982337
0
LINE
8
BLACK
6
CONTINUOUS
10
0.561831
20
0.0982337
11
0.561831
21
0.0982338
0
LINE
8
BLACK
6
CONTINUOUS
10
0.561831
20
0.0982338
11
0.561831
21
0.161766
0
LINE
8
BLACK
6
CONTINUOUS
10
0.578169
20
0.0982337
11
0.578284
21
0.0972444
0
LINE
8
BLACK
6
CONTINUOUS
10
0.578284
20
0.0972444
11
0.580071
21
0.0931982
0
LINE
8
BLACK
6
CONTINUOUS
10
0.580071
20
0.0931982
11
0.583198
21
0.0900706
0
LINE
8
BLACK
6
CONTINUOUS
10
0.583198
20
0.0900706
11
0.587245
21
0.088284
0
LINE
8
BLACK
6
CONTINUOUS
10
0.587245
20
0.088284
11
0.588234
21
0.0881693
0
LINE
8
BLACK
6
CONTINUOUS
10
0.588234
20
0.0881693
11
0.588234
21
0.0881693
0
LINE
8
BLACK
6
CONTINUOUS
10
0.588234
20
0.0881693
11
0.651766
21
0.0881693
0
LINE
8
BLACK
6
CONTINUOUS
10
0.651766
20
0.0881693
11
0.651766
21
0.0881693
0
LINE
8
BLACK
6
CONTINUOUS
10
0.651766
20
0.0881693
11
0.651766
21
0.0881693
0
LINE
8
BLACK
6
CONTINUOUS
10
0.651766
20
0.0881693
11
0.651881
21
0.0881826
0
LINE
8
BLACK
6
CONTINUOUS
10
0.651881
20
0.0881826
11
0.652756
21
0.088284
0
LINE
8
BLACK
6
CONTINUOUS
10
0.652756
20
0.088284
11
0.655015
21
0.0892817
0
LINE
8
BLACK
6
CONTINUOUS
10
0.655015
20
0.0892817
11
0.656802
21
0.0900706
0
LINE
8
BLACK
6
CONTINUOUS
10
0.656802
20
0.0900706
11
0.659929
21
0.0931982
0
LINE
8
BLACK
6
CONTINUOUS
10
0.659929
20
0.0931982
11
0.661716
21
0.0972444
0
LINE
8
BLACK
6
CONTINUOUS
10
0.661716
20
0.0972444
11
0.661831
21
0.0982337
0
LINE
8
BLACK
6
CONTINUOUS
10
0.661831
20
0.0982337
11
0.661831
21
0.0982338
0
LINE
8
BLACK
6
CONTINUOUS
10
0.661831
20
0.0982338
11
0.661831
21
0.161766
0
LINE
8
BLACK
6
CONTINUOUS
10
0.661831
20
0.161766
11
0.661716
21
0.162756
0
LINE
8
BLACK
6
CONTINUOUS
10
0.661716
20
0.162756
11
0.659929
21
0.166802
0
LINE
8
BLACK
6
CONTINUOUS
10
0.659929
20
0.166802
11
0.656802
21
0.169929
0
LINE
8
BLACK
6
CONTINUOUS
10
0.656802
20
0.169929
11
0.652756
21
0.171716
0
LINE
8
BLACK
6
CONTINUOUS
10
0.652756
20
0.171716
11
0.651766
21
0.171831
0
LINE
8
BLACK
6
CONTINUOUS
10
0.651766
20
0.171831
11
0.588234
21
0.171831
0
LINE
8
BLACK
6
CONTINUOUS
10
0.588234
20
0.171831
11
0.587244
21
0.171716
0
LINE
8
BLACK
6
CONTINUOUS
10
0.587244
20
0.171716
11
0.583198
21
0.169929
0
LINE
8
BLACK
6
CONTINUOUS
10
0.583198
20
0.169929
11
0.580071
21
0.166802
0
LINE
8
BLACK
6
CONTINUOUS
10
0.580071
20
0.166802
11
0.580071
21
0.166802
0
LINE
8
BLACK
6
CONTINUOUS
10
0.580071
20
0.166802
11
0.578284
21
0.162755
0
LINE
8
BLACK
6
CONTINUOUS
10
0.578284
20
0.162755
11
0.578169
21
0.161766
0
LINE
8
BLACK
6
CONTINUOUS
10
0.578169
20
0.161766
11
0.578169
21
0.0982338
0
LINE
8
BLACK
6
CONTINUOUS
10
0.578169
20
0.0982338
11
0.578169
21
0.0982337
0
LINE
8
BLACK
6
CONTINUOUS
10
0.678169
20
0.0982337
11
0.678284
21
0.0972444
0
LINE
8
BLACK
6
CONTINUOUS
10
0.678284
20
0.0972444
11
0.680071
21
0.0931982
0
LINE
8
BLACK
6
CONTINUOUS
10
0.680071
20
0.0931982
11
0.683198
21
0.0900706
0
LINE
8
BLACK
6
CONTINUOUS
10
0.683198
20
0.0900706
11
0.687245
21
0.088284
0
LINE
8
BLACK
6
CONTINUOUS
10
0.687245
20
0.088284
11
0.688234
21
0.0881693
0
LINE
8
BLACK
6
CONTINUOUS
10
0.688234
20
0.0881693
11
0.688234
21
0.0881693
0
LINE
8
BLACK
6
CONTINUOUS
10
0.688234
20
0.0881693
11
0.751766
21
0.0881693
0
LINE
8
BLACK
6
CONTINUOUS
10
0.751766
20
0.0881693
11
0.751766
21
0.0881693
0
LINE
8
BLACK
6
CONTINUOUS
10
0.751766
20
0.0881693
11
0.751766
21
0.0881693
0
LINE
8
BLACK
6
CONTINUOUS
10
0.751766
20
0.0881693
11
0.751881
21
0.0881826
0
LINE
8
BLACK
6
CONTINUOUS
10
0.751881
20
0.0881826
11
0.752756
21
0.088284
0
LINE
8
BLACK
6
CONTINUOUS
10
0.752756
20
0.088284
11
0.755015
21
0.0892817
0
LINE
8
BLACK
6
CONTINUOUS
10
0.755015
20
0.0892817
11
0.756802
21
0.0900706
0
LINE
8
BLACK
6
CONTINUOUS
10
0.756802
20
0.0900706
11
0.759929
21
0.0931982
0
LINE
8
BLACK
6
CONTINUOUS
10
0.759929
20
0.0931982
11
0.761716
21
0.0972444
0
LINE
8
BLACK
6
CONTINUOUS
10
0.761716
20
0.0972444
11
0.761831
21
0.0982337
0
LINE
8
BLACK
6
CONTINUOUS
10
0.761831
20
0.0982337
11
0.761831
21
0.0982338
0
LINE
8
BLACK
6
CONTINUOUS
10
0.761831
20
0.0982338
11
0.761831
21
0.161766
0
LINE
8
BLACK
6
CONTINUOUS
10
0.761831
20
0.161766
11
0.761716
21
0.162756
0
LINE
8
BLACK
6
CONTINUOUS
10
0.761716
20
0.162756
11
0.759929
21
0.166802
0
LINE
8
BLACK
6
CONTINUOUS
10
0.759929
20
0.166802
11
0.756802
21
0.169929
0
LINE
8
BLACK
6
CONTINUOUS
10
0.756802
20
0.169929
11
0.752756
21
0.171716
0
LINE
8
BLACK
6
CONTINUOUS
10
0.752756
20
0.171716
11
0.751766
21
0.171831
0
LINE
8
BLACK
6
CONTINUOUS
10
0.751766
20
0.171831
11
0.688234
21
0.171831
0
LINE
8
BLACK
6
CONTINUOUS
10
0.688234
20
0.171831
11
0.687244
21
0.171716
0
LINE
8
BLACK
6
CONTINUOUS
10
0.687244
20
0.171716
11
0.683198
21
0.169929
0
LINE
8
BLACK
6
CONTINUOUS
10
0.683198
20
0.169929
11
0.680071
21
0.166802
0
LINE
8
BLACK
6
CONTINUOUS
10
0.680071
20
0.166802
11
0.680071
21
0.166802
0
LINE
8
BLACK
6
CONTINUOUS
10
0.680071
20
0.166802
11
0.678284
21
0.162755
0
LINE
8
BLACK
6
CONTINUOUS
10
0.678284
20
0.162755
11
0.678169
21
0.161766
0
LINE
8
BLACK
6
CONTINUOUS
10
0.678169
20
0.161766
11
0.678169
21
0.0982338
0
LINE
8
BLACK
6
CONTINUOUS
10
0.678169
20
0.0982338
11
0.678169
21
0.0982337
0
LINE
8
BLACK
6
CONTINUOUS
10
0.778169
20
0.0982337
11
0.778284
21
0.0972444
0
LINE
8
BLACK
6
CONTINUOUS
10
0.778284
20
0.0972444
11
0.780071
21
0.0931982
0
LINE
8
BLACK
6
CONTINUOUS
10
0.780071
20
0.0931982
11
0.783198
21
0.0900706
0
LINE
8
BLACK
6
CONTINUOUS
10
0.783198
20
0.0900706
11
0.787245
21
0.088284
0
LINE
8
BLACK
6
CONTINUOUS
10
0.787245
20
0.088284
11
0.788234
21
0.0881693
0
LINE
8
BLACK
6
CONTINUOUS
10
0.788234
20
0.0881693
11
0.788234
21
0.0881693
0
LINE
8
BLACK
6
CONTINUOUS
10
0.788234
20
0.0881693
11
0.851766
21
0.0881693
0
LINE
8
BLACK
6
CONTINUOUS
10
0.851766
20
0.0881693
11
0.851766
21
0.0881693
0
LINE
8
BLACK
6
CONTINUOUS
10
0.851766
20
0.0881693
11
0.851766
21
0.0881693
0
LINE
8
BLACK
6
CONTINUOUS
10
0.851766
20
0.0881693
11
0.851881
21
0.0881826
0
LINE
8
BLACK
6
CONTINUOUS
10
0.851881
20
0.0881826
11
0.852756
21
0.088284
0
LINE
8
BLACK
6
CONTINUOUS
10
0.852756
20
0.088284
11
0.855015
21
0.0892817
0
LINE
8
BLACK
6
CONTINUOUS
10
0.855015
20
0.0892817
11
0.856802
21
0.0900706
0
LINE
8
BLACK
6
CONTINUOUS
10
0.856802
20
0.0900706
11
0.859929
21
0.0931982
0
LINE
8
BLACK
6
CONTINUOUS
10
0.859929
20
0.0931982
11
0.861716
21
0.0972444
0
LINE
8
BLACK
6
CONTINUOUS
10
0.861716
20
0.0972444
11
0.861831
21
0.0982337
0
LINE
8
BLACK
6
CONTINUOUS
10
0.861831
20
0.0982337
11
0.861831
21
0.121218
0
LINE
8
BLACK
6
CONTINUOUS
10
0.861831
20
0.121218
11
0.861831
21
0.161766
0
LINE
8
BLACK
6
CONTINUOUS
10
0.861831
20
0.161766
11
0.861716
21
0.162756
0
LINE
8
BLACK
6
CONTINUOUS
10
0.861716
20
0.162756
11
0.859929
21
0.166802
0
LINE
8
BLACK
6
CONTINUOUS
10
0.859929
20
0.166802
11
0.856802
21
0.169929
0
LINE
8
BLACK
6
CONTINUOUS
10
0.856802
20
0.169929
11
0.852756
21
0.171716
0
LINE
8
BLACK
6
CONTINUOUS
10
0.852756
20
0.171716
11
0.851766
21
0.171831
0
LINE
8
BLACK
6
CONTINUOUS
10
0.851766
20
0.171831
11
0.788234
21
0.171831
0
LINE
8
BLACK
6
CONTINUOUS
10
0.788234
20
0.171831
11
0.787244
21
0.171716
0
LINE
8
BLACK
6
CONTINUOUS
10
0.787244
20
0.171716
11
0.783198
21
0.169929
0
LINE
8
BLACK
6
CONTINUOUS
10
0.783198
20
0.169929
11
0.780071
21
0.166802
0
LINE
8
BLACK
6
CONTINUOUS
10
0.780071
20
0.166802
11
0.780071
21
0.166802
0
LINE
8
BLACK
6
CONTINUOUS
10
0.780071
20
0.166802
11
0.778284
21
0.162755
0
LINE
8
BLACK
6
CONTINUOUS
10
0.778284
20
0.162755
11
0.778169
21
0.161766
0
LINE
8
BLACK
6
CONTINUOUS
10
0.778169
20
0.161766
11
0.778169
21
0.0982338
0
LINE
8
BLACK
6
CONTINUOUS
10
0.778169
20
0.0982338
11
0.778169
21
0.0982337
0
LINE
8
BLACK
6
CONTINUOUS
10
0.946587
20
0.121218
11
0.946701
21
0.120229
0
LINE
8
BLACK
6
CONTINUOUS
10
0.946701
20
0.120229
11
0.948488
21
0.116182
0
LINE
8
BLACK
6
CONTINUOUS
10
0.948488
20
0.116182
11
0.951616
21
0.113055
0
LINE
8
BLACK
6
CONTINUOUS
10
0.951616
20
0.113055
11
0.955662
21
0.111268
0
LINE
8
BLACK
6
CONTINUOUS
10
0.955662
20
0.111268
11
0.956651
21
0.111154
0
LINE
8
BLACK
6
CONTINUOUS
10
0.956651
20
0.111154
11
0.956651
21
0.111154
0
LINE
8
BLACK
6
CONTINUOUS
10
0.956651
20
0.111154
11
1.02618
21
0.111154
0
LINE
8
BLACK
6
CONTINUOUS
10
1.02618
20
0.111154
11
1.02618
21
0.111154
0
LINE
8
BLACK
6
CONTINUOUS
10
1.02618
20
0.111154
11
1.02618
21
0.111154
0
LINE
8
BLACK
6
CONTINUOUS
10
1.02618
20
0.111154
11
1.0263
21
0.111167
0
LINE
8
BLACK
6
CONTINUOUS
10
1.0263
20
0.111167
11
1.02717
21
0.111268
0
LINE
8
BLACK
6
CONTINUOUS
10
1.02717
20
0.111268
11
1.02943
21
0.112266
0
LINE
8
BLACK
6
CONTINUOUS
10
1.02943
20
0.112266
11
1.03122
21
0.113055
0
LINE
8
BLACK
6
CONTINUOUS
10
1.03122
20
0.113055
11
1.03435
21
0.116182
0
LINE
8
BLACK
6
CONTINUOUS
10
1.03435
20
0.116182
11
1.03613
21
0.120229
0
LINE
8
BLACK
6
CONTINUOUS
10
1.03613
20
0.120229
11
1.03625
21
0.121218
0
LINE
8
BLACK
6
CONTINUOUS
10
1.03625
20
0.121218
11
1.03625
21
0.190751
0
LINE
8
BLACK
6
CONTINUOUS
10
1.03625
20
0.190751
11
1.03613
21
0.19174
0
LINE
8
BLACK
6
CONTINUOUS
10
1.03613
20
0.19174
11
1.03435
21
0.195786
0
LINE
8
BLACK
6
CONTINUOUS
10
1.03435
20
0.195786
11
1.03122
21
0.198914
0
LINE
8
BLACK
6
CONTINUOUS
10
1.03122
20
0.198914
11
1.02717
21
0.2007
0
LINE
8
BLACK
6
CONTINUOUS
10
1.02717
20
0.2007
11
1.02618
21
0.200815
0
LINE
8
BLACK
6
CONTINUOUS
10
1.02618
20
0.200815
11
0.956651
21
0.200815
0
LINE
8
BLACK
6
CONTINUOUS
10
0.956651
20
0.200815
11
0.955662
21
0.2007
0
LINE
8
BLACK
6
CONTINUOUS
10
0.955662
20
0.2007
11
0.951616
21
0.198914
0
LINE
8
BLACK
6
CONTINUOUS
10
0.951616
20
0.198914
11
0.948488
21
0.195786
0
LINE
8
BLACK
6
CONTINUOUS
10
0.948488
20
0.195786
11
0.946701
21
0.19174
0
LINE
8
BLACK
6
CONTINUOUS
10
0.946701
20
0.19174
11
0.946701
21
0.19174
0
LINE
8
BLACK
6
CONTINUOUS
10
0.946701
20
0.19174
11
0.946587
21
0.190751
0
LINE
8
BLACK
6
CONTINUOUS
10
0.946587
20
0.190751
11
0.946587
21
0.121218
0
LINE
8
BLACK
6
CONTINUOUS
10
0.946587
20
0.121218
11
0.946587
21
0.121218
0
LINE
8
BLACK
6
CONTINUOUS
10
0.561831
20
0.261766
11
0.561716
21
0.262756
0
LINE
8
BLACK
6
CONTINUOUS
10
0.561716
20
0.262756
11
0.559929
21
0.266802
0
LINE
8
BLACK
6
CONTINUOUS
10
0.559929
20
0.266802
11
0.556802
21
0.269929
0
LINE
8
BLACK
6
CONTINUOUS
10
0.556802
20
0.269929
11
0.552756
21
0.271716
0
LINE
8
BLACK
6
CONTINUOUS
10
0.552756
20
0.271716
11
0.551766
21
0.271831
0
LINE
8
BLACK
6
CONTINUOUS
10
0.551766
20
0.271831
11
0.488234
21
0.271831
0
LINE
8
BLACK
6
CONTINUOUS
10
0.488234
20
0.271831
11
0.487244
21
0.271716
0
LINE
8
BLACK
6
CONTINUOUS
10
0.487244
20
0.271716
11
0.483198
21
0.269929
0
LINE
8
BLACK
6
CONTINUOUS
10
0.483198
20
0.269929
11
0.480071
21
0.266802
0
LINE
8
BLACK
6
CONTINUOUS
10
0.480071
20
0.266802
11
0.480071
21
0.266802
0
LINE
8
BLACK
6
CONTINUOUS
10
0.480071
20
0.266802
11
0.478284
21
0.262755
0
LINE
8
BLACK
6
CONTINUOUS
10
0.478284
20
0.262755
11
0.478169
21
0.261766
0
LINE
8
BLACK
6
CONTINUOUS
10
0.478169
20
0.261766
11
0.478169
21
0.198234
0
LINE
8
BLACK
6
CONTINUOUS
10
0.478169
20
0.198234
11
0.478169
21
0.198234
0
LINE
8
BLACK
6
CONTINUOUS
10
0.478169
20
0.198234
11
0.478284
21
0.197244
0
LINE
8
BLACK
6
CONTINUOUS
10
0.478284
20
0.197244
11
0.480071
21
0.193198
0
LINE
8
BLACK
6
CONTINUOUS
10
0.480071
20
0.193198
11
0.483198
21
0.190071
0
LINE
8
BLACK
6
CONTINUOUS
10
0.483198
20
0.190071
11
0.487245
21
0.188284
0
LINE
8
BLACK
6
CONTINUOUS
10
0.487245
20
0.188284
11
0.488234
21
0.188169
0
LINE
8
BLACK
6
CONTINUOUS
10
0.488234
20
0.188169
11
0.488234
21
0.188169
0
LINE
8
BLACK
6
CONTINUOUS
10
0.488234
20
0.188169
11
0.551766
21
0.188169
0
LINE
8
BLACK
6
CONTINUOUS
10
0.551766
20
0.188169
11
0.551766
21
0.188169
0
LINE
8
BLACK
6
CONTINUOUS
10
0.551766
20
0.188169
11
0.551766
21
0.188169
0
LINE
8
BLACK
6
CONTINUOUS
10
0.551766
20
0.188169
11
0.551881
21
0.188183
0
LINE
8
BLACK
6
CONTINUOUS
10
0.551881
20
0.188183
11
0.552756
21
0.188284
0
LINE
8
BLACK
6
CONTINUOUS
10
0.552756
20
0.188284
11
0.555015
21
0.189282
0
LINE
8
BLACK
6
CONTINUOUS
10
0.555015
20
0.189282
11
0.556802
21
0.190071
0
LINE
8
BLACK
6
CONTINUOUS
10
0.556802
20
0.190071
11
0.559929
21
0.193198
0
LINE
8
BLACK
6
CONTINUOUS
10
0.559929
20
0.193198
11
0.561716
21
0.197244
0
LINE
8
BLACK
6
CONTINUOUS
10
0.561716
20
0.197244
11
0.561831
21
0.198234
0
LINE
8
BLACK
6
CONTINUOUS
10
0.561831
20
0.198234
11
0.561831
21
0.198234
0
LINE
8
BLACK
6
CONTINUOUS
10
0.561831
20
0.198234
11
0.561831
21
0.261766
0
LINE
8
BLACK
6
CONTINUOUS
10
0.688234
20
0.271831
11
0.687244
21
0.271716
0
LINE
8
BLACK
6
CONTINUOUS
10
0.687244
20
0.271716
11
0.683198
21
0.269929
0
LINE
8
BLACK
6
CONTINUOUS
10
0.683198
20
0.269929
11
0.680071
21
0.266802
0
LINE
8
BLACK
6
CONTINUOUS
10
0.680071
20
0.266802
11
0.680071
21
0.266802
0
LINE
8
BLACK
6
CONTINUOUS
10
0.680071
20
0.266802
11
0.678284
21
0.262755
0
LINE
8
BLACK
6
CONTINUOUS
10
0.678284
20
0.262755
11
0.678169
21
0.261766
0
LINE
8
BLACK
6
CONTINUOUS
10
0.678169
20
0.261766
11
0.678169
21
0.198234
0
LINE
8
BLACK
6
CONTINUOUS
10
0.678169
20
0.198234
11
0.678169
21
0.198234
0
LINE
8
BLACK
6
CONTINUOUS
10
0.678169
20
0.198234
11
0.678284
21
0.197244
0
LINE
8
BLACK
6
CONTINUOUS
10
0.678284
20
0.197244
11
0.680071
21
0.193198
0
LINE
8
BLACK
6
CONTINUOUS
10
0.680071
20
0.193198
11
0.683198
21
0.190071
0
LINE
8
BLACK
6
CONTINUOUS
10
0.683198
20
0.190071
11
0.687245
21
0.188284
0
LINE
8
BLACK
6
CONTINUOUS
10
0.687245
20
0.188284
11
0.688234
21
0.188169
0
LINE
8
BLACK
6
CONTINUOUS
10
0.688234
20
0.188169
11
0.688234
21
0.188169
0
LINE
8
BLACK
6
CONTINUOUS
10
0.688234
20
0.188169
11
0.751766
21
0.188169
0
LINE
8
BLACK
6
CONTINUOUS
10
0.751766
20
0.188169
11
0.751766
21
0.188169
0
LINE
8
BLACK
6
CONTINUOUS
10
0.751766
20
0.188169
11
0.751766
21
0.188169
0
LINE
8
BLACK
6
CONTINUOUS
10
0.751766
20
0.188169
11
0.751881
21
0.188183
0
LINE
8
BLACK
6
CONTINUOUS
10
0.751881
20
0.188183
11
0.752756
21
0.188284
0
LINE
8
BLACK
6
CONTINUOUS
10
0.752756
20
0.188284
11
0.755015
21
0.189282
0
LINE
8
BLACK
6
CONTINUOUS
10
0.755015
20
0.189282
11
0.756802
21
0.190071
0
LINE
8
BLACK
6
CONTINUOUS
10
0.756802
20
0.190071
11
0.759929
21
0.193198
0
LINE
8
BLACK
6
CONTINUOUS
10
0.759929
20
0.193198
11
0.761716
21
0.197244
0
LINE
8
BLACK
6
CONTINUOUS
10
0.761716
20
0.197244
11
0.761831
21
0.198234
0
LINE
8
BLACK
6
CONTINUOUS
10
0.761831
20
0.198234
11
0.761831
21
0.261766
0
LINE
8
BLACK
6
CONTINUOUS
10
0.761831
20
0.261766
11
0.761716
21
0.262756
0
LINE
8
BLACK
6
CONTINUOUS
10
0.761716
20
0.262756
11
0.759929
21
0.266802
0
LINE
8
BLACK
6
CONTINUOUS
10
0.759929
20
0.266802
11
0.756802
21
0.269929
0
LINE
8
BLACK
6
CONTINUOUS
10
0.756802
20
0.269929
11
0.752756
21
0.271716
0
LINE
8
BLACK
6
CONTINUOUS
10
0.752756
20
0.271716
11
0.751766
21
0.271831
0
LINE
8
BLACK
6
CONTINUOUS
10
0.751766
20
0.271831
11
0.688234
21
0.271831
0
LINE
8
BLACK
6
CONTINUOUS
10
0.578169
20
0.198234
11
0.578284
21
0.197244
0
LINE
8
BLACK
6
CONTINUOUS
10
0.578284
20
0.197244
11
0.580071
21
0.193198
0
LINE
8
BLACK
6
CONTINUOUS
10
0.580071
20
0.193198
11
0.583198
21
0.190071
0
LINE
8
BLACK
6
CONTINUOUS
10
0.583198
20
0.190071
11
0.587245
21
0.188284
0
LINE
8
BLACK
6
CONTINUOUS
10
0.587245
20
0.188284
11
0.588234
21
0.188169
0
LINE
8
BLACK
6
CONTINUOUS
10
0.588234
20
0.188169
11
0.588234
21
0.188169
0
LINE
8
BLACK
6
CONTINUOUS
10
0.588234
20
0.188169
11
0.651766
21
0.188169
0
LINE
8
BLACK
6
CONTINUOUS
10
0.651766
20
0.188169
11
0.651766
21
0.188169
0
LINE
8
BLACK
6
CONTINUOUS
10
0.651766
20
0.188169
11
0.651766
21
0.188169
0
LINE
8
BLACK
6
CONTINUOUS
10
0.651766
20
0.188169
11
0.651881
21
0.188183
0
LINE
8
BLACK
6
CONTINUOUS
10
0.651881
20
0.188183
11
0.652756
21
0.188284
0
LINE
8
BLACK
6
CONTINUOUS
10
0.652756
20
0.188284
11
0.655015
21
0.189282
0
LINE
8
BLACK
6
CONTINUOUS
10
0.655015
20
0.189282
11
0.656802
21
0.190071
0
LINE
8
BLACK
6
CONTINUOUS
10
0.656802
20
0.190071
11
0.659929
21
0.193198
0
LINE
8
BLACK
6
CONTINUOUS
10
0.659929
20
0.193198
11
0.661716
21
0.197244
0
LINE
8
BLACK
6
CONTINUOUS
10
0.661716
20
0.197244
11
0.661831
21
0.198234
0
LINE
8
BLACK
6
CONTINUOUS
10
0.661831
20
0.198234
11
0.661831
21
0.198234
0
LINE
8
BLACK
6
CONTINUOUS
10
0.661831
20
0.198234
11
0.661831
21
0.261766
0
LINE
8
BLACK
6
CONTINUOUS
10
0.661831
20
0.261766
11
0.661716
21
0.262756
0
LINE
8
BLACK
6
CONTINUOUS
10
0.661716
20
0.262756
11
0.659929
21
0.266802
0
LINE
8
BLACK
6
CONTINUOUS
10
0.659929
20
0.266802
11
0.656802
21
0.269929
0
LINE
8
BLACK
6
CONTINUOUS
10
0.656802
20
0.269929
11
0.652756
21
0.271716
0
LINE
8
BLACK
6
CONTINUOUS
10
0.652756
20
0.271716
11
0.651766
21
0.271831
0
LINE
8
BLACK
6
CONTINUOUS
10
0.651766
20
0.271831
11
0.588234
21
0.271831
0
LINE
8
BLACK
6
CONTINUOUS
10
0.588234
20
0.271831
11
0.587244
21
0.271716
0
LINE
8
BLACK
6
CONTINUOUS
10
0.587244
20
0.271716
11
0.583198
21
0.269929
0
LINE
8
BLACK
6
CONTINUOUS
10
0.583198
20
0.269929
11
0.580071
21
0.266802
0
LINE
8
BLACK
6
CONTINUOUS
10
0.580071
20
0.266802
11
0.580071
21
0.266802
0
LINE
8
BLACK
6
CONTINUOUS
10
0.580071
20
0.266802
11
0.578284
21
0.262755
0
LINE
8
BLACK
6
CONTINUOUS
10
0.578284
20
0.262755
11
0.578169
21
0.261766
0
LINE
8
BLACK
6
CONTINUOUS
10
0.578169
20
0.261766
11
0.578169
21
0.198234
0
LINE
8
BLACK
6
CONTINUOUS
10
0.578169
20
0.198234
11
0.578169
21
0.198234
0
LINE
8
BLACK
6
CONTINUOUS
10
0.713026
20
0.873351
11
0.715401
21
0.867089
0
LINE
8
BLACK
6
CONTINUOUS
10
0.715401
20
0.867089
11
0.715401
21
0.867089
0
LINE
8
BLACK
6
CONTINUOUS
10
0.715401
20
0.867089
11
0.715668
21
0.866702
0
LINE
8
BLACK
6
CONTINUOUS
10
0.715668
20
0.866702
11
0.716358
21
0.864488
0
LINE
8
BLACK
6
CONTINUOUS
10
0.716358
20
0.864488
11
0.716358
21
0.541677
0
LINE
8
BLACK
6
CONTINUOUS
10
0.716358
20
0.541677
11
0.716342
21
0.541423
0
LINE
8
BLACK
6
CONTINUOUS
10
0.716342
20
0.541423
11
0.716154
21
0.54
0
LINE
8
BLACK
6
CONTINUOUS
10
0.716154
20
0.54
11
0.716154
21
0.54
0
LINE
8
BLACK
6
CONTINUOUS
10
0.716154
20
0.54
11
0.716358
21
0.53845
0
LINE
8
BLACK
6
CONTINUOUS
10
0.716358
20
0.53845
11
0.716967
21
0.533828
0
LINE
8
BLACK
6
CONTINUOUS
10
0.716967
20
0.533828
11
0.716967
21
0.533828
0
LINE
8
BLACK
6
CONTINUOUS
10
0.716967
20
0.533828
11
0.719349
21
0.528077
0
LINE
8
BLACK
6
CONTINUOUS
10
0.719349
20
0.528077
11
0.719349
21
0.528077
0
LINE
8
BLACK
6
CONTINUOUS
10
0.719349
20
0.528077
11
0.723138
21
0.523139
0
LINE
8
BLACK
6
CONTINUOUS
10
0.723138
20
0.523139
11
0.723139
21
0.523138
0
LINE
8
BLACK
6
CONTINUOUS
10
0.723139
20
0.523138
11
0.724277
21
0.522265
0
LINE
8
BLACK
6
CONTINUOUS
10
0.724277
20
0.522265
11
0.724469
21
0.522097
0
LINE
8
BLACK
6
CONTINUOUS
10
0.724469
20
0.522097
11
0.795217
21
0.451349
0
LINE
8
BLACK
6
CONTINUOUS
10
0.795217
20
0.451349
11
0.79631
21
0.449202
0
LINE
8
BLACK
6
CONTINUOUS
10
0.79631
20
0.449202
11
0.796358
21
0.448593
0
LINE
8
BLACK
6
CONTINUOUS
10
0.796358
20
0.448593
11
0.796358
21
0.275728
0
LINE
8
BLACK
6
CONTINUOUS
10
0.796358
20
0.275728
11
0.795614
21
0.273437
0
LINE
8
BLACK
6
CONTINUOUS
10
0.795614
20
0.273437
11
0.793665
21
0.272021
0
LINE
8
BLACK
6
CONTINUOUS
10
0.793665
20
0.272021
11
0.792461
21
0.271831
0
LINE
8
BLACK
6
CONTINUOUS
10
0.792461
20
0.271831
11
0.788234
21
0.271831
0
LINE
8
BLACK
6
CONTINUOUS
10
0.788234
20
0.271831
11
0.787244
21
0.271716
0
LINE
8
BLACK
6
CONTINUOUS
10
0.787244
20
0.271716
11
0.783198
21
0.269929
0
LINE
8
BLACK
6
CONTINUOUS
10
0.783198
20
0.269929
11
0.780071
21
0.266802
0
LINE
8
BLACK
6
CONTINUOUS
10
0.780071
20
0.266802
11
0.780071
21
0.266802
0
LINE
8
BLACK
6
CONTINUOUS
10
0.780071
20
0.266802
11
0.778284
21
0.262755
0
LINE
8
BLACK
6
CONTINUOUS
10
0.778284
20
0.262755
11
0.778169
21
0.261766
0
LINE
8
BLACK
6
CONTINUOUS
10
0.778169
20
0.261766
11
0.778169
21
0.198234
0
LINE
8
BLACK
6
CONTINUOUS
10
0.778169
20
0.198234
11
0.778169
21
0.198234
0
LINE
8
BLACK
6
CONTINUOUS
10
0.778169
20
0.198234
11
0.778284
21
0.197244
0
LINE
8
BLACK
6
CONTINUOUS
10
0.778284
20
0.197244
11
0.780071
21
0.193198
0
LINE
8
BLACK
6
CONTINUOUS
10
0.780071
20
0.193198
11
0.783198
21
0.190071
0
LINE
8
BLACK
6
CONTINUOUS
10
0.783198
20
0.190071
11
0.787245
21
0.188284
0
LINE
8
BLACK
6
CONTINUOUS
10
0.787245
20
0.188284
11
0.788234
21
0.188169
0
LINE
8
BLACK
6
CONTINUOUS
10
0.788234
20
0.188169
11
0.788234
21
0.188169
0
LINE
8
BLACK
6
CONTINUOUS
10
0.788234
20
0.188169
11
0.851766
21
0.188169
0
LINE
8
BLACK
6
CONTINUOUS
10
0.851766
20
0.188169
11
0.851766
21
0.188169
0
LINE
8
BLACK
6
CONTINUOUS
10
0.851766
20
0.188169
11
0.851766
21
0.188169
0
LINE
8
BLACK
6
CONTINUOUS
10
0.851766
20
0.188169
11
0.851881
21
0.188183
0
LINE
8
BLACK
6
CONTINUOUS
10
0.851881
20
0.188183
11
0.852756
21
0.188284
0
LINE
8
BLACK
6
CONTINUOUS
10
0.852756
20
0.188284
11
0.855015
21
0.189282
0
LINE
8
BLACK
6
CONTINUOUS
10
0.855015
20
0.189282
11
0.856802
21
0.190071
0
LINE
8
BLACK
6
CONTINUOUS
10
0.856802
20
0.190071
11
0.859929
21
0.193198
0
LINE
8
BLACK
6
CONTINUOUS
10
0.859929
20
0.193198
11
0.861716
21
0.197244
0
LINE
8
BLACK
6
CONTINUOUS
10
0.861716
20
0.197244
11
0.861831
21
0.198234
0
LINE
8
BLACK
6
CONTINUOUS
10
0.861831
20
0.198234
11
0.861831
21
0.261766
0
LINE
8
BLACK
6
CONTINUOUS
10
0.861831
20
0.261766
11
0.861716
21
0.262756
0
LINE
8
BLACK
6
CONTINUOUS
10
0.861716
20
0.262756
11
0.859929
21
0.266802
0
LINE
8
BLACK
6
CONTINUOUS
10
0.859929
20
0.266802
11
0.856802
21
0.269929
0
LINE
8
BLACK
6
CONTINUOUS
10
0.856802
20
0.269929
11
0.852756
21
0.271716
0
LINE
8
BLACK
6
CONTINUOUS
10
0.852756
20
0.271716
11
0.851766
21
0.271831
0
LINE
8
BLACK
6
CONTINUOUS
10
0.851766
20
0.271831
11
0.847539
21
0.271831
0
LINE
8
BLACK
6
CONTINUOUS
10
0.847539
20
0.271831
11
0.845248
21
0.272575
0
LINE
8
BLACK
6
CONTINUOUS
10
0.845248
20
0.272575
11
0.843833
21
0.274524
0
LINE
8
BLACK
6
CONTINUOUS
10
0.843833
20
0.274524
11
0.843642
21
0.275728
0
LINE
8
BLACK
6
CONTINUOUS
10
0.843642
20
0.275728
11
0.843642
21
0.432461
0
LINE
8
BLACK
6
CONTINUOUS
10
0.843642
20
0.432461
11
0.844386
21
0.434752
0
LINE
8
BLACK
6
CONTINUOUS
10
0.844386
20
0.434752
11
0.846335
21
0.436168
0
LINE
8
BLACK
6
CONTINUOUS
10
0.846335
20
0.436168
11
0.847539
21
0.436358
0
LINE
8
BLACK
6
CONTINUOUS
10
0.847539
20
0.436358
11
0.867404
21
0.436358
0
LINE
8
BLACK
6
CONTINUOUS
10
0.867404
20
0.436358
11
0.869695
21
0.435614
0
LINE
8
BLACK
6
CONTINUOUS
10
0.869695
20
0.435614
11
0.87016
21
0.435217
0
LINE
8
BLACK
6
CONTINUOUS
10
0.87016
20
0.435217
11
0.916892
21
0.388485
0
LINE
8
BLACK
6
CONTINUOUS
10
0.916892
20
0.388485
11
0.91706
21
0.388293
0
LINE
8
BLACK
6
CONTINUOUS
10
0.91706
20
0.388293
11
0.917934
21
0.387154
0
LINE
8
BLACK
6
CONTINUOUS
10
0.917934
20
0.387154
11
0.917934
21
0.387154
0
LINE
8
BLACK
6
CONTINUOUS
10
0.917934
20
0.387154
11
0.920014
21
0.385558
0
LINE
8
BLACK
6
CONTINUOUS
10
0.920014
20
0.385558
11
0.92173
21
0.384242
0
LINE
8
BLACK
6
CONTINUOUS
10
0.92173
20
0.384242
11
0.92211
21
0.383949
0
LINE
8
BLACK
6
CONTINUOUS
10
0.92211
20
0.383949
11
0.922872
21
0.383365
0
LINE
8
BLACK
6
CONTINUOUS
10
0.922872
20
0.383365
11
0.922872
21
0.383365
0
LINE
8
BLACK
6
CONTINUOUS
10
0.922872
20
0.383365
11
0.928623
21
0.380983
0
LINE
8
BLACK
6
CONTINUOUS
10
0.928623
20
0.380983
11
0.928624
21
0.380982
0
LINE
8
BLACK
6
CONTINUOUS
10
0.928624
20
0.380982
11
0.934795
21
0.38017
0
LINE
8
BLACK
6
CONTINUOUS
10
0.934795
20
0.38017
11
0.934795
21
0.38017
0
LINE
8
BLACK
6
CONTINUOUS
10
0.934795
20
0.38017
11
0.934795
21
0.38017
0
LINE
8
BLACK
6
CONTINUOUS
10
0.934795
20
0.38017
11
0.936218
21
0.380357
0
LINE
8
BLACK
6
CONTINUOUS
10
0.936218
20
0.380357
11
0.936473
21
0.380374
0
LINE
8
BLACK
6
CONTINUOUS
10
0.936473
20
0.380374
11
0.942689
21
0.380374
0
LINE
8
BLACK
6
CONTINUOUS
10
0.942689
20
0.380374
11
0.94498
21
0.37963
0
LINE
8
BLACK
6
CONTINUOUS
10
0.94498
20
0.37963
11
0.946396
21
0.377681
0
LINE
8
BLACK
6
CONTINUOUS
10
0.946396
20
0.377681
11
0.946587
21
0.376476
0
LINE
8
BLACK
6
CONTINUOUS
10
0.946587
20
0.376476
11
0.946587
21
0.369249
0
LINE
8
BLACK
6
CONTINUOUS
10
0.946587
20
0.369249
11
0.946701
21
0.36826
0
LINE
8
BLACK
6
CONTINUOUS
10
0.946701
20
0.36826
11
0.948488
21
0.364214
0
LINE
8
BLACK
6
CONTINUOUS
10
0.948488
20
0.364214
11
0.951616
21
0.361086
0
LINE
8
BLACK
6
CONTINUOUS
10
0.951616
20
0.361086
11
0.955662
21
0.3593
0
LINE
8
BLACK
6
CONTINUOUS
10
0.955662
20
0.3593
11
0.956651
21
0.359185
0
LINE
8
BLACK
6
CONTINUOUS
10
0.956651
20
0.359185
11
0.956651
21
0.359185
0
LINE
8
BLACK
6
CONTINUOUS
10
0.956651
20
0.359185
11
1.02618
21
0.359185
0
LINE
8
BLACK
6
CONTINUOUS
10
1.02618
20
0.359185
11
1.02618
21
0.359185
0
LINE
8
BLACK
6
CONTINUOUS
10
1.02618
20
0.359185
11
1.02618
21
0.359185
0
LINE
8
BLACK
6
CONTINUOUS
10
1.02618
20
0.359185
11
1.0263
21
0.359198
0
LINE
8
BLACK
6
CONTINUOUS
10
1.0263
20
0.359198
11
1.02717
21
0.3593
0
LINE
8
BLACK
6
CONTINUOUS
10
1.02717
20
0.3593
11
1.02943
21
0.360297
0
LINE
8
BLACK
6
CONTINUOUS
10
1.02943
20
0.360297
11
1.03122
21
0.361086
0
LINE
8
BLACK
6
CONTINUOUS
10
1.03122
20
0.361086
11
1.03435
21
0.364214
0
LINE
8
BLACK
6
CONTINUOUS
10
1.03435
20
0.364214
11
1.03613
21
0.36826
0
LINE
8
BLACK
6
CONTINUOUS
10
1.03613
20
0.36826
11
1.03625
21
0.369249
0
LINE
8
BLACK
6
CONTINUOUS
10
1.03625
20
0.369249
11
1.03625
21
0.438782
0
LINE
8
BLACK
6
CONTINUOUS
10
1.03625
20
0.438782
11
1.03613
21
0.439771
0
LINE
8
BLACK
6
CONTINUOUS
10
1.03613
20
0.439771
11
1.03435
21
0.443818
0
LINE
8
BLACK
6
CONTINUOUS
10
1.03435
20
0.443818
11
1.03122
21
0.446945
0
LINE
8
BLACK
6
CONTINUOUS
10
1.03122
20
0.446945
11
1.02717
21
0.448732
0
LINE
8
BLACK
6
CONTINUOUS
10
1.02717
20
0.448732
11
1.02618
21
0.448846
0
LINE
8
BLACK
6
CONTINUOUS
10
1.02618
20
0.448846
11
0.956651
21
0.448846
0
LINE
8
BLACK
6
CONTINUOUS
10
0.956651
20
0.448846
11
0.955662
21
0.448732
0
LINE
8
BLACK
6
CONTINUOUS
10
0.955662
20
0.448732
11
0.951616
21
0.446945
0
LINE
8
BLACK
6
CONTINUOUS
10
0.951616
20
0.446945
11
0.948488
21
0.443818
0
LINE
8
BLACK
6
CONTINUOUS
10
0.948488
20
0.443818
11
0.948488
21
0.443817
0
LINE
8
BLACK
6
CONTINUOUS
10
0.948488
20
0.443817
11
0.946701
21
0.439771
0
LINE
8
BLACK
6
CONTINUOUS
10
0.946701
20
0.439771
11
0.946587
21
0.438782
0
LINE
8
BLACK
6
CONTINUOUS
10
0.946587
20
0.438782
11
0.946587
21
0.435069
0
LINE
8
BLACK
6
CONTINUOUS
10
0.946587
20
0.435069
11
0.945842
21
0.432778
0
LINE
8
BLACK
6
CONTINUOUS
10
0.945842
20
0.432778
11
0.943893
21
0.431362
0
LINE
8
BLACK
6
CONTINUOUS
10
0.943893
20
0.431362
11
0.941485
21
0.431362
0
LINE
8
BLACK
6
CONTINUOUS
10
0.941485
20
0.431362
11
0.939933
21
0.432312
0
LINE
8
BLACK
6
CONTINUOUS
10
0.939933
20
0.432312
11
0.896714
21
0.475531
0
LINE
8
BLACK
6
CONTINUOUS
10
0.896714
20
0.475531
11
0.896546
21
0.475723
0
LINE
8
BLACK
6
CONTINUOUS
10
0.896546
20
0.475723
11
0.895673
21
0.476861
0
LINE
8
BLACK
6
CONTINUOUS
10
0.895673
20
0.476861
11
0.890734
21
0.480651
0
LINE
8
BLACK
6
CONTINUOUS
10
0.890734
20
0.480651
11
0.884983
21
0.483033
0
LINE
8
BLACK
6
CONTINUOUS
10
0.884983
20
0.483033
11
0.880361
21
0.483642
0
LINE
8
BLACK
6
CONTINUOUS
10
0.880361
20
0.483642
11
0.878811
21
0.483846
0
LINE
8
BLACK
6
CONTINUOUS
10
0.878811
20
0.483846
11
0.878811
21
0.483846
0
LINE
8
BLACK
6
CONTINUOUS
10
0.878811
20
0.483846
11
0.877388
21
0.483658
0
LINE
8
BLACK
6
CONTINUOUS
10
0.877388
20
0.483658
11
0.877134
21
0.483642
0
LINE
8
BLACK
6
CONTINUOUS
10
0.877134
20
0.483642
11
0.831407
21
0.483642
0
LINE
8
BLACK
6
CONTINUOUS
10
0.831407
20
0.483642
11
0.829116
21
0.484386
0
LINE
8
BLACK
6
CONTINUOUS
10
0.829116
20
0.484386
11
0.828651
21
0.484783
0
LINE
8
BLACK
6
CONTINUOUS
10
0.828651
20
0.484783
11
0.764783
21
0.548651
0
LINE
8
BLACK
6
CONTINUOUS
10
0.764783
20
0.548651
11
0.76369
21
0.550797
0
LINE
8
BLACK
6
CONTINUOUS
10
0.76369
20
0.550797
11
0.763642
21
0.551407
0
LINE
8
BLACK
6
CONTINUOUS
10
0.763642
20
0.551407
11
0.763642
21
0.864488
0
LINE
8
BLACK
6
CONTINUOUS
10
0.763642
20
0.864488
11
0.764332
21
0.866702
0
LINE
8
BLACK
6
CONTINUOUS
10
0.764332
20
0.866702
11
0.764445
21
0.866866
0
LINE
8
BLACK
6
CONTINUOUS
10
0.764445
20
0.866866
11
0.764599
21
0.867089
0
LINE
8
BLACK
6
CONTINUOUS
10
0.764599
20
0.867089
11
0.766974
21
0.873351
0
LINE
8
BLACK
6
CONTINUOUS
10
0.766974
20
0.873351
11
0.767781
21
0.88
0
LINE
8
BLACK
6
CONTINUOUS
10
0.767781
20
0.88
11
0.76772
21
0.880506
0
LINE
8
BLACK
6
CONTINUOUS
10
0.76772
20
0.880506
11
0.76735
21
0.883551
0
LINE
8
BLACK
6
CONTINUOUS
10
0.76735
20
0.883551
11
0.766974
21
0.886649
0
LINE
8
BLACK
6
CONTINUOUS
10
0.766974
20
0.886649
11
0.764599
21
0.892911
0
LINE
8
BLACK
6
CONTINUOUS
10
0.764599
20
0.892911
11
0.760795
21
0.898422
0
LINE
8
BLACK
6
CONTINUOUS
10
0.760795
20
0.898422
11
0.755782
21
0.902864
0
LINE
8
BLACK
6
CONTINUOUS
10
0.755782
20
0.902864
11
0.749851
21
0.905976
0
LINE
8
BLACK
6
CONTINUOUS
10
0.749851
20
0.905976
11
0.743349
21
0.907579
0
LINE
8
BLACK
6
CONTINUOUS
10
0.743349
20
0.907579
11
0.736651
21
0.907579
0
LINE
8
BLACK
6
CONTINUOUS
10
0.736651
20
0.907579
11
0.730149
21
0.905976
0
LINE
8
BLACK
6
CONTINUOUS
10
0.730149
20
0.905976
11
0.724218
21
0.902864
0
LINE
8
BLACK
6
CONTINUOUS
10
0.724218
20
0.902864
11
0.719205
21
0.898422
0
LINE
8
BLACK
6
CONTINUOUS
10
0.719205
20
0.898422
11
0.715401
21
0.892911
0
LINE
8
BLACK
6
CONTINUOUS
10
0.715401
20
0.892911
11
0.713026
21
0.886649
0
LINE
8
BLACK
6
CONTINUOUS
10
0.713026
20
0.886649
11
0.713026
21
0.886648
0
LINE
8
BLACK
6
CONTINUOUS
10
0.713026
20
0.886648
11
0.71228
21
0.880506
0
LINE
8
BLACK
6
CONTINUOUS
10
0.71228
20
0.880506
11
0.712219
21
0.88
0
LINE
8
BLACK
6
CONTINUOUS
10
0.712219
20
0.88
11
0.713026
21
0.873351
0
LINE
8
BLACK
6
CONTINUOUS
10
0.099193
20
0.719494
11
0.0993076
21
0.718504
0
LINE
8
BLACK
6
CONTINUOUS
10
0.0993076
20
0.718504
11
0.101094
21
0.714458
0
LINE
8
BLACK
6
CONTINUOUS
10
0.101094
20
0.714458
11
0.104222
21
0.71133
0
LINE
8
BLACK
6
CONTINUOUS
10
0.104222
20
0.71133
11
0.108268
21
0.709544
0
LINE
8
BLACK
6
CONTINUOUS
10
0.108268
20
0.709544
11
0.109257
21
0.709429
0
LINE
8
BLACK
6
CONTINUOUS
10
0.109257
20
0.709429
11
0.109257
21
0.709429
0
LINE
8
BLACK
6
CONTINUOUS
10
0.109257
20
0.709429
11
0.30964
21
0.709429
0
LINE
8
BLACK
6
CONTINUOUS
10
0.30964
20
0.709429
11
0.30964
21
0.709429
0
LINE
8
BLACK
6
CONTINUOUS
10
0.30964
20
0.709429
11
0.30964
21
0.709429
0
LINE
8
BLACK
6
CONTINUOUS
10
0.30964
20
0.709429
11
0.309755
21
0.709442
0
LINE
8
BLACK
6
CONTINUOUS
10
0.309755
20
0.709442
11
0.31063
21
0.709544
0
LINE
8
BLACK
6
CONTINUOUS
10
0.31063
20
0.709544
11
0.312889
21
0.710542
0
LINE
8
BLACK
6
CONTINUOUS
10
0.312889
20
0.710542
11
0.314676
21
0.71133
0
LINE
8
BLACK
6
CONTINUOUS
10
0.314676
20
0.71133
11
0.317803
21
0.714458
0
LINE
8
BLACK
6
CONTINUOUS
10
0.317803
20
0.714458
11
0.31959
21
0.718504
0
LINE
8
BLACK
6
CONTINUOUS
10
0.31959
20
0.718504
11
0.319705
21
0.719494
0
LINE
8
BLACK
6
CONTINUOUS
10
0.319705
20
0.719494
11
0.319705
21
0.880506
0
LINE
8
BLACK
6
CONTINUOUS
10
0.319705
20
0.880506
11
0.31959
21
0.881496
0
LINE
8
BLACK
6
CONTINUOUS
10
0.31959
20
0.881496
11
0.317803
21
0.885542
0
LINE
8
BLACK
6
CONTINUOUS
10
0.317803
20
0.885542
11
0.314676
21
0.88867
0
LINE
8
BLACK
6
CONTINUOUS
10
0.314676
20
0.88867
11
0.31063
21
0.890456
0
LINE
8
BLACK
6
CONTINUOUS
10
0.31063
20
0.890456
11
0.30964
21
0.890571
0
LINE
8
BLACK
6
CONTINUOUS
10
0.30964
20
0.890571
11
0.240502
21
0.890571
0
LINE
8
BLACK
6
CONTINUOUS
10
0.240502
20
0.890571
11
0.238211
21
0.891315
0
LINE
8
BLACK
6
CONTINUOUS
10
0.238211
20
0.891315
11
0.236795
21
0.893264
0
LINE
8
BLACK
6
CONTINUOUS
10
0.236795
20
0.893264
11
0.236795
21
0.895673
0
LINE
8
BLACK
6
CONTINUOUS
10
0.236795
20
0.895673
11
0.237746
21
0.897225
0
LINE
8
BLACK
6
CONTINUOUS
10
0.237746
20
0.897225
11
0.265738
21
0.925217
0
LINE
8
BLACK
6
CONTINUOUS
10
0.265738
20
0.925217
11
0.267884
21
0.92631
0
LINE
8
BLACK
6
CONTINUOUS
10
0.267884
20
0.92631
11
0.268494
21
0.926358
0
LINE
8
BLACK
6
CONTINUOUS
10
0.268494
20
0.926358
11
0.518593
21
0.926358
0
LINE
8
BLACK
6
CONTINUOUS
10
0.518593
20
0.926358
11
0.520884
21
0.925614
0
LINE
8
BLACK
6
CONTINUOUS
10
0.520884
20
0.925614
11
0.521349
21
0.925217
0
LINE
8
BLACK
6
CONTINUOUS
10
0.521349
20
0.925217
11
0.572319
21
0.874246
0
LINE
8
BLACK
6
CONTINUOUS
10
0.572319
20
0.874246
11
0.573208
21
0.872872
0
LINE
8
BLACK
6
CONTINUOUS
10
0.573208
20
0.872872
11
0.575401
21
0.867089
0
LINE
8
BLACK
6
CONTINUOUS
10
0.575401
20
0.867089
11
0.579205
21
0.861578
0
LINE
8
BLACK
6
CONTINUOUS
10
0.579205
20
0.861578
11
0.579205
21
0.861578
0
LINE
8
BLACK
6
CONTINUOUS
10
0.579205
20
0.861578
11
0.584218
21
0.857136
0
LINE
8
BLACK
6
CONTINUOUS
10
0.584218
20
0.857136
11
0.590149
21
0.854024
0
LINE
8
BLACK
6
CONTINUOUS
10
0.590149
20
0.854024
11
0.596651
21
0.852421
0
LINE
8
BLACK
6
CONTINUOUS
10
0.596651
20
0.852421
11
0.596651
21
0.852421
0
LINE
8
BLACK
6
CONTINUOUS
10
0.596651
20
0.852421
11
0.603349
21
0.852421
0
LINE
8
BLACK
6
CONTINUOUS
10
0.603349
20
0.852421
11
0.609851
21
0.854024
0
LINE
8
BLACK
6
CONTINUOUS
10
0.609851
20
0.854024
11
0.614499
21
0.856464
0
LINE
8
BLACK
6
CONTINUOUS
10
0.614499
20
0.856464
11
0.615782
21
0.857136
0
LINE
8
BLACK
6
CONTINUOUS
10
0.615782
20
0.857136
11
0.620795
21
0.861578
0
LINE
8
BLACK
6
CONTINUOUS
10
0.620795
20
0.861578
11
0.624599
21
0.867089
0
LINE
8
BLACK
6
CONTINUOUS
10
0.624599
20
0.867089
11
0.626974
21
0.873351
0
LINE
8
BLACK
6
CONTINUOUS
10
0.626974
20
0.873351
11
0.627781
21
0.88
0
LINE
8
BLACK
6
CONTINUOUS
10
0.627781
20
0.88
11
0.62772
21
0.880506
0
LINE
8
BLACK
6
CONTINUOUS
10
0.62772
20
0.880506
11
0.62735
21
0.883551
0
LINE
8
BLACK
6
CONTINUOUS
10
0.62735
20
0.883551
11
0.626974
21
0.886649
0
LINE
8
BLACK
6
CONTINUOUS
10
0.626974
20
0.886649
11
0.624599
21
0.892911
0
LINE
8
BLACK
6
CONTINUOUS
10
0.624599
20
0.892911
11
0.620795
21
0.898422
0
LINE
8
BLACK
6
CONTINUOUS
10
0.620795
20
0.898422
11
0.615782
21
0.902864
0
LINE
8
BLACK
6
CONTINUOUS
10
0.615782
20
0.902864
11
0.609851
21
0.905976
0
LINE
8
BLACK
6
CONTINUOUS
10
0.609851
20
0.905976
11
0.608782
21
0.906239
0
LINE
8
BLACK
6
CONTINUOUS
10
0.608782
20
0.906239
11
0.607731
21
0.906499
0
LINE
8
BLACK
6
CONTINUOUS
10
0.607731
20
0.906499
11
0.605907
21
0.907527
0
LINE
8
BLACK
6
CONTINUOUS
10
0.605907
20
0.907527
11
0.553434
21
0.96
0
LINE
8
BLACK
6
CONTINUOUS
10
0.553434
20
0.96
11
0.547903
21
0.965531
0
LINE
8
BLACK
6
CONTINUOUS
10
0.547903
20
0.965531
11
0.547735
21
0.965723
0
LINE
8
BLACK
6
CONTINUOUS
10
0.547735
20
0.965723
11
0.546861
21
0.966861
0
LINE
8
BLACK
6
CONTINUOUS
10
0.546861
20
0.966861
11
0.546861
21
0.966862
0
LINE
8
BLACK
6
CONTINUOUS
10
0.546861
20
0.966862
11
0.546861
21
0.966862
0
LINE
8
BLACK
6
CONTINUOUS
10
0.546861
20
0.966862
11
0.545561
21
0.967859
0
LINE
8
BLACK
6
CONTINUOUS
10
0.545561
20
0.967859
11
0.541923
21
0.970651
0
LINE
8
BLACK
6
CONTINUOUS
10
0.541923
20
0.970651
11
0.536172
21
0.973033
0
LINE
8
BLACK
6
CONTINUOUS
10
0.536172
20
0.973033
11
0.53155
21
0.973642
0
LINE
8
BLACK
6
CONTINUOUS
10
0.53155
20
0.973642
11
0.53
21
0.973846
0
LINE
8
BLACK
6
CONTINUOUS
10
0.53
20
0.973846
11
0.53
21
0.973846
0
LINE
8
BLACK
6
CONTINUOUS
10
0.53
20
0.973846
11
0.528577
21
0.973658
0
LINE
8
BLACK
6
CONTINUOUS
10
0.528577
20
0.973658
11
0.528322
21
0.973642
0
LINE
8
BLACK
6
CONTINUOUS
10
0.528322
20
0.973642
11
0.258764
21
0.973642
0
LINE
8
BLACK
6
CONTINUOUS
10
0.258764
20
0.973642
11
0.258509
21
0.973658
0
LINE
8
BLACK
6
CONTINUOUS
10
0.258509
20
0.973658
11
0.257087
21
0.973846
0
LINE
8
BLACK
6
CONTINUOUS
10
0.257087
20
0.973846
11
0.257087
21
0.973846
0
LINE
8
BLACK
6
CONTINUOUS
10
0.257087
20
0.973846
11
0.255537
21
0.973642
0
LINE
8
BLACK
6
CONTINUOUS
10
0.255537
20
0.973642
11
0.250915
21
0.973033
0
LINE
8
BLACK
6
CONTINUOUS
10
0.250915
20
0.973033
11
0.250915
21
0.973033
0
LINE
8
BLACK
6
CONTINUOUS
10
0.250915
20
0.973033
11
0.245164
21
0.970651
0
LINE
8
BLACK
6
CONTINUOUS
10
0.245164
20
0.970651
11
0.245164
21
0.970651
0
LINE
8
BLACK
6
CONTINUOUS
10
0.245164
20
0.970651
11
0.24048
21
0.967057
0
LINE
8
BLACK
6
CONTINUOUS
10
0.24048
20
0.967057
11
0.240225
21
0.966861
0
LINE
8
BLACK
6
CONTINUOUS
10
0.240225
20
0.966861
11
0.240225
21
0.966861
0
LINE
8
BLACK
6
CONTINUOUS
10
0.240225
20
0.966861
11
0.240225
21
0.966861
0
LINE
8
BLACK
6
CONTINUOUS
10
0.240225
20
0.966861
11
0.239352
21
0.965723
0
LINE
8
BLACK
6
CONTINUOUS
10
0.239352
20
0.965723
11
0.239183
21
0.965531
0
LINE
8
BLACK
6
CONTINUOUS
10
0.239183
20
0.965531
11
0.193918
21
0.920266
0
LINE
8
BLACK
6
CONTINUOUS
10
0.193918
20
0.920266
11
0.193726
21
0.920097
0
LINE
8
BLACK
6
CONTINUOUS
10
0.193726
20
0.920097
11
0.192587
21
0.919224
0
LINE
8
BLACK
6
CONTINUOUS
10
0.192587
20
0.919224
11
0.192587
21
0.919224
0
LINE
8
BLACK
6
CONTINUOUS
10
0.192587
20
0.919224
11
0.191636
21
0.917984
0
LINE
8
BLACK
6
CONTINUOUS
10
0.191636
20
0.917984
11
0.188798
21
0.914285
0
LINE
8
BLACK
6
CONTINUOUS
10
0.188798
20
0.914285
11
0.186416
21
0.908534
0
LINE
8
BLACK
6
CONTINUOUS
10
0.186416
20
0.908534
11
0.186416
21
0.908534
0
LINE
8
BLACK
6
CONTINUOUS
10
0.186416
20
0.908534
11
0.185603
21
0.902362
0
LINE
8
BLACK
6
CONTINUOUS
10
0.185603
20
0.902362
11
0.185603
21
0.902362
0
LINE
8
BLACK
6
CONTINUOUS
10
0.185603
20
0.902362
11
0.18579
21
0.900939
0
LINE
8
BLACK
6
CONTINUOUS
10
0.18579
20
0.900939
11
0.185807
21
0.900685
0
LINE
8
BLACK
6
CONTINUOUS
10
0.185807
20
0.900685
11
0.185807
21
0.894468
0
LINE
8
BLACK
6
CONTINUOUS
10
0.185807
20
0.894468
11
0.185063
21
0.892177
0
LINE
8
BLACK
6
CONTINUOUS
10
0.185063
20
0.892177
11
0.183114
21
0.890762
0
LINE
8
BLACK
6
CONTINUOUS
10
0.183114
20
0.890762
11
0.181909
21
0.890571
0
LINE
8
BLACK
6
CONTINUOUS
10
0.181909
20
0.890571
11
0.109257
21
0.890571
0
LINE
8
BLACK
6
CONTINUOUS
10
0.109257
20
0.890571
11
0.108268
21
0.890456
0
LINE
8
BLACK
6
CONTINUOUS
10
0.108268
20
0.890456
11
0.104222
21
0.88867
0
LINE
8
BLACK
6
CONTINUOUS
10
0.104222
20
0.88867
11
0.101094
21
0.885542
0
LINE
8
BLACK
6
CONTINUOUS
10
0.101094
20
0.885542
11
0.0993077
21
0.881496
0
LINE
8
BLACK
6
CONTINUOUS
10
0.0993077
20
0.881496
11
0.0993076
21
0.881496
0
LINE
8
BLACK
6
CONTINUOUS
10
0.0993076
20
0.881496
11
0.0991929
21
0.880507
0
LINE
8
BLACK
6
CONTINUOUS
10
0.0991929
20
0.880507
11
0.0991929
21
0.719494
0
LINE
8
BLACK
6
CONTINUOUS
10
0.0991929
20
0.719494
11
0.099193
21
0.719494
0
LINE
8
BLACK
6
CONTINUOUS
10
0.83823
20
0.991516
11
0.838229
21
0.991516
0
LINE
8
BLACK
6
CONTINUOUS
10
0.838229
20
0.991516
11
0.832943
21
0.99092
0
LINE
8
BLACK
6
CONTINUOUS
10
0.832943
20
0.99092
11
0.832943
21
0.99092
0
LINE
8
BLACK
6
CONTINUOUS
10
0.832943
20
0.99092
11
0.832943
21
0.99092
0
LINE
8
BLACK
6
CONTINUOUS
10
0.832943
20
0.99092
11
0.832943
21
0.99092
0
LINE
8
BLACK
6
CONTINUOUS
10
0.832943
20
0.99092
11
0.832942
21
0.99092
0
LINE
8
BLACK
6
CONTINUOUS
10
0.832942
20
0.99092
11
0.831365
21
0.990368
0
LINE
8
BLACK
6
CONTINUOUS
10
0.831365
20
0.990368
11
0.826239
21
0.988574
0
LINE
8
BLACK
6
CONTINUOUS
10
0.826239
20
0.988574
11
0.826239
21
0.988574
0
LINE
8
BLACK
6
CONTINUOUS
10
0.826239
20
0.988574
11
0.821641
21
0.985685
0
LINE
8
BLACK
6
CONTINUOUS
10
0.821641
20
0.985685
11
0.820226
21
0.984796
0
LINE
8
BLACK
6
CONTINUOUS
10
0.820226
20
0.984796
11
0.815204
21
0.979774
0
LINE
8
BLACK
6
CONTINUOUS
10
0.815204
20
0.979774
11
0.815204
21
0.979774
0
LINE
8
BLACK
6
CONTINUOUS
10
0.815204
20
0.979774
11
0.815204
21
0.979774
0
LINE
8
BLACK
6
CONTINUOUS
10
0.815204
20
0.979774
11
0.811426
21
0.973761
0
LINE
8
BLACK
6
CONTINUOUS
10
0.811426
20
0.973761
11
0.811426
21
0.973761
0
LINE
8
BLACK
6
CONTINUOUS
10
0.811426
20
0.973761
11
0.80908
21
0.967058
0
LINE
8
BLACK
6
CONTINUOUS
10
0.80908
20
0.967058
11
0.80908
21
0.967057
0
LINE
8
BLACK
6
CONTINUOUS
10
0.80908
20
0.967057
11
0.808285
21
0.96
0
LINE
8
BLACK
6
CONTINUOUS
10
0.808285
20
0.96
11
0.80908
21
0.952943
0
LINE
8
BLACK
6
CONTINUOUS
10
0.80908
20
0.952943
11
0.80908
21
0.952942
0
LINE
8
BLACK
6
CONTINUOUS
10
0.80908
20
0.952942
11
0.811426
21
0.946239
0
LINE
8
BLACK
6
CONTINUOUS
10
0.811426
20
0.946239
11
0.811426
21
0.946239
0
LINE
8
BLACK
6
CONTINUOUS
10
0.811426
20
0.946239
11
0.815204
21
0.940226
0
LINE
8
BLACK
6
CONTINUOUS
10
0.815204
20
0.940226
11
0.820226
21
0.935204
0
LINE
8
BLACK
6
CONTINUOUS
10
0.820226
20
0.935204
11
0.826239
21
0.931426
0
LINE
8
BLACK
6
CONTINUOUS
10
0.826239
20
0.931426
11
0.832942
21
0.92908
0
LINE
8
BLACK
6
CONTINUOUS
10
0.832942
20
0.92908
11
0.832943
21
0.92908
0
LINE
8
BLACK
6
CONTINUOUS
10
0.832943
20
0.92908
11
0.838229
21
0.928484
0
LINE
8
BLACK
6
CONTINUOUS
10
0.838229
20
0.928484
11
0.83823
21
0.928484
0
LINE
8
BLACK
6
CONTINUOUS
10
0.83823
20
0.928484
11
0.885331
21
0.928484
0
LINE
8
BLACK
6
CONTINUOUS
10
0.885331
20
0.928484
11
0.887622
21
0.92774
0
LINE
8
BLACK
6
CONTINUOUS
10
0.887622
20
0.92774
11
0.888087
21
0.927343
0
LINE
8
BLACK
6
CONTINUOUS
10
0.888087
20
0.927343
11
0.958966
21
0.856464
0
LINE
8
BLACK
6
CONTINUOUS
10
0.958966
20
0.856464
11
0.963126
21
0.853146
0
LINE
8
BLACK
6
CONTINUOUS
10
0.963126
20
0.853146
11
0.969525
21
0.850065
0
LINE
8
BLACK
6
CONTINUOUS
10
0.969525
20
0.850065
11
0.969525
21
0.850064
0
LINE
8
BLACK
6
CONTINUOUS
10
0.969525
20
0.850064
11
0.976449
21
0.848484
0
LINE
8
BLACK
6
CONTINUOUS
10
0.976449
20
0.848484
11
0.983551
21
0.848484
0
LINE
8
BLACK
6
CONTINUOUS
10
0.983551
20
0.848484
11
0.990475
21
0.850064
0
LINE
8
BLACK
6
CONTINUOUS
10
0.990475
20
0.850064
11
0.990475
21
0.850065
0
LINE
8
BLACK
6
CONTINUOUS
10
0.990475
20
0.850065
11
0.990475
21
0.850065
0
LINE
8
BLACK
6
CONTINUOUS
10
0.990475
20
0.850065
11
0.995369
21
0.852421
0
LINE
8
BLACK
6
CONTINUOUS
10
0.995369
20
0.852421
11
0.996874
21
0.853146
0
LINE
8
BLACK
6
CONTINUOUS
10
0.996874
20
0.853146
11
1.00243
21
0.857574
0
LINE
8
BLACK
6
CONTINUOUS
10
1.00243
20
0.857574
11
1.00243
21
0.857574
0
LINE
8
BLACK
6
CONTINUOUS
10
1.00243
20
0.857574
11
1.00243
21
0.857574
0
LINE
8
BLACK
6
CONTINUOUS
10
1.00243
20
0.857574
11
1.00243
21
0.857574
0
LINE
8
BLACK
6
CONTINUOUS
10
1.00243
20
0.857574
11
1.00685
21
0.863126
0
LINE
8
BLACK
6
CONTINUOUS
10
1.00685
20
0.863126
11
1.00751
21
0.864488
0
LINE
8
BLACK
6
CONTINUOUS
10
1.00751
20
0.864488
11
1.00994
21
0.869525
0
LINE
8
BLACK
6
CONTINUOUS
10
1.00994
20
0.869525
11
1.01081
21
0.873351
0
LINE
8
BLACK
6
CONTINUOUS
10
1.01081
20
0.873351
11
1.01152
21
0.876449
0
LINE
8
BLACK
6
CONTINUOUS
10
1.01152
20
0.876449
11
1.01152
21
0.883551
0
LINE
8
BLACK
6
CONTINUOUS
10
1.01152
20
0.883551
11
1.00994
21
0.890475
0
LINE
8
BLACK
6
CONTINUOUS
10
1.00994
20
0.890475
11
1.00994
21
0.890475
0
LINE
8
BLACK
6
CONTINUOUS
10
1.00994
20
0.890475
11
1.00994
21
0.890475
0
LINE
8
BLACK
6
CONTINUOUS
10
1.00994
20
0.890475
11
1.00685
21
0.896874
0
LINE
8
BLACK
6
CONTINUOUS
10
1.00685
20
0.896874
11
1.00354
21
0.901034
0
LINE
8
BLACK
6
CONTINUOUS
10
1.00354
20
0.901034
11
0.921034
21
0.983536
0
LINE
8
BLACK
6
CONTINUOUS
10
0.921034
20
0.983536
11
0.921034
21
0.983536
0
LINE
8
BLACK
6
CONTINUOUS
10
0.921034
20
0.983536
11
0.919774
21
0.984796
0
LINE
8
BLACK
6
CONTINUOUS
10
0.919774
20
0.984796
11
0.918358
21
0.985685
0
LINE
8
BLACK
6
CONTINUOUS
10
0.918358
20
0.985685
11
0.918181
21
0.985811
0
LINE
8
BLACK
6
CONTINUOUS
10
0.918181
20
0.985811
11
0.916874
21
0.986854
0
LINE
8
BLACK
6
CONTINUOUS
10
0.916874
20
0.986854
11
0.915367
21
0.987579
0
LINE
8
BLACK
6
CONTINUOUS
10
0.915367
20
0.987579
11
0.915177
21
0.987685
0
LINE
8
BLACK
6
CONTINUOUS
10
0.915177
20
0.987685
11
0.913761
21
0.988574
0
LINE
8
BLACK
6
CONTINUOUS
10
0.913761
20
0.988574
11
0.912182
21
0.989127
0
LINE
8
BLACK
6
CONTINUOUS
10
0.912182
20
0.989127
11
0.911981
21
0.98921
0
LINE
8
BLACK
6
CONTINUOUS
10
0.911981
20
0.98921
11
0.910475
21
0.989935
0
LINE
8
BLACK
6
CONTINUOUS
10
0.910475
20
0.989935
11
0.910475
21
0.989935
0
LINE
8
BLACK
6
CONTINUOUS
10
0.910475
20
0.989935
11
0.910475
21
0.989936
0
LINE
8
BLACK
6
CONTINUOUS
10
0.910475
20
0.989936
11
0.909734
21
0.990105
0
LINE
8
BLACK
6
CONTINUOUS
10
0.909734
20
0.990105
11
0.908845
21
0.990307
0
LINE
8
BLACK
6
CONTINUOUS
10
0.908845
20
0.990307
11
0.908635
21
0.990368
0
LINE
8
BLACK
6
CONTINUOUS
10
0.908635
20
0.990368
11
0.907057
21
0.99092
0
LINE
8
BLACK
6
CONTINUOUS
10
0.907057
20
0.99092
11
0.905396
21
0.991107
0
LINE
8
BLACK
6
CONTINUOUS
10
0.905396
20
0.991107
11
0.905181
21
0.991144
0
LINE
8
BLACK
6
CONTINUOUS
10
0.905181
20
0.991144
11
0.903551
21
0.991516
0
LINE
8
BLACK
6
CONTINUOUS
10
0.903551
20
0.991516
11
0.90177
21
0.991516
0
LINE
8
BLACK
6
CONTINUOUS
10
0.90177
20
0.991516
11
0.83823
21
0.991516
0
LINE
8
BLACK
6
CONTINUOUS
10
0.83823
20
0.991516
11
0.83823
21
0.991516
0
LINE
8
BLACK
6
CONTINUOUS
10
0.601831
20
1.39177
11
0.601716
21
1.39276
0
LINE
8
BLACK
6
CONTINUOUS
10
0.601716
20
1.39276
11
0.599929
21
1.3968
0
LINE
8
BLACK
6
CONTINUOUS
10
0.599929
20
1.3968
11
0.596802
21
1.39993
0
LINE
8
BLACK
6
CONTINUOUS
10
0.596802
20
1.39993
11
0.592756
21
1.40172
0
LINE
8
BLACK
6
CONTINUOUS
10
0.592756
20
1.40172
11
0.591766
21
1.40183
0
LINE
8
BLACK
6
CONTINUOUS
10
0.591766
20
1.40183
11
0.528234
21
1.40183
0
LINE
8
BLACK
6
CONTINUOUS
10
0.528234
20
1.40183
11
0.527244
21
1.40172
0
LINE
8
BLACK
6
CONTINUOUS
10
0.527244
20
1.40172
11
0.523198
21
1.39993
0
LINE
8
BLACK
6
CONTINUOUS
10
0.523198
20
1.39993
11
0.520071
21
1.3968
0
LINE
8
BLACK
6
CONTINUOUS
10
0.520071
20
1.3968
11
0.520071
21
1.3968
0
LINE
8
BLACK
6
CONTINUOUS
10
0.520071
20
1.3968
11
0.518284
21
1.39276
0
LINE
8
BLACK
6
CONTINUOUS
10
0.518284
20
1.39276
11
0.518169
21
1.39177
0
LINE
8
BLACK
6
CONTINUOUS
10
0.518169
20
1.39177
11
0.518169
21
1.32823
0
LINE
8
BLACK
6
CONTINUOUS
10
0.518169
20
1.32823
11
0.518169
21
1.32823
0
LINE
8
BLACK
6
CONTINUOUS
10
0.518169
20
1.32823
11
0.518284
21
1.32724
0
LINE
8
BLACK
6
CONTINUOUS
10
0.518284
20
1.32724
11
0.520071
21
1.3232
0
LINE
8
BLACK
6
CONTINUOUS
10
0.520071
20
1.3232
11
0.523198
21
1.32007
0
LINE
8
BLACK
6
CONTINUOUS
10
0.523198
20
1.32007
11
0.527245
21
1.31828
0
LINE
8
BLACK
6
CONTINUOUS
10
0.527245
20
1.31828
11
0.528234
21
1.31817
0
LINE
8
BLACK
6
CONTINUOUS
10
0.528234
20
1.31817
11
0.528234
21
1.31817
0
LINE
8
BLACK
6
CONTINUOUS
10
0.528234
20
1.31817
11
0.591766
21
1.31817
0
LINE
8
BLACK
6
CONTINUOUS
10
0.591766
20
1.31817
11
0.591766
21
1.31817
0
LINE
8
BLACK
6
CONTINUOUS
10
0.591766
20
1.31817
11
0.591766
21
1.31817
0
LINE
8
BLACK
6
CONTINUOUS
10
0.591766
20
1.31817
11
0.591881
21
1.31818
0
LINE
8
BLACK
6
CONTINUOUS
10
0.591881
20
1.31818
11
0.592756
21
1.31828
0
LINE
8
BLACK
6
CONTINUOUS
10
0.592756
20
1.31828
11
0.595015
21
1.31928
0
LINE
8
BLACK
6
CONTINUOUS
10
0.595015
20
1.31928
11
0.596802
21
1.32007
0
LINE
8
BLACK
6
CONTINUOUS
10
0.596802
20
1.32007
11
0.599929
21
1.3232
0
LINE
8
BLACK
6
CONTINUOUS
10
0.599929
20
1.3232
11
0.601716
21
1.32724
0
LINE
8
BLACK
6
CONTINUOUS
10
0.601716
20
1.32724
11
0.601831
21
1.32823
0
LINE
8
BLACK
6
CONTINUOUS
10
0.601831
20
1.32823
11
0.601831
21
1.32823
0
LINE
8
BLACK
6
CONTINUOUS
10
0.601831
20
1.32823
11
0.601831
21
1.39177
0
LINE
8
BLACK
6
CONTINUOUS
10
0.618169
20
1.32823
11
0.618284
21
1.32724
0
LINE
8
BLACK
6
CONTINUOUS
10
0.618284
20
1.32724
11
0.620071
21
1.3232
0
LINE
8
BLACK
6
CONTINUOUS
10
0.620071
20
1.3232
11
0.623198
21
1.32007
0
LINE
8
BLACK
6
CONTINUOUS
10
0.623198
20
1.32007
11
0.627245
21
1.31828
0
LINE
8
BLACK
6
CONTINUOUS
10
0.627245
20
1.31828
11
0.628234
21
1.31817
0
LINE
8
BLACK
6
CONTINUOUS
10
0.628234
20
1.31817
11
0.628234
21
1.31817
0
LINE
8
BLACK
6
CONTINUOUS
10
0.628234
20
1.31817
11
0.691766
21
1.31817
0
LINE
8
BLACK
6
CONTINUOUS
10
0.691766
20
1.31817
11
0.691766
21
1.31817
0
LINE
8
BLACK
6
CONTINUOUS
10
0.691766
20
1.31817
11
0.691766
21
1.31817
0
LINE
8
BLACK
6
CONTINUOUS
10
0.691766
20
1.31817
11
0.691881
21
1.31818
0
LINE
8
BLACK
6
CONTINUOUS
10
0.691881
20
1.31818
11
0.692756
21
1.31828
0
LINE
8
BLACK
6
CONTINUOUS
10
0.692756
20
1.31828
11
0.695015
21
1.31928
0
LINE
8
BLACK
6
CONTINUOUS
10
0.695015
20
1.31928
11
0.696802
21
1.32007
0
LINE
8
BLACK
6
CONTINUOUS
10
0.696802
20
1.32007
11
0.699929
21
1.3232
0
LINE
8
BLACK
6
CONTINUOUS
10
0.699929
20
1.3232
11
0.701716
21
1.32724
0
LINE
8
BLACK
6
CONTINUOUS
10
0.701716
20
1.32724
11
0.701831
21
1.32823
0
LINE
8
BLACK
6
CONTINUOUS
10
0.701831
20
1.32823
11
0.701831
21
1.32823
0
LINE
8
BLACK
6
CONTINUOUS
10
0.701831
20
1.32823
11
0.701831
21
1.39177
0
LINE
8
BLACK
6
CONTINUOUS
10
0.701831
20
1.39177
11
0.701716
21
1.39276
0
LINE
8
BLACK
6
CONTINUOUS
10
0.701716
20
1.39276
11
0.699929
21
1.3968
0
LINE
8
BLACK
6
CONTINUOUS
10
0.699929
20
1.3968
11
0.696802
21
1.39993
0
LINE
8
BLACK
6
CONTINUOUS
10
0.696802
20
1.39993
11
0.692756
21
1.40172
0
LINE
8
BLACK
6
CONTINUOUS
10
0.692756
20
1.40172
11
0.691766
21
1.40183
0
LINE
8
BLACK
6
CONTINUOUS
10
0.691766
20
1.40183
11
0.628234
21
1.40183
0
LINE
8
BLACK
6
CONTINUOUS
10
0.628234
20
1.40183
11
0.627244
21
1.40172
0
LINE
8
BLACK
6
CONTINUOUS
10
0.627244
20
1.40172
11
0.623198
21
1.39993
0
LINE
8
BLACK
6
CONTINUOUS
10
0.623198
20
1.39993
11
0.620071
21
1.3968
0
LINE
8
BLACK
6
CONTINUOUS
10
0.620071
20
1.3968
11
0.620071
21
1.3968
0
LINE
8
BLACK
6
CONTINUOUS
10
0.620071
20
1.3968
11
0.618284
21
1.39276
0
LINE
8
BLACK
6
CONTINUOUS
10
0.618284
20
1.39276
11
0.618169
21
1.39177
0
LINE
8
BLACK
6
CONTINUOUS
10
0.618169
20
1.39177
11
0.618169
21
1.32823
0
LINE
8
BLACK
6
CONTINUOUS
10
0.618169
20
1.32823
11
0.618169
21
1.32823
0
LINE
8
BLACK
6
CONTINUOUS
10
0.718169
20
1.32823
11
0.718284
21
1.32724
0
LINE
8
BLACK
6
CONTINUOUS
10
0.718284
20
1.32724
11
0.720071
21
1.3232
0
LINE
8
BLACK
6
CONTINUOUS
10
0.720071
20
1.3232
11
0.723198
21
1.32007
0
LINE
8
BLACK
6
CONTINUOUS
10
0.723198
20
1.32007
11
0.727245
21
1.31828
0
LINE
8
BLACK
6
CONTINUOUS
10
0.727245
20
1.31828
11
0.728234
21
1.31817
0
LINE
8
BLACK
6
CONTINUOUS
10
0.728234
20
1.31817
11
0.728234
21
1.31817
0
LINE
8
BLACK
6
CONTINUOUS
10
0.728234
20
1.31817
11
0.791766
21
1.31817
0
LINE
8
BLACK
6
CONTINUOUS
10
0.791766
20
1.31817
11
0.791766
21
1.31817
0
LINE
8
BLACK
6
CONTINUOUS
10
0.791766
20
1.31817
11
0.791766
21
1.31817
0
LINE
8
BLACK
6
CONTINUOUS
10
0.791766
20
1.31817
11
0.791881
21
1.31818
0
LINE
8
BLACK
6
CONTINUOUS
10
0.791881
20
1.31818
11
0.792756
21
1.31828
0
LINE
8
BLACK
6
CONTINUOUS
10
0.792756
20
1.31828
11
0.795015
21
1.31928
0
LINE
8
BLACK
6
CONTINUOUS
10
0.795015
20
1.31928
11
0.796802
21
1.32007
0
LINE
8
BLACK
6
CONTINUOUS
10
0.796802
20
1.32007
11
0.799929
21
1.3232
0
LINE
8
BLACK
6
CONTINUOUS
10
0.799929
20
1.3232
11
0.801716
21
1.32724
0
LINE
8
BLACK
6
CONTINUOUS
10
0.801716
20
1.32724
11
0.801831
21
1.32823
0
LINE
8
BLACK
6
CONTINUOUS
10
0.801831
20
1.32823
11
0.801831
21
1.39177
0
LINE
8
BLACK
6
CONTINUOUS
10
0.801831
20
1.39177
11
0.801716
21
1.39276
0
LINE
8
BLACK
6
CONTINUOUS
10
0.801716
20
1.39276
11
0.799929
21
1.3968
0
LINE
8
BLACK
6
CONTINUOUS
10
0.799929
20
1.3968
11
0.796802
21
1.39993
0
LINE
8
BLACK
6
CONTINUOUS
10
0.796802
20
1.39993
11
0.796642
21
1.4
0
LINE
8
BLACK
6
CONTINUOUS
10
0.796642
20
1.4
11
0.792756
21
1.40172
0
LINE
8
BLACK
6
CONTINUOUS
10
0.792756
20
1.40172
11
0.791766
21
1.40183
0
LINE
8
BLACK
6
CONTINUOUS
10
0.791766
20
1.40183
11
0.728234
21
1.40183
0
LINE
8
BLACK
6
CONTINUOUS
10
0.728234
20
1.40183
11
0.727244
21
1.40172
0
LINE
8
BLACK
6
CONTINUOUS
10
0.727244
20
1.40172
11
0.723198
21
1.39993
0
LINE
8
BLACK
6
CONTINUOUS
10
0.723198
20
1.39993
11
0.720071
21
1.3968
0
LINE
8
BLACK
6
CONTINUOUS
10
0.720071
20
1.3968
11
0.720071
21
1.3968
0
LINE
8
BLACK
6
CONTINUOUS
10
0.720071
20
1.3968
11
0.718284
21
1.39276
0
LINE
8
BLACK
6
CONTINUOUS
10
0.718284
20
1.39276
11
0.718169
21
1.39177
0
LINE
8
BLACK
6
CONTINUOUS
10
0.718169
20
1.39177
11
0.718169
21
1.32823
0
LINE
8
BLACK
6
CONTINUOUS
10
0.718169
20
1.32823
11
0.718169
21
1.32823
0
LINE
8
BLACK
6
CONTINUOUS
10
1.09011
20
1.46243
11
1.08047
21
1.46011
0
LINE
8
BLACK
6
CONTINUOUS
10
1.08047
20
1.46011
11
1.08047
21
1.46011
0
LINE
8
BLACK
6
CONTINUOUS
10
1.08047
20
1.46011
11
1.08047
21
1.46011
0
LINE
8
BLACK
6
CONTINUOUS
10
1.08047
20
1.46011
11
1.0713
21
1.45632
0
LINE
8
BLACK
6
CONTINUOUS
10
1.0713
20
1.45632
11
1.0713
21
1.45632
0
LINE
8
BLACK
6
CONTINUOUS
10
1.0713
20
1.45632
11
1.06567
21
1.45286
0
LINE
8
BLACK
6
CONTINUOUS
10
1.06567
20
1.45286
11
1.06285
21
1.45114
0
LINE
8
BLACK
6
CONTINUOUS
10
1.06285
20
1.45114
11
1.05531
21
1.44469
0
LINE
8
BLACK
6
CONTINUOUS
10
1.05531
20
1.44469
11
1.05531
21
1.44469
0
LINE
8
BLACK
6
CONTINUOUS
10
1.05531
20
1.44469
11
1.05531
21
1.44469
0
LINE
8
BLACK
6
CONTINUOUS
10
1.05531
20
1.44469
11
1.04886
21
1.43715
0
LINE
8
BLACK
6
CONTINUOUS
10
1.04886
20
1.43715
11
1.04886
21
1.43715
0
LINE
8
BLACK
6
CONTINUOUS
10
1.04886
20
1.43715
11
1.04368
21
1.4287
0
LINE
8
BLACK
6
CONTINUOUS
10
1.04368
20
1.4287
11
1.04368
21
1.4287
0
LINE
8
BLACK
6
CONTINUOUS
10
1.04368
20
1.4287
11
1.03989
21
1.41953
0
LINE
8
BLACK
6
CONTINUOUS
10
1.03989
20
1.41953
11
1.03757
21
1.40989
0
LINE
8
BLACK
6
CONTINUOUS
10
1.03757
20
1.40989
11
1.03679
21
1.4
0
LINE
8
BLACK
6
CONTINUOUS
10
1.03679
20
1.4
11
1.03757
21
1.39011
0
LINE
8
BLACK
6
CONTINUOUS
10
1.03757
20
1.39011
11
1.03989
21
1.38047
0
LINE
8
BLACK
6
CONTINUOUS
10
1.03989
20
1.38047
11
1.04368
21
1.3713
0
LINE
8
BLACK
6
CONTINUOUS
10
1.04368
20
1.3713
11
1.04368
21
1.3713
0
LINE
8
BLACK
6
CONTINUOUS
10
1.04368
20
1.3713
11
1.04886
21
1.36285
0
LINE
8
BLACK
6
CONTINUOUS
10
1.04886
20
1.36285
11
1.04886
21
1.36285
0
LINE
8
BLACK
6
CONTINUOUS
10
1.04886
20
1.36285
11
1.05531
21
1.35531
0
LINE
8
BLACK
6
CONTINUOUS
10
1.05531
20
1.35531
11
1.05531
21
1.35531
0
LINE
8
BLACK
6
CONTINUOUS
10
1.05531
20
1.35531
11
1.06285
21
1.34886
0
LINE
8
BLACK
6
CONTINUOUS
10
1.06285
20
1.34886
11
1.06285
21
1.34886
0
LINE
8
BLACK
6
CONTINUOUS
10
1.06285
20
1.34886
11
1.0713
21
1.34368
0
LINE
8
BLACK
6
CONTINUOUS
10
1.0713
20
1.34368
11
1.0713
21
1.34368
0
LINE
8
BLACK
6
CONTINUOUS
10
1.0713
20
1.34368
11
1.08047
21
1.33989
0
LINE
8
BLACK
6
CONTINUOUS
10
1.08047
20
1.33989
11
1.08047
21
1.33989
0
LINE
8
BLACK
6
CONTINUOUS
10
1.08047
20
1.33989
11
1.09011
21
1.33757
0
LINE
8
BLACK
6
CONTINUOUS
10
1.09011
20
1.33757
11
1.09531
21
1.33716
0
LINE
8
BLACK
6
CONTINUOUS
10
1.09531
20
1.33716
11
1.09752
21
1.33699
0
LINE
8
BLACK
6
CONTINUOUS
10
1.09752
20
1.33699
11
1.09752
21
1.33699
0
LINE
8
BLACK
6
CONTINUOUS
10
1.09752
20
1.33699
11
1.10248
21
1.33699
0
LINE
8
BLACK
6
CONTINUOUS
10
1.10248
20
1.33699
11
1.10248
21
1.33699
0
LINE
8
BLACK
6
CONTINUOUS
10
1.10248
20
1.33699
11
1.10484
21
1.33717
0
LINE
8
BLACK
6
CONTINUOUS
10
1.10484
20
1.33717
11
1.10989
21
1.33757
0
LINE
8
BLACK
6
CONTINUOUS
10
1.10989
20
1.33757
11
1.11953
21
1.33989
0
LINE
8
BLACK
6
CONTINUOUS
10
1.11953
20
1.33989
11
1.1287
21
1.34368
0
LINE
8
BLACK
6
CONTINUOUS
10
1.1287
20
1.34368
11
1.1287
21
1.34368
0
LINE
8
BLACK
6
CONTINUOUS
10
1.1287
20
1.34368
11
1.13715
21
1.34886
0
LINE
8
BLACK
6
CONTINUOUS
10
1.13715
20
1.34886
11
1.13715
21
1.34886
0
LINE
8
BLACK
6
CONTINUOUS
10
1.13715
20
1.34886
11
1.14469
21
1.35531
0
LINE
8
BLACK
6
CONTINUOUS
10
1.14469
20
1.35531
11
1.14469
21
1.35531
0
LINE
8
BLACK
6
CONTINUOUS
10
1.14469
20
1.35531
11
1.14469
21
1.35531
0
LINE
8
BLACK
6
CONTINUOUS
10
1.14469
20
1.35531
11
1.15114
21
1.36285
0
LINE
8
BLACK
6
CONTINUOUS
10
1.15114
20
1.36285
11
1.15632
21
1.3713
0
LINE
8
BLACK
6
CONTINUOUS
10
1.15632
20
1.3713
11
1.16011
21
1.38047
0
LINE
8
BLACK
6
CONTINUOUS
10
1.16011
20
1.38047
11
1.16243
21
1.39011
0
LINE
8
BLACK
6
CONTINUOUS
10
1.16243
20
1.39011
11
1.16321
21
1.4
0
LINE
8
BLACK
6
CONTINUOUS
10
1.16321
20
1.4
11
1.16243
21
1.40989
0
LINE
8
BLACK
6
CONTINUOUS
10
1.16243
20
1.40989
11
1.16011
21
1.41953
0
LINE
8
BLACK
6
CONTINUOUS
10
1.16011
20
1.41953
11
1.15632
21
1.4287
0
LINE
8
BLACK
6
CONTINUOUS
10
1.15632
20
1.4287
11
1.15114
21
1.43715
0
LINE
8
BLACK
6
CONTINUOUS
10
1.15114
20
1.43715
11
1.14469
21
1.44469
0
LINE
8
BLACK
6
CONTINUOUS
10
1.14469
20
1.44469
11
1.13715
21
1.45114
0
LINE
8
BLACK
6
CONTINUOUS
10
1.13715
20
1.45114
11
1.1287
21
1.45632
0
LINE
8
BLACK
6
CONTINUOUS
10
1.1287
20
1.45632
11
1.11953
21
1.46011
0
LINE
8
BLACK
6
CONTINUOUS
10
1.11953
20
1.46011
11
1.10989
21
1.46243
0
LINE
8
BLACK
6
CONTINUOUS
10
1.10989
20
1.46243
11
1.10248
21
1.46301
0
LINE
8
BLACK
6
CONTINUOUS
10
1.10248
20
1.46301
11
1.09752
21
1.46301
0
LINE
8
BLACK
6
CONTINUOUS
10
1.09752
20
1.46301
11
1.09011
21
1.46243
0
LINE
8
BLACK
6
CONTINUOUS
10
0.601831
20
1.49177
11
0.601716
21
1.49276
0
LINE
8
BLACK
6
CONTINUOUS
10
0.601716
20
1.49276
11
0.599929
21
1.4968
0
LINE
8
BLACK
6
CONTINUOUS
10
0.599929
20
1.4968
11
0.596802
21
1.49993
0
LINE
8
BLACK
6
CONTINUOUS
10
0.596802
20
1.49993
11
0.592756
21
1.50172
0
LINE
8
BLACK
6
CONTINUOUS
10
0.592756
20
1.50172
11
0.591766
21
1.50183
0
LINE
8
BLACK
6
CONTINUOUS
10
0.591766
20
1.50183
11
0.528234
21
1.50183
0
LINE
8
BLACK
6
CONTINUOUS
10
0.528234
20
1.50183
11
0.527244
21
1.50172
0
LINE
8
BLACK
6
CONTINUOUS
10
0.527244
20
1.50172
11
0.523198
21
1.49993
0
LINE
8
BLACK
6
CONTINUOUS
10
0.523198
20
1.49993
11
0.520071
21
1.4968
0
LINE
8
BLACK
6
CONTINUOUS
10
0.520071
20
1.4968
11
0.520071
21
1.4968
0
LINE
8
BLACK
6
CONTINUOUS
10
0.520071
20
1.4968
11
0.518284
21
1.49276
0
LINE
8
BLACK
6
CONTINUOUS
10
0.518284
20
1.49276
11
0.518169
21
1.49177
0
LINE
8
BLACK
6
CONTINUOUS
10
0.518169
20
1.49177
11
0.518169
21
1.42823
0
LINE
8
BLACK
6
CONTINUOUS
10
0.518169
20
1.42823
11
0.518169
21
1.42823
0
LINE
8
BLACK
6
CONTINUOUS
10
0.518169
20
1.42823
11
0.518284
21
1.42724
0
LINE
8
BLACK
6
CONTINUOUS
10
0.518284
20
1.42724
11
0.520071
21
1.4232
0
LINE
8
BLACK
6
CONTINUOUS
10
0.520071
20
1.4232
11
0.523198
21
1.42007
0
LINE
8
BLACK
6
CONTINUOUS
10
0.523198
20
1.42007
11
0.527245
21
1.41828
0
LINE
8
BLACK
6
CONTINUOUS
10
0.527245
20
1.41828
11
0.528234
21
1.41817
0
LINE
8
BLACK
6
CONTINUOUS
10
0.528234
20
1.41817
11
0.528234
21
1.41817
0
LINE
8
BLACK
6
CONTINUOUS
10
0.528234
20
1.41817
11
0.591766
21
1.41817
0
LINE
8
BLACK
6
CONTINUOUS
10
0.591766
20
1.41817
11
0.591766
21
1.41817
0
LINE
8
BLACK
6
CONTINUOUS
10
0.591766
20
1.41817
11
0.591766
21
1.41817
0
LINE
8
BLACK
6
CONTINUOUS
10
0.591766
20
1.41817
11
0.591881
21
1.41818
0
LINE
8
BLACK
6
CONTINUOUS
10
0.591881
20
1.41818
11
0.592756
21
1.41828
0
LINE
8
BLACK
6
CONTINUOUS
10
0.592756
20
1.41828
11
0.595582
21
1.41953
0
LINE
8
BLACK
6
CONTINUOUS
10
0.595582
20
1.41953
11
0.596802
21
1.42007
0
LINE
8
BLACK
6
CONTINUOUS
10
0.596802
20
1.42007
11
0.599929
21
1.4232
0
LINE
8
BLACK
6
CONTINUOUS
10
0.599929
20
1.4232
11
0.601716
21
1.42724
0
LINE
8
BLACK
6
CONTINUOUS
10
0.601716
20
1.42724
11
0.601831
21
1.42823
0
LINE
8
BLACK
6
CONTINUOUS
10
0.601831
20
1.42823
11
0.601831
21
1.42823
0
LINE
8
BLACK
6
CONTINUOUS
10
0.601831
20
1.42823
11
0.601831
21
1.49177
0
LINE
8
BLACK
6
CONTINUOUS
10
0.618169
20
1.42823
11
0.618284
21
1.42724
0
LINE
8
BLACK
6
CONTINUOUS
10
0.618284
20
1.42724
11
0.620071
21
1.4232
0
LINE
8
BLACK
6
CONTINUOUS
10
0.620071
20
1.4232
11
0.623198
21
1.42007
0
LINE
8
BLACK
6
CONTINUOUS
10
0.623198
20
1.42007
11
0.627245
21
1.41828
0
LINE
8
BLACK
6
CONTINUOUS
10
0.627245
20
1.41828
11
0.628234
21
1.41817
0
LINE
8
BLACK
6
CONTINUOUS
10
0.628234
20
1.41817
11
0.628234
21
1.41817
0
LINE
8
BLACK
6
CONTINUOUS
10
0.628234
20
1.41817
11
0.691766
21
1.41817
0
LINE
8
BLACK
6
CONTINUOUS
10
0.691766
20
1.41817
11
0.691766
21
1.41817
0
LINE
8
BLACK
6
CONTINUOUS
10
0.691766
20
1.41817
11
0.691766
21
1.41817
0
LINE
8
BLACK
6
CONTINUOUS
10
0.691766
20
1.41817
11
0.691881
21
1.41818
0
LINE
8
BLACK
6
CONTINUOUS
10
0.691881
20
1.41818
11
0.692756
21
1.41828
0
LINE
8
BLACK
6
CONTINUOUS
10
0.692756
20
1.41828
11
0.695582
21
1.41953
0
LINE
8
BLACK
6
CONTINUOUS
10
0.695582
20
1.41953
11
0.696802
21
1.42007
0
LINE
8
BLACK
6
CONTINUOUS
10
0.696802
20
1.42007
11
0.699929
21
1.4232
0
LINE
8
BLACK
6
CONTINUOUS
10
0.699929
20
1.4232
11
0.701716
21
1.42724
0
LINE
8
BLACK
6
CONTINUOUS
10
0.701716
20
1.42724
11
0.701831
21
1.42823
0
LINE
8
BLACK
6
CONTINUOUS
10
0.701831
20
1.42823
11
0.701831
21
1.42823
0
LINE
8
BLACK
6
CONTINUOUS
10
0.701831
20
1.42823
11
0.701831
21
1.49177
0
LINE
8
BLACK
6
CONTINUOUS
10
0.701831
20
1.49177
11
0.701716
21
1.49276
0
LINE
8
BLACK
6
CONTINUOUS
10
0.701716
20
1.49276
11
0.699929
21
1.4968
0
LINE
8
BLACK
6
CONTINUOUS
10
0.699929
20
1.4968
11
0.696802
21
1.49993
0
LINE
8
BLACK
6
CONTINUOUS
10
0.696802
20
1.49993
11
0.692756
21
1.50172
0
LINE
8
BLACK
6
CONTINUOUS
10
0.692756
20
1.50172
11
0.691766
21
1.50183
0
LINE
8
BLACK
6
CONTINUOUS
10
0.691766
20
1.50183
11
0.628234
21
1.50183
0
LINE
8
BLACK
6
CONTINUOUS
10
0.628234
20
1.50183
11
0.627244
21
1.50172
0
LINE
8
BLACK
6
CONTINUOUS
10
0.627244
20
1.50172
11
0.623198
21
1.49993
0
LINE
8
BLACK
6
CONTINUOUS
10
0.623198
20
1.49993
11
0.620071
21
1.4968
0
LINE
8
BLACK
6
CONTINUOUS
10
0.620071
20
1.4968
11
0.620071
21
1.4968
0
LINE
8
BLACK
6
CONTINUOUS
10
0.620071
20
1.4968
11
0.618284
21
1.49276
0
LINE
8
BLACK
6
CONTINUOUS
10
0.618284
20
1.49276
11
0.618169
21
1.49177
0
LINE
8
BLACK
6
CONTINUOUS
10
0.618169
20
1.49177
11
0.618169
21
1.42823
0
LINE
8
BLACK
6
CONTINUOUS
10
0.618169
20
1.42823
11
0.618169
21
1.42823
0
LINE
8
BLACK
6
CONTINUOUS
10
0.718169
20
1.42823
11
0.718284
21
1.42724
0
LINE
8
BLACK
6
CONTINUOUS
10
0.718284
20
1.42724
11
0.720071
21
1.4232
0
LINE
8
BLACK
6
CONTINUOUS
10
0.720071
20
1.4232
11
0.723198
21
1.42007
0
LINE
8
BLACK
6
CONTINUOUS
10
0.723198
20
1.42007
11
0.727245
21
1.41828
0
LINE
8
BLACK
6
CONTINUOUS
10
0.727245
20
1.41828
11
0.728234
21
1.41817
0
LINE
8
BLACK
6
CONTINUOUS
10
0.728234
20
1.41817
11
0.728234
21
1.41817
0
LINE
8
BLACK
6
CONTINUOUS
10
0.728234
20
1.41817
11
0.791766
21
1.41817
0
LINE
8
BLACK
6
CONTINUOUS
10
0.791766
20
1.41817
11
0.791766
21
1.41817
0
LINE
8
BLACK
6
CONTINUOUS
10
0.791766
20
1.41817
11
0.791766
21
1.41817
0
LINE
8
BLACK
6
CONTINUOUS
10
0.791766
20
1.41817
11
0.791881
21
1.41818
0
LINE
8
BLACK
6
CONTINUOUS
10
0.791881
20
1.41818
11
0.792756
21
1.41828
0
LINE
8
BLACK
6
CONTINUOUS
10
0.792756
20
1.41828
11
0.795582
21
1.41953
0
LINE
8
BLACK
6
CONTINUOUS
10
0.795582
20
1.41953
11
0.796802
21
1.42007
0
LINE
8
BLACK
6
CONTINUOUS
10
0.796802
20
1.42007
11
0.799929
21
1.4232
0
LINE
8
BLACK
6
CONTINUOUS
10
0.799929
20
1.4232
11
0.801716
21
1.42724
0
LINE
8
BLACK
6
CONTINUOUS
10
0.801716
20
1.42724
11
0.801831
21
1.42823
0
LINE
8
BLACK
6
CONTINUOUS
10
0.801831
20
1.42823
11
0.801831
21
1.49177
0
LINE
8
BLACK
6
CONTINUOUS
10
0.801831
20
1.49177
11
0.801716
21
1.49276
0
LINE
8
BLACK
6
CONTINUOUS
10
0.801716
20
1.49276
11
0.799929
21
1.4968
0
LINE
8
BLACK
6
CONTINUOUS
10
0.799929
20
1.4968
11
0.796802
21
1.49993
0
LINE
8
BLACK
6
CONTINUOUS
10
0.796802
20
1.49993
11
0.792756
21
1.50172
0
LINE
8
BLACK
6
CONTINUOUS
10
0.792756
20
1.50172
11
0.791766
21
1.50183
0
LINE
8
BLACK
6
CONTINUOUS
10
0.791766
20
1.50183
11
0.728234
21
1.50183
0
LINE
8
BLACK
6
CONTINUOUS
10
0.728234
20
1.50183
11
0.727244
21
1.50172
0
LINE
8
BLACK
6
CONTINUOUS
10
0.727244
20
1.50172
11
0.723198
21
1.49993
0
LINE
8
BLACK
6
CONTINUOUS
10
0.723198
20
1.49993
11
0.720071
21
1.4968
0
LINE
8
BLACK
6
CONTINUOUS
10
0.720071
20
1.4968
11
0.720071
21
1.4968
0
LINE
8
BLACK
6
CONTINUOUS
10
0.720071
20
1.4968
11
0.718284
21
1.49276
0
LINE
8
BLACK
6
CONTINUOUS
10
0.718284
20
1.49276
11
0.718169
21
1.49177
0
LINE
8
BLACK
6
CONTINUOUS
10
0.718169
20
1.49177
11
0.718169
21
1.42823
0
LINE
8
BLACK
6
CONTINUOUS
10
0.718169
20
1.42823
11
0.718169
21
1.42823
0
CIRCLE
8
BLACK
10
0.86
20
1.46
40
0.00688976
0
CIRCLE
8
BLACK
10
0.86
20
1.36
40
0.00688976
0
CIRCLE
8
BLACK
10
0.76
20
1.46
40
0.00688976
0
CIRCLE
8
BLACK
10
0.76
20
1.36
40
0.00688976
0
CIRCLE
8
BLACK
10
0.66
20
1.46
40
0.00688976
0
CIRCLE
8
BLACK
10
0.66
20
1.36
40
0.00688976
0
CIRCLE
8
BLACK
10
0.56
20
1.46
40
0.00688976
0
CIRCLE
8
BLACK
10
0.56
20
1.36
40
0.00688976
0
CIRCLE
8
BLACK
10
0.46
20
1.46
40
0.00688976
0
CIRCLE
8
BLACK
10
0.46
20
1.36
40
0.00688976
0
CIRCLE
8
BLACK
10
0.72
20
0.13
40
0.00688976
0
CIRCLE
8
BLACK
10
0.72
20
0.23
40
0.00688976
0
CIRCLE
8
BLACK
10
0.62
20
0.13
40
0.00688976
0
CIRCLE
8
BLACK
10
0.62
20
0.23
40
0.00688976
0
CIRCLE
8
BLACK
10
0.52
20
0.13
40
0.00688976
0
CIRCLE
8
BLACK
10
0.52
20
0.23
40
0.00688976
0
CIRCLE
8
BLACK
10
0.82
20
0.13
40
0.00688976
0
CIRCLE
8
BLACK
10
0.82
20
0.23
40
0.00688976
0
CIRCLE
8
BLACK
10
0.2
20
0.2
40
0.00688976
0
CIRCLE
8
BLACK
10
0.2
20
1.4
40
0.00688976
0
CIRCLE
8
BLACK
10
1.4
20
1.4
40
0.00688976
0
CIRCLE
8
BLACK
10
1.4
20
0.2
40
0.00688976
0
CIRCLE
8
BLACK
10
0.991417
20
0.155984
40
0.00688976
0
CIRCLE
8
BLACK
10
0.991417
20
0.404016
40
0.00688976
0
CIRCLE
8
BLACK
10
1.16858
20
0.155984
40
0.00688976
0
CIRCLE
8
BLACK
10
1.16858
20
0.404016
40
0.00688976
0
CIRCLE
8
BLACK
10
0.42
20
0.13
40
0.00688976
0
CIRCLE
8
BLACK
10
0.42
20
0.23
40
0.00688976
0
CIRCLE
8
BLACK
10
1.1
20
1.4
40
0.00688976
0
CIRCLE
8
BLACK
10
0.6
20
0.88
40
0.00787402
0
CIRCLE
8
BLACK
10
1.54
20
0.77
40
0.00787402
0
CIRCLE
8
BLACK
10
0.36
20
1.4
40
0.00787402
0
CIRCLE
8
BLACK
10
1.1
20
0.78
40
0.00787402
0
CIRCLE
8
BLACK
10
0.7
20
0.94
40
0.00787402
0
CIRCLE
8
BLACK
10
1.54
20
0.72
40
0.00787402
0
CIRCLE
8
BLACK
10
0.51
20
0.88
40
0.00787402
0
CIRCLE
8
BLACK
10
1.02
20
0.92
40
0.00787402
0
CIRCLE
8
BLACK
10
0.94
20
1.48
40
0.00787402
0
CIRCLE
8
BLACK
10
0.36
20
0.18
40
0.00787402
0
CIRCLE
8
BLACK
10
0.36
20
1.46
40
0.00787402
0
CIRCLE
8
BLACK
10
0.68
20
0.48
40
0.00787402
0
CIRCLE
8
BLACK
10
0.66
20
0.94
40
0.00787402
0
CIRCLE
8
BLACK
10
0.56
20
0.65
40
0.00787402
0
CIRCLE
8
BLACK
10
1.1
20
0.74
40
0.00787402
0
CIRCLE
8
BLACK
10
0.66
20
0.98
40
0.00787402
0
CIRCLE
8
BLACK
10
1.4
20
0.68
40
0.00787402
0
CIRCLE
8
BLACK
10
1.54
20
0.87
40
0.00787402
0
CIRCLE
8
BLACK
10
0.98
20
1.02
40
0.00787402
0
CIRCLE
8
BLACK
10
0.68
20
0.55
40
0.00787402
0
CIRCLE
8
BLACK
10
1.3
20
0.68
40
0.00787402
0
CIRCLE
8
BLACK
10
1.35
20
0.68
40
0.00787402
0
CIRCLE
8
BLACK
10
0.6
20
0.94
40
0.00787402
0
CIRCLE
8
BLACK
10
0.47
20
0.8
40
0.00787402
0
CIRCLE
8
BLACK
10
1.04
20
0.88
40
0.00787402
0
CIRCLE
8
BLACK
10
0.36
20
0.22
40
0.00787402
0
CIRCLE
8
BLACK
10
0.5
20
0.65
40
0.00787402
0
CIRCLE
8
BLACK
10
1.54
20
0.82
40
0.00787402
0
CIRCLE
8
BLACK
10
1.1
20
0.88
40
0.00787402
0
CIRCLE
8
BLACK
10
0.94
20
1.42
40
0.00787402
0
CIRCLE
8
BLACK
10
1.5
20
0.68
40
0.00787402
0
CIRCLE
8
BLACK
10
0.98
20
0.96
40
0.00787402
0
CIRCLE
8
BLACK
10
1.1
20
0.82
40
0.00787402
0
CIRCLE
8
BLACK
10
1.45
20
0.68
40
0.00787402
0
CIRCLE
8
BLACK
10
0.36
20
0.12
40
0.00787402
0
CIRCLE
8
BLACK
10
0.6
20
0.98
40
0.00787402
0
CIRCLE
8
BLACK
10
0.48
20
0.69
40
0.00787402
0
CIRCLE
8
BLACK
10
0.36
20
1.34
40
0.00787402
0
CIRCLE
8
BLACK
10
0.94
20
1.36
40
0.00787402
0
CIRCLE
8
BLACK
10
0.47
20
0.85
40
0.00787402
0
CIRCLE
8
BLACK
10
0.48
20
0.75
40
0.00787402
0
CIRCLE
8
BLACK
10
0.84
20
0.96
40
0.00787402
0
CIRCLE
8
BLACK
10
0.98
20
0.88
40
0.00787402
0
CIRCLE
8
BLACK
10
0.74
20
0.88
40
0.00787402
  0
ENDSEC
  0
EOF
