<?xml version='1.0' encoding='ASCII' standalone='yes'?>
<svg xmlns:svg="http://www.w3.org/2000/svg" xmlns="http://www.w3.org/2000/svg" xmlns:xlink="http://www.w3.org/1999/xlink" version="1.1" width="297.0022mm" height="210.0072mm" viewBox="0.0000 0.0000 297.0022 210.0072">
<title>SVG Image created as RTC02-B_Fab.svg date 2023/09/17 09:33:34 </title>
  <desc>Image generated by PCBNEW </desc>
<g style="fill:#000084; fill-opacity:1.0000;stroke:#000084; stroke-opacity:1.0000; stroke-linecap:round; stroke-linejoin:round;" transform="translate(0 0) scale(1 1)">
</g>
<g style="fill:#000084; fill-opacity:0.0;  stroke:#000084; stroke-width:0.0000; stroke-opacity:1;  stroke-linecap:round; stroke-linejoin:round;">
</g>
<g style="fill:#000084; fill-opacity:0.01;  stroke:#000084; stroke-width:0.7820; stroke-opacity:1;  stroke-linecap:round; stroke-linejoin:round;">
<text x="143.2044" y="89.0198" transform="scale(-1 1) translate(-286.408887 0)" textLength="45.4918" font-size="6.9510" lengthAdjust="spacingAndGlyphs" text-anchor="middle" opacity="0.01" style="font-family:monospace">PCF85263A</text>
<g class="stroked-text"><desc>PCF85263A</desc>
<path d="M164.0574 88.7843 L164.0574 83.5710 "/>
<path d="M164.0574 83.5710 L162.0714 83.5710 "/>
<path d="M162.0714 83.5710 L161.5749 83.8193 "/>
<path d="M161.5749 83.8193 L161.3267 84.0675 "/>
<path d="M161.3267 84.0675 L161.0784 84.5640 "/>
<path d="M161.0784 84.5640 L161.0784 85.3088 "/>
<path d="M161.0784 85.3088 L161.3267 85.8053 "/>
<path d="M161.3267 85.8053 L161.5749 86.0535 "/>
<path d="M161.5749 86.0535 L162.0714 86.3018 "/>
<path d="M162.0714 86.3018 L164.0574 86.3018 "/>
<path d="M155.8652 88.2877 L156.1134 88.5360 "/>
<path d="M156.1134 88.5360 L156.8582 88.7843 "/>
<path d="M156.8582 88.7843 L157.3547 88.7843 "/>
<path d="M157.3547 88.7843 L158.0994 88.5360 "/>
<path d="M158.0994 88.5360 L158.5959 88.0395 "/>
<path d="M158.5959 88.0395 L158.8442 87.5430 "/>
<path d="M158.8442 87.5430 L159.0924 86.5500 "/>
<path d="M159.0924 86.5500 L159.0924 85.8053 "/>
<path d="M159.0924 85.8053 L158.8442 84.8123 "/>
<path d="M158.8442 84.8123 L158.5959 84.3158 "/>
<path d="M158.5959 84.3158 L158.0994 83.8193 "/>
<path d="M158.0994 83.8193 L157.3547 83.5710 "/>
<path d="M157.3547 83.5710 L156.8582 83.5710 "/>
<path d="M156.8582 83.5710 L156.1134 83.8193 "/>
<path d="M156.1134 83.8193 L155.8652 84.0675 "/>
<path d="M151.8932 86.0535 L153.6309 86.0535 "/>
<path d="M153.6309 88.7843 L153.6309 83.5710 "/>
<path d="M153.6309 83.5710 L151.1484 83.5710 "/>
<path d="M148.4177 85.8053 L148.9142 85.5570 "/>
<path d="M148.9142 85.5570 L149.1624 85.3088 "/>
<path d="M149.1624 85.3088 L149.4107 84.8123 "/>
<path d="M149.4107 84.8123 L149.4107 84.5640 "/>
<path d="M149.4107 84.5640 L149.1624 84.0675 "/>
<path d="M149.1624 84.0675 L148.9142 83.8193 "/>
<path d="M148.9142 83.8193 L148.4177 83.5710 "/>
<path d="M148.4177 83.5710 L147.4247 83.5710 "/>
<path d="M147.4247 83.5710 L146.9282 83.8193 "/>
<path d="M146.9282 83.8193 L146.6799 84.0675 "/>
<path d="M146.6799 84.0675 L146.4317 84.5640 "/>
<path d="M146.4317 84.5640 L146.4317 84.8123 "/>
<path d="M146.4317 84.8123 L146.6799 85.3088 "/>
<path d="M146.6799 85.3088 L146.9282 85.5570 "/>
<path d="M146.9282 85.5570 L147.4247 85.8053 "/>
<path d="M147.4247 85.8053 L148.4177 85.8053 "/>
<path d="M148.4177 85.8053 L148.9142 86.0535 "/>
<path d="M148.9142 86.0535 L149.1624 86.3018 "/>
<path d="M149.1624 86.3018 L149.4107 86.7983 "/>
<path d="M149.4107 86.7983 L149.4107 87.7913 "/>
<path d="M149.4107 87.7913 L149.1624 88.2877 "/>
<path d="M149.1624 88.2877 L148.9142 88.5360 "/>
<path d="M148.9142 88.5360 L148.4177 88.7843 "/>
<path d="M148.4177 88.7843 L147.4247 88.7843 "/>
<path d="M147.4247 88.7843 L146.9282 88.5360 "/>
<path d="M146.9282 88.5360 L146.6799 88.2877 "/>
<path d="M146.6799 88.2877 L146.4317 87.7913 "/>
<path d="M146.4317 87.7913 L146.4317 86.7983 "/>
<path d="M146.4317 86.7983 L146.6799 86.3018 "/>
<path d="M146.6799 86.3018 L146.9282 86.0535 "/>
<path d="M146.9282 86.0535 L147.4247 85.8053 "/>
<path d="M141.7149 83.5710 L144.1974 83.5710 "/>
<path d="M144.1974 83.5710 L144.4457 86.0535 "/>
<path d="M144.4457 86.0535 L144.1974 85.8053 "/>
<path d="M144.1974 85.8053 L143.7009 85.5570 "/>
<path d="M143.7009 85.5570 L142.4597 85.5570 "/>
<path d="M142.4597 85.5570 L141.9632 85.8053 "/>
<path d="M141.9632 85.8053 L141.7149 86.0535 "/>
<path d="M141.7149 86.0535 L141.4667 86.5500 "/>
<path d="M141.4667 86.5500 L141.4667 87.7913 "/>
<path d="M141.4667 87.7913 L141.7149 88.2877 "/>
<path d="M141.7149 88.2877 L141.9632 88.5360 "/>
<path d="M141.9632 88.5360 L142.4597 88.7843 "/>
<path d="M142.4597 88.7843 L143.7009 88.7843 "/>
<path d="M143.7009 88.7843 L144.1974 88.5360 "/>
<path d="M144.1974 88.5360 L144.4457 88.2877 "/>
<path d="M139.4807 84.0675 L139.2324 83.8193 "/>
<path d="M139.2324 83.8193 L138.7359 83.5710 "/>
<path d="M138.7359 83.5710 L137.4947 83.5710 "/>
<path d="M137.4947 83.5710 L136.9982 83.8193 "/>
<path d="M136.9982 83.8193 L136.7499 84.0675 "/>
<path d="M136.7499 84.0675 L136.5017 84.5640 "/>
<path d="M136.5017 84.5640 L136.5017 85.0605 "/>
<path d="M136.5017 85.0605 L136.7499 85.8053 "/>
<path d="M136.7499 85.8053 L139.7289 88.7843 "/>
<path d="M139.7289 88.7843 L136.5017 88.7843 "/>
<path d="M132.0332 83.5710 L133.0262 83.5710 "/>
<path d="M133.0262 83.5710 L133.5227 83.8193 "/>
<path d="M133.5227 83.8193 L133.7709 84.0675 "/>
<path d="M133.7709 84.0675 L134.2674 84.8123 "/>
<path d="M134.2674 84.8123 L134.5157 85.8053 "/>
<path d="M134.5157 85.8053 L134.5157 87.7913 "/>
<path d="M134.5157 87.7913 L134.2674 88.2877 "/>
<path d="M134.2674 88.2877 L134.0192 88.5360 "/>
<path d="M134.0192 88.5360 L133.5227 88.7843 "/>
<path d="M133.5227 88.7843 L132.5297 88.7843 "/>
<path d="M132.5297 88.7843 L132.0332 88.5360 "/>
<path d="M132.0332 88.5360 L131.7849 88.2877 "/>
<path d="M131.7849 88.2877 L131.5367 87.7913 "/>
<path d="M131.5367 87.7913 L131.5367 86.5500 "/>
<path d="M131.5367 86.5500 L131.7849 86.0535 "/>
<path d="M131.7849 86.0535 L132.0332 85.8053 "/>
<path d="M132.0332 85.8053 L132.5297 85.5570 "/>
<path d="M132.5297 85.5570 L133.5227 85.5570 "/>
<path d="M133.5227 85.5570 L134.0192 85.8053 "/>
<path d="M134.0192 85.8053 L134.2674 86.0535 "/>
<path d="M134.2674 86.0535 L134.5157 86.5500 "/>
<path d="M129.7989 83.5710 L126.5717 83.5710 "/>
<path d="M126.5717 83.5710 L128.3094 85.5570 "/>
<path d="M128.3094 85.5570 L127.5647 85.5570 "/>
<path d="M127.5647 85.5570 L127.0682 85.8053 "/>
<path d="M127.0682 85.8053 L126.8199 86.0535 "/>
<path d="M126.8199 86.0535 L126.5717 86.5500 "/>
<path d="M126.5717 86.5500 L126.5717 87.7913 "/>
<path d="M126.5717 87.7913 L126.8199 88.2877 "/>
<path d="M126.8199 88.2877 L127.0682 88.5360 "/>
<path d="M127.0682 88.5360 L127.5647 88.7843 "/>
<path d="M127.5647 88.7843 L129.0542 88.7843 "/>
<path d="M129.0542 88.7843 L129.5507 88.5360 "/>
<path d="M129.5507 88.5360 L129.7989 88.2877 "/>
<path d="M124.5857 87.2948 L122.1032 87.2948 "/>
<path d="M125.0822 88.7843 L123.3445 83.5710 "/>
<path d="M123.3445 83.5710 L121.6067 88.7843 "/>
</g><path d="M135.3846 91.8871 L151.0243 91.8871 "/>
<path d="M135.3846 107.5268 L135.3846 91.8871 "/>
<path d="M151.0243 91.8871 L151.0243 107.5268 "/>
<path d="M151.0243 107.5268 L135.3846 107.5268 "/>
<g>
</g>
<g>
</g>
<g>
</g>
<g>
</g>
<g>
</g>
<g>
</g>
<g>
</g>
<g>
</g>
<g>
</g>
<g>
</g>
<g>
</g>
<g>
</g>
<g>
</g>
<g>
</g>
<g>
</g>
<g>
</g>
<g>
</g>
<g>
</g>
<g>
</g>
<g>
</g>
<g>
</g>
<g>
</g>
<g>
</g>
<g>
</g>
</g> 
<svg:g><svg:g><svg:title>SVG Image created as RTC02-Edge_Cuts.svg date 2023/09/17 09:33:34 </svg:title>
  <svg:desc>Image generated by PCBNEW </svg:desc>
<svg:g style="fill:#C2C200; fill-opacity:1.0000;stroke:#C2C200; stroke-opacity:1.0000; stroke-linecap:round; stroke-linejoin:round;" transform="translate(0 0) scale(1 1)">
</svg:g>
<svg:g style="fill:#C2C200; fill-opacity:0.0;  stroke:#C2C200; stroke-width:0.0000; stroke-opacity:1;  stroke-linecap:round; stroke-linejoin:round;">
</svg:g>
<svg:g style="fill:#C2C200; fill-opacity:0.0;  stroke:#C2C200; stroke-width:0.7820; stroke-opacity:1;  stroke-linecap:round; stroke-linejoin:round;">
<svg:path d="M43.8921 209.6126 L253.1101 209.6126 "/>
<svg:path d="M43.8921 0.3946 L253.1101 0.3946 "/>
<svg:path d="M43.8921 209.6126 L43.8921 0.3946 "/>
<svg:path d="M253.1101 0.3946 L253.1101 209.6126 "/>
<svg:g>
</svg:g>
<svg:g>
</svg:g>
<svg:g>
</svg:g>
<svg:g>
</svg:g>
<svg:g>
</svg:g>
<svg:g>
</svg:g>
<svg:g>
</svg:g>
<svg:g>
</svg:g>
<svg:g>
</svg:g>
<svg:g>
</svg:g>
<svg:g>
</svg:g>
<svg:g>
</svg:g>
<svg:g>
</svg:g>
<svg:g>
</svg:g>
<svg:g>
</svg:g>
<svg:g>
</svg:g>
<svg:g>
</svg:g>
<svg:g>
</svg:g>
<svg:g>
</svg:g>
<svg:g>
</svg:g>
<svg:g>
</svg:g>
<svg:g>
</svg:g>
<svg:g>
</svg:g>
<svg:g>
</svg:g>
</svg:g> 
</svg:g></svg:g></svg>
