<?xml version='1.0' encoding='ASCII' standalone='yes'?>
<svg xmlns:svg="http://www.w3.org/2000/svg" xmlns="http://www.w3.org/2000/svg" xmlns:xlink="http://www.w3.org/1999/xlink" version="1.1" width="297.0022mm" height="210.0072mm" viewBox="0.0000 0.0000 297.0022 210.0072">
<title>SVG Image created as RTC02-F_Fab.svg date 2023/09/17 09:33:34 </title>
  <desc>Image generated by PCBNEW </desc>
<g style="fill:#848484; fill-opacity:1.0000;stroke:#848484; stroke-opacity:1.0000; stroke-linecap:round; stroke-linejoin:round;" transform="translate(0 0) scale(1 1)">
</g>
<g style="fill:#848484; fill-opacity:0.0;  stroke:#848484; stroke-width:0.0000; stroke-opacity:1;  stroke-linecap:round; stroke-linejoin:round;">
</g>
<g style="fill:#848484; fill-opacity:0.01;  stroke:#848484; stroke-width:0.7820; stroke-opacity:1;  stroke-linecap:round; stroke-linejoin:round;">
<text x="148.5011" y="105.0036" textLength="48.2225" font-size="6.9510" lengthAdjust="spacingAndGlyphs" text-anchor="middle" opacity="0.01" style="font-family:monospace">CH28-2032</text>
<g class="stroked-text"><desc>CH28-2032</desc>
<path d="M167.7405 104.2716 L167.9887 104.5198 "/>
<path d="M167.9887 104.5198 L168.7335 104.7681 "/>
<path d="M168.7335 104.7681 L169.2300 104.7681 "/>
<path d="M169.2300 104.7681 L169.9747 104.5198 "/>
<path d="M169.9747 104.5198 L170.4712 104.0233 "/>
<path d="M170.4712 104.0233 L170.7195 103.5268 "/>
<path d="M170.7195 103.5268 L170.9677 102.5338 "/>
<path d="M170.9677 102.5338 L170.9677 101.7891 "/>
<path d="M170.9677 101.7891 L170.7195 100.7961 "/>
<path d="M170.7195 100.7961 L170.4712 100.2996 "/>
<path d="M170.4712 100.2996 L169.9747 99.8031 "/>
<path d="M169.9747 99.8031 L169.2300 99.5548 "/>
<path d="M169.2300 99.5548 L168.7335 99.5548 "/>
<path d="M168.7335 99.5548 L167.9887 99.8031 "/>
<path d="M167.9887 99.8031 L167.7405 100.0513 "/>
<path d="M165.5062 104.7681 L165.5062 99.5548 "/>
<path d="M165.5062 102.0373 L162.5272 102.0373 "/>
<path d="M162.5272 104.7681 L162.5272 99.5548 "/>
<path d="M160.2930 100.0513 L160.0447 99.8031 "/>
<path d="M160.0447 99.8031 L159.5482 99.5548 "/>
<path d="M159.5482 99.5548 L158.3070 99.5548 "/>
<path d="M158.3070 99.5548 L157.8105 99.8031 "/>
<path d="M157.8105 99.8031 L157.5622 100.0513 "/>
<path d="M157.5622 100.0513 L157.3140 100.5478 "/>
<path d="M157.3140 100.5478 L157.3140 101.0443 "/>
<path d="M157.3140 101.0443 L157.5622 101.7891 "/>
<path d="M157.5622 101.7891 L160.5412 104.7681 "/>
<path d="M160.5412 104.7681 L157.3140 104.7681 "/>
<path d="M154.3350 101.7891 L154.8315 101.5408 "/>
<path d="M154.8315 101.5408 L155.0797 101.2926 "/>
<path d="M155.0797 101.2926 L155.3280 100.7961 "/>
<path d="M155.3280 100.7961 L155.3280 100.5478 "/>
<path d="M155.3280 100.5478 L155.0797 100.0513 "/>
<path d="M155.0797 100.0513 L154.8315 99.8031 "/>
<path d="M154.8315 99.8031 L154.3350 99.5548 "/>
<path d="M154.3350 99.5548 L153.3420 99.5548 "/>
<path d="M153.3420 99.5548 L152.8455 99.8031 "/>
<path d="M152.8455 99.8031 L152.5972 100.0513 "/>
<path d="M152.5972 100.0513 L152.3490 100.5478 "/>
<path d="M152.3490 100.5478 L152.3490 100.7961 "/>
<path d="M152.3490 100.7961 L152.5972 101.2926 "/>
<path d="M152.5972 101.2926 L152.8455 101.5408 "/>
<path d="M152.8455 101.5408 L153.3420 101.7891 "/>
<path d="M153.3420 101.7891 L154.3350 101.7891 "/>
<path d="M154.3350 101.7891 L154.8315 102.0373 "/>
<path d="M154.8315 102.0373 L155.0797 102.2856 "/>
<path d="M155.0797 102.2856 L155.3280 102.7821 "/>
<path d="M155.3280 102.7821 L155.3280 103.7751 "/>
<path d="M155.3280 103.7751 L155.0797 104.2716 "/>
<path d="M155.0797 104.2716 L154.8315 104.5198 "/>
<path d="M154.8315 104.5198 L154.3350 104.7681 "/>
<path d="M154.3350 104.7681 L153.3420 104.7681 "/>
<path d="M153.3420 104.7681 L152.8455 104.5198 "/>
<path d="M152.8455 104.5198 L152.5972 104.2716 "/>
<path d="M152.5972 104.2716 L152.3490 103.7751 "/>
<path d="M152.3490 103.7751 L152.3490 102.7821 "/>
<path d="M152.3490 102.7821 L152.5972 102.2856 "/>
<path d="M152.5972 102.2856 L152.8455 102.0373 "/>
<path d="M152.8455 102.0373 L153.3420 101.7891 "/>
<path d="M150.1147 102.7821 L146.1427 102.7821 "/>
<path d="M143.9085 100.0513 L143.6602 99.8031 "/>
<path d="M143.6602 99.8031 L143.1637 99.5548 "/>
<path d="M143.1637 99.5548 L141.9225 99.5548 "/>
<path d="M141.9225 99.5548 L141.4260 99.8031 "/>
<path d="M141.4260 99.8031 L141.1777 100.0513 "/>
<path d="M141.1777 100.0513 L140.9295 100.5478 "/>
<path d="M140.9295 100.5478 L140.9295 101.0443 "/>
<path d="M140.9295 101.0443 L141.1777 101.7891 "/>
<path d="M141.1777 101.7891 L144.1567 104.7681 "/>
<path d="M144.1567 104.7681 L140.9295 104.7681 "/>
<path d="M137.7022 99.5548 L137.2057 99.5548 "/>
<path d="M137.2057 99.5548 L136.7092 99.8031 "/>
<path d="M136.7092 99.8031 L136.4610 100.0513 "/>
<path d="M136.4610 100.0513 L136.2127 100.5478 "/>
<path d="M136.2127 100.5478 L135.9645 101.5408 "/>
<path d="M135.9645 101.5408 L135.9645 102.7821 "/>
<path d="M135.9645 102.7821 L136.2127 103.7751 "/>
<path d="M136.2127 103.7751 L136.4610 104.2716 "/>
<path d="M136.4610 104.2716 L136.7092 104.5198 "/>
<path d="M136.7092 104.5198 L137.2057 104.7681 "/>
<path d="M137.2057 104.7681 L137.7022 104.7681 "/>
<path d="M137.7022 104.7681 L138.1987 104.5198 "/>
<path d="M138.1987 104.5198 L138.4470 104.2716 "/>
<path d="M138.4470 104.2716 L138.6952 103.7751 "/>
<path d="M138.6952 103.7751 L138.9435 102.7821 "/>
<path d="M138.9435 102.7821 L138.9435 101.5408 "/>
<path d="M138.9435 101.5408 L138.6952 100.5478 "/>
<path d="M138.6952 100.5478 L138.4470 100.0513 "/>
<path d="M138.4470 100.0513 L138.1987 99.8031 "/>
<path d="M138.1987 99.8031 L137.7022 99.5548 "/>
<path d="M134.2267 99.5548 L130.9995 99.5548 "/>
<path d="M130.9995 99.5548 L132.7372 101.5408 "/>
<path d="M132.7372 101.5408 L131.9925 101.5408 "/>
<path d="M131.9925 101.5408 L131.4960 101.7891 "/>
<path d="M131.4960 101.7891 L131.2477 102.0373 "/>
<path d="M131.2477 102.0373 L130.9995 102.5338 "/>
<path d="M130.9995 102.5338 L130.9995 103.7751 "/>
<path d="M130.9995 103.7751 L131.2477 104.2716 "/>
<path d="M131.2477 104.2716 L131.4960 104.5198 "/>
<path d="M131.4960 104.5198 L131.9925 104.7681 "/>
<path d="M131.9925 104.7681 L133.4820 104.7681 "/>
<path d="M133.4820 104.7681 L133.9785 104.5198 "/>
<path d="M133.9785 104.5198 L134.2267 104.2716 "/>
<path d="M129.0135 100.0513 L128.7652 99.8031 "/>
<path d="M128.7652 99.8031 L128.2687 99.5548 "/>
<path d="M128.2687 99.5548 L127.0275 99.5548 "/>
<path d="M127.0275 99.5548 L126.5310 99.8031 "/>
<path d="M126.5310 99.8031 L126.2827 100.0513 "/>
<path d="M126.2827 100.0513 L126.0345 100.5478 "/>
<path d="M126.0345 100.5478 L126.0345 101.0443 "/>
<path d="M126.0345 101.0443 L126.2827 101.7891 "/>
<path d="M126.2827 101.7891 L129.2617 104.7681 "/>
<path d="M129.2617 104.7681 L126.0345 104.7681 "/>
</g><g>
</g>
<g>
</g>
<g>
</g>
<g>
</g>
<g>
</g>
<g>
</g>
<g>
</g>
<g>
</g>
<g>
</g>
<g>
</g>
<g>
</g>
<g>
</g>
<g>
</g>
<g>
</g>
<g>
</g>
<g>
</g>
<g>
</g>
<g>
</g>
<g>
</g>
<g>
</g>
<g>
</g>
<g>
</g>
<g>
</g>
<g>
</g>
</g> 
<svg:g><svg:g><svg:title>SVG Image created as RTC02-Edge_Cuts.svg date 2023/09/17 09:33:34 </svg:title>
  <svg:desc>Image generated by PCBNEW </svg:desc>
<svg:g style="fill:#C2C200; fill-opacity:1.0000;stroke:#C2C200; stroke-opacity:1.0000; stroke-linecap:round; stroke-linejoin:round;" transform="translate(0 0) scale(1 1)">
</svg:g>
<svg:g style="fill:#C2C200; fill-opacity:0.0;  stroke:#C2C200; stroke-width:0.0000; stroke-opacity:1;  stroke-linecap:round; stroke-linejoin:round;">
</svg:g>
<svg:g style="fill:#C2C200; fill-opacity:0.0;  stroke:#C2C200; stroke-width:0.7820; stroke-opacity:1;  stroke-linecap:round; stroke-linejoin:round;">
<svg:path d="M253.1101 209.6126 L43.8921 209.6126 "/>
<svg:path d="M253.1101 0.3946 L43.8921 0.3946 "/>
<svg:path d="M253.1101 209.6126 L253.1101 0.3946 "/>
<svg:path d="M43.8921 0.3946 L43.8921 209.6126 "/>
<svg:g>
</svg:g>
<svg:g>
</svg:g>
<svg:g>
</svg:g>
<svg:g>
</svg:g>
<svg:g>
</svg:g>
<svg:g>
</svg:g>
<svg:g>
</svg:g>
<svg:g>
</svg:g>
<svg:g>
</svg:g>
<svg:g>
</svg:g>
<svg:g>
</svg:g>
<svg:g>
</svg:g>
<svg:g>
</svg:g>
<svg:g>
</svg:g>
<svg:g>
</svg:g>
<svg:g>
</svg:g>
<svg:g>
</svg:g>
<svg:g>
</svg:g>
<svg:g>
</svg:g>
<svg:g>
</svg:g>
<svg:g>
</svg:g>
<svg:g>
</svg:g>
<svg:g>
</svg:g>
<svg:g>
</svg:g>
</svg:g> 
</svg:g></svg:g></svg>
