%TF.GenerationSoftware,KiCad,Pcbnew,7.0.7-7.0.7~ubuntu23.04.1*%
%TF.CreationDate,2023-09-17T09:32:36+00:00*%
%TF.ProjectId,RTC02,52544330-322e-46b6-9963-61645f706362,rev?*%
%TF.SameCoordinates,Original*%
%TF.FileFunction,Legend,Bot*%
%TF.FilePolarity,Positive*%
%FSLAX46Y46*%
G04 Gerber Fmt 4.6, Leading zero omitted, Abs format (unit mm)*
G04 Created by KiCad (PCBNEW 7.0.7-7.0.7~ubuntu23.04.1) date 2023-09-17 09:32:36*
%MOMM*%
%LPD*%
G01*
G04 APERTURE LIST*
%ADD10C,0.109220*%
%ADD11C,0.304800*%
%ADD12C,0.099060*%
%ADD13C,0.150000*%
%ADD14C,2.700000*%
G04 APERTURE END LIST*
D10*
X25991396Y20332349D02*
X26015224Y20308522D01*
X26015224Y20308522D02*
X26086706Y20284694D01*
X26086706Y20284694D02*
X26134362Y20284694D01*
X26134362Y20284694D02*
X26205845Y20308522D01*
X26205845Y20308522D02*
X26253500Y20356177D01*
X26253500Y20356177D02*
X26277327Y20403832D01*
X26277327Y20403832D02*
X26301155Y20499142D01*
X26301155Y20499142D02*
X26301155Y20570625D01*
X26301155Y20570625D02*
X26277327Y20665936D01*
X26277327Y20665936D02*
X26253500Y20713591D01*
X26253500Y20713591D02*
X26205845Y20761246D01*
X26205845Y20761246D02*
X26134362Y20785074D01*
X26134362Y20785074D02*
X26086706Y20785074D01*
X26086706Y20785074D02*
X26015224Y20761246D01*
X26015224Y20761246D02*
X25991396Y20737419D01*
X25514844Y20284694D02*
X25800775Y20284694D01*
X25657809Y20284694D02*
X25657809Y20785074D01*
X25657809Y20785074D02*
X25705465Y20713591D01*
X25705465Y20713591D02*
X25753120Y20665936D01*
X25753120Y20665936D02*
X25800775Y20642108D01*
X26809397Y20983194D02*
X27095328Y20983194D01*
X26952362Y20983194D02*
X26952362Y21483574D01*
X26952362Y21483574D02*
X27000018Y21412091D01*
X27000018Y21412091D02*
X27047673Y21364436D01*
X27047673Y21364436D02*
X27095328Y21340608D01*
X26499638Y21483574D02*
X26451983Y21483574D01*
X26451983Y21483574D02*
X26404327Y21459746D01*
X26404327Y21459746D02*
X26380500Y21435919D01*
X26380500Y21435919D02*
X26356672Y21388263D01*
X26356672Y21388263D02*
X26332845Y21292953D01*
X26332845Y21292953D02*
X26332845Y21173815D01*
X26332845Y21173815D02*
X26356672Y21078504D01*
X26356672Y21078504D02*
X26380500Y21030849D01*
X26380500Y21030849D02*
X26404327Y21007022D01*
X26404327Y21007022D02*
X26451983Y20983194D01*
X26451983Y20983194D02*
X26499638Y20983194D01*
X26499638Y20983194D02*
X26547293Y21007022D01*
X26547293Y21007022D02*
X26571121Y21030849D01*
X26571121Y21030849D02*
X26594948Y21078504D01*
X26594948Y21078504D02*
X26618776Y21173815D01*
X26618776Y21173815D02*
X26618776Y21292953D01*
X26618776Y21292953D02*
X26594948Y21388263D01*
X26594948Y21388263D02*
X26571121Y21435919D01*
X26571121Y21435919D02*
X26547293Y21459746D01*
X26547293Y21459746D02*
X26499638Y21483574D01*
X26023086Y21483574D02*
X25975431Y21483574D01*
X25975431Y21483574D02*
X25927775Y21459746D01*
X25927775Y21459746D02*
X25903948Y21435919D01*
X25903948Y21435919D02*
X25880120Y21388263D01*
X25880120Y21388263D02*
X25856293Y21292953D01*
X25856293Y21292953D02*
X25856293Y21173815D01*
X25856293Y21173815D02*
X25880120Y21078504D01*
X25880120Y21078504D02*
X25903948Y21030849D01*
X25903948Y21030849D02*
X25927775Y21007022D01*
X25927775Y21007022D02*
X25975431Y20983194D01*
X25975431Y20983194D02*
X26023086Y20983194D01*
X26023086Y20983194D02*
X26070741Y21007022D01*
X26070741Y21007022D02*
X26094569Y21030849D01*
X26094569Y21030849D02*
X26118396Y21078504D01*
X26118396Y21078504D02*
X26142224Y21173815D01*
X26142224Y21173815D02*
X26142224Y21292953D01*
X26142224Y21292953D02*
X26118396Y21388263D01*
X26118396Y21388263D02*
X26094569Y21435919D01*
X26094569Y21435919D02*
X26070741Y21459746D01*
X26070741Y21459746D02*
X26023086Y21483574D01*
X25641844Y21316781D02*
X25641844Y20983194D01*
X25641844Y21269125D02*
X25618017Y21292953D01*
X25618017Y21292953D02*
X25570362Y21316781D01*
X25570362Y21316781D02*
X25498879Y21316781D01*
X25498879Y21316781D02*
X25451223Y21292953D01*
X25451223Y21292953D02*
X25427396Y21245298D01*
X25427396Y21245298D02*
X25427396Y20983194D01*
X25022326Y21245298D02*
X25189119Y21245298D01*
X25189119Y20983194D02*
X25189119Y21483574D01*
X25189119Y21483574D02*
X24950843Y21483574D01*
X25991396Y18300349D02*
X26015224Y18276522D01*
X26015224Y18276522D02*
X26086706Y18252694D01*
X26086706Y18252694D02*
X26134362Y18252694D01*
X26134362Y18252694D02*
X26205845Y18276522D01*
X26205845Y18276522D02*
X26253500Y18324177D01*
X26253500Y18324177D02*
X26277327Y18371832D01*
X26277327Y18371832D02*
X26301155Y18467142D01*
X26301155Y18467142D02*
X26301155Y18538625D01*
X26301155Y18538625D02*
X26277327Y18633936D01*
X26277327Y18633936D02*
X26253500Y18681591D01*
X26253500Y18681591D02*
X26205845Y18729246D01*
X26205845Y18729246D02*
X26134362Y18753074D01*
X26134362Y18753074D02*
X26086706Y18753074D01*
X26086706Y18753074D02*
X26015224Y18729246D01*
X26015224Y18729246D02*
X25991396Y18705419D01*
X25800775Y18705419D02*
X25776947Y18729246D01*
X25776947Y18729246D02*
X25729292Y18753074D01*
X25729292Y18753074D02*
X25610154Y18753074D01*
X25610154Y18753074D02*
X25562499Y18729246D01*
X25562499Y18729246D02*
X25538671Y18705419D01*
X25538671Y18705419D02*
X25514844Y18657763D01*
X25514844Y18657763D02*
X25514844Y18610108D01*
X25514844Y18610108D02*
X25538671Y18538625D01*
X25538671Y18538625D02*
X25824603Y18252694D01*
X25824603Y18252694D02*
X25514844Y18252694D01*
X26571121Y18951194D02*
X26857052Y18951194D01*
X26714086Y18951194D02*
X26714086Y19451574D01*
X26714086Y19451574D02*
X26761742Y19380091D01*
X26761742Y19380091D02*
X26809397Y19332436D01*
X26809397Y19332436D02*
X26857052Y19308608D01*
X26261362Y19451574D02*
X26213707Y19451574D01*
X26213707Y19451574D02*
X26166051Y19427746D01*
X26166051Y19427746D02*
X26142224Y19403919D01*
X26142224Y19403919D02*
X26118396Y19356263D01*
X26118396Y19356263D02*
X26094569Y19260953D01*
X26094569Y19260953D02*
X26094569Y19141815D01*
X26094569Y19141815D02*
X26118396Y19046504D01*
X26118396Y19046504D02*
X26142224Y18998849D01*
X26142224Y18998849D02*
X26166051Y18975022D01*
X26166051Y18975022D02*
X26213707Y18951194D01*
X26213707Y18951194D02*
X26261362Y18951194D01*
X26261362Y18951194D02*
X26309017Y18975022D01*
X26309017Y18975022D02*
X26332845Y18998849D01*
X26332845Y18998849D02*
X26356672Y19046504D01*
X26356672Y19046504D02*
X26380500Y19141815D01*
X26380500Y19141815D02*
X26380500Y19260953D01*
X26380500Y19260953D02*
X26356672Y19356263D01*
X26356672Y19356263D02*
X26332845Y19403919D01*
X26332845Y19403919D02*
X26309017Y19427746D01*
X26309017Y19427746D02*
X26261362Y19451574D01*
X25665672Y19284781D02*
X25665672Y18951194D01*
X25880120Y19284781D02*
X25880120Y19022677D01*
X25880120Y19022677D02*
X25856293Y18975022D01*
X25856293Y18975022D02*
X25808638Y18951194D01*
X25808638Y18951194D02*
X25737155Y18951194D01*
X25737155Y18951194D02*
X25689499Y18975022D01*
X25689499Y18975022D02*
X25665672Y18998849D01*
X25260602Y19213298D02*
X25427395Y19213298D01*
X25427395Y18951194D02*
X25427395Y19451574D01*
X25427395Y19451574D02*
X25189119Y19451574D01*
D11*
X15348856Y27250818D02*
X15348856Y28774818D01*
X15348856Y28774818D02*
X14985999Y28774818D01*
X14985999Y28774818D02*
X14768285Y28702247D01*
X14768285Y28702247D02*
X14623142Y28557104D01*
X14623142Y28557104D02*
X14550571Y28411961D01*
X14550571Y28411961D02*
X14477999Y28121675D01*
X14477999Y28121675D02*
X14477999Y27903961D01*
X14477999Y27903961D02*
X14550571Y27613675D01*
X14550571Y27613675D02*
X14623142Y27468532D01*
X14623142Y27468532D02*
X14768285Y27323390D01*
X14768285Y27323390D02*
X14985999Y27250818D01*
X14985999Y27250818D02*
X15348856Y27250818D01*
X13026571Y27250818D02*
X13897428Y27250818D01*
X13461999Y27250818D02*
X13461999Y28774818D01*
X13461999Y28774818D02*
X13607142Y28557104D01*
X13607142Y28557104D02*
X13752285Y28411961D01*
X13752285Y28411961D02*
X13897428Y28339390D01*
D12*
X16155911Y31803066D02*
X16155911Y32303446D01*
X15869980Y31803066D02*
X16084429Y32088997D01*
X15869980Y32303446D02*
X16155911Y32017514D01*
X12542277Y31946032D02*
X12304001Y31946032D01*
X12589932Y31803066D02*
X12423139Y32303446D01*
X12423139Y32303446D02*
X12256346Y31803066D01*
D11*
X28629181Y36684856D02*
X27105181Y36684856D01*
X27105181Y36684856D02*
X27105181Y36321999D01*
X27105181Y36321999D02*
X27177752Y36104285D01*
X27177752Y36104285D02*
X27322895Y35959142D01*
X27322895Y35959142D02*
X27468038Y35886571D01*
X27468038Y35886571D02*
X27758324Y35813999D01*
X27758324Y35813999D02*
X27976038Y35813999D01*
X27976038Y35813999D02*
X28266324Y35886571D01*
X28266324Y35886571D02*
X28411467Y35959142D01*
X28411467Y35959142D02*
X28556610Y36104285D01*
X28556610Y36104285D02*
X28629181Y36321999D01*
X28629181Y36321999D02*
X28629181Y36684856D01*
X27250324Y35233428D02*
X27177752Y35160856D01*
X27177752Y35160856D02*
X27105181Y35015714D01*
X27105181Y35015714D02*
X27105181Y34652856D01*
X27105181Y34652856D02*
X27177752Y34507714D01*
X27177752Y34507714D02*
X27250324Y34435142D01*
X27250324Y34435142D02*
X27395467Y34362571D01*
X27395467Y34362571D02*
X27540610Y34362571D01*
X27540610Y34362571D02*
X27758324Y34435142D01*
X27758324Y34435142D02*
X28629181Y35305999D01*
X28629181Y35305999D02*
X28629181Y34362571D01*
D12*
X29572767Y37479997D02*
X29572767Y37241721D01*
X29715733Y37527652D02*
X29215353Y37360859D01*
X29215353Y37360859D02*
X29715733Y37194066D01*
X29715733Y33890191D02*
X29215353Y33890191D01*
X29715733Y33604260D02*
X29429802Y33818709D01*
X29215353Y33604260D02*
X29501285Y33890191D01*
D10*
X27848305Y31071396D02*
X27610029Y31238189D01*
X27848305Y31357327D02*
X27347925Y31357327D01*
X27347925Y31357327D02*
X27347925Y31166706D01*
X27347925Y31166706D02*
X27371753Y31119051D01*
X27371753Y31119051D02*
X27395580Y31095224D01*
X27395580Y31095224D02*
X27443236Y31071396D01*
X27443236Y31071396D02*
X27514718Y31071396D01*
X27514718Y31071396D02*
X27562374Y31095224D01*
X27562374Y31095224D02*
X27586201Y31119051D01*
X27586201Y31119051D02*
X27610029Y31166706D01*
X27610029Y31166706D02*
X27610029Y31357327D01*
X27848305Y30594844D02*
X27848305Y30880775D01*
X27848305Y30737809D02*
X27347925Y30737809D01*
X27347925Y30737809D02*
X27419408Y30785465D01*
X27419408Y30785465D02*
X27467063Y30833120D01*
X27467063Y30833120D02*
X27490891Y30880775D01*
X28546805Y30968224D02*
X28546805Y31254155D01*
X28546805Y31111189D02*
X28046425Y31111189D01*
X28046425Y31111189D02*
X28117908Y31158845D01*
X28117908Y31158845D02*
X28165563Y31206500D01*
X28165563Y31206500D02*
X28189391Y31254155D01*
X28546805Y30753775D02*
X28046425Y30753775D01*
X28546805Y30467844D02*
X28260874Y30682293D01*
X28046425Y30467844D02*
X28332357Y30753775D01*
D13*
X20065904Y19331180D02*
X20065904Y18521657D01*
X20065904Y18521657D02*
X20018285Y18426419D01*
X20018285Y18426419D02*
X19970666Y18378800D01*
X19970666Y18378800D02*
X19875428Y18331180D01*
X19875428Y18331180D02*
X19684952Y18331180D01*
X19684952Y18331180D02*
X19589714Y18378800D01*
X19589714Y18378800D02*
X19542095Y18426419D01*
X19542095Y18426419D02*
X19494476Y18521657D01*
X19494476Y18521657D02*
X19494476Y19331180D01*
X18494476Y18331180D02*
X19065904Y18331180D01*
X18780190Y18331180D02*
X18780190Y19331180D01*
X18780190Y19331180D02*
X18875428Y19188323D01*
X18875428Y19188323D02*
X18970666Y19093085D01*
X18970666Y19093085D02*
X19065904Y19045466D01*
X14215328Y19907190D02*
X14691519Y19907190D01*
X13691519Y20240523D02*
X14215328Y19907190D01*
X14215328Y19907190D02*
X13691519Y19573857D01*
X14691519Y18716714D02*
X14691519Y19288142D01*
X14691519Y19002428D02*
X13691519Y19002428D01*
X13691519Y19002428D02*
X13834376Y19097666D01*
X13834376Y19097666D02*
X13929614Y19192904D01*
X13929614Y19192904D02*
X13977233Y19288142D01*
D10*
X18942896Y25999694D02*
X19109689Y26237970D01*
X19228827Y25999694D02*
X19228827Y26500074D01*
X19228827Y26500074D02*
X19038206Y26500074D01*
X19038206Y26500074D02*
X18990551Y26476246D01*
X18990551Y26476246D02*
X18966724Y26452419D01*
X18966724Y26452419D02*
X18942896Y26404763D01*
X18942896Y26404763D02*
X18942896Y26333281D01*
X18942896Y26333281D02*
X18966724Y26285625D01*
X18966724Y26285625D02*
X18990551Y26261798D01*
X18990551Y26261798D02*
X19038206Y26237970D01*
X19038206Y26237970D02*
X19228827Y26237970D01*
X18752275Y26452419D02*
X18728447Y26476246D01*
X18728447Y26476246D02*
X18680792Y26500074D01*
X18680792Y26500074D02*
X18561654Y26500074D01*
X18561654Y26500074D02*
X18513999Y26476246D01*
X18513999Y26476246D02*
X18490171Y26452419D01*
X18490171Y26452419D02*
X18466344Y26404763D01*
X18466344Y26404763D02*
X18466344Y26357108D01*
X18466344Y26357108D02*
X18490171Y26285625D01*
X18490171Y26285625D02*
X18776103Y25999694D01*
X18776103Y25999694D02*
X18466344Y25999694D01*
X19078000Y25301194D02*
X19363931Y25301194D01*
X19220965Y25301194D02*
X19220965Y25801574D01*
X19220965Y25801574D02*
X19268621Y25730091D01*
X19268621Y25730091D02*
X19316276Y25682436D01*
X19316276Y25682436D02*
X19363931Y25658608D01*
X18768241Y25801574D02*
X18720586Y25801574D01*
X18720586Y25801574D02*
X18672930Y25777746D01*
X18672930Y25777746D02*
X18649103Y25753919D01*
X18649103Y25753919D02*
X18625275Y25706263D01*
X18625275Y25706263D02*
X18601448Y25610953D01*
X18601448Y25610953D02*
X18601448Y25491815D01*
X18601448Y25491815D02*
X18625275Y25396504D01*
X18625275Y25396504D02*
X18649103Y25348849D01*
X18649103Y25348849D02*
X18672930Y25325022D01*
X18672930Y25325022D02*
X18720586Y25301194D01*
X18720586Y25301194D02*
X18768241Y25301194D01*
X18768241Y25301194D02*
X18815896Y25325022D01*
X18815896Y25325022D02*
X18839724Y25348849D01*
X18839724Y25348849D02*
X18863551Y25396504D01*
X18863551Y25396504D02*
X18887379Y25491815D01*
X18887379Y25491815D02*
X18887379Y25610953D01*
X18887379Y25610953D02*
X18863551Y25706263D01*
X18863551Y25706263D02*
X18839724Y25753919D01*
X18839724Y25753919D02*
X18815896Y25777746D01*
X18815896Y25777746D02*
X18768241Y25801574D01*
X18386999Y25301194D02*
X18386999Y25801574D01*
X18101068Y25301194D02*
X18315517Y25587125D01*
X18101068Y25801574D02*
X18386999Y25515642D01*
X22498896Y25364694D02*
X22665689Y25602970D01*
X22784827Y25364694D02*
X22784827Y25865074D01*
X22784827Y25865074D02*
X22594206Y25865074D01*
X22594206Y25865074D02*
X22546551Y25841246D01*
X22546551Y25841246D02*
X22522724Y25817419D01*
X22522724Y25817419D02*
X22498896Y25769763D01*
X22498896Y25769763D02*
X22498896Y25698281D01*
X22498896Y25698281D02*
X22522724Y25650625D01*
X22522724Y25650625D02*
X22546551Y25626798D01*
X22546551Y25626798D02*
X22594206Y25602970D01*
X22594206Y25602970D02*
X22784827Y25602970D01*
X22332103Y25865074D02*
X22022344Y25865074D01*
X22022344Y25865074D02*
X22189137Y25674453D01*
X22189137Y25674453D02*
X22117654Y25674453D01*
X22117654Y25674453D02*
X22069999Y25650625D01*
X22069999Y25650625D02*
X22046171Y25626798D01*
X22046171Y25626798D02*
X22022344Y25579142D01*
X22022344Y25579142D02*
X22022344Y25460004D01*
X22022344Y25460004D02*
X22046171Y25412349D01*
X22046171Y25412349D02*
X22069999Y25388522D01*
X22069999Y25388522D02*
X22117654Y25364694D01*
X22117654Y25364694D02*
X22260620Y25364694D01*
X22260620Y25364694D02*
X22308275Y25388522D01*
X22308275Y25388522D02*
X22332103Y25412349D01*
X22888000Y26063194D02*
X23173931Y26063194D01*
X23030965Y26063194D02*
X23030965Y26563574D01*
X23030965Y26563574D02*
X23078621Y26492091D01*
X23078621Y26492091D02*
X23126276Y26444436D01*
X23126276Y26444436D02*
X23173931Y26420608D01*
X22578241Y26563574D02*
X22530586Y26563574D01*
X22530586Y26563574D02*
X22482930Y26539746D01*
X22482930Y26539746D02*
X22459103Y26515919D01*
X22459103Y26515919D02*
X22435275Y26468263D01*
X22435275Y26468263D02*
X22411448Y26372953D01*
X22411448Y26372953D02*
X22411448Y26253815D01*
X22411448Y26253815D02*
X22435275Y26158504D01*
X22435275Y26158504D02*
X22459103Y26110849D01*
X22459103Y26110849D02*
X22482930Y26087022D01*
X22482930Y26087022D02*
X22530586Y26063194D01*
X22530586Y26063194D02*
X22578241Y26063194D01*
X22578241Y26063194D02*
X22625896Y26087022D01*
X22625896Y26087022D02*
X22649724Y26110849D01*
X22649724Y26110849D02*
X22673551Y26158504D01*
X22673551Y26158504D02*
X22697379Y26253815D01*
X22697379Y26253815D02*
X22697379Y26372953D01*
X22697379Y26372953D02*
X22673551Y26468263D01*
X22673551Y26468263D02*
X22649724Y26515919D01*
X22649724Y26515919D02*
X22625896Y26539746D01*
X22625896Y26539746D02*
X22578241Y26563574D01*
X22196999Y26063194D02*
X22196999Y26563574D01*
X21911068Y26063194D02*
X22125517Y26349125D01*
X21911068Y26563574D02*
X22196999Y26277642D01*
D13*
%TO.C,C1*%
X24384000Y21590000D02*
X24384000Y20066000D01*
X24384000Y20066000D02*
X25400000Y20066000D01*
X25400000Y21590000D02*
X24384000Y21590000D01*
X26416000Y20066000D02*
X27432000Y20066000D01*
X27432000Y21590000D02*
X26416000Y21590000D01*
X27432000Y20066000D02*
X27432000Y21590000D01*
X24384000Y21590000D02*
G75*
G03*
X24384000Y21590000I-127000J0D01*
G01*
%TO.C,C2*%
X24384000Y19558000D02*
X24384000Y18034000D01*
X24384000Y18034000D02*
X25400000Y18034000D01*
X25400000Y19558000D02*
X24384000Y19558000D01*
X26416000Y18034000D02*
X27432000Y18034000D01*
X27432000Y19558000D02*
X26416000Y19558000D01*
X27432000Y18034000D02*
X27432000Y19558000D01*
X24384000Y19558000D02*
G75*
G03*
X24384000Y19558000I-127000J0D01*
G01*
%TO.C,D1*%
X13873480Y31480760D02*
X14874240Y30480000D01*
X13873480Y29479240D02*
X13873480Y31480760D01*
X14874240Y30530800D02*
X13873480Y29479240D01*
X14874240Y29430980D02*
X14874240Y31529020D01*
%TO.C,R1*%
X28702000Y32512000D02*
X27178000Y32512000D01*
X27178000Y32512000D02*
X27178000Y31496000D01*
X28702000Y31496000D02*
X28702000Y32512000D01*
X27178000Y30480000D02*
X27178000Y29464000D01*
X28702000Y29464000D02*
X28702000Y30480000D01*
X27178000Y29464000D02*
X28702000Y29464000D01*
X28829000Y32639000D02*
G75*
G03*
X28829000Y32639000I-127000J0D01*
G01*
%TO.C,U1*%
X17679000Y22961000D02*
X17679000Y22686000D01*
X17679000Y22961000D02*
X20929000Y22961000D01*
X17679000Y19886000D02*
X16604000Y19886000D01*
X17679000Y19711000D02*
X17679000Y19886000D01*
X17679000Y19711000D02*
X20929000Y19711000D01*
X20929000Y22961000D02*
X20929000Y22686000D01*
X20929000Y19711000D02*
X20929000Y19986000D01*
X18554000Y20336000D02*
G75*
G03*
X18554000Y20336000I-250000J0D01*
G01*
%TO.C,Y1*%
X14974000Y17704000D02*
X13474000Y17704000D01*
X14974000Y17704000D02*
X14974000Y20904000D01*
X13474000Y20904000D02*
X13474000Y17704000D01*
X13474000Y20904000D02*
X14974000Y20904000D01*
%TO.C,R2*%
X20383500Y25146000D02*
X20383500Y26670000D01*
X20383500Y26670000D02*
X19367500Y26670000D01*
X19367500Y25146000D02*
X20383500Y25146000D01*
X18351500Y26670000D02*
X17335500Y26670000D01*
X17335500Y25146000D02*
X18351500Y25146000D01*
X17335500Y26670000D02*
X17335500Y25146000D01*
X20637500Y25146000D02*
G75*
G03*
X20637500Y25146000I-127000J0D01*
G01*
%TO.C,R3*%
X20891500Y26670000D02*
X20891500Y25146000D01*
X20891500Y25146000D02*
X21907500Y25146000D01*
X21907500Y26670000D02*
X20891500Y26670000D01*
X22923500Y25146000D02*
X23939500Y25146000D01*
X23939500Y26670000D02*
X22923500Y26670000D01*
X23939500Y25146000D02*
X23939500Y26670000D01*
X20891500Y26670000D02*
G75*
G03*
X20891500Y26670000I-127000J0D01*
G01*
%TD*%
D14*
%TO.C,D2*%
X27940000Y35560000D03*
%TD*%
M02*
