%TF.GenerationSoftware,KiCad,Pcbnew,7.0.7-7.0.7~ubuntu23.04.1*%
%TF.CreationDate,2023-09-17T09:32:36+00:00*%
%TF.ProjectId,RTC02,52544330-322e-46b6-9963-61645f706362,rev?*%
%TF.SameCoordinates,Original*%
%TF.FileFunction,Legend,Top*%
%TF.FilePolarity,Positive*%
%FSLAX46Y46*%
G04 Gerber Fmt 4.6, Leading zero omitted, Abs format (unit mm)*
G04 Created by KiCad (PCBNEW 7.0.7-7.0.7~ubuntu23.04.1) date 2023-09-17 09:32:36*
%MOMM*%
%LPD*%
G01*
G04 APERTURE LIST*
%ADD10C,0.300000*%
%ADD11C,0.150000*%
%ADD12C,0.050000*%
%ADD13C,0.203200*%
%ADD14C,0.127000*%
%ADD15R,1.524000X1.524000*%
%ADD16R,1.676400X1.676400*%
G04 APERTURE END LIST*
D10*
X5250328Y10787429D02*
X4536042Y10287429D01*
X5250328Y9930286D02*
X3750328Y9930286D01*
X3750328Y9930286D02*
X3750328Y10501715D01*
X3750328Y10501715D02*
X3821757Y10644572D01*
X3821757Y10644572D02*
X3893185Y10716001D01*
X3893185Y10716001D02*
X4036042Y10787429D01*
X4036042Y10787429D02*
X4250328Y10787429D01*
X4250328Y10787429D02*
X4393185Y10716001D01*
X4393185Y10716001D02*
X4464614Y10644572D01*
X4464614Y10644572D02*
X4536042Y10501715D01*
X4536042Y10501715D02*
X4536042Y9930286D01*
X3750328Y11216001D02*
X3750328Y12073144D01*
X5250328Y11644572D02*
X3750328Y11644572D01*
X5107471Y13430286D02*
X5178900Y13358858D01*
X5178900Y13358858D02*
X5250328Y13144572D01*
X5250328Y13144572D02*
X5250328Y13001715D01*
X5250328Y13001715D02*
X5178900Y12787429D01*
X5178900Y12787429D02*
X5036042Y12644572D01*
X5036042Y12644572D02*
X4893185Y12573143D01*
X4893185Y12573143D02*
X4607471Y12501715D01*
X4607471Y12501715D02*
X4393185Y12501715D01*
X4393185Y12501715D02*
X4107471Y12573143D01*
X4107471Y12573143D02*
X3964614Y12644572D01*
X3964614Y12644572D02*
X3821757Y12787429D01*
X3821757Y12787429D02*
X3750328Y13001715D01*
X3750328Y13001715D02*
X3750328Y13144572D01*
X3750328Y13144572D02*
X3821757Y13358858D01*
X3821757Y13358858D02*
X3893185Y13430286D01*
X3750328Y14358858D02*
X3750328Y14501715D01*
X3750328Y14501715D02*
X3821757Y14644572D01*
X3821757Y14644572D02*
X3893185Y14716001D01*
X3893185Y14716001D02*
X4036042Y14787429D01*
X4036042Y14787429D02*
X4321757Y14858858D01*
X4321757Y14858858D02*
X4678900Y14858858D01*
X4678900Y14858858D02*
X4964614Y14787429D01*
X4964614Y14787429D02*
X5107471Y14716001D01*
X5107471Y14716001D02*
X5178900Y14644572D01*
X5178900Y14644572D02*
X5250328Y14501715D01*
X5250328Y14501715D02*
X5250328Y14358858D01*
X5250328Y14358858D02*
X5178900Y14216001D01*
X5178900Y14216001D02*
X5107471Y14144572D01*
X5107471Y14144572D02*
X4964614Y14073143D01*
X4964614Y14073143D02*
X4678900Y14001715D01*
X4678900Y14001715D02*
X4321757Y14001715D01*
X4321757Y14001715D02*
X4036042Y14073143D01*
X4036042Y14073143D02*
X3893185Y14144572D01*
X3893185Y14144572D02*
X3821757Y14216001D01*
X3821757Y14216001D02*
X3750328Y14358858D01*
X3893185Y15430286D02*
X3821757Y15501714D01*
X3821757Y15501714D02*
X3750328Y15644572D01*
X3750328Y15644572D02*
X3750328Y16001714D01*
X3750328Y16001714D02*
X3821757Y16144572D01*
X3821757Y16144572D02*
X3893185Y16216000D01*
X3893185Y16216000D02*
X4036042Y16287429D01*
X4036042Y16287429D02*
X4178900Y16287429D01*
X4178900Y16287429D02*
X4393185Y16216000D01*
X4393185Y16216000D02*
X5250328Y15358857D01*
X5250328Y15358857D02*
X5250328Y16287429D01*
X4821757Y16858857D02*
X4821757Y17573143D01*
X5250328Y16716000D02*
X3750328Y17216000D01*
X3750328Y17216000D02*
X5250328Y17716000D01*
X18966328Y8888796D02*
X18966328Y8174510D01*
X18966328Y8174510D02*
X17466328Y8174510D01*
X18180614Y9388796D02*
X18180614Y9888796D01*
X18966328Y10103082D02*
X18966328Y9388796D01*
X18966328Y9388796D02*
X17466328Y9388796D01*
X17466328Y9388796D02*
X17466328Y10103082D01*
X18966328Y10745939D02*
X17466328Y10745939D01*
X17466328Y10745939D02*
X17466328Y11103082D01*
X17466328Y11103082D02*
X17537757Y11317368D01*
X17537757Y11317368D02*
X17680614Y11460225D01*
X17680614Y11460225D02*
X17823471Y11531654D01*
X17823471Y11531654D02*
X18109185Y11603082D01*
X18109185Y11603082D02*
X18323471Y11603082D01*
X18323471Y11603082D02*
X18609185Y11531654D01*
X18609185Y11531654D02*
X18752042Y11460225D01*
X18752042Y11460225D02*
X18894900Y11317368D01*
X18894900Y11317368D02*
X18966328Y11103082D01*
X18966328Y11103082D02*
X18966328Y10745939D01*
X37929185Y24860572D02*
X37857757Y24932000D01*
X37857757Y24932000D02*
X37786328Y25074858D01*
X37786328Y25074858D02*
X37786328Y25432000D01*
X37786328Y25432000D02*
X37857757Y25574858D01*
X37857757Y25574858D02*
X37929185Y25646286D01*
X37929185Y25646286D02*
X38072042Y25717715D01*
X38072042Y25717715D02*
X38214900Y25717715D01*
X38214900Y25717715D02*
X38429185Y25646286D01*
X38429185Y25646286D02*
X39286328Y24789143D01*
X39286328Y24789143D02*
X39286328Y25717715D01*
X37786328Y26646286D02*
X37786328Y26789143D01*
X37786328Y26789143D02*
X37857757Y26932000D01*
X37857757Y26932000D02*
X37929185Y27003429D01*
X37929185Y27003429D02*
X38072042Y27074857D01*
X38072042Y27074857D02*
X38357757Y27146286D01*
X38357757Y27146286D02*
X38714900Y27146286D01*
X38714900Y27146286D02*
X39000614Y27074857D01*
X39000614Y27074857D02*
X39143471Y27003429D01*
X39143471Y27003429D02*
X39214900Y26932000D01*
X39214900Y26932000D02*
X39286328Y26789143D01*
X39286328Y26789143D02*
X39286328Y26646286D01*
X39286328Y26646286D02*
X39214900Y26503429D01*
X39214900Y26503429D02*
X39143471Y26432000D01*
X39143471Y26432000D02*
X39000614Y26360571D01*
X39000614Y26360571D02*
X38714900Y26289143D01*
X38714900Y26289143D02*
X38357757Y26289143D01*
X38357757Y26289143D02*
X38072042Y26360571D01*
X38072042Y26360571D02*
X37929185Y26432000D01*
X37929185Y26432000D02*
X37857757Y26503429D01*
X37857757Y26503429D02*
X37786328Y26646286D01*
X39286328Y28574857D02*
X39286328Y27717714D01*
X39286328Y28146285D02*
X37786328Y28146285D01*
X37786328Y28146285D02*
X38000614Y28003428D01*
X38000614Y28003428D02*
X38143471Y27860571D01*
X38143471Y27860571D02*
X38214900Y27717714D01*
X37786328Y29860571D02*
X37786328Y29574856D01*
X37786328Y29574856D02*
X37857757Y29431999D01*
X37857757Y29431999D02*
X37929185Y29360571D01*
X37929185Y29360571D02*
X38143471Y29217713D01*
X38143471Y29217713D02*
X38429185Y29146285D01*
X38429185Y29146285D02*
X39000614Y29146285D01*
X39000614Y29146285D02*
X39143471Y29217713D01*
X39143471Y29217713D02*
X39214900Y29289142D01*
X39214900Y29289142D02*
X39286328Y29431999D01*
X39286328Y29431999D02*
X39286328Y29717713D01*
X39286328Y29717713D02*
X39214900Y29860571D01*
X39214900Y29860571D02*
X39143471Y29931999D01*
X39143471Y29931999D02*
X39000614Y30003428D01*
X39000614Y30003428D02*
X38643471Y30003428D01*
X38643471Y30003428D02*
X38500614Y29931999D01*
X38500614Y29931999D02*
X38429185Y29860571D01*
X38429185Y29860571D02*
X38357757Y29717713D01*
X38357757Y29717713D02*
X38357757Y29431999D01*
X38357757Y29431999D02*
X38429185Y29289142D01*
X38429185Y29289142D02*
X38500614Y29217713D01*
X38500614Y29217713D02*
X38643471Y29146285D01*
X16426328Y8174510D02*
X14926328Y8174510D01*
X16426328Y8888796D02*
X14926328Y8888796D01*
X14926328Y8888796D02*
X16426328Y9745939D01*
X16426328Y9745939D02*
X14926328Y9745939D01*
X14926328Y10245940D02*
X14926328Y11103083D01*
X16426328Y10674511D02*
X14926328Y10674511D01*
X15997757Y11531654D02*
X15997757Y12245940D01*
X16426328Y11388797D02*
X14926328Y11888797D01*
X14926328Y11888797D02*
X16426328Y12388797D01*
X2710328Y8886571D02*
X1210328Y8886571D01*
X1210328Y8886571D02*
X2281757Y9386571D01*
X2281757Y9386571D02*
X1210328Y9886571D01*
X1210328Y9886571D02*
X2710328Y9886571D01*
X2710328Y11315143D02*
X2710328Y10600857D01*
X2710328Y10600857D02*
X1210328Y10600857D01*
X2281757Y11743715D02*
X2281757Y12458001D01*
X2710328Y11600858D02*
X1210328Y12100858D01*
X1210328Y12100858D02*
X2710328Y12600858D01*
X1924614Y13600857D02*
X1996042Y13815143D01*
X1996042Y13815143D02*
X2067471Y13886572D01*
X2067471Y13886572D02*
X2210328Y13958000D01*
X2210328Y13958000D02*
X2424614Y13958000D01*
X2424614Y13958000D02*
X2567471Y13886572D01*
X2567471Y13886572D02*
X2638900Y13815143D01*
X2638900Y13815143D02*
X2710328Y13672286D01*
X2710328Y13672286D02*
X2710328Y13100857D01*
X2710328Y13100857D02*
X1210328Y13100857D01*
X1210328Y13100857D02*
X1210328Y13600857D01*
X1210328Y13600857D02*
X1281757Y13743715D01*
X1281757Y13743715D02*
X1353185Y13815143D01*
X1353185Y13815143D02*
X1496042Y13886572D01*
X1496042Y13886572D02*
X1638900Y13886572D01*
X1638900Y13886572D02*
X1781757Y13815143D01*
X1781757Y13815143D02*
X1853185Y13743715D01*
X1853185Y13743715D02*
X1924614Y13600857D01*
X1924614Y13600857D02*
X1924614Y13100857D01*
X2567471Y14600857D02*
X2638900Y14672286D01*
X2638900Y14672286D02*
X2710328Y14600857D01*
X2710328Y14600857D02*
X2638900Y14529429D01*
X2638900Y14529429D02*
X2567471Y14600857D01*
X2567471Y14600857D02*
X2710328Y14600857D01*
X2567471Y16172286D02*
X2638900Y16100858D01*
X2638900Y16100858D02*
X2710328Y15886572D01*
X2710328Y15886572D02*
X2710328Y15743715D01*
X2710328Y15743715D02*
X2638900Y15529429D01*
X2638900Y15529429D02*
X2496042Y15386572D01*
X2496042Y15386572D02*
X2353185Y15315143D01*
X2353185Y15315143D02*
X2067471Y15243715D01*
X2067471Y15243715D02*
X1853185Y15243715D01*
X1853185Y15243715D02*
X1567471Y15315143D01*
X1567471Y15315143D02*
X1424614Y15386572D01*
X1424614Y15386572D02*
X1281757Y15529429D01*
X1281757Y15529429D02*
X1210328Y15743715D01*
X1210328Y15743715D02*
X1210328Y15886572D01*
X1210328Y15886572D02*
X1281757Y16100858D01*
X1281757Y16100858D02*
X1353185Y16172286D01*
X1210328Y16672286D02*
X1210328Y17672286D01*
X1210328Y17672286D02*
X2710328Y16672286D01*
X2710328Y16672286D02*
X2710328Y17672286D01*
X14830900Y28965489D02*
X14902328Y29179775D01*
X14902328Y29179775D02*
X14902328Y29536917D01*
X14902328Y29536917D02*
X14830900Y29679775D01*
X14830900Y29679775D02*
X14759471Y29751203D01*
X14759471Y29751203D02*
X14616614Y29822632D01*
X14616614Y29822632D02*
X14473757Y29822632D01*
X14473757Y29822632D02*
X14330900Y29751203D01*
X14330900Y29751203D02*
X14259471Y29679775D01*
X14259471Y29679775D02*
X14188042Y29536917D01*
X14188042Y29536917D02*
X14116614Y29251203D01*
X14116614Y29251203D02*
X14045185Y29108346D01*
X14045185Y29108346D02*
X13973757Y29036917D01*
X13973757Y29036917D02*
X13830900Y28965489D01*
X13830900Y28965489D02*
X13688042Y28965489D01*
X13688042Y28965489D02*
X13545185Y29036917D01*
X13545185Y29036917D02*
X13473757Y29108346D01*
X13473757Y29108346D02*
X13402328Y29251203D01*
X13402328Y29251203D02*
X13402328Y29608346D01*
X13402328Y29608346D02*
X13473757Y29822632D01*
X14759471Y31322631D02*
X14830900Y31251203D01*
X14830900Y31251203D02*
X14902328Y31036917D01*
X14902328Y31036917D02*
X14902328Y30894060D01*
X14902328Y30894060D02*
X14830900Y30679774D01*
X14830900Y30679774D02*
X14688042Y30536917D01*
X14688042Y30536917D02*
X14545185Y30465488D01*
X14545185Y30465488D02*
X14259471Y30394060D01*
X14259471Y30394060D02*
X14045185Y30394060D01*
X14045185Y30394060D02*
X13759471Y30465488D01*
X13759471Y30465488D02*
X13616614Y30536917D01*
X13616614Y30536917D02*
X13473757Y30679774D01*
X13473757Y30679774D02*
X13402328Y30894060D01*
X13402328Y30894060D02*
X13402328Y31036917D01*
X13402328Y31036917D02*
X13473757Y31251203D01*
X13473757Y31251203D02*
X13545185Y31322631D01*
X14902328Y32679774D02*
X14902328Y31965488D01*
X14902328Y31965488D02*
X13402328Y31965488D01*
X20006328Y7960225D02*
X20006328Y8817368D01*
X21506328Y8388796D02*
X20006328Y8388796D01*
X21434900Y9245939D02*
X21506328Y9460225D01*
X21506328Y9460225D02*
X21506328Y9817367D01*
X21506328Y9817367D02*
X21434900Y9960225D01*
X21434900Y9960225D02*
X21363471Y10031653D01*
X21363471Y10031653D02*
X21220614Y10103082D01*
X21220614Y10103082D02*
X21077757Y10103082D01*
X21077757Y10103082D02*
X20934900Y10031653D01*
X20934900Y10031653D02*
X20863471Y9960225D01*
X20863471Y9960225D02*
X20792042Y9817367D01*
X20792042Y9817367D02*
X20720614Y9531653D01*
X20720614Y9531653D02*
X20649185Y9388796D01*
X20649185Y9388796D02*
X20577757Y9317367D01*
X20577757Y9317367D02*
X20434900Y9245939D01*
X20434900Y9245939D02*
X20292042Y9245939D01*
X20292042Y9245939D02*
X20149185Y9317367D01*
X20149185Y9317367D02*
X20077757Y9388796D01*
X20077757Y9388796D02*
X20006328Y9531653D01*
X20006328Y9531653D02*
X20006328Y9888796D01*
X20006328Y9888796D02*
X20077757Y10103082D01*
X13743471Y9031653D02*
X13814900Y8960225D01*
X13814900Y8960225D02*
X13886328Y8745939D01*
X13886328Y8745939D02*
X13886328Y8603082D01*
X13886328Y8603082D02*
X13814900Y8388796D01*
X13814900Y8388796D02*
X13672042Y8245939D01*
X13672042Y8245939D02*
X13529185Y8174510D01*
X13529185Y8174510D02*
X13243471Y8103082D01*
X13243471Y8103082D02*
X13029185Y8103082D01*
X13029185Y8103082D02*
X12743471Y8174510D01*
X12743471Y8174510D02*
X12600614Y8245939D01*
X12600614Y8245939D02*
X12457757Y8388796D01*
X12457757Y8388796D02*
X12386328Y8603082D01*
X12386328Y8603082D02*
X12386328Y8745939D01*
X12386328Y8745939D02*
X12457757Y8960225D01*
X12457757Y8960225D02*
X12529185Y9031653D01*
X13886328Y10388796D02*
X13886328Y9674510D01*
X13886328Y9674510D02*
X12386328Y9674510D01*
X13886328Y10888796D02*
X12386328Y10888796D01*
X13886328Y11745939D02*
X13029185Y11103082D01*
X12386328Y11745939D02*
X13243471Y10888796D01*
X15942328Y28679775D02*
X17442328Y29179775D01*
X17442328Y29179775D02*
X15942328Y29679775D01*
X17299471Y31036917D02*
X17370900Y30965489D01*
X17370900Y30965489D02*
X17442328Y30751203D01*
X17442328Y30751203D02*
X17442328Y30608346D01*
X17442328Y30608346D02*
X17370900Y30394060D01*
X17370900Y30394060D02*
X17228042Y30251203D01*
X17228042Y30251203D02*
X17085185Y30179774D01*
X17085185Y30179774D02*
X16799471Y30108346D01*
X16799471Y30108346D02*
X16585185Y30108346D01*
X16585185Y30108346D02*
X16299471Y30179774D01*
X16299471Y30179774D02*
X16156614Y30251203D01*
X16156614Y30251203D02*
X16013757Y30394060D01*
X16013757Y30394060D02*
X15942328Y30608346D01*
X15942328Y30608346D02*
X15942328Y30751203D01*
X15942328Y30751203D02*
X16013757Y30965489D01*
X16013757Y30965489D02*
X16085185Y31036917D01*
X17299471Y32536917D02*
X17370900Y32465489D01*
X17370900Y32465489D02*
X17442328Y32251203D01*
X17442328Y32251203D02*
X17442328Y32108346D01*
X17442328Y32108346D02*
X17370900Y31894060D01*
X17370900Y31894060D02*
X17228042Y31751203D01*
X17228042Y31751203D02*
X17085185Y31679774D01*
X17085185Y31679774D02*
X16799471Y31608346D01*
X16799471Y31608346D02*
X16585185Y31608346D01*
X16585185Y31608346D02*
X16299471Y31679774D01*
X16299471Y31679774D02*
X16156614Y31751203D01*
X16156614Y31751203D02*
X16013757Y31894060D01*
X16013757Y31894060D02*
X15942328Y32108346D01*
X15942328Y32108346D02*
X15942328Y32251203D01*
X15942328Y32251203D02*
X16013757Y32465489D01*
X16013757Y32465489D02*
X16085185Y32536917D01*
X19910900Y28894061D02*
X19982328Y29108347D01*
X19982328Y29108347D02*
X19982328Y29465489D01*
X19982328Y29465489D02*
X19910900Y29608347D01*
X19910900Y29608347D02*
X19839471Y29679775D01*
X19839471Y29679775D02*
X19696614Y29751204D01*
X19696614Y29751204D02*
X19553757Y29751204D01*
X19553757Y29751204D02*
X19410900Y29679775D01*
X19410900Y29679775D02*
X19339471Y29608347D01*
X19339471Y29608347D02*
X19268042Y29465489D01*
X19268042Y29465489D02*
X19196614Y29179775D01*
X19196614Y29179775D02*
X19125185Y29036918D01*
X19125185Y29036918D02*
X19053757Y28965489D01*
X19053757Y28965489D02*
X18910900Y28894061D01*
X18910900Y28894061D02*
X18768042Y28894061D01*
X18768042Y28894061D02*
X18625185Y28965489D01*
X18625185Y28965489D02*
X18553757Y29036918D01*
X18553757Y29036918D02*
X18482328Y29179775D01*
X18482328Y29179775D02*
X18482328Y29536918D01*
X18482328Y29536918D02*
X18553757Y29751204D01*
X19982328Y30394060D02*
X18482328Y30394060D01*
X18482328Y30394060D02*
X18482328Y30751203D01*
X18482328Y30751203D02*
X18553757Y30965489D01*
X18553757Y30965489D02*
X18696614Y31108346D01*
X18696614Y31108346D02*
X18839471Y31179775D01*
X18839471Y31179775D02*
X19125185Y31251203D01*
X19125185Y31251203D02*
X19339471Y31251203D01*
X19339471Y31251203D02*
X19625185Y31179775D01*
X19625185Y31179775D02*
X19768042Y31108346D01*
X19768042Y31108346D02*
X19910900Y30965489D01*
X19910900Y30965489D02*
X19982328Y30751203D01*
X19982328Y30751203D02*
X19982328Y30394060D01*
X19553757Y31822632D02*
X19553757Y32536918D01*
X19982328Y31679775D02*
X18482328Y32179775D01*
X18482328Y32179775D02*
X19982328Y32679775D01*
X35246328Y24682000D02*
X36317757Y24682000D01*
X36317757Y24682000D02*
X36532042Y24610571D01*
X36532042Y24610571D02*
X36674900Y24467714D01*
X36674900Y24467714D02*
X36746328Y24253428D01*
X36746328Y24253428D02*
X36746328Y24110571D01*
X36317757Y25324857D02*
X36317757Y26039143D01*
X36746328Y25182000D02*
X35246328Y25682000D01*
X35246328Y25682000D02*
X36746328Y26182000D01*
X36603471Y27539142D02*
X36674900Y27467714D01*
X36674900Y27467714D02*
X36746328Y27253428D01*
X36746328Y27253428D02*
X36746328Y27110571D01*
X36746328Y27110571D02*
X36674900Y26896285D01*
X36674900Y26896285D02*
X36532042Y26753428D01*
X36532042Y26753428D02*
X36389185Y26681999D01*
X36389185Y26681999D02*
X36103471Y26610571D01*
X36103471Y26610571D02*
X35889185Y26610571D01*
X35889185Y26610571D02*
X35603471Y26681999D01*
X35603471Y26681999D02*
X35460614Y26753428D01*
X35460614Y26753428D02*
X35317757Y26896285D01*
X35317757Y26896285D02*
X35246328Y27110571D01*
X35246328Y27110571D02*
X35246328Y27253428D01*
X35246328Y27253428D02*
X35317757Y27467714D01*
X35317757Y27467714D02*
X35389185Y27539142D01*
X36746328Y28181999D02*
X35246328Y28181999D01*
X35960614Y28181999D02*
X35960614Y29039142D01*
X36746328Y29039142D02*
X35246328Y29039142D01*
X35246328Y30039143D02*
X35246328Y30324857D01*
X35246328Y30324857D02*
X35317757Y30467714D01*
X35317757Y30467714D02*
X35460614Y30610571D01*
X35460614Y30610571D02*
X35746328Y30682000D01*
X35746328Y30682000D02*
X36246328Y30682000D01*
X36246328Y30682000D02*
X36532042Y30610571D01*
X36532042Y30610571D02*
X36674900Y30467714D01*
X36674900Y30467714D02*
X36746328Y30324857D01*
X36746328Y30324857D02*
X36746328Y30039143D01*
X36746328Y30039143D02*
X36674900Y29896286D01*
X36674900Y29896286D02*
X36532042Y29753428D01*
X36532042Y29753428D02*
X36246328Y29682000D01*
X36246328Y29682000D02*
X35746328Y29682000D01*
X35746328Y29682000D02*
X35460614Y29753428D01*
X35460614Y29753428D02*
X35317757Y29896286D01*
X35317757Y29896286D02*
X35246328Y30039143D01*
X9917757Y8960225D02*
X9846328Y8817368D01*
X9846328Y8817368D02*
X9846328Y8603082D01*
X9846328Y8603082D02*
X9917757Y8388796D01*
X9917757Y8388796D02*
X10060614Y8245939D01*
X10060614Y8245939D02*
X10203471Y8174510D01*
X10203471Y8174510D02*
X10489185Y8103082D01*
X10489185Y8103082D02*
X10703471Y8103082D01*
X10703471Y8103082D02*
X10989185Y8174510D01*
X10989185Y8174510D02*
X11132042Y8245939D01*
X11132042Y8245939D02*
X11274900Y8388796D01*
X11274900Y8388796D02*
X11346328Y8603082D01*
X11346328Y8603082D02*
X11346328Y8745939D01*
X11346328Y8745939D02*
X11274900Y8960225D01*
X11274900Y8960225D02*
X11203471Y9031653D01*
X11203471Y9031653D02*
X10703471Y9031653D01*
X10703471Y9031653D02*
X10703471Y8745939D01*
X11346328Y9674510D02*
X9846328Y9674510D01*
X9846328Y9674510D02*
X11346328Y10531653D01*
X11346328Y10531653D02*
X9846328Y10531653D01*
X11346328Y11245939D02*
X9846328Y11245939D01*
X9846328Y11245939D02*
X9846328Y11603082D01*
X9846328Y11603082D02*
X9917757Y11817368D01*
X9917757Y11817368D02*
X10060614Y11960225D01*
X10060614Y11960225D02*
X10203471Y12031654D01*
X10203471Y12031654D02*
X10489185Y12103082D01*
X10489185Y12103082D02*
X10703471Y12103082D01*
X10703471Y12103082D02*
X10989185Y12031654D01*
X10989185Y12031654D02*
X11132042Y11960225D01*
X11132042Y11960225D02*
X11274900Y11817368D01*
X11274900Y11817368D02*
X11346328Y11603082D01*
X11346328Y11603082D02*
X11346328Y11245939D01*
X10933757Y29394060D02*
X10862328Y29251203D01*
X10862328Y29251203D02*
X10862328Y29036917D01*
X10862328Y29036917D02*
X10933757Y28822631D01*
X10933757Y28822631D02*
X11076614Y28679774D01*
X11076614Y28679774D02*
X11219471Y28608345D01*
X11219471Y28608345D02*
X11505185Y28536917D01*
X11505185Y28536917D02*
X11719471Y28536917D01*
X11719471Y28536917D02*
X12005185Y28608345D01*
X12005185Y28608345D02*
X12148042Y28679774D01*
X12148042Y28679774D02*
X12290900Y28822631D01*
X12290900Y28822631D02*
X12362328Y29036917D01*
X12362328Y29036917D02*
X12362328Y29179774D01*
X12362328Y29179774D02*
X12290900Y29394060D01*
X12290900Y29394060D02*
X12219471Y29465488D01*
X12219471Y29465488D02*
X11719471Y29465488D01*
X11719471Y29465488D02*
X11719471Y29179774D01*
X12362328Y30108345D02*
X10862328Y30108345D01*
X10862328Y30108345D02*
X12362328Y30965488D01*
X12362328Y30965488D02*
X10862328Y30965488D01*
X12362328Y31679774D02*
X10862328Y31679774D01*
X10862328Y31679774D02*
X10862328Y32036917D01*
X10862328Y32036917D02*
X10933757Y32251203D01*
X10933757Y32251203D02*
X11076614Y32394060D01*
X11076614Y32394060D02*
X11219471Y32465489D01*
X11219471Y32465489D02*
X11505185Y32536917D01*
X11505185Y32536917D02*
X11719471Y32536917D01*
X11719471Y32536917D02*
X12005185Y32465489D01*
X12005185Y32465489D02*
X12148042Y32394060D01*
X12148042Y32394060D02*
X12290900Y32251203D01*
X12290900Y32251203D02*
X12362328Y32036917D01*
X12362328Y32036917D02*
X12362328Y31679774D01*
X21093757Y29394060D02*
X21022328Y29251203D01*
X21022328Y29251203D02*
X21022328Y29036917D01*
X21022328Y29036917D02*
X21093757Y28822631D01*
X21093757Y28822631D02*
X21236614Y28679774D01*
X21236614Y28679774D02*
X21379471Y28608345D01*
X21379471Y28608345D02*
X21665185Y28536917D01*
X21665185Y28536917D02*
X21879471Y28536917D01*
X21879471Y28536917D02*
X22165185Y28608345D01*
X22165185Y28608345D02*
X22308042Y28679774D01*
X22308042Y28679774D02*
X22450900Y28822631D01*
X22450900Y28822631D02*
X22522328Y29036917D01*
X22522328Y29036917D02*
X22522328Y29179774D01*
X22522328Y29179774D02*
X22450900Y29394060D01*
X22450900Y29394060D02*
X22379471Y29465488D01*
X22379471Y29465488D02*
X21879471Y29465488D01*
X21879471Y29465488D02*
X21879471Y29179774D01*
X22522328Y30108345D02*
X21022328Y30108345D01*
X21022328Y30108345D02*
X22522328Y30965488D01*
X22522328Y30965488D02*
X21022328Y30965488D01*
X22522328Y31679774D02*
X21022328Y31679774D01*
X21022328Y31679774D02*
X21022328Y32036917D01*
X21022328Y32036917D02*
X21093757Y32251203D01*
X21093757Y32251203D02*
X21236614Y32394060D01*
X21236614Y32394060D02*
X21379471Y32465489D01*
X21379471Y32465489D02*
X21665185Y32536917D01*
X21665185Y32536917D02*
X21879471Y32536917D01*
X21879471Y32536917D02*
X22165185Y32465489D01*
X22165185Y32465489D02*
X22308042Y32394060D01*
X22308042Y32394060D02*
X22450900Y32251203D01*
X22450900Y32251203D02*
X22522328Y32036917D01*
X22522328Y32036917D02*
X22522328Y31679774D01*
D11*
X19534285Y19888990D02*
X19677142Y19841371D01*
X19677142Y19841371D02*
X19724761Y19793752D01*
X19724761Y19793752D02*
X19772380Y19698514D01*
X19772380Y19698514D02*
X19772380Y19555657D01*
X19772380Y19555657D02*
X19724761Y19460419D01*
X19724761Y19460419D02*
X19677142Y19412800D01*
X19677142Y19412800D02*
X19581904Y19365180D01*
X19581904Y19365180D02*
X19200952Y19365180D01*
X19200952Y19365180D02*
X19200952Y20365180D01*
X19200952Y20365180D02*
X19534285Y20365180D01*
X19534285Y20365180D02*
X19629523Y20317561D01*
X19629523Y20317561D02*
X19677142Y20269942D01*
X19677142Y20269942D02*
X19724761Y20174704D01*
X19724761Y20174704D02*
X19724761Y20079466D01*
X19724761Y20079466D02*
X19677142Y19984228D01*
X19677142Y19984228D02*
X19629523Y19936609D01*
X19629523Y19936609D02*
X19534285Y19888990D01*
X19534285Y19888990D02*
X19200952Y19888990D01*
X20058095Y20365180D02*
X20629523Y20365180D01*
X20343809Y19365180D02*
X20343809Y20365180D01*
X21486666Y19365180D02*
X20915238Y19365180D01*
X21200952Y19365180D02*
X21200952Y20365180D01*
X21200952Y20365180D02*
X21105714Y20222323D01*
X21105714Y20222323D02*
X21010476Y20127085D01*
X21010476Y20127085D02*
X20915238Y20079466D01*
X9118695Y20316866D02*
X10642505Y20316866D01*
X9880600Y19554961D02*
X9880600Y21078771D01*
D12*
X22072709Y38877857D02*
X22072709Y38592143D01*
X22072709Y38735000D02*
X21572709Y38735000D01*
X21572709Y38735000D02*
X21644138Y38687381D01*
X21644138Y38687381D02*
X21691757Y38639762D01*
X21691757Y38639762D02*
X21715566Y38592143D01*
D13*
X27843073Y5757333D02*
X27891453Y5902476D01*
X27891453Y5902476D02*
X27891453Y6144381D01*
X27891453Y6144381D02*
X27843073Y6241143D01*
X27843073Y6241143D02*
X27794692Y6289524D01*
X27794692Y6289524D02*
X27697930Y6337905D01*
X27697930Y6337905D02*
X27601168Y6337905D01*
X27601168Y6337905D02*
X27504406Y6289524D01*
X27504406Y6289524D02*
X27456025Y6241143D01*
X27456025Y6241143D02*
X27407644Y6144381D01*
X27407644Y6144381D02*
X27359263Y5950857D01*
X27359263Y5950857D02*
X27310882Y5854095D01*
X27310882Y5854095D02*
X27262501Y5805714D01*
X27262501Y5805714D02*
X27165739Y5757333D01*
X27165739Y5757333D02*
X27068977Y5757333D01*
X27068977Y5757333D02*
X26972215Y5805714D01*
X26972215Y5805714D02*
X26923834Y5854095D01*
X26923834Y5854095D02*
X26875453Y5950857D01*
X26875453Y5950857D02*
X26875453Y6192762D01*
X26875453Y6192762D02*
X26923834Y6337905D01*
X26875453Y6676571D02*
X27891453Y6918476D01*
X27891453Y6918476D02*
X27165739Y7112000D01*
X27165739Y7112000D02*
X27891453Y7305524D01*
X27891453Y7305524D02*
X26875453Y7547429D01*
X27891453Y8466667D02*
X27891453Y7886095D01*
X27891453Y8176381D02*
X26875453Y8176381D01*
X26875453Y8176381D02*
X27020596Y8079619D01*
X27020596Y8079619D02*
X27117358Y7982857D01*
X27117358Y7982857D02*
X27165739Y7886095D01*
D11*
%TO.C,BT1*%
X6320000Y28320000D02*
X34320000Y28320000D01*
X6320000Y12320000D02*
X6320000Y28320000D01*
X34320000Y28320000D02*
X34320000Y12320000D01*
X34320000Y12320000D02*
X6320000Y12320000D01*
%TO.C,J1*%
X23114000Y38354000D02*
X23114000Y33274000D01*
X10414000Y38354000D02*
X23114000Y38354000D01*
X23114000Y33274000D02*
X10414000Y33274000D01*
X10414000Y33274000D02*
X10414000Y38354000D01*
%TO.C,J2*%
X17018000Y2032000D02*
X17018000Y7112000D01*
X19558000Y2032000D02*
X17018000Y2032000D01*
X17018000Y7112000D02*
X19558000Y7112000D01*
X19558000Y7112000D02*
X19558000Y2032000D01*
%TO.C,J3*%
X14478000Y2032000D02*
X14478000Y7112000D01*
X17018000Y2032000D02*
X14478000Y2032000D01*
X14478000Y7112000D02*
X17018000Y7112000D01*
X17018000Y7112000D02*
X17018000Y2032000D01*
%TO.C,J4*%
X11938000Y2032000D02*
X11938000Y7112000D01*
X14478000Y2032000D02*
X11938000Y2032000D01*
X11938000Y7112000D02*
X14478000Y7112000D01*
X14478000Y7112000D02*
X14478000Y2032000D01*
%TO.C,J5*%
X19558000Y2032000D02*
X19558000Y7112000D01*
X22098000Y2032000D02*
X19558000Y2032000D01*
X19558000Y7112000D02*
X22098000Y7112000D01*
X22098000Y7112000D02*
X22098000Y2032000D01*
D14*
%TO.C,SW1*%
X23622000Y3302000D02*
X31242000Y3302000D01*
X23622000Y3302000D02*
X23622000Y10922000D01*
X23622000Y10922000D02*
X31242000Y10922000D01*
X31242000Y10922000D02*
X31242000Y3302000D01*
X29972000Y7112000D02*
G75*
G03*
X29972000Y7112000I-2540000J0D01*
G01*
D11*
%TO.C,J6*%
X9398000Y2032000D02*
X9398000Y7112000D01*
X11938000Y2032000D02*
X9398000Y2032000D01*
X9398000Y7112000D02*
X11938000Y7112000D01*
X11938000Y7112000D02*
X11938000Y2032000D01*
%TD*%
D15*
%TO.C,J1*%
X21844000Y37084000D03*
X21844000Y34544000D03*
X19304000Y37084000D03*
X19304000Y34544000D03*
X16764000Y37084000D03*
X16764000Y34544000D03*
X14224000Y37084000D03*
X14224000Y34544000D03*
X11684000Y37084000D03*
X11684000Y34544000D03*
%TD*%
%TO.C,J2*%
X18288000Y3302000D03*
X18288000Y5842000D03*
%TD*%
%TO.C,J3*%
X15748000Y3302000D03*
X15748000Y5842000D03*
%TD*%
%TO.C,J4*%
X13208000Y3302000D03*
X13208000Y5842000D03*
%TD*%
%TO.C,J5*%
X20828000Y3302000D03*
X20828000Y5842000D03*
%TD*%
D16*
%TO.C,SW1*%
X25182000Y3962000D03*
X25182000Y10262000D03*
X29682000Y3962000D03*
X29682000Y10262000D03*
%TD*%
D15*
%TO.C,J6*%
X10668000Y3302000D03*
X10668000Y5842000D03*
%TD*%
M02*
